G04 #@! TF.GenerationSoftware,KiCad,Pcbnew,5.1.2-f72e74a~84~ubuntu18.04.1*
G04 #@! TF.CreationDate,2019-06-08T15:54:07-04:00*
G04 #@! TF.ProjectId,8-key-top-plate-1.2,382d6b65-792d-4746-9f70-2d706c617465,rev?*
G04 #@! TF.SameCoordinates,Original*
G04 #@! TF.FileFunction,Legend,Top*
G04 #@! TF.FilePolarity,Positive*
%FSLAX46Y46*%
G04 Gerber Fmt 4.6, Leading zero omitted, Abs format (unit mm)*
G04 Created by KiCad (PCBNEW 5.1.2-f72e74a~84~ubuntu18.04.1) date 2019-06-08 15:54:07*
%MOMM*%
%LPD*%
G04 APERTURE LIST*
%ADD10C,0.300000*%
%ADD11C,0.200000*%
%ADD12C,0.100000*%
%ADD13C,0.120000*%
%ADD14C,0.150000*%
G04 APERTURE END LIST*
D10*
X141642857Y-115332142D02*
X141857142Y-115403571D01*
X142214285Y-115403571D01*
X142357142Y-115332142D01*
X142428571Y-115260714D01*
X142500000Y-115117857D01*
X142500000Y-114975000D01*
X142428571Y-114832142D01*
X142357142Y-114760714D01*
X142214285Y-114689285D01*
X141928571Y-114617857D01*
X141785714Y-114546428D01*
X141714285Y-114475000D01*
X141642857Y-114332142D01*
X141642857Y-114189285D01*
X141714285Y-114046428D01*
X141785714Y-113975000D01*
X141928571Y-113903571D01*
X142285714Y-113903571D01*
X142500000Y-113975000D01*
X142928571Y-114403571D02*
X143500000Y-114403571D01*
X143142857Y-113903571D02*
X143142857Y-115189285D01*
X143214285Y-115332142D01*
X143357142Y-115403571D01*
X143500000Y-115403571D01*
X144000000Y-115403571D02*
X144000000Y-114403571D01*
X144000000Y-114689285D02*
X144071428Y-114546428D01*
X144142857Y-114475000D01*
X144285714Y-114403571D01*
X144428571Y-114403571D01*
X144928571Y-115403571D02*
X144928571Y-114403571D01*
X144928571Y-113903571D02*
X144857142Y-113975000D01*
X144928571Y-114046428D01*
X145000000Y-113975000D01*
X144928571Y-113903571D01*
X144928571Y-114046428D01*
X145642857Y-114403571D02*
X145642857Y-115903571D01*
X145642857Y-114475000D02*
X145785714Y-114403571D01*
X146071428Y-114403571D01*
X146214285Y-114475000D01*
X146285714Y-114546428D01*
X146357142Y-114689285D01*
X146357142Y-115117857D01*
X146285714Y-115260714D01*
X146214285Y-115332142D01*
X146071428Y-115403571D01*
X145785714Y-115403571D01*
X145642857Y-115332142D01*
X141535714Y-117953571D02*
X141535714Y-116453571D01*
X142250000Y-116953571D02*
X142250000Y-117953571D01*
X142250000Y-117096428D02*
X142321428Y-117025000D01*
X142464285Y-116953571D01*
X142678571Y-116953571D01*
X142821428Y-117025000D01*
X142892857Y-117167857D01*
X142892857Y-117953571D01*
X143607142Y-116953571D02*
X143607142Y-118453571D01*
X143607142Y-117025000D02*
X143750000Y-116953571D01*
X144035714Y-116953571D01*
X144178571Y-117025000D01*
X144250000Y-117096428D01*
X144321428Y-117239285D01*
X144321428Y-117667857D01*
X144250000Y-117810714D01*
X144178571Y-117882142D01*
X144035714Y-117953571D01*
X143750000Y-117953571D01*
X143607142Y-117882142D01*
X145607142Y-116953571D02*
X145607142Y-117953571D01*
X144964285Y-116953571D02*
X144964285Y-117739285D01*
X145035714Y-117882142D01*
X145178571Y-117953571D01*
X145392857Y-117953571D01*
X145535714Y-117882142D01*
X145607142Y-117810714D01*
X146107142Y-116953571D02*
X146678571Y-116953571D01*
X146321428Y-116453571D02*
X146321428Y-117739285D01*
X146392857Y-117882142D01*
X146535714Y-117953571D01*
X146678571Y-117953571D01*
D11*
X191000000Y-76500000D02*
X191000000Y-73500000D01*
X191000000Y-73500000D02*
X174500000Y-73500000D01*
X174500000Y-73500000D02*
X174500000Y-72500000D01*
X191000000Y-76500000D02*
X174500000Y-76500000D01*
X174500000Y-76500000D02*
X174500000Y-77500000D01*
X174500000Y-77500000D02*
X172500000Y-75000000D01*
D10*
X190428571Y-74392857D02*
X190214285Y-74321428D01*
X189857142Y-74321428D01*
X189714285Y-74392857D01*
X189642857Y-74464285D01*
X189571428Y-74607142D01*
X189571428Y-74750000D01*
X189642857Y-74892857D01*
X189714285Y-74964285D01*
X189857142Y-75035714D01*
X190142857Y-75107142D01*
X190285714Y-75178571D01*
X190357142Y-75250000D01*
X190428571Y-75392857D01*
X190428571Y-75535714D01*
X190357142Y-75678571D01*
X190285714Y-75750000D01*
X190142857Y-75821428D01*
X189785714Y-75821428D01*
X189571428Y-75750000D01*
X189142857Y-75321428D02*
X188571428Y-75321428D01*
X188928571Y-75821428D02*
X188928571Y-74535714D01*
X188857142Y-74392857D01*
X188714285Y-74321428D01*
X188571428Y-74321428D01*
X188071428Y-74321428D02*
X188071428Y-75321428D01*
X188071428Y-75035714D02*
X188000000Y-75178571D01*
X187928571Y-75250000D01*
X187785714Y-75321428D01*
X187642857Y-75321428D01*
X187142857Y-74321428D02*
X187142857Y-75321428D01*
X187142857Y-75821428D02*
X187214285Y-75750000D01*
X187142857Y-75678571D01*
X187071428Y-75750000D01*
X187142857Y-75821428D01*
X187142857Y-75678571D01*
X186428571Y-75321428D02*
X186428571Y-73821428D01*
X186428571Y-75250000D02*
X186285714Y-75321428D01*
X186000000Y-75321428D01*
X185857142Y-75250000D01*
X185785714Y-75178571D01*
X185714285Y-75035714D01*
X185714285Y-74607142D01*
X185785714Y-74464285D01*
X185857142Y-74392857D01*
X186000000Y-74321428D01*
X186285714Y-74321428D01*
X186428571Y-74392857D01*
X183928571Y-74321428D02*
X183928571Y-75821428D01*
X183571428Y-75821428D01*
X183357142Y-75750000D01*
X183214285Y-75607142D01*
X183142857Y-75464285D01*
X183071428Y-75178571D01*
X183071428Y-74964285D01*
X183142857Y-74678571D01*
X183214285Y-74535714D01*
X183357142Y-74392857D01*
X183571428Y-74321428D01*
X183928571Y-74321428D01*
X182428571Y-74321428D02*
X182428571Y-75321428D01*
X182428571Y-75821428D02*
X182500000Y-75750000D01*
X182428571Y-75678571D01*
X182357142Y-75750000D01*
X182428571Y-75821428D01*
X182428571Y-75678571D01*
X181714285Y-74321428D02*
X181714285Y-75321428D01*
X181714285Y-75035714D02*
X181642857Y-75178571D01*
X181571428Y-75250000D01*
X181428571Y-75321428D01*
X181285714Y-75321428D01*
X180214285Y-74392857D02*
X180357142Y-74321428D01*
X180642857Y-74321428D01*
X180785714Y-74392857D01*
X180857142Y-74535714D01*
X180857142Y-75107142D01*
X180785714Y-75250000D01*
X180642857Y-75321428D01*
X180357142Y-75321428D01*
X180214285Y-75250000D01*
X180142857Y-75107142D01*
X180142857Y-74964285D01*
X180857142Y-74821428D01*
X178857142Y-74392857D02*
X179000000Y-74321428D01*
X179285714Y-74321428D01*
X179428571Y-74392857D01*
X179500000Y-74464285D01*
X179571428Y-74607142D01*
X179571428Y-75035714D01*
X179500000Y-75178571D01*
X179428571Y-75250000D01*
X179285714Y-75321428D01*
X179000000Y-75321428D01*
X178857142Y-75250000D01*
X178428571Y-75321428D02*
X177857142Y-75321428D01*
X178214285Y-75821428D02*
X178214285Y-74535714D01*
X178142857Y-74392857D01*
X178000000Y-74321428D01*
X177857142Y-74321428D01*
X177357142Y-74321428D02*
X177357142Y-75321428D01*
X177357142Y-75821428D02*
X177428571Y-75750000D01*
X177357142Y-75678571D01*
X177285714Y-75750000D01*
X177357142Y-75821428D01*
X177357142Y-75678571D01*
X176428571Y-74321428D02*
X176571428Y-74392857D01*
X176642857Y-74464285D01*
X176714285Y-74607142D01*
X176714285Y-75035714D01*
X176642857Y-75178571D01*
X176571428Y-75250000D01*
X176428571Y-75321428D01*
X176214285Y-75321428D01*
X176071428Y-75250000D01*
X176000000Y-75178571D01*
X175928571Y-75035714D01*
X175928571Y-74607142D01*
X176000000Y-74464285D01*
X176071428Y-74392857D01*
X176214285Y-74321428D01*
X176428571Y-74321428D01*
X175285714Y-75321428D02*
X175285714Y-74321428D01*
X175285714Y-75178571D02*
X175214285Y-75250000D01*
X175071428Y-75321428D01*
X174857142Y-75321428D01*
X174714285Y-75250000D01*
X174642857Y-75107142D01*
X174642857Y-74321428D01*
D11*
X172500000Y-75000000D02*
X174500000Y-72500000D01*
X193500000Y-120000000D02*
X191500000Y-122500000D01*
X191500000Y-117500000D02*
X193500000Y-120000000D01*
X191500000Y-118500000D02*
X191500000Y-117500000D01*
X175000000Y-118500000D02*
X191500000Y-118500000D01*
X191500000Y-121500000D02*
X191500000Y-122500000D01*
X175000000Y-121500000D02*
X191500000Y-121500000D01*
X175000000Y-118500000D02*
X175000000Y-121500000D01*
D10*
X175571428Y-120607142D02*
X175785714Y-120678571D01*
X176142857Y-120678571D01*
X176285714Y-120607142D01*
X176357142Y-120535714D01*
X176428571Y-120392857D01*
X176428571Y-120250000D01*
X176357142Y-120107142D01*
X176285714Y-120035714D01*
X176142857Y-119964285D01*
X175857142Y-119892857D01*
X175714285Y-119821428D01*
X175642857Y-119750000D01*
X175571428Y-119607142D01*
X175571428Y-119464285D01*
X175642857Y-119321428D01*
X175714285Y-119250000D01*
X175857142Y-119178571D01*
X176214285Y-119178571D01*
X176428571Y-119250000D01*
X176857142Y-119678571D02*
X177428571Y-119678571D01*
X177071428Y-119178571D02*
X177071428Y-120464285D01*
X177142857Y-120607142D01*
X177285714Y-120678571D01*
X177428571Y-120678571D01*
X177928571Y-120678571D02*
X177928571Y-119678571D01*
X177928571Y-119964285D02*
X178000000Y-119821428D01*
X178071428Y-119750000D01*
X178214285Y-119678571D01*
X178357142Y-119678571D01*
X178857142Y-120678571D02*
X178857142Y-119678571D01*
X178857142Y-119178571D02*
X178785714Y-119250000D01*
X178857142Y-119321428D01*
X178928571Y-119250000D01*
X178857142Y-119178571D01*
X178857142Y-119321428D01*
X179571428Y-119678571D02*
X179571428Y-121178571D01*
X179571428Y-119750000D02*
X179714285Y-119678571D01*
X180000000Y-119678571D01*
X180142857Y-119750000D01*
X180214285Y-119821428D01*
X180285714Y-119964285D01*
X180285714Y-120392857D01*
X180214285Y-120535714D01*
X180142857Y-120607142D01*
X180000000Y-120678571D01*
X179714285Y-120678571D01*
X179571428Y-120607142D01*
X182071428Y-120678571D02*
X182071428Y-119178571D01*
X182428571Y-119178571D01*
X182642857Y-119250000D01*
X182785714Y-119392857D01*
X182857142Y-119535714D01*
X182928571Y-119821428D01*
X182928571Y-120035714D01*
X182857142Y-120321428D01*
X182785714Y-120464285D01*
X182642857Y-120607142D01*
X182428571Y-120678571D01*
X182071428Y-120678571D01*
X183571428Y-120678571D02*
X183571428Y-119678571D01*
X183571428Y-119178571D02*
X183500000Y-119250000D01*
X183571428Y-119321428D01*
X183642857Y-119250000D01*
X183571428Y-119178571D01*
X183571428Y-119321428D01*
X184285714Y-120678571D02*
X184285714Y-119678571D01*
X184285714Y-119964285D02*
X184357142Y-119821428D01*
X184428571Y-119750000D01*
X184571428Y-119678571D01*
X184714285Y-119678571D01*
X185785714Y-120607142D02*
X185642857Y-120678571D01*
X185357142Y-120678571D01*
X185214285Y-120607142D01*
X185142857Y-120464285D01*
X185142857Y-119892857D01*
X185214285Y-119750000D01*
X185357142Y-119678571D01*
X185642857Y-119678571D01*
X185785714Y-119750000D01*
X185857142Y-119892857D01*
X185857142Y-120035714D01*
X185142857Y-120178571D01*
X187142857Y-120607142D02*
X187000000Y-120678571D01*
X186714285Y-120678571D01*
X186571428Y-120607142D01*
X186500000Y-120535714D01*
X186428571Y-120392857D01*
X186428571Y-119964285D01*
X186500000Y-119821428D01*
X186571428Y-119750000D01*
X186714285Y-119678571D01*
X187000000Y-119678571D01*
X187142857Y-119750000D01*
X187571428Y-119678571D02*
X188142857Y-119678571D01*
X187785714Y-119178571D02*
X187785714Y-120464285D01*
X187857142Y-120607142D01*
X188000000Y-120678571D01*
X188142857Y-120678571D01*
X188642857Y-120678571D02*
X188642857Y-119678571D01*
X188642857Y-119178571D02*
X188571428Y-119250000D01*
X188642857Y-119321428D01*
X188714285Y-119250000D01*
X188642857Y-119178571D01*
X188642857Y-119321428D01*
X189571428Y-120678571D02*
X189428571Y-120607142D01*
X189357142Y-120535714D01*
X189285714Y-120392857D01*
X189285714Y-119964285D01*
X189357142Y-119821428D01*
X189428571Y-119750000D01*
X189571428Y-119678571D01*
X189785714Y-119678571D01*
X189928571Y-119750000D01*
X190000000Y-119821428D01*
X190071428Y-119964285D01*
X190071428Y-120392857D01*
X190000000Y-120535714D01*
X189928571Y-120607142D01*
X189785714Y-120678571D01*
X189571428Y-120678571D01*
X190714285Y-119678571D02*
X190714285Y-120678571D01*
X190714285Y-119821428D02*
X190785714Y-119750000D01*
X190928571Y-119678571D01*
X191142857Y-119678571D01*
X191285714Y-119750000D01*
X191357142Y-119892857D01*
X191357142Y-120678571D01*
D12*
G36*
X147500000Y-116500000D02*
G01*
X147500000Y-118500000D01*
X162500000Y-118500000D01*
X162500000Y-116500000D01*
X162500000Y-116000000D01*
X163000000Y-116000000D01*
X163000000Y-119000000D01*
X147000000Y-119000000D01*
X147000000Y-116000000D01*
X162500000Y-116000000D01*
X162500000Y-116500000D01*
X147500000Y-116500000D01*
G37*
X147500000Y-116500000D02*
X147500000Y-118500000D01*
X162500000Y-118500000D01*
X162500000Y-116500000D01*
X162500000Y-116000000D01*
X163000000Y-116000000D01*
X163000000Y-119000000D01*
X147000000Y-119000000D01*
X147000000Y-116000000D01*
X162500000Y-116000000D01*
X162500000Y-116500000D01*
X147500000Y-116500000D01*
D13*
X147000000Y-119000000D02*
X147000000Y-124000000D01*
X147000000Y-124000000D02*
X163000000Y-124000000D01*
X163000000Y-124000000D02*
X163000000Y-119000000D01*
D12*
G36*
X162500000Y-78500000D02*
G01*
X162500000Y-76500000D01*
X147500000Y-76500000D01*
X147500000Y-78500000D01*
X147500000Y-79000000D01*
X147000000Y-79000000D01*
X147000000Y-76000000D01*
X163000000Y-76000000D01*
X163000000Y-79000000D01*
X147500000Y-79000000D01*
X147500000Y-78500000D01*
X162500000Y-78500000D01*
G37*
X162500000Y-78500000D02*
X162500000Y-76500000D01*
X147500000Y-76500000D01*
X147500000Y-78500000D01*
X147500000Y-79000000D01*
X147000000Y-79000000D01*
X147000000Y-76000000D01*
X163000000Y-76000000D01*
X163000000Y-79000000D01*
X147500000Y-79000000D01*
X147500000Y-78500000D01*
X162500000Y-78500000D01*
D13*
X163000000Y-76000000D02*
X163000000Y-71000000D01*
X163000000Y-71000000D02*
X147000000Y-71000000D01*
X147000000Y-71000000D02*
X147000000Y-76000000D01*
X204000000Y-71000000D02*
X204000000Y-76000000D01*
X220000000Y-71000000D02*
X204000000Y-71000000D01*
X220000000Y-76000000D02*
X220000000Y-71000000D01*
D12*
G36*
X219500000Y-78500000D02*
G01*
X219500000Y-76500000D01*
X204500000Y-76500000D01*
X204500000Y-78500000D01*
X204500000Y-79000000D01*
X204000000Y-79000000D01*
X204000000Y-76000000D01*
X220000000Y-76000000D01*
X220000000Y-79000000D01*
X204500000Y-79000000D01*
X204500000Y-78500000D01*
X219500000Y-78500000D01*
G37*
X219500000Y-78500000D02*
X219500000Y-76500000D01*
X204500000Y-76500000D01*
X204500000Y-78500000D01*
X204500000Y-79000000D01*
X204000000Y-79000000D01*
X204000000Y-76000000D01*
X220000000Y-76000000D01*
X220000000Y-79000000D01*
X204500000Y-79000000D01*
X204500000Y-78500000D01*
X219500000Y-78500000D01*
D13*
X220000000Y-124000000D02*
X220000000Y-119000000D01*
X204000000Y-124000000D02*
X220000000Y-124000000D01*
X204000000Y-119000000D02*
X204000000Y-124000000D01*
D12*
G36*
X204500000Y-116500000D02*
G01*
X204500000Y-118500000D01*
X219500000Y-118500000D01*
X219500000Y-116500000D01*
X219500000Y-116000000D01*
X220000000Y-116000000D01*
X220000000Y-119000000D01*
X204000000Y-119000000D01*
X204000000Y-116000000D01*
X219500000Y-116000000D01*
X219500000Y-116500000D01*
X204500000Y-116500000D01*
G37*
X204500000Y-116500000D02*
X204500000Y-118500000D01*
X219500000Y-118500000D01*
X219500000Y-116500000D01*
X219500000Y-116000000D01*
X220000000Y-116000000D01*
X220000000Y-119000000D01*
X204000000Y-119000000D01*
X204000000Y-116000000D01*
X219500000Y-116000000D01*
X219500000Y-116500000D01*
X204500000Y-116500000D01*
D14*
X154666666Y-124452380D02*
X154666666Y-125166666D01*
X154619047Y-125309523D01*
X154523809Y-125404761D01*
X154380952Y-125452380D01*
X154285714Y-125452380D01*
X155666666Y-125452380D02*
X155095238Y-125452380D01*
X155380952Y-125452380D02*
X155380952Y-124452380D01*
X155285714Y-124595238D01*
X155190476Y-124690476D01*
X155095238Y-124738095D01*
X154666666Y-69452380D02*
X154666666Y-70166666D01*
X154619047Y-70309523D01*
X154523809Y-70404761D01*
X154380952Y-70452380D01*
X154285714Y-70452380D01*
X155571428Y-69785714D02*
X155571428Y-70452380D01*
X155333333Y-69404761D02*
X155095238Y-70119047D01*
X155714285Y-70119047D01*
X211666666Y-69452380D02*
X211666666Y-70166666D01*
X211619047Y-70309523D01*
X211523809Y-70404761D01*
X211380952Y-70452380D01*
X211285714Y-70452380D01*
X212047619Y-69452380D02*
X212666666Y-69452380D01*
X212333333Y-69833333D01*
X212476190Y-69833333D01*
X212571428Y-69880952D01*
X212619047Y-69928571D01*
X212666666Y-70023809D01*
X212666666Y-70261904D01*
X212619047Y-70357142D01*
X212571428Y-70404761D01*
X212476190Y-70452380D01*
X212190476Y-70452380D01*
X212095238Y-70404761D01*
X212047619Y-70357142D01*
X211666666Y-124452380D02*
X211666666Y-125166666D01*
X211619047Y-125309523D01*
X211523809Y-125404761D01*
X211380952Y-125452380D01*
X211285714Y-125452380D01*
X212095238Y-124547619D02*
X212142857Y-124500000D01*
X212238095Y-124452380D01*
X212476190Y-124452380D01*
X212571428Y-124500000D01*
X212619047Y-124547619D01*
X212666666Y-124642857D01*
X212666666Y-124738095D01*
X212619047Y-124880952D01*
X212047619Y-125452380D01*
X212666666Y-125452380D01*
M02*
