G04 #@! TF.GenerationSoftware,KiCad,Pcbnew,5.1.2-f72e74a~84~ubuntu18.04.1*
G04 #@! TF.CreationDate,2019-06-08T15:54:07-04:00*
G04 #@! TF.ProjectId,8-key-top-plate-1.2,382d6b65-792d-4746-9f70-2d706c617465,rev?*
G04 #@! TF.SameCoordinates,Original*
G04 #@! TF.FileFunction,Profile,NP*
%FSLAX46Y46*%
G04 Gerber Fmt 4.6, Leading zero omitted, Abs format (unit mm)*
G04 Created by KiCad (PCBNEW 5.1.2-f72e74a~84~ubuntu18.04.1) date 2019-06-08 15:54:07*
%MOMM*%
%LPD*%
G04 APERTURE LIST*
%ADD10C,0.150000*%
%ADD11C,0.200000*%
G04 APERTURE END LIST*
D10*
X136000000Y-121000000D02*
X136000000Y-74000000D01*
X226000000Y-126000000D02*
X141000000Y-126000000D01*
X231000000Y-74000000D02*
X231000000Y-121000000D01*
X141000000Y-69000000D02*
X226000000Y-69000000D01*
X226000000Y-69000000D02*
G75*
G02X231000000Y-74000000I0J-5000000D01*
G01*
X231000000Y-121000000D02*
G75*
G02X226000000Y-126000000I-5000000J0D01*
G01*
X141000000Y-126000000D02*
G75*
G02X136000000Y-121000000I0J5000000D01*
G01*
X136000000Y-74000000D02*
G75*
G02X141000000Y-69000000I5000000J0D01*
G01*
D11*
X181000000Y-100000000D02*
X167000000Y-100000000D01*
X181000000Y-114000000D02*
X181000000Y-100000000D01*
X219000000Y-114000000D02*
X219000000Y-100000000D01*
X200000000Y-100000000D02*
X186000000Y-100000000D01*
X205000000Y-100000000D02*
X205000000Y-114000000D01*
X219000000Y-100000000D02*
X205000000Y-100000000D01*
X167000000Y-114000000D02*
X181000000Y-114000000D01*
X186000000Y-114000000D02*
X200000000Y-114000000D01*
X148000000Y-114000000D02*
X162000000Y-114000000D01*
X148000000Y-100000000D02*
X148000000Y-114000000D01*
X167000000Y-100000000D02*
X167000000Y-114000000D01*
X200000000Y-114000000D02*
X200000000Y-100000000D01*
X186000000Y-100000000D02*
X186000000Y-114000000D01*
X205000000Y-114000000D02*
X219000000Y-114000000D01*
X162000000Y-114000000D02*
X162000000Y-100000000D01*
X162000000Y-100000000D02*
X148000000Y-100000000D01*
X219000000Y-81000000D02*
X205000000Y-81000000D01*
X219000000Y-95000000D02*
X219000000Y-81000000D01*
X205000000Y-95000000D02*
X219000000Y-95000000D01*
X186000000Y-95000000D02*
X200000000Y-95000000D01*
X186000000Y-81000000D02*
X186000000Y-95000000D01*
X205000000Y-81000000D02*
X205000000Y-95000000D01*
X200000000Y-95000000D02*
X200000000Y-81000000D01*
X200000000Y-81000000D02*
X186000000Y-81000000D01*
X167000000Y-95000000D02*
X181000000Y-95000000D01*
X167000000Y-81000000D02*
X167000000Y-95000000D01*
X181000000Y-95000000D02*
X181000000Y-81000000D01*
X181000000Y-81000000D02*
X167000000Y-81000000D01*
X162000000Y-81000000D02*
X148000000Y-81000000D01*
X162000000Y-95000000D02*
X162000000Y-81000000D01*
X148000000Y-95000000D02*
X162000000Y-95000000D01*
X148000000Y-81000000D02*
X148000000Y-95000000D01*
M02*
