G04 #@! TF.GenerationSoftware,KiCad,Pcbnew,5.1.2-f72e74a~84~ubuntu18.04.1*
G04 #@! TF.CreationDate,2019-06-08T15:54:07-04:00*
G04 #@! TF.ProjectId,8-key-top-plate-1.2,382d6b65-792d-4746-9f70-2d706c617465,rev?*
G04 #@! TF.SameCoordinates,Original*
G04 #@! TF.FileFunction,Copper,L2,Bot*
G04 #@! TF.FilePolarity,Positive*
%FSLAX46Y46*%
G04 Gerber Fmt 4.6, Leading zero omitted, Abs format (unit mm)*
G04 Created by KiCad (PCBNEW 5.1.2-f72e74a~84~ubuntu18.04.1) date 2019-06-08 15:54:07*
%MOMM*%
%LPD*%
G04 APERTURE LIST*
%ADD10C,5.000000*%
%ADD11C,0.254000*%
G04 APERTURE END LIST*
D10*
X226000000Y-74000000D03*
X226000000Y-121000000D03*
X141000000Y-121000000D03*
X141000000Y-74000000D03*
D11*
G36*
X226759192Y-69780578D02*
G01*
X227494389Y-69981705D01*
X228082717Y-70262323D01*
X229758332Y-71937938D01*
X230063251Y-72632561D01*
X230242499Y-73379183D01*
X230290000Y-74026030D01*
X230290001Y-120968370D01*
X230219422Y-121759193D01*
X230018295Y-122494389D01*
X229737677Y-123082717D01*
X228062063Y-124758331D01*
X227367439Y-125063251D01*
X226620819Y-125242499D01*
X225973970Y-125290000D01*
X141031618Y-125290000D01*
X140240807Y-125219422D01*
X139505611Y-125018295D01*
X138917283Y-124737677D01*
X137241669Y-123062063D01*
X136936749Y-122367439D01*
X136757501Y-121620819D01*
X136710000Y-120973970D01*
X136710000Y-120691229D01*
X137865000Y-120691229D01*
X137865000Y-121308771D01*
X137985476Y-121914446D01*
X138221799Y-122484979D01*
X138564886Y-122998446D01*
X139001554Y-123435114D01*
X139515021Y-123778201D01*
X140085554Y-124014524D01*
X140691229Y-124135000D01*
X141308771Y-124135000D01*
X141914446Y-124014524D01*
X142484979Y-123778201D01*
X142998446Y-123435114D01*
X143435114Y-122998446D01*
X143778201Y-122484979D01*
X144014524Y-121914446D01*
X144135000Y-121308771D01*
X144135000Y-120691229D01*
X222865000Y-120691229D01*
X222865000Y-121308771D01*
X222985476Y-121914446D01*
X223221799Y-122484979D01*
X223564886Y-122998446D01*
X224001554Y-123435114D01*
X224515021Y-123778201D01*
X225085554Y-124014524D01*
X225691229Y-124135000D01*
X226308771Y-124135000D01*
X226914446Y-124014524D01*
X227484979Y-123778201D01*
X227998446Y-123435114D01*
X228435114Y-122998446D01*
X228778201Y-122484979D01*
X229014524Y-121914446D01*
X229135000Y-121308771D01*
X229135000Y-120691229D01*
X229014524Y-120085554D01*
X228778201Y-119515021D01*
X228435114Y-119001554D01*
X227998446Y-118564886D01*
X227484979Y-118221799D01*
X226914446Y-117985476D01*
X226308771Y-117865000D01*
X225691229Y-117865000D01*
X225085554Y-117985476D01*
X224515021Y-118221799D01*
X224001554Y-118564886D01*
X223564886Y-119001554D01*
X223221799Y-119515021D01*
X222985476Y-120085554D01*
X222865000Y-120691229D01*
X144135000Y-120691229D01*
X144014524Y-120085554D01*
X143778201Y-119515021D01*
X143435114Y-119001554D01*
X142998446Y-118564886D01*
X142484979Y-118221799D01*
X141914446Y-117985476D01*
X141308771Y-117865000D01*
X140691229Y-117865000D01*
X140085554Y-117985476D01*
X139515021Y-118221799D01*
X139001554Y-118564886D01*
X138564886Y-119001554D01*
X138221799Y-119515021D01*
X137985476Y-120085554D01*
X137865000Y-120691229D01*
X136710000Y-120691229D01*
X136710000Y-100000000D01*
X147261444Y-100000000D01*
X147265000Y-100036105D01*
X147265001Y-113963885D01*
X147261444Y-114000000D01*
X147275635Y-114144085D01*
X147317663Y-114282633D01*
X147385913Y-114410320D01*
X147477762Y-114522238D01*
X147589680Y-114614087D01*
X147717367Y-114682337D01*
X147855915Y-114724365D01*
X147963895Y-114735000D01*
X148000000Y-114738556D01*
X148036105Y-114735000D01*
X161963895Y-114735000D01*
X162000000Y-114738556D01*
X162036105Y-114735000D01*
X162144085Y-114724365D01*
X162282633Y-114682337D01*
X162410320Y-114614087D01*
X162522238Y-114522238D01*
X162614087Y-114410320D01*
X162682337Y-114282633D01*
X162724365Y-114144085D01*
X162738556Y-114000000D01*
X162735000Y-113963895D01*
X162735000Y-100036105D01*
X162738556Y-100000000D01*
X166261444Y-100000000D01*
X166265000Y-100036105D01*
X166265001Y-113963885D01*
X166261444Y-114000000D01*
X166275635Y-114144085D01*
X166317663Y-114282633D01*
X166385913Y-114410320D01*
X166477762Y-114522238D01*
X166589680Y-114614087D01*
X166717367Y-114682337D01*
X166855915Y-114724365D01*
X166963895Y-114735000D01*
X167000000Y-114738556D01*
X167036105Y-114735000D01*
X180963895Y-114735000D01*
X181000000Y-114738556D01*
X181036105Y-114735000D01*
X181144085Y-114724365D01*
X181282633Y-114682337D01*
X181410320Y-114614087D01*
X181522238Y-114522238D01*
X181614087Y-114410320D01*
X181682337Y-114282633D01*
X181724365Y-114144085D01*
X181738556Y-114000000D01*
X181735000Y-113963895D01*
X181735000Y-100036105D01*
X181738556Y-100000000D01*
X185261444Y-100000000D01*
X185265000Y-100036105D01*
X185265001Y-113963885D01*
X185261444Y-114000000D01*
X185275635Y-114144085D01*
X185317663Y-114282633D01*
X185385913Y-114410320D01*
X185477762Y-114522238D01*
X185589680Y-114614087D01*
X185717367Y-114682337D01*
X185855915Y-114724365D01*
X185963895Y-114735000D01*
X186000000Y-114738556D01*
X186036105Y-114735000D01*
X199963895Y-114735000D01*
X200000000Y-114738556D01*
X200036105Y-114735000D01*
X200144085Y-114724365D01*
X200282633Y-114682337D01*
X200410320Y-114614087D01*
X200522238Y-114522238D01*
X200614087Y-114410320D01*
X200682337Y-114282633D01*
X200724365Y-114144085D01*
X200738556Y-114000000D01*
X200735000Y-113963895D01*
X200735000Y-100036105D01*
X200738556Y-100000000D01*
X204261444Y-100000000D01*
X204265000Y-100036105D01*
X204265001Y-113963885D01*
X204261444Y-114000000D01*
X204275635Y-114144085D01*
X204317663Y-114282633D01*
X204385913Y-114410320D01*
X204477762Y-114522238D01*
X204589680Y-114614087D01*
X204717367Y-114682337D01*
X204855915Y-114724365D01*
X204963895Y-114735000D01*
X205000000Y-114738556D01*
X205036105Y-114735000D01*
X218963895Y-114735000D01*
X219000000Y-114738556D01*
X219036105Y-114735000D01*
X219144085Y-114724365D01*
X219282633Y-114682337D01*
X219410320Y-114614087D01*
X219522238Y-114522238D01*
X219614087Y-114410320D01*
X219682337Y-114282633D01*
X219724365Y-114144085D01*
X219738556Y-114000000D01*
X219735000Y-113963895D01*
X219735000Y-100036105D01*
X219738556Y-100000000D01*
X219724365Y-99855915D01*
X219682337Y-99717367D01*
X219614087Y-99589680D01*
X219522238Y-99477762D01*
X219410320Y-99385913D01*
X219282633Y-99317663D01*
X219144085Y-99275635D01*
X219036105Y-99265000D01*
X219000000Y-99261444D01*
X218963895Y-99265000D01*
X205036105Y-99265000D01*
X205000000Y-99261444D01*
X204963895Y-99265000D01*
X204855915Y-99275635D01*
X204717367Y-99317663D01*
X204589680Y-99385913D01*
X204477762Y-99477762D01*
X204385913Y-99589680D01*
X204317663Y-99717367D01*
X204275635Y-99855915D01*
X204261444Y-100000000D01*
X200738556Y-100000000D01*
X200724365Y-99855915D01*
X200682337Y-99717367D01*
X200614087Y-99589680D01*
X200522238Y-99477762D01*
X200410320Y-99385913D01*
X200282633Y-99317663D01*
X200144085Y-99275635D01*
X200036105Y-99265000D01*
X200000000Y-99261444D01*
X199963895Y-99265000D01*
X186036105Y-99265000D01*
X186000000Y-99261444D01*
X185963895Y-99265000D01*
X185855915Y-99275635D01*
X185717367Y-99317663D01*
X185589680Y-99385913D01*
X185477762Y-99477762D01*
X185385913Y-99589680D01*
X185317663Y-99717367D01*
X185275635Y-99855915D01*
X185261444Y-100000000D01*
X181738556Y-100000000D01*
X181724365Y-99855915D01*
X181682337Y-99717367D01*
X181614087Y-99589680D01*
X181522238Y-99477762D01*
X181410320Y-99385913D01*
X181282633Y-99317663D01*
X181144085Y-99275635D01*
X181036105Y-99265000D01*
X181000000Y-99261444D01*
X180963895Y-99265000D01*
X167036105Y-99265000D01*
X167000000Y-99261444D01*
X166963895Y-99265000D01*
X166855915Y-99275635D01*
X166717367Y-99317663D01*
X166589680Y-99385913D01*
X166477762Y-99477762D01*
X166385913Y-99589680D01*
X166317663Y-99717367D01*
X166275635Y-99855915D01*
X166261444Y-100000000D01*
X162738556Y-100000000D01*
X162724365Y-99855915D01*
X162682337Y-99717367D01*
X162614087Y-99589680D01*
X162522238Y-99477762D01*
X162410320Y-99385913D01*
X162282633Y-99317663D01*
X162144085Y-99275635D01*
X162036105Y-99265000D01*
X162000000Y-99261444D01*
X161963895Y-99265000D01*
X148036105Y-99265000D01*
X148000000Y-99261444D01*
X147963895Y-99265000D01*
X147855915Y-99275635D01*
X147717367Y-99317663D01*
X147589680Y-99385913D01*
X147477762Y-99477762D01*
X147385913Y-99589680D01*
X147317663Y-99717367D01*
X147275635Y-99855915D01*
X147261444Y-100000000D01*
X136710000Y-100000000D01*
X136710000Y-81000000D01*
X147261444Y-81000000D01*
X147265000Y-81036105D01*
X147265001Y-94963885D01*
X147261444Y-95000000D01*
X147275635Y-95144085D01*
X147317663Y-95282633D01*
X147385913Y-95410320D01*
X147477762Y-95522238D01*
X147589680Y-95614087D01*
X147717367Y-95682337D01*
X147855915Y-95724365D01*
X147963895Y-95735000D01*
X148000000Y-95738556D01*
X148036105Y-95735000D01*
X161963895Y-95735000D01*
X162000000Y-95738556D01*
X162036105Y-95735000D01*
X162144085Y-95724365D01*
X162282633Y-95682337D01*
X162410320Y-95614087D01*
X162522238Y-95522238D01*
X162614087Y-95410320D01*
X162682337Y-95282633D01*
X162724365Y-95144085D01*
X162738556Y-95000000D01*
X162735000Y-94963895D01*
X162735000Y-81036105D01*
X162738556Y-81000000D01*
X166261444Y-81000000D01*
X166265000Y-81036105D01*
X166265001Y-94963885D01*
X166261444Y-95000000D01*
X166275635Y-95144085D01*
X166317663Y-95282633D01*
X166385913Y-95410320D01*
X166477762Y-95522238D01*
X166589680Y-95614087D01*
X166717367Y-95682337D01*
X166855915Y-95724365D01*
X166963895Y-95735000D01*
X167000000Y-95738556D01*
X167036105Y-95735000D01*
X180963895Y-95735000D01*
X181000000Y-95738556D01*
X181036105Y-95735000D01*
X181144085Y-95724365D01*
X181282633Y-95682337D01*
X181410320Y-95614087D01*
X181522238Y-95522238D01*
X181614087Y-95410320D01*
X181682337Y-95282633D01*
X181724365Y-95144085D01*
X181738556Y-95000000D01*
X181735000Y-94963895D01*
X181735000Y-81036105D01*
X181738556Y-81000000D01*
X185261444Y-81000000D01*
X185265000Y-81036105D01*
X185265001Y-94963885D01*
X185261444Y-95000000D01*
X185275635Y-95144085D01*
X185317663Y-95282633D01*
X185385913Y-95410320D01*
X185477762Y-95522238D01*
X185589680Y-95614087D01*
X185717367Y-95682337D01*
X185855915Y-95724365D01*
X185963895Y-95735000D01*
X186000000Y-95738556D01*
X186036105Y-95735000D01*
X199963895Y-95735000D01*
X200000000Y-95738556D01*
X200036105Y-95735000D01*
X200144085Y-95724365D01*
X200282633Y-95682337D01*
X200410320Y-95614087D01*
X200522238Y-95522238D01*
X200614087Y-95410320D01*
X200682337Y-95282633D01*
X200724365Y-95144085D01*
X200738556Y-95000000D01*
X200735000Y-94963895D01*
X200735000Y-81036105D01*
X200738556Y-81000000D01*
X204261444Y-81000000D01*
X204265000Y-81036105D01*
X204265001Y-94963885D01*
X204261444Y-95000000D01*
X204275635Y-95144085D01*
X204317663Y-95282633D01*
X204385913Y-95410320D01*
X204477762Y-95522238D01*
X204589680Y-95614087D01*
X204717367Y-95682337D01*
X204855915Y-95724365D01*
X204963895Y-95735000D01*
X205000000Y-95738556D01*
X205036105Y-95735000D01*
X218963895Y-95735000D01*
X219000000Y-95738556D01*
X219036105Y-95735000D01*
X219144085Y-95724365D01*
X219282633Y-95682337D01*
X219410320Y-95614087D01*
X219522238Y-95522238D01*
X219614087Y-95410320D01*
X219682337Y-95282633D01*
X219724365Y-95144085D01*
X219738556Y-95000000D01*
X219735000Y-94963895D01*
X219735000Y-81036105D01*
X219738556Y-81000000D01*
X219724365Y-80855915D01*
X219682337Y-80717367D01*
X219614087Y-80589680D01*
X219522238Y-80477762D01*
X219410320Y-80385913D01*
X219282633Y-80317663D01*
X219144085Y-80275635D01*
X219036105Y-80265000D01*
X219000000Y-80261444D01*
X218963895Y-80265000D01*
X205036105Y-80265000D01*
X205000000Y-80261444D01*
X204963895Y-80265000D01*
X204855915Y-80275635D01*
X204717367Y-80317663D01*
X204589680Y-80385913D01*
X204477762Y-80477762D01*
X204385913Y-80589680D01*
X204317663Y-80717367D01*
X204275635Y-80855915D01*
X204261444Y-81000000D01*
X200738556Y-81000000D01*
X200724365Y-80855915D01*
X200682337Y-80717367D01*
X200614087Y-80589680D01*
X200522238Y-80477762D01*
X200410320Y-80385913D01*
X200282633Y-80317663D01*
X200144085Y-80275635D01*
X200036105Y-80265000D01*
X200000000Y-80261444D01*
X199963895Y-80265000D01*
X186036105Y-80265000D01*
X186000000Y-80261444D01*
X185963895Y-80265000D01*
X185855915Y-80275635D01*
X185717367Y-80317663D01*
X185589680Y-80385913D01*
X185477762Y-80477762D01*
X185385913Y-80589680D01*
X185317663Y-80717367D01*
X185275635Y-80855915D01*
X185261444Y-81000000D01*
X181738556Y-81000000D01*
X181724365Y-80855915D01*
X181682337Y-80717367D01*
X181614087Y-80589680D01*
X181522238Y-80477762D01*
X181410320Y-80385913D01*
X181282633Y-80317663D01*
X181144085Y-80275635D01*
X181036105Y-80265000D01*
X181000000Y-80261444D01*
X180963895Y-80265000D01*
X167036105Y-80265000D01*
X167000000Y-80261444D01*
X166963895Y-80265000D01*
X166855915Y-80275635D01*
X166717367Y-80317663D01*
X166589680Y-80385913D01*
X166477762Y-80477762D01*
X166385913Y-80589680D01*
X166317663Y-80717367D01*
X166275635Y-80855915D01*
X166261444Y-81000000D01*
X162738556Y-81000000D01*
X162724365Y-80855915D01*
X162682337Y-80717367D01*
X162614087Y-80589680D01*
X162522238Y-80477762D01*
X162410320Y-80385913D01*
X162282633Y-80317663D01*
X162144085Y-80275635D01*
X162036105Y-80265000D01*
X162000000Y-80261444D01*
X161963895Y-80265000D01*
X148036105Y-80265000D01*
X148000000Y-80261444D01*
X147963895Y-80265000D01*
X147855915Y-80275635D01*
X147717367Y-80317663D01*
X147589680Y-80385913D01*
X147477762Y-80477762D01*
X147385913Y-80589680D01*
X147317663Y-80717367D01*
X147275635Y-80855915D01*
X147261444Y-81000000D01*
X136710000Y-81000000D01*
X136710000Y-74031618D01*
X136740378Y-73691229D01*
X137865000Y-73691229D01*
X137865000Y-74308771D01*
X137985476Y-74914446D01*
X138221799Y-75484979D01*
X138564886Y-75998446D01*
X139001554Y-76435114D01*
X139515021Y-76778201D01*
X140085554Y-77014524D01*
X140691229Y-77135000D01*
X141308771Y-77135000D01*
X141914446Y-77014524D01*
X142484979Y-76778201D01*
X142998446Y-76435114D01*
X143435114Y-75998446D01*
X143778201Y-75484979D01*
X144014524Y-74914446D01*
X144135000Y-74308771D01*
X144135000Y-73691229D01*
X222865000Y-73691229D01*
X222865000Y-74308771D01*
X222985476Y-74914446D01*
X223221799Y-75484979D01*
X223564886Y-75998446D01*
X224001554Y-76435114D01*
X224515021Y-76778201D01*
X225085554Y-77014524D01*
X225691229Y-77135000D01*
X226308771Y-77135000D01*
X226914446Y-77014524D01*
X227484979Y-76778201D01*
X227998446Y-76435114D01*
X228435114Y-75998446D01*
X228778201Y-75484979D01*
X229014524Y-74914446D01*
X229135000Y-74308771D01*
X229135000Y-73691229D01*
X229014524Y-73085554D01*
X228778201Y-72515021D01*
X228435114Y-72001554D01*
X227998446Y-71564886D01*
X227484979Y-71221799D01*
X226914446Y-70985476D01*
X226308771Y-70865000D01*
X225691229Y-70865000D01*
X225085554Y-70985476D01*
X224515021Y-71221799D01*
X224001554Y-71564886D01*
X223564886Y-72001554D01*
X223221799Y-72515021D01*
X222985476Y-73085554D01*
X222865000Y-73691229D01*
X144135000Y-73691229D01*
X144014524Y-73085554D01*
X143778201Y-72515021D01*
X143435114Y-72001554D01*
X142998446Y-71564886D01*
X142484979Y-71221799D01*
X141914446Y-70985476D01*
X141308771Y-70865000D01*
X140691229Y-70865000D01*
X140085554Y-70985476D01*
X139515021Y-71221799D01*
X139001554Y-71564886D01*
X138564886Y-72001554D01*
X138221799Y-72515021D01*
X137985476Y-73085554D01*
X137865000Y-73691229D01*
X136740378Y-73691229D01*
X136780578Y-73240808D01*
X136981705Y-72505611D01*
X137262323Y-71917283D01*
X138937938Y-70241668D01*
X139632561Y-69936749D01*
X140379183Y-69757501D01*
X141026030Y-69710000D01*
X225968382Y-69710000D01*
X226759192Y-69780578D01*
X226759192Y-69780578D01*
G37*
X226759192Y-69780578D02*
X227494389Y-69981705D01*
X228082717Y-70262323D01*
X229758332Y-71937938D01*
X230063251Y-72632561D01*
X230242499Y-73379183D01*
X230290000Y-74026030D01*
X230290001Y-120968370D01*
X230219422Y-121759193D01*
X230018295Y-122494389D01*
X229737677Y-123082717D01*
X228062063Y-124758331D01*
X227367439Y-125063251D01*
X226620819Y-125242499D01*
X225973970Y-125290000D01*
X141031618Y-125290000D01*
X140240807Y-125219422D01*
X139505611Y-125018295D01*
X138917283Y-124737677D01*
X137241669Y-123062063D01*
X136936749Y-122367439D01*
X136757501Y-121620819D01*
X136710000Y-120973970D01*
X136710000Y-120691229D01*
X137865000Y-120691229D01*
X137865000Y-121308771D01*
X137985476Y-121914446D01*
X138221799Y-122484979D01*
X138564886Y-122998446D01*
X139001554Y-123435114D01*
X139515021Y-123778201D01*
X140085554Y-124014524D01*
X140691229Y-124135000D01*
X141308771Y-124135000D01*
X141914446Y-124014524D01*
X142484979Y-123778201D01*
X142998446Y-123435114D01*
X143435114Y-122998446D01*
X143778201Y-122484979D01*
X144014524Y-121914446D01*
X144135000Y-121308771D01*
X144135000Y-120691229D01*
X222865000Y-120691229D01*
X222865000Y-121308771D01*
X222985476Y-121914446D01*
X223221799Y-122484979D01*
X223564886Y-122998446D01*
X224001554Y-123435114D01*
X224515021Y-123778201D01*
X225085554Y-124014524D01*
X225691229Y-124135000D01*
X226308771Y-124135000D01*
X226914446Y-124014524D01*
X227484979Y-123778201D01*
X227998446Y-123435114D01*
X228435114Y-122998446D01*
X228778201Y-122484979D01*
X229014524Y-121914446D01*
X229135000Y-121308771D01*
X229135000Y-120691229D01*
X229014524Y-120085554D01*
X228778201Y-119515021D01*
X228435114Y-119001554D01*
X227998446Y-118564886D01*
X227484979Y-118221799D01*
X226914446Y-117985476D01*
X226308771Y-117865000D01*
X225691229Y-117865000D01*
X225085554Y-117985476D01*
X224515021Y-118221799D01*
X224001554Y-118564886D01*
X223564886Y-119001554D01*
X223221799Y-119515021D01*
X222985476Y-120085554D01*
X222865000Y-120691229D01*
X144135000Y-120691229D01*
X144014524Y-120085554D01*
X143778201Y-119515021D01*
X143435114Y-119001554D01*
X142998446Y-118564886D01*
X142484979Y-118221799D01*
X141914446Y-117985476D01*
X141308771Y-117865000D01*
X140691229Y-117865000D01*
X140085554Y-117985476D01*
X139515021Y-118221799D01*
X139001554Y-118564886D01*
X138564886Y-119001554D01*
X138221799Y-119515021D01*
X137985476Y-120085554D01*
X137865000Y-120691229D01*
X136710000Y-120691229D01*
X136710000Y-100000000D01*
X147261444Y-100000000D01*
X147265000Y-100036105D01*
X147265001Y-113963885D01*
X147261444Y-114000000D01*
X147275635Y-114144085D01*
X147317663Y-114282633D01*
X147385913Y-114410320D01*
X147477762Y-114522238D01*
X147589680Y-114614087D01*
X147717367Y-114682337D01*
X147855915Y-114724365D01*
X147963895Y-114735000D01*
X148000000Y-114738556D01*
X148036105Y-114735000D01*
X161963895Y-114735000D01*
X162000000Y-114738556D01*
X162036105Y-114735000D01*
X162144085Y-114724365D01*
X162282633Y-114682337D01*
X162410320Y-114614087D01*
X162522238Y-114522238D01*
X162614087Y-114410320D01*
X162682337Y-114282633D01*
X162724365Y-114144085D01*
X162738556Y-114000000D01*
X162735000Y-113963895D01*
X162735000Y-100036105D01*
X162738556Y-100000000D01*
X166261444Y-100000000D01*
X166265000Y-100036105D01*
X166265001Y-113963885D01*
X166261444Y-114000000D01*
X166275635Y-114144085D01*
X166317663Y-114282633D01*
X166385913Y-114410320D01*
X166477762Y-114522238D01*
X166589680Y-114614087D01*
X166717367Y-114682337D01*
X166855915Y-114724365D01*
X166963895Y-114735000D01*
X167000000Y-114738556D01*
X167036105Y-114735000D01*
X180963895Y-114735000D01*
X181000000Y-114738556D01*
X181036105Y-114735000D01*
X181144085Y-114724365D01*
X181282633Y-114682337D01*
X181410320Y-114614087D01*
X181522238Y-114522238D01*
X181614087Y-114410320D01*
X181682337Y-114282633D01*
X181724365Y-114144085D01*
X181738556Y-114000000D01*
X181735000Y-113963895D01*
X181735000Y-100036105D01*
X181738556Y-100000000D01*
X185261444Y-100000000D01*
X185265000Y-100036105D01*
X185265001Y-113963885D01*
X185261444Y-114000000D01*
X185275635Y-114144085D01*
X185317663Y-114282633D01*
X185385913Y-114410320D01*
X185477762Y-114522238D01*
X185589680Y-114614087D01*
X185717367Y-114682337D01*
X185855915Y-114724365D01*
X185963895Y-114735000D01*
X186000000Y-114738556D01*
X186036105Y-114735000D01*
X199963895Y-114735000D01*
X200000000Y-114738556D01*
X200036105Y-114735000D01*
X200144085Y-114724365D01*
X200282633Y-114682337D01*
X200410320Y-114614087D01*
X200522238Y-114522238D01*
X200614087Y-114410320D01*
X200682337Y-114282633D01*
X200724365Y-114144085D01*
X200738556Y-114000000D01*
X200735000Y-113963895D01*
X200735000Y-100036105D01*
X200738556Y-100000000D01*
X204261444Y-100000000D01*
X204265000Y-100036105D01*
X204265001Y-113963885D01*
X204261444Y-114000000D01*
X204275635Y-114144085D01*
X204317663Y-114282633D01*
X204385913Y-114410320D01*
X204477762Y-114522238D01*
X204589680Y-114614087D01*
X204717367Y-114682337D01*
X204855915Y-114724365D01*
X204963895Y-114735000D01*
X205000000Y-114738556D01*
X205036105Y-114735000D01*
X218963895Y-114735000D01*
X219000000Y-114738556D01*
X219036105Y-114735000D01*
X219144085Y-114724365D01*
X219282633Y-114682337D01*
X219410320Y-114614087D01*
X219522238Y-114522238D01*
X219614087Y-114410320D01*
X219682337Y-114282633D01*
X219724365Y-114144085D01*
X219738556Y-114000000D01*
X219735000Y-113963895D01*
X219735000Y-100036105D01*
X219738556Y-100000000D01*
X219724365Y-99855915D01*
X219682337Y-99717367D01*
X219614087Y-99589680D01*
X219522238Y-99477762D01*
X219410320Y-99385913D01*
X219282633Y-99317663D01*
X219144085Y-99275635D01*
X219036105Y-99265000D01*
X219000000Y-99261444D01*
X218963895Y-99265000D01*
X205036105Y-99265000D01*
X205000000Y-99261444D01*
X204963895Y-99265000D01*
X204855915Y-99275635D01*
X204717367Y-99317663D01*
X204589680Y-99385913D01*
X204477762Y-99477762D01*
X204385913Y-99589680D01*
X204317663Y-99717367D01*
X204275635Y-99855915D01*
X204261444Y-100000000D01*
X200738556Y-100000000D01*
X200724365Y-99855915D01*
X200682337Y-99717367D01*
X200614087Y-99589680D01*
X200522238Y-99477762D01*
X200410320Y-99385913D01*
X200282633Y-99317663D01*
X200144085Y-99275635D01*
X200036105Y-99265000D01*
X200000000Y-99261444D01*
X199963895Y-99265000D01*
X186036105Y-99265000D01*
X186000000Y-99261444D01*
X185963895Y-99265000D01*
X185855915Y-99275635D01*
X185717367Y-99317663D01*
X185589680Y-99385913D01*
X185477762Y-99477762D01*
X185385913Y-99589680D01*
X185317663Y-99717367D01*
X185275635Y-99855915D01*
X185261444Y-100000000D01*
X181738556Y-100000000D01*
X181724365Y-99855915D01*
X181682337Y-99717367D01*
X181614087Y-99589680D01*
X181522238Y-99477762D01*
X181410320Y-99385913D01*
X181282633Y-99317663D01*
X181144085Y-99275635D01*
X181036105Y-99265000D01*
X181000000Y-99261444D01*
X180963895Y-99265000D01*
X167036105Y-99265000D01*
X167000000Y-99261444D01*
X166963895Y-99265000D01*
X166855915Y-99275635D01*
X166717367Y-99317663D01*
X166589680Y-99385913D01*
X166477762Y-99477762D01*
X166385913Y-99589680D01*
X166317663Y-99717367D01*
X166275635Y-99855915D01*
X166261444Y-100000000D01*
X162738556Y-100000000D01*
X162724365Y-99855915D01*
X162682337Y-99717367D01*
X162614087Y-99589680D01*
X162522238Y-99477762D01*
X162410320Y-99385913D01*
X162282633Y-99317663D01*
X162144085Y-99275635D01*
X162036105Y-99265000D01*
X162000000Y-99261444D01*
X161963895Y-99265000D01*
X148036105Y-99265000D01*
X148000000Y-99261444D01*
X147963895Y-99265000D01*
X147855915Y-99275635D01*
X147717367Y-99317663D01*
X147589680Y-99385913D01*
X147477762Y-99477762D01*
X147385913Y-99589680D01*
X147317663Y-99717367D01*
X147275635Y-99855915D01*
X147261444Y-100000000D01*
X136710000Y-100000000D01*
X136710000Y-81000000D01*
X147261444Y-81000000D01*
X147265000Y-81036105D01*
X147265001Y-94963885D01*
X147261444Y-95000000D01*
X147275635Y-95144085D01*
X147317663Y-95282633D01*
X147385913Y-95410320D01*
X147477762Y-95522238D01*
X147589680Y-95614087D01*
X147717367Y-95682337D01*
X147855915Y-95724365D01*
X147963895Y-95735000D01*
X148000000Y-95738556D01*
X148036105Y-95735000D01*
X161963895Y-95735000D01*
X162000000Y-95738556D01*
X162036105Y-95735000D01*
X162144085Y-95724365D01*
X162282633Y-95682337D01*
X162410320Y-95614087D01*
X162522238Y-95522238D01*
X162614087Y-95410320D01*
X162682337Y-95282633D01*
X162724365Y-95144085D01*
X162738556Y-95000000D01*
X162735000Y-94963895D01*
X162735000Y-81036105D01*
X162738556Y-81000000D01*
X166261444Y-81000000D01*
X166265000Y-81036105D01*
X166265001Y-94963885D01*
X166261444Y-95000000D01*
X166275635Y-95144085D01*
X166317663Y-95282633D01*
X166385913Y-95410320D01*
X166477762Y-95522238D01*
X166589680Y-95614087D01*
X166717367Y-95682337D01*
X166855915Y-95724365D01*
X166963895Y-95735000D01*
X167000000Y-95738556D01*
X167036105Y-95735000D01*
X180963895Y-95735000D01*
X181000000Y-95738556D01*
X181036105Y-95735000D01*
X181144085Y-95724365D01*
X181282633Y-95682337D01*
X181410320Y-95614087D01*
X181522238Y-95522238D01*
X181614087Y-95410320D01*
X181682337Y-95282633D01*
X181724365Y-95144085D01*
X181738556Y-95000000D01*
X181735000Y-94963895D01*
X181735000Y-81036105D01*
X181738556Y-81000000D01*
X185261444Y-81000000D01*
X185265000Y-81036105D01*
X185265001Y-94963885D01*
X185261444Y-95000000D01*
X185275635Y-95144085D01*
X185317663Y-95282633D01*
X185385913Y-95410320D01*
X185477762Y-95522238D01*
X185589680Y-95614087D01*
X185717367Y-95682337D01*
X185855915Y-95724365D01*
X185963895Y-95735000D01*
X186000000Y-95738556D01*
X186036105Y-95735000D01*
X199963895Y-95735000D01*
X200000000Y-95738556D01*
X200036105Y-95735000D01*
X200144085Y-95724365D01*
X200282633Y-95682337D01*
X200410320Y-95614087D01*
X200522238Y-95522238D01*
X200614087Y-95410320D01*
X200682337Y-95282633D01*
X200724365Y-95144085D01*
X200738556Y-95000000D01*
X200735000Y-94963895D01*
X200735000Y-81036105D01*
X200738556Y-81000000D01*
X204261444Y-81000000D01*
X204265000Y-81036105D01*
X204265001Y-94963885D01*
X204261444Y-95000000D01*
X204275635Y-95144085D01*
X204317663Y-95282633D01*
X204385913Y-95410320D01*
X204477762Y-95522238D01*
X204589680Y-95614087D01*
X204717367Y-95682337D01*
X204855915Y-95724365D01*
X204963895Y-95735000D01*
X205000000Y-95738556D01*
X205036105Y-95735000D01*
X218963895Y-95735000D01*
X219000000Y-95738556D01*
X219036105Y-95735000D01*
X219144085Y-95724365D01*
X219282633Y-95682337D01*
X219410320Y-95614087D01*
X219522238Y-95522238D01*
X219614087Y-95410320D01*
X219682337Y-95282633D01*
X219724365Y-95144085D01*
X219738556Y-95000000D01*
X219735000Y-94963895D01*
X219735000Y-81036105D01*
X219738556Y-81000000D01*
X219724365Y-80855915D01*
X219682337Y-80717367D01*
X219614087Y-80589680D01*
X219522238Y-80477762D01*
X219410320Y-80385913D01*
X219282633Y-80317663D01*
X219144085Y-80275635D01*
X219036105Y-80265000D01*
X219000000Y-80261444D01*
X218963895Y-80265000D01*
X205036105Y-80265000D01*
X205000000Y-80261444D01*
X204963895Y-80265000D01*
X204855915Y-80275635D01*
X204717367Y-80317663D01*
X204589680Y-80385913D01*
X204477762Y-80477762D01*
X204385913Y-80589680D01*
X204317663Y-80717367D01*
X204275635Y-80855915D01*
X204261444Y-81000000D01*
X200738556Y-81000000D01*
X200724365Y-80855915D01*
X200682337Y-80717367D01*
X200614087Y-80589680D01*
X200522238Y-80477762D01*
X200410320Y-80385913D01*
X200282633Y-80317663D01*
X200144085Y-80275635D01*
X200036105Y-80265000D01*
X200000000Y-80261444D01*
X199963895Y-80265000D01*
X186036105Y-80265000D01*
X186000000Y-80261444D01*
X185963895Y-80265000D01*
X185855915Y-80275635D01*
X185717367Y-80317663D01*
X185589680Y-80385913D01*
X185477762Y-80477762D01*
X185385913Y-80589680D01*
X185317663Y-80717367D01*
X185275635Y-80855915D01*
X185261444Y-81000000D01*
X181738556Y-81000000D01*
X181724365Y-80855915D01*
X181682337Y-80717367D01*
X181614087Y-80589680D01*
X181522238Y-80477762D01*
X181410320Y-80385913D01*
X181282633Y-80317663D01*
X181144085Y-80275635D01*
X181036105Y-80265000D01*
X181000000Y-80261444D01*
X180963895Y-80265000D01*
X167036105Y-80265000D01*
X167000000Y-80261444D01*
X166963895Y-80265000D01*
X166855915Y-80275635D01*
X166717367Y-80317663D01*
X166589680Y-80385913D01*
X166477762Y-80477762D01*
X166385913Y-80589680D01*
X166317663Y-80717367D01*
X166275635Y-80855915D01*
X166261444Y-81000000D01*
X162738556Y-81000000D01*
X162724365Y-80855915D01*
X162682337Y-80717367D01*
X162614087Y-80589680D01*
X162522238Y-80477762D01*
X162410320Y-80385913D01*
X162282633Y-80317663D01*
X162144085Y-80275635D01*
X162036105Y-80265000D01*
X162000000Y-80261444D01*
X161963895Y-80265000D01*
X148036105Y-80265000D01*
X148000000Y-80261444D01*
X147963895Y-80265000D01*
X147855915Y-80275635D01*
X147717367Y-80317663D01*
X147589680Y-80385913D01*
X147477762Y-80477762D01*
X147385913Y-80589680D01*
X147317663Y-80717367D01*
X147275635Y-80855915D01*
X147261444Y-81000000D01*
X136710000Y-81000000D01*
X136710000Y-74031618D01*
X136740378Y-73691229D01*
X137865000Y-73691229D01*
X137865000Y-74308771D01*
X137985476Y-74914446D01*
X138221799Y-75484979D01*
X138564886Y-75998446D01*
X139001554Y-76435114D01*
X139515021Y-76778201D01*
X140085554Y-77014524D01*
X140691229Y-77135000D01*
X141308771Y-77135000D01*
X141914446Y-77014524D01*
X142484979Y-76778201D01*
X142998446Y-76435114D01*
X143435114Y-75998446D01*
X143778201Y-75484979D01*
X144014524Y-74914446D01*
X144135000Y-74308771D01*
X144135000Y-73691229D01*
X222865000Y-73691229D01*
X222865000Y-74308771D01*
X222985476Y-74914446D01*
X223221799Y-75484979D01*
X223564886Y-75998446D01*
X224001554Y-76435114D01*
X224515021Y-76778201D01*
X225085554Y-77014524D01*
X225691229Y-77135000D01*
X226308771Y-77135000D01*
X226914446Y-77014524D01*
X227484979Y-76778201D01*
X227998446Y-76435114D01*
X228435114Y-75998446D01*
X228778201Y-75484979D01*
X229014524Y-74914446D01*
X229135000Y-74308771D01*
X229135000Y-73691229D01*
X229014524Y-73085554D01*
X228778201Y-72515021D01*
X228435114Y-72001554D01*
X227998446Y-71564886D01*
X227484979Y-71221799D01*
X226914446Y-70985476D01*
X226308771Y-70865000D01*
X225691229Y-70865000D01*
X225085554Y-70985476D01*
X224515021Y-71221799D01*
X224001554Y-71564886D01*
X223564886Y-72001554D01*
X223221799Y-72515021D01*
X222985476Y-73085554D01*
X222865000Y-73691229D01*
X144135000Y-73691229D01*
X144014524Y-73085554D01*
X143778201Y-72515021D01*
X143435114Y-72001554D01*
X142998446Y-71564886D01*
X142484979Y-71221799D01*
X141914446Y-70985476D01*
X141308771Y-70865000D01*
X140691229Y-70865000D01*
X140085554Y-70985476D01*
X139515021Y-71221799D01*
X139001554Y-71564886D01*
X138564886Y-72001554D01*
X138221799Y-72515021D01*
X137985476Y-73085554D01*
X137865000Y-73691229D01*
X136740378Y-73691229D01*
X136780578Y-73240808D01*
X136981705Y-72505611D01*
X137262323Y-71917283D01*
X138937938Y-70241668D01*
X139632561Y-69936749D01*
X140379183Y-69757501D01*
X141026030Y-69710000D01*
X225968382Y-69710000D01*
X226759192Y-69780578D01*
M02*
