M48
;DRILL file {KiCad 5.0.2-bee76a0~70~ubuntu18.04.1} date Sat 02 Feb 2019 03:30:20 PM EST
;FORMAT={-:-/ absolute / inch / decimal}
FMAT,2
INCH,TZ
T1C0.0100
T2C0.0354
T3C0.0390
T4C0.0400
T5C0.0590
%
G90
G05
T1
X5.1015Y-3.4525
X5.695Y-3.7461
X6.6809Y-3.4538
T2
X5.3618Y-3.8189
X5.6618Y-3.8189
X6.1098Y-3.8189
X6.4098Y-3.8189
X6.8579Y-4.5669
X7.1579Y-4.5669
X5.3618Y-4.5669
X5.6618Y-4.5669
X4.6138Y-4.5669
X4.9138Y-4.5669
X6.8579Y-3.8189
X7.1579Y-3.8189
X6.1098Y-4.5669
X6.4098Y-4.5669
X4.6138Y-3.8189
X4.9138Y-3.8189
T3
X6.2098Y-4.452
X6.3098Y-4.452
X5.4618Y-3.7039
X5.5618Y-3.7039
X6.9579Y-3.7039
X7.0579Y-3.7039
X4.7138Y-3.7039
X4.8138Y-3.7039
X6.2098Y-3.7039
X6.3098Y-3.7039
X5.4618Y-4.452
X5.5618Y-4.452
X6.9579Y-4.452
X7.0579Y-4.452
X4.7138Y-4.452
X4.8138Y-4.452
T4
X5.2118Y-3.337
X5.2118Y-3.437
X5.2118Y-3.537
X5.2118Y-3.637
X5.2118Y-3.737
X5.2118Y-3.837
X5.2118Y-3.937
X5.2118Y-4.037
X5.2118Y-4.137
X5.2118Y-4.237
X5.2118Y-4.337
X5.2118Y-4.437
X5.8118Y-3.337
X5.8118Y-3.437
X5.8118Y-3.537
X5.8118Y-3.637
X5.8118Y-3.737
X5.8118Y-3.837
X5.8118Y-3.937
X5.8118Y-4.037
X5.8118Y-4.137
X5.8118Y-4.237
X5.8118Y-4.337
X5.8118Y-4.437
X6.5449Y-3.75
X6.5449Y-4.006
X6.7229Y-3.75
X6.7229Y-4.006
X5.1Y-4.075
X5.1Y-4.175
X5.1Y-4.275
X5.1Y-4.375
X5.1Y-4.475
X5.1Y-4.575
T5
X6.8579Y-3.4039
X7.1079Y-3.3039
X4.6138Y-3.4039
X4.8638Y-3.3039
X6.1098Y-3.4039
X6.3598Y-3.3039
X5.3618Y-4.152
X5.6118Y-4.052
X6.8579Y-4.152
X7.1079Y-4.052
X4.6138Y-4.152
X4.8638Y-4.052
X6.1098Y-4.152
X6.3598Y-4.052
X5.3618Y-3.4039
X5.6118Y-3.3039
T0
M30
