G04 #@! TF.GenerationSoftware,KiCad,Pcbnew,5.0.2-bee76a0~70~ubuntu18.04.1*
G04 #@! TF.CreationDate,2019-02-02T15:30:55-05:00*
G04 #@! TF.ProjectId,8keyv2,386b6579-7632-42e6-9b69-6361645f7063,rev?*
G04 #@! TF.SameCoordinates,Original*
G04 #@! TF.FileFunction,Legend,Top*
G04 #@! TF.FilePolarity,Positive*
%FSLAX46Y46*%
G04 Gerber Fmt 4.6, Leading zero omitted, Abs format (unit mm)*
G04 Created by KiCad (PCBNEW 5.0.2-bee76a0~70~ubuntu18.04.1) date Sat 02 Feb 2019 03:30:55 PM EST*
%MOMM*%
%LPD*%
G01*
G04 APERTURE LIST*
%ADD10C,0.100000*%
%ADD11C,0.150000*%
%ADD12C,0.300000*%
%ADD13C,0.400000*%
%ADD14C,0.203200*%
%ADD15C,0.127000*%
G04 APERTURE END LIST*
D10*
D11*
X177002200Y-166007200D02*
X177002200Y-198007200D01*
X285002200Y-198007200D01*
X285002200Y-166007200D01*
X177002200Y-166007200D01*
D10*
D11*
X10000000Y-10000000D02*
X10000000Y-200007200D01*
X287002200Y-200007200D01*
X287002200Y-10000000D01*
X10000000Y-10000000D01*
D10*
D11*
X12000000Y-12000000D02*
X12000000Y-198007200D01*
X285002200Y-198007200D01*
X285002200Y-12000000D01*
X12000000Y-12000000D01*
D10*
D11*
X60000000Y-12000000D02*
X60000000Y-10000000D01*
D10*
D11*
X110000000Y-12000000D02*
X110000000Y-10000000D01*
D10*
D11*
X160000000Y-12000000D02*
X160000000Y-10000000D01*
D10*
D11*
X210000000Y-12000000D02*
X210000000Y-10000000D01*
D10*
D11*
X260000000Y-12000000D02*
X260000000Y-10000000D01*
D10*
D11*
X36065476Y-11588095D02*
X35322619Y-11588095D01*
X35694047Y-11588095D02*
X35694047Y-10288095D01*
X35570238Y-10473809D01*
X35446428Y-10597619D01*
X35322619Y-10659523D01*
D10*
D11*
X85322619Y-10411904D02*
X85384523Y-10350000D01*
X85508333Y-10288095D01*
X85817857Y-10288095D01*
X85941666Y-10350000D01*
X86003571Y-10411904D01*
X86065476Y-10535714D01*
X86065476Y-10659523D01*
X86003571Y-10845238D01*
X85260714Y-11588095D01*
X86065476Y-11588095D01*
D10*
D11*
X135260714Y-10288095D02*
X136065476Y-10288095D01*
X135632142Y-10783333D01*
X135817857Y-10783333D01*
X135941666Y-10845238D01*
X136003571Y-10907142D01*
X136065476Y-11030952D01*
X136065476Y-11340476D01*
X136003571Y-11464285D01*
X135941666Y-11526190D01*
X135817857Y-11588095D01*
X135446428Y-11588095D01*
X135322619Y-11526190D01*
X135260714Y-11464285D01*
D10*
D11*
X185941666Y-10721428D02*
X185941666Y-11588095D01*
X185632142Y-10226190D02*
X185322619Y-11154761D01*
X186127380Y-11154761D01*
D10*
D11*
X236003571Y-10288095D02*
X235384523Y-10288095D01*
X235322619Y-10907142D01*
X235384523Y-10845238D01*
X235508333Y-10783333D01*
X235817857Y-10783333D01*
X235941666Y-10845238D01*
X236003571Y-10907142D01*
X236065476Y-11030952D01*
X236065476Y-11340476D01*
X236003571Y-11464285D01*
X235941666Y-11526190D01*
X235817857Y-11588095D01*
X235508333Y-11588095D01*
X235384523Y-11526190D01*
X235322619Y-11464285D01*
D10*
D11*
X285941666Y-10288095D02*
X285694047Y-10288095D01*
X285570238Y-10350000D01*
X285508333Y-10411904D01*
X285384523Y-10597619D01*
X285322619Y-10845238D01*
X285322619Y-11340476D01*
X285384523Y-11464285D01*
X285446428Y-11526190D01*
X285570238Y-11588095D01*
X285817857Y-11588095D01*
X285941666Y-11526190D01*
X286003571Y-11464285D01*
X286065476Y-11340476D01*
X286065476Y-11030952D01*
X286003571Y-10907142D01*
X285941666Y-10845238D01*
X285817857Y-10783333D01*
X285570238Y-10783333D01*
X285446428Y-10845238D01*
X285384523Y-10907142D01*
X285322619Y-11030952D01*
D10*
D11*
X60000000Y-198007200D02*
X60000000Y-200007200D01*
D10*
D11*
X110000000Y-198007200D02*
X110000000Y-200007200D01*
D10*
D11*
X160000000Y-198007200D02*
X160000000Y-200007200D01*
D10*
D11*
X210000000Y-198007200D02*
X210000000Y-200007200D01*
D10*
D11*
X260000000Y-198007200D02*
X260000000Y-200007200D01*
D10*
D11*
X36065476Y-199595295D02*
X35322619Y-199595295D01*
X35694047Y-199595295D02*
X35694047Y-198295295D01*
X35570238Y-198481009D01*
X35446428Y-198604819D01*
X35322619Y-198666723D01*
D10*
D11*
X85322619Y-198419104D02*
X85384523Y-198357200D01*
X85508333Y-198295295D01*
X85817857Y-198295295D01*
X85941666Y-198357200D01*
X86003571Y-198419104D01*
X86065476Y-198542914D01*
X86065476Y-198666723D01*
X86003571Y-198852438D01*
X85260714Y-199595295D01*
X86065476Y-199595295D01*
D10*
D11*
X135260714Y-198295295D02*
X136065476Y-198295295D01*
X135632142Y-198790533D01*
X135817857Y-198790533D01*
X135941666Y-198852438D01*
X136003571Y-198914342D01*
X136065476Y-199038152D01*
X136065476Y-199347676D01*
X136003571Y-199471485D01*
X135941666Y-199533390D01*
X135817857Y-199595295D01*
X135446428Y-199595295D01*
X135322619Y-199533390D01*
X135260714Y-199471485D01*
D10*
D11*
X185941666Y-198728628D02*
X185941666Y-199595295D01*
X185632142Y-198233390D02*
X185322619Y-199161961D01*
X186127380Y-199161961D01*
D10*
D11*
X236003571Y-198295295D02*
X235384523Y-198295295D01*
X235322619Y-198914342D01*
X235384523Y-198852438D01*
X235508333Y-198790533D01*
X235817857Y-198790533D01*
X235941666Y-198852438D01*
X236003571Y-198914342D01*
X236065476Y-199038152D01*
X236065476Y-199347676D01*
X236003571Y-199471485D01*
X235941666Y-199533390D01*
X235817857Y-199595295D01*
X235508333Y-199595295D01*
X235384523Y-199533390D01*
X235322619Y-199471485D01*
D10*
D11*
X285941666Y-198295295D02*
X285694047Y-198295295D01*
X285570238Y-198357200D01*
X285508333Y-198419104D01*
X285384523Y-198604819D01*
X285322619Y-198852438D01*
X285322619Y-199347676D01*
X285384523Y-199471485D01*
X285446428Y-199533390D01*
X285570238Y-199595295D01*
X285817857Y-199595295D01*
X285941666Y-199533390D01*
X286003571Y-199471485D01*
X286065476Y-199347676D01*
X286065476Y-199038152D01*
X286003571Y-198914342D01*
X285941666Y-198852438D01*
X285817857Y-198790533D01*
X285570238Y-198790533D01*
X285446428Y-198852438D01*
X285384523Y-198914342D01*
X285322619Y-199038152D01*
D10*
D11*
X10000000Y-60000000D02*
X12000000Y-60000000D01*
D10*
D11*
X10000000Y-110000000D02*
X12000000Y-110000000D01*
D10*
D11*
X10000000Y-160000000D02*
X12000000Y-160000000D01*
D10*
D11*
X10690476Y-35216666D02*
X11309523Y-35216666D01*
X10566666Y-35588095D02*
X11000000Y-34288095D01*
X11433333Y-35588095D01*
D10*
D11*
X11092857Y-84907142D02*
X11278571Y-84969047D01*
X11340476Y-85030952D01*
X11402380Y-85154761D01*
X11402380Y-85340476D01*
X11340476Y-85464285D01*
X11278571Y-85526190D01*
X11154761Y-85588095D01*
X10659523Y-85588095D01*
X10659523Y-84288095D01*
X11092857Y-84288095D01*
X11216666Y-84350000D01*
X11278571Y-84411904D01*
X11340476Y-84535714D01*
X11340476Y-84659523D01*
X11278571Y-84783333D01*
X11216666Y-84845238D01*
X11092857Y-84907142D01*
X10659523Y-84907142D01*
D10*
D11*
X11402380Y-135464285D02*
X11340476Y-135526190D01*
X11154761Y-135588095D01*
X11030952Y-135588095D01*
X10845238Y-135526190D01*
X10721428Y-135402380D01*
X10659523Y-135278571D01*
X10597619Y-135030952D01*
X10597619Y-134845238D01*
X10659523Y-134597619D01*
X10721428Y-134473809D01*
X10845238Y-134350000D01*
X11030952Y-134288095D01*
X11154761Y-134288095D01*
X11340476Y-134350000D01*
X11402380Y-134411904D01*
D10*
D11*
X10659523Y-185588095D02*
X10659523Y-184288095D01*
X10969047Y-184288095D01*
X11154761Y-184350000D01*
X11278571Y-184473809D01*
X11340476Y-184597619D01*
X11402380Y-184845238D01*
X11402380Y-185030952D01*
X11340476Y-185278571D01*
X11278571Y-185402380D01*
X11154761Y-185526190D01*
X10969047Y-185588095D01*
X10659523Y-185588095D01*
D10*
D11*
X287002200Y-60000000D02*
X285002200Y-60000000D01*
D10*
D11*
X287002200Y-110000000D02*
X285002200Y-110000000D01*
D10*
D11*
X287002200Y-160000000D02*
X285002200Y-160000000D01*
D10*
D11*
X285692676Y-35216666D02*
X286311723Y-35216666D01*
X285568866Y-35588095D02*
X286002200Y-34288095D01*
X286435533Y-35588095D01*
D10*
D11*
X286095057Y-84907142D02*
X286280771Y-84969047D01*
X286342676Y-85030952D01*
X286404580Y-85154761D01*
X286404580Y-85340476D01*
X286342676Y-85464285D01*
X286280771Y-85526190D01*
X286156961Y-85588095D01*
X285661723Y-85588095D01*
X285661723Y-84288095D01*
X286095057Y-84288095D01*
X286218866Y-84350000D01*
X286280771Y-84411904D01*
X286342676Y-84535714D01*
X286342676Y-84659523D01*
X286280771Y-84783333D01*
X286218866Y-84845238D01*
X286095057Y-84907142D01*
X285661723Y-84907142D01*
D10*
D11*
X286404580Y-135464285D02*
X286342676Y-135526190D01*
X286156961Y-135588095D01*
X286033152Y-135588095D01*
X285847438Y-135526190D01*
X285723628Y-135402380D01*
X285661723Y-135278571D01*
X285599819Y-135030952D01*
X285599819Y-134845238D01*
X285661723Y-134597619D01*
X285723628Y-134473809D01*
X285847438Y-134350000D01*
X286033152Y-134288095D01*
X286156961Y-134288095D01*
X286342676Y-134350000D01*
X286404580Y-134411904D01*
D10*
D11*
X285661723Y-185588095D02*
X285661723Y-184288095D01*
X285971247Y-184288095D01*
X286156961Y-184350000D01*
X286280771Y-184473809D01*
X286342676Y-184597619D01*
X286404580Y-184845238D01*
X286404580Y-185030952D01*
X286342676Y-185278571D01*
X286280771Y-185402380D01*
X286156961Y-185526190D01*
X285971247Y-185588095D01*
X285661723Y-185588095D01*
D10*
D11*
X200434342Y-193785771D02*
X200434342Y-192285771D01*
X200791485Y-192285771D01*
X201005771Y-192357200D01*
X201148628Y-192500057D01*
X201220057Y-192642914D01*
X201291485Y-192928628D01*
X201291485Y-193142914D01*
X201220057Y-193428628D01*
X201148628Y-193571485D01*
X201005771Y-193714342D01*
X200791485Y-193785771D01*
X200434342Y-193785771D01*
X202577200Y-193785771D02*
X202577200Y-193000057D01*
X202505771Y-192857200D01*
X202362914Y-192785771D01*
X202077200Y-192785771D01*
X201934342Y-192857200D01*
X202577200Y-193714342D02*
X202434342Y-193785771D01*
X202077200Y-193785771D01*
X201934342Y-193714342D01*
X201862914Y-193571485D01*
X201862914Y-193428628D01*
X201934342Y-193285771D01*
X202077200Y-193214342D01*
X202434342Y-193214342D01*
X202577200Y-193142914D01*
X203077200Y-192785771D02*
X203648628Y-192785771D01*
X203291485Y-192285771D02*
X203291485Y-193571485D01*
X203362914Y-193714342D01*
X203505771Y-193785771D01*
X203648628Y-193785771D01*
X204720057Y-193714342D02*
X204577200Y-193785771D01*
X204291485Y-193785771D01*
X204148628Y-193714342D01*
X204077200Y-193571485D01*
X204077200Y-193000057D01*
X204148628Y-192857200D01*
X204291485Y-192785771D01*
X204577200Y-192785771D01*
X204720057Y-192857200D01*
X204791485Y-193000057D01*
X204791485Y-193142914D01*
X204077200Y-193285771D01*
X205434342Y-193642914D02*
X205505771Y-193714342D01*
X205434342Y-193785771D01*
X205362914Y-193714342D01*
X205434342Y-193642914D01*
X205434342Y-193785771D01*
X205434342Y-192857200D02*
X205505771Y-192928628D01*
X205434342Y-193000057D01*
X205362914Y-192928628D01*
X205434342Y-192857200D01*
X205434342Y-193000057D01*
D10*
D11*
X177002200Y-194507200D02*
X285002200Y-194507200D01*
D10*
D11*
X178434342Y-196585771D02*
X178434342Y-195085771D01*
X179291485Y-196585771D02*
X178648628Y-195728628D01*
X179291485Y-195085771D02*
X178434342Y-195942914D01*
X179934342Y-196585771D02*
X179934342Y-195585771D01*
X179934342Y-195085771D02*
X179862914Y-195157200D01*
X179934342Y-195228628D01*
X180005771Y-195157200D01*
X179934342Y-195085771D01*
X179934342Y-195228628D01*
X181505771Y-196442914D02*
X181434342Y-196514342D01*
X181220057Y-196585771D01*
X181077200Y-196585771D01*
X180862914Y-196514342D01*
X180720057Y-196371485D01*
X180648628Y-196228628D01*
X180577200Y-195942914D01*
X180577200Y-195728628D01*
X180648628Y-195442914D01*
X180720057Y-195300057D01*
X180862914Y-195157200D01*
X181077200Y-195085771D01*
X181220057Y-195085771D01*
X181434342Y-195157200D01*
X181505771Y-195228628D01*
X182791485Y-196585771D02*
X182791485Y-195800057D01*
X182720057Y-195657200D01*
X182577200Y-195585771D01*
X182291485Y-195585771D01*
X182148628Y-195657200D01*
X182791485Y-196514342D02*
X182648628Y-196585771D01*
X182291485Y-196585771D01*
X182148628Y-196514342D01*
X182077200Y-196371485D01*
X182077200Y-196228628D01*
X182148628Y-196085771D01*
X182291485Y-196014342D01*
X182648628Y-196014342D01*
X182791485Y-195942914D01*
X184148628Y-196585771D02*
X184148628Y-195085771D01*
X184148628Y-196514342D02*
X184005771Y-196585771D01*
X183720057Y-196585771D01*
X183577200Y-196514342D01*
X183505771Y-196442914D01*
X183434342Y-196300057D01*
X183434342Y-195871485D01*
X183505771Y-195728628D01*
X183577200Y-195657200D01*
X183720057Y-195585771D01*
X184005771Y-195585771D01*
X184148628Y-195657200D01*
X186005771Y-195800057D02*
X186505771Y-195800057D01*
X186720057Y-196585771D02*
X186005771Y-196585771D01*
X186005771Y-195085771D01*
X186720057Y-195085771D01*
X187362914Y-196442914D02*
X187434342Y-196514342D01*
X187362914Y-196585771D01*
X187291485Y-196514342D01*
X187362914Y-196442914D01*
X187362914Y-196585771D01*
X188077200Y-196585771D02*
X188077200Y-195085771D01*
X188434342Y-195085771D01*
X188648628Y-195157200D01*
X188791485Y-195300057D01*
X188862914Y-195442914D01*
X188934342Y-195728628D01*
X188934342Y-195942914D01*
X188862914Y-196228628D01*
X188791485Y-196371485D01*
X188648628Y-196514342D01*
X188434342Y-196585771D01*
X188077200Y-196585771D01*
X189577200Y-196442914D02*
X189648628Y-196514342D01*
X189577200Y-196585771D01*
X189505771Y-196514342D01*
X189577200Y-196442914D01*
X189577200Y-196585771D01*
X190220057Y-196157200D02*
X190934342Y-196157200D01*
X190077200Y-196585771D02*
X190577200Y-195085771D01*
X191077200Y-196585771D01*
X191577200Y-196442914D02*
X191648628Y-196514342D01*
X191577200Y-196585771D01*
X191505771Y-196514342D01*
X191577200Y-196442914D01*
X191577200Y-196585771D01*
X194577200Y-195585771D02*
X194577200Y-197085771D01*
X194577200Y-195657200D02*
X194720057Y-195585771D01*
X195005771Y-195585771D01*
X195148628Y-195657200D01*
X195220057Y-195728628D01*
X195291485Y-195871485D01*
X195291485Y-196300057D01*
X195220057Y-196442914D01*
X195148628Y-196514342D01*
X195005771Y-196585771D01*
X194720057Y-196585771D01*
X194577200Y-196514342D01*
X196577200Y-196514342D02*
X196434342Y-196585771D01*
X196148628Y-196585771D01*
X196005771Y-196514342D01*
X195934342Y-196442914D01*
X195862914Y-196300057D01*
X195862914Y-195871485D01*
X195934342Y-195728628D01*
X196005771Y-195657200D01*
X196148628Y-195585771D01*
X196434342Y-195585771D01*
X196577200Y-195657200D01*
X197220057Y-196585771D02*
X197220057Y-195085771D01*
X197220057Y-195657200D02*
X197362914Y-195585771D01*
X197648628Y-195585771D01*
X197791485Y-195657200D01*
X197862914Y-195728628D01*
X197934342Y-195871485D01*
X197934342Y-196300057D01*
X197862914Y-196442914D01*
X197791485Y-196514342D01*
X197648628Y-196585771D01*
X197362914Y-196585771D01*
X197220057Y-196514342D01*
X198577200Y-195585771D02*
X198577200Y-196585771D01*
X198577200Y-195728628D02*
X198648628Y-195657200D01*
X198791485Y-195585771D01*
X199005771Y-195585771D01*
X199148628Y-195657200D01*
X199220057Y-195800057D01*
X199220057Y-196585771D01*
X200505771Y-196514342D02*
X200362914Y-196585771D01*
X200077200Y-196585771D01*
X199934342Y-196514342D01*
X199862914Y-196371485D01*
X199862914Y-195800057D01*
X199934342Y-195657200D01*
X200077200Y-195585771D01*
X200362914Y-195585771D01*
X200505771Y-195657200D01*
X200577200Y-195800057D01*
X200577200Y-195942914D01*
X199862914Y-196085771D01*
X201077200Y-195585771D02*
X201362914Y-196585771D01*
X201648628Y-195871485D01*
X201934342Y-196585771D01*
X202220057Y-195585771D01*
X204648628Y-195085771D02*
X203934342Y-195085771D01*
X203862914Y-195800057D01*
X203934342Y-195728628D01*
X204077200Y-195657200D01*
X204434342Y-195657200D01*
X204577200Y-195728628D01*
X204648628Y-195800057D01*
X204720057Y-195942914D01*
X204720057Y-196300057D01*
X204648628Y-196442914D01*
X204577200Y-196514342D01*
X204434342Y-196585771D01*
X204077200Y-196585771D01*
X203934342Y-196514342D01*
X203862914Y-196442914D01*
X205362914Y-196442914D02*
X205434342Y-196514342D01*
X205362914Y-196585771D01*
X205291485Y-196514342D01*
X205362914Y-196442914D01*
X205362914Y-196585771D01*
X206362914Y-195085771D02*
X206505771Y-195085771D01*
X206648628Y-195157200D01*
X206720057Y-195228628D01*
X206791485Y-195371485D01*
X206862914Y-195657200D01*
X206862914Y-196014342D01*
X206791485Y-196300057D01*
X206720057Y-196442914D01*
X206648628Y-196514342D01*
X206505771Y-196585771D01*
X206362914Y-196585771D01*
X206220057Y-196514342D01*
X206148628Y-196442914D01*
X206077200Y-196300057D01*
X206005771Y-196014342D01*
X206005771Y-195657200D01*
X206077200Y-195371485D01*
X206148628Y-195228628D01*
X206220057Y-195157200D01*
X206362914Y-195085771D01*
X207505771Y-196442914D02*
X207577200Y-196514342D01*
X207505771Y-196585771D01*
X207434342Y-196514342D01*
X207505771Y-196442914D01*
X207505771Y-196585771D01*
X208148628Y-195228628D02*
X208220057Y-195157200D01*
X208362914Y-195085771D01*
X208720057Y-195085771D01*
X208862914Y-195157200D01*
X208934342Y-195228628D01*
X209005771Y-195371485D01*
X209005771Y-195514342D01*
X208934342Y-195728628D01*
X208077200Y-196585771D01*
X209005771Y-196585771D01*
X209648628Y-196014342D02*
X210791485Y-196014342D01*
X211505771Y-196585771D02*
X211505771Y-195085771D01*
X211505771Y-195657200D02*
X211648628Y-195585771D01*
X211934342Y-195585771D01*
X212077200Y-195657200D01*
X212148628Y-195728628D01*
X212220057Y-195871485D01*
X212220057Y-196300057D01*
X212148628Y-196442914D01*
X212077200Y-196514342D01*
X211934342Y-196585771D01*
X211648628Y-196585771D01*
X211505771Y-196514342D01*
X213434342Y-196514342D02*
X213291485Y-196585771D01*
X213005771Y-196585771D01*
X212862914Y-196514342D01*
X212791485Y-196371485D01*
X212791485Y-195800057D01*
X212862914Y-195657200D01*
X213005771Y-195585771D01*
X213291485Y-195585771D01*
X213434342Y-195657200D01*
X213505771Y-195800057D01*
X213505771Y-195942914D01*
X212791485Y-196085771D01*
X214720057Y-196514342D02*
X214577200Y-196585771D01*
X214291485Y-196585771D01*
X214148628Y-196514342D01*
X214077200Y-196371485D01*
X214077200Y-195800057D01*
X214148628Y-195657200D01*
X214291485Y-195585771D01*
X214577200Y-195585771D01*
X214720057Y-195657200D01*
X214791485Y-195800057D01*
X214791485Y-195942914D01*
X214077200Y-196085771D01*
X215291485Y-195085771D02*
X216291485Y-195085771D01*
X215648628Y-196585771D01*
X217505771Y-195085771D02*
X217220057Y-195085771D01*
X217077200Y-195157200D01*
X217005771Y-195228628D01*
X216862914Y-195442914D01*
X216791485Y-195728628D01*
X216791485Y-196300057D01*
X216862914Y-196442914D01*
X216934342Y-196514342D01*
X217077200Y-196585771D01*
X217362914Y-196585771D01*
X217505771Y-196514342D01*
X217577200Y-196442914D01*
X217648628Y-196300057D01*
X217648628Y-195942914D01*
X217577200Y-195800057D01*
X217505771Y-195728628D01*
X217362914Y-195657200D01*
X217077200Y-195657200D01*
X216934342Y-195728628D01*
X216862914Y-195800057D01*
X216791485Y-195942914D01*
X218934342Y-196585771D02*
X218934342Y-195800057D01*
X218862914Y-195657200D01*
X218720057Y-195585771D01*
X218434342Y-195585771D01*
X218291485Y-195657200D01*
X218934342Y-196514342D02*
X218791485Y-196585771D01*
X218434342Y-196585771D01*
X218291485Y-196514342D01*
X218220057Y-196371485D01*
X218220057Y-196228628D01*
X218291485Y-196085771D01*
X218434342Y-196014342D01*
X218791485Y-196014342D01*
X218934342Y-195942914D01*
X219934342Y-195085771D02*
X220077200Y-195085771D01*
X220220057Y-195157200D01*
X220291485Y-195228628D01*
X220362914Y-195371485D01*
X220434342Y-195657200D01*
X220434342Y-196014342D01*
X220362914Y-196300057D01*
X220291485Y-196442914D01*
X220220057Y-196514342D01*
X220077200Y-196585771D01*
X219934342Y-196585771D01*
X219791485Y-196514342D01*
X219720057Y-196442914D01*
X219648628Y-196300057D01*
X219577200Y-196014342D01*
X219577200Y-195657200D01*
X219648628Y-195371485D01*
X219720057Y-195228628D01*
X219791485Y-195157200D01*
X219934342Y-195085771D01*
X220720057Y-194677200D02*
X222148628Y-194677200D01*
X220934342Y-195085771D02*
X221934342Y-195085771D01*
X221291485Y-196585771D01*
X222148628Y-194677200D02*
X223577200Y-194677200D01*
X222791485Y-195085771D02*
X222934342Y-195085771D01*
X223077200Y-195157200D01*
X223148628Y-195228628D01*
X223220057Y-195371485D01*
X223291485Y-195657200D01*
X223291485Y-196014342D01*
X223220057Y-196300057D01*
X223148628Y-196442914D01*
X223077200Y-196514342D01*
X222934342Y-196585771D01*
X222791485Y-196585771D01*
X222648628Y-196514342D01*
X222577200Y-196442914D01*
X222505771Y-196300057D01*
X222434342Y-196014342D01*
X222434342Y-195657200D01*
X222505771Y-195371485D01*
X222577200Y-195228628D01*
X222648628Y-195157200D01*
X222791485Y-195085771D01*
X224577200Y-195585771D02*
X224577200Y-196585771D01*
X223934342Y-195585771D02*
X223934342Y-196371485D01*
X224005771Y-196514342D01*
X224148628Y-196585771D01*
X224362914Y-196585771D01*
X224505771Y-196514342D01*
X224577200Y-196442914D01*
X225291485Y-196585771D02*
X225291485Y-195085771D01*
X225291485Y-195657200D02*
X225434342Y-195585771D01*
X225720057Y-195585771D01*
X225862914Y-195657200D01*
X225934342Y-195728628D01*
X226005771Y-195871485D01*
X226005771Y-196300057D01*
X225934342Y-196442914D01*
X225862914Y-196514342D01*
X225720057Y-196585771D01*
X225434342Y-196585771D01*
X225291485Y-196514342D01*
X227291485Y-195585771D02*
X227291485Y-196585771D01*
X226648628Y-195585771D02*
X226648628Y-196371485D01*
X226720057Y-196514342D01*
X226862914Y-196585771D01*
X227077200Y-196585771D01*
X227220057Y-196514342D01*
X227291485Y-196442914D01*
X228005771Y-195585771D02*
X228005771Y-196585771D01*
X228005771Y-195728628D02*
X228077200Y-195657200D01*
X228220057Y-195585771D01*
X228434342Y-195585771D01*
X228577200Y-195657200D01*
X228648628Y-195800057D01*
X228648628Y-196585771D01*
X229148628Y-195585771D02*
X229720057Y-195585771D01*
X229362914Y-195085771D02*
X229362914Y-196371485D01*
X229434342Y-196514342D01*
X229577200Y-196585771D01*
X229720057Y-196585771D01*
X230862914Y-195585771D02*
X230862914Y-196585771D01*
X230220057Y-195585771D02*
X230220057Y-196371485D01*
X230291485Y-196514342D01*
X230434342Y-196585771D01*
X230648628Y-196585771D01*
X230791485Y-196514342D01*
X230862914Y-196442914D01*
X232362914Y-196585771D02*
X231505771Y-196585771D01*
X231934342Y-196585771D02*
X231934342Y-195085771D01*
X231791485Y-195300057D01*
X231648628Y-195442914D01*
X231505771Y-195514342D01*
X233220057Y-195728628D02*
X233077200Y-195657200D01*
X233005771Y-195585771D01*
X232934342Y-195442914D01*
X232934342Y-195371485D01*
X233005771Y-195228628D01*
X233077200Y-195157200D01*
X233220057Y-195085771D01*
X233505771Y-195085771D01*
X233648628Y-195157200D01*
X233720057Y-195228628D01*
X233791485Y-195371485D01*
X233791485Y-195442914D01*
X233720057Y-195585771D01*
X233648628Y-195657200D01*
X233505771Y-195728628D01*
X233220057Y-195728628D01*
X233077200Y-195800057D01*
X233005771Y-195871485D01*
X232934342Y-196014342D01*
X232934342Y-196300057D01*
X233005771Y-196442914D01*
X233077200Y-196514342D01*
X233220057Y-196585771D01*
X233505771Y-196585771D01*
X233648628Y-196514342D01*
X233720057Y-196442914D01*
X233791485Y-196300057D01*
X233791485Y-196014342D01*
X233720057Y-195871485D01*
X233648628Y-195800057D01*
X233505771Y-195728628D01*
X234434342Y-196442914D02*
X234505771Y-196514342D01*
X234434342Y-196585771D01*
X234362914Y-196514342D01*
X234434342Y-196442914D01*
X234434342Y-196585771D01*
X235434342Y-195085771D02*
X235577200Y-195085771D01*
X235720057Y-195157200D01*
X235791485Y-195228628D01*
X235862914Y-195371485D01*
X235934342Y-195657200D01*
X235934342Y-196014342D01*
X235862914Y-196300057D01*
X235791485Y-196442914D01*
X235720057Y-196514342D01*
X235577200Y-196585771D01*
X235434342Y-196585771D01*
X235291485Y-196514342D01*
X235220057Y-196442914D01*
X235148628Y-196300057D01*
X235077200Y-196014342D01*
X235077200Y-195657200D01*
X235148628Y-195371485D01*
X235220057Y-195228628D01*
X235291485Y-195157200D01*
X235434342Y-195085771D01*
X237220057Y-195585771D02*
X237220057Y-196585771D01*
X236862914Y-195014342D02*
X236505771Y-196085771D01*
X237434342Y-196085771D01*
X238005771Y-196442914D02*
X238077199Y-196514342D01*
X238005771Y-196585771D01*
X237934342Y-196514342D01*
X238005771Y-196442914D01*
X238005771Y-196585771D01*
X239505771Y-196585771D02*
X238648628Y-196585771D01*
X239077200Y-196585771D02*
X239077200Y-195085771D01*
X238934342Y-195300057D01*
X238791485Y-195442914D01*
X238648628Y-195514342D01*
D10*
D11*
X177002200Y-191507200D02*
X285002200Y-191507200D01*
D10*
D12*
X264411485Y-193785771D02*
X263911485Y-193071485D01*
X263554342Y-193785771D02*
X263554342Y-192285771D01*
X264125771Y-192285771D01*
X264268628Y-192357200D01*
X264340057Y-192428628D01*
X264411485Y-192571485D01*
X264411485Y-192785771D01*
X264340057Y-192928628D01*
X264268628Y-193000057D01*
X264125771Y-193071485D01*
X263554342Y-193071485D01*
X265625771Y-193714342D02*
X265482914Y-193785771D01*
X265197200Y-193785771D01*
X265054342Y-193714342D01*
X264982914Y-193571485D01*
X264982914Y-193000057D01*
X265054342Y-192857200D01*
X265197200Y-192785771D01*
X265482914Y-192785771D01*
X265625771Y-192857200D01*
X265697200Y-193000057D01*
X265697200Y-193142914D01*
X264982914Y-193285771D01*
X266197200Y-192785771D02*
X266554342Y-193785771D01*
X266911485Y-192785771D01*
X267482914Y-193642914D02*
X267554342Y-193714342D01*
X267482914Y-193785771D01*
X267411485Y-193714342D01*
X267482914Y-193642914D01*
X267482914Y-193785771D01*
X267482914Y-192857200D02*
X267554342Y-192928628D01*
X267482914Y-193000057D01*
X267411485Y-192928628D01*
X267482914Y-192857200D01*
X267482914Y-193000057D01*
D10*
D11*
X178362914Y-193714342D02*
X178577200Y-193785771D01*
X178934342Y-193785771D01*
X179077200Y-193714342D01*
X179148628Y-193642914D01*
X179220057Y-193500057D01*
X179220057Y-193357200D01*
X179148628Y-193214342D01*
X179077200Y-193142914D01*
X178934342Y-193071485D01*
X178648628Y-193000057D01*
X178505771Y-192928628D01*
X178434342Y-192857200D01*
X178362914Y-192714342D01*
X178362914Y-192571485D01*
X178434342Y-192428628D01*
X178505771Y-192357200D01*
X178648628Y-192285771D01*
X179005771Y-192285771D01*
X179220057Y-192357200D01*
X179862914Y-193785771D02*
X179862914Y-192785771D01*
X179862914Y-192285771D02*
X179791485Y-192357200D01*
X179862914Y-192428628D01*
X179934342Y-192357200D01*
X179862914Y-192285771D01*
X179862914Y-192428628D01*
X180434342Y-192785771D02*
X181220057Y-192785771D01*
X180434342Y-193785771D01*
X181220057Y-193785771D01*
X182362914Y-193714342D02*
X182220057Y-193785771D01*
X181934342Y-193785771D01*
X181791485Y-193714342D01*
X181720057Y-193571485D01*
X181720057Y-193000057D01*
X181791485Y-192857200D01*
X181934342Y-192785771D01*
X182220057Y-192785771D01*
X182362914Y-192857200D01*
X182434342Y-193000057D01*
X182434342Y-193142914D01*
X181720057Y-193285771D01*
X183077200Y-193642914D02*
X183148628Y-193714342D01*
X183077200Y-193785771D01*
X183005771Y-193714342D01*
X183077200Y-193642914D01*
X183077200Y-193785771D01*
X183077200Y-192857200D02*
X183148628Y-192928628D01*
X183077200Y-193000057D01*
X183005771Y-192928628D01*
X183077200Y-192857200D01*
X183077200Y-193000057D01*
X184862914Y-193357200D02*
X185577200Y-193357200D01*
X184720057Y-193785771D02*
X185220057Y-192285771D01*
X185720057Y-193785771D01*
X186862914Y-192785771D02*
X186862914Y-193785771D01*
X186505771Y-192214342D02*
X186148628Y-193285771D01*
X187077200Y-193285771D01*
D10*
D11*
X263434342Y-196585771D02*
X263434342Y-195085771D01*
X264791485Y-196585771D02*
X264791485Y-195085771D01*
X264791485Y-196514342D02*
X264648628Y-196585771D01*
X264362914Y-196585771D01*
X264220057Y-196514342D01*
X264148628Y-196442914D01*
X264077200Y-196300057D01*
X264077200Y-195871485D01*
X264148628Y-195728628D01*
X264220057Y-195657200D01*
X264362914Y-195585771D01*
X264648628Y-195585771D01*
X264791485Y-195657200D01*
X265505771Y-196442914D02*
X265577200Y-196514342D01*
X265505771Y-196585771D01*
X265434342Y-196514342D01*
X265505771Y-196442914D01*
X265505771Y-196585771D01*
X265505771Y-195657200D02*
X265577200Y-195728628D01*
X265505771Y-195800057D01*
X265434342Y-195728628D01*
X265505771Y-195657200D01*
X265505771Y-195800057D01*
X268148628Y-196585771D02*
X267291485Y-196585771D01*
X267720057Y-196585771D02*
X267720057Y-195085771D01*
X267577200Y-195300057D01*
X267434342Y-195442914D01*
X267291485Y-195514342D01*
X269862914Y-195014342D02*
X268577200Y-196942914D01*
X271148628Y-196585771D02*
X270291485Y-196585771D01*
X270720057Y-196585771D02*
X270720057Y-195085771D01*
X270577200Y-195300057D01*
X270434342Y-195442914D01*
X270291485Y-195514342D01*
D10*
D11*
X177002200Y-187507200D02*
X285002200Y-187507200D01*
D10*
D13*
X178714580Y-188211961D02*
X179857438Y-188211961D01*
X179036009Y-190211961D02*
X179286009Y-188211961D01*
X180274104Y-190211961D02*
X180440771Y-188878628D01*
X180524104Y-188211961D02*
X180416961Y-188307200D01*
X180500295Y-188402438D01*
X180607438Y-188307200D01*
X180524104Y-188211961D01*
X180500295Y-188402438D01*
X181107438Y-188878628D02*
X181869342Y-188878628D01*
X181476485Y-188211961D02*
X181262200Y-189926247D01*
X181333628Y-190116723D01*
X181512200Y-190211961D01*
X181702676Y-190211961D01*
X182655057Y-190211961D02*
X182476485Y-190116723D01*
X182405057Y-189926247D01*
X182619342Y-188211961D01*
X184190771Y-190116723D02*
X183988390Y-190211961D01*
X183607438Y-190211961D01*
X183428866Y-190116723D01*
X183357438Y-189926247D01*
X183452676Y-189164342D01*
X183571723Y-188973866D01*
X183774104Y-188878628D01*
X184155057Y-188878628D01*
X184333628Y-188973866D01*
X184405057Y-189164342D01*
X184381247Y-189354819D01*
X183405057Y-189545295D01*
X185155057Y-190021485D02*
X185238390Y-190116723D01*
X185131247Y-190211961D01*
X185047914Y-190116723D01*
X185155057Y-190021485D01*
X185131247Y-190211961D01*
X185286009Y-188973866D02*
X185369342Y-189069104D01*
X185262200Y-189164342D01*
X185178866Y-189069104D01*
X185286009Y-188973866D01*
X185262200Y-189164342D01*
D10*
D11*
X178934342Y-185600057D02*
X178434342Y-185600057D01*
X178434342Y-186385771D02*
X178434342Y-184885771D01*
X179148628Y-184885771D01*
X179720057Y-186385771D02*
X179720057Y-185385771D01*
X179720057Y-184885771D02*
X179648628Y-184957200D01*
X179720057Y-185028628D01*
X179791485Y-184957200D01*
X179720057Y-184885771D01*
X179720057Y-185028628D01*
X180648628Y-186385771D02*
X180505771Y-186314342D01*
X180434342Y-186171485D01*
X180434342Y-184885771D01*
X181791485Y-186314342D02*
X181648628Y-186385771D01*
X181362914Y-186385771D01*
X181220057Y-186314342D01*
X181148628Y-186171485D01*
X181148628Y-185600057D01*
X181220057Y-185457200D01*
X181362914Y-185385771D01*
X181648628Y-185385771D01*
X181791485Y-185457200D01*
X181862914Y-185600057D01*
X181862914Y-185742914D01*
X181148628Y-185885771D01*
X182505771Y-186242914D02*
X182577200Y-186314342D01*
X182505771Y-186385771D01*
X182434342Y-186314342D01*
X182505771Y-186242914D01*
X182505771Y-186385771D01*
X182505771Y-185457200D02*
X182577200Y-185528628D01*
X182505771Y-185600057D01*
X182434342Y-185528628D01*
X182505771Y-185457200D01*
X182505771Y-185600057D01*
X184577200Y-185528628D02*
X184434342Y-185457200D01*
X184362914Y-185385771D01*
X184291485Y-185242914D01*
X184291485Y-185171485D01*
X184362914Y-185028628D01*
X184434342Y-184957200D01*
X184577200Y-184885771D01*
X184862914Y-184885771D01*
X185005771Y-184957200D01*
X185077200Y-185028628D01*
X185148628Y-185171485D01*
X185148628Y-185242914D01*
X185077200Y-185385771D01*
X185005771Y-185457200D01*
X184862914Y-185528628D01*
X184577200Y-185528628D01*
X184434342Y-185600057D01*
X184362914Y-185671485D01*
X184291485Y-185814342D01*
X184291485Y-186100057D01*
X184362914Y-186242914D01*
X184434342Y-186314342D01*
X184577200Y-186385771D01*
X184862914Y-186385771D01*
X185005771Y-186314342D01*
X185077200Y-186242914D01*
X185148628Y-186100057D01*
X185148628Y-185814342D01*
X185077200Y-185671485D01*
X185005771Y-185600057D01*
X184862914Y-185528628D01*
X185791485Y-186385771D02*
X185791485Y-184885771D01*
X185934342Y-185814342D02*
X186362914Y-186385771D01*
X186362914Y-185385771D02*
X185791485Y-185957200D01*
X187577200Y-186314342D02*
X187434342Y-186385771D01*
X187148628Y-186385771D01*
X187005771Y-186314342D01*
X186934342Y-186171485D01*
X186934342Y-185600057D01*
X187005771Y-185457200D01*
X187148628Y-185385771D01*
X187434342Y-185385771D01*
X187577200Y-185457200D01*
X187648628Y-185600057D01*
X187648628Y-185742914D01*
X186934342Y-185885771D01*
X188148628Y-185385771D02*
X188505771Y-186385771D01*
X188862914Y-185385771D02*
X188505771Y-186385771D01*
X188362914Y-186742914D01*
X188291485Y-186814342D01*
X188148628Y-186885771D01*
X189291485Y-185385771D02*
X189648628Y-186385771D01*
X190005771Y-185385771D01*
X190505771Y-185028628D02*
X190577200Y-184957200D01*
X190720057Y-184885771D01*
X191077200Y-184885771D01*
X191220057Y-184957200D01*
X191291485Y-185028628D01*
X191362914Y-185171485D01*
X191362914Y-185314342D01*
X191291485Y-185528628D01*
X190434342Y-186385771D01*
X191362914Y-186385771D01*
X192005771Y-186242914D02*
X192077200Y-186314342D01*
X192005771Y-186385771D01*
X191934342Y-186314342D01*
X192005771Y-186242914D01*
X192005771Y-186385771D01*
X192720057Y-186385771D02*
X192720057Y-184885771D01*
X192862914Y-185814342D02*
X193291485Y-186385771D01*
X193291485Y-185385771D02*
X192720057Y-185957200D01*
X193934342Y-186385771D02*
X193934342Y-185385771D01*
X193934342Y-184885771D02*
X193862914Y-184957200D01*
X193934342Y-185028628D01*
X194005771Y-184957200D01*
X193934342Y-184885771D01*
X193934342Y-185028628D01*
X195291485Y-186314342D02*
X195148628Y-186385771D01*
X194862914Y-186385771D01*
X194720057Y-186314342D01*
X194648628Y-186242914D01*
X194577200Y-186100057D01*
X194577200Y-185671485D01*
X194648628Y-185528628D01*
X194720057Y-185457200D01*
X194862914Y-185385771D01*
X195148628Y-185385771D01*
X195291485Y-185457200D01*
X196577200Y-186385771D02*
X196577200Y-185600057D01*
X196505771Y-185457200D01*
X196362914Y-185385771D01*
X196077200Y-185385771D01*
X195934342Y-185457200D01*
X196577200Y-186314342D02*
X196434342Y-186385771D01*
X196077200Y-186385771D01*
X195934342Y-186314342D01*
X195862914Y-186171485D01*
X195862914Y-186028628D01*
X195934342Y-185885771D01*
X196077200Y-185814342D01*
X196434342Y-185814342D01*
X196577200Y-185742914D01*
X197934342Y-186385771D02*
X197934342Y-184885771D01*
X197934342Y-186314342D02*
X197791485Y-186385771D01*
X197505771Y-186385771D01*
X197362914Y-186314342D01*
X197291485Y-186242914D01*
X197220057Y-186100057D01*
X197220057Y-185671485D01*
X197291485Y-185528628D01*
X197362914Y-185457200D01*
X197505771Y-185385771D01*
X197791485Y-185385771D01*
X197934342Y-185457200D01*
X198291485Y-186528628D02*
X199434342Y-186528628D01*
X199791485Y-185385771D02*
X199791485Y-186885771D01*
X199791485Y-185457200D02*
X199934342Y-185385771D01*
X200220057Y-185385771D01*
X200362914Y-185457200D01*
X200434342Y-185528628D01*
X200505771Y-185671485D01*
X200505771Y-186100057D01*
X200434342Y-186242914D01*
X200362914Y-186314342D01*
X200220057Y-186385771D01*
X199934342Y-186385771D01*
X199791485Y-186314342D01*
X201791485Y-186314342D02*
X201648628Y-186385771D01*
X201362914Y-186385771D01*
X201220057Y-186314342D01*
X201148628Y-186242914D01*
X201077200Y-186100057D01*
X201077200Y-185671485D01*
X201148628Y-185528628D01*
X201220057Y-185457200D01*
X201362914Y-185385771D01*
X201648628Y-185385771D01*
X201791485Y-185457200D01*
X202434342Y-186385771D02*
X202434342Y-184885771D01*
X202434342Y-185457200D02*
X202577200Y-185385771D01*
X202862914Y-185385771D01*
X203005771Y-185457200D01*
X203077200Y-185528628D01*
X203148628Y-185671485D01*
X203148628Y-186100057D01*
X203077200Y-186242914D01*
X203005771Y-186314342D01*
X202862914Y-186385771D01*
X202577200Y-186385771D01*
X202434342Y-186314342D01*
D10*
D11*
X177002200Y-181507200D02*
X285002200Y-181507200D01*
D10*
D11*
X178362914Y-183614342D02*
X178577200Y-183685771D01*
X178934342Y-183685771D01*
X179077200Y-183614342D01*
X179148628Y-183542914D01*
X179220057Y-183400057D01*
X179220057Y-183257200D01*
X179148628Y-183114342D01*
X179077200Y-183042914D01*
X178934342Y-182971485D01*
X178648628Y-182900057D01*
X178505771Y-182828628D01*
X178434342Y-182757200D01*
X178362914Y-182614342D01*
X178362914Y-182471485D01*
X178434342Y-182328628D01*
X178505771Y-182257200D01*
X178648628Y-182185771D01*
X179005771Y-182185771D01*
X179220057Y-182257200D01*
X179862914Y-183685771D02*
X179862914Y-182185771D01*
X180505771Y-183685771D02*
X180505771Y-182900057D01*
X180434342Y-182757200D01*
X180291485Y-182685771D01*
X180077200Y-182685771D01*
X179934342Y-182757200D01*
X179862914Y-182828628D01*
X181791485Y-183614342D02*
X181648628Y-183685771D01*
X181362914Y-183685771D01*
X181220057Y-183614342D01*
X181148628Y-183471485D01*
X181148628Y-182900057D01*
X181220057Y-182757200D01*
X181362914Y-182685771D01*
X181648628Y-182685771D01*
X181791485Y-182757200D01*
X181862914Y-182900057D01*
X181862914Y-183042914D01*
X181148628Y-183185771D01*
X183077200Y-183614342D02*
X182934342Y-183685771D01*
X182648628Y-183685771D01*
X182505771Y-183614342D01*
X182434342Y-183471485D01*
X182434342Y-182900057D01*
X182505771Y-182757200D01*
X182648628Y-182685771D01*
X182934342Y-182685771D01*
X183077200Y-182757200D01*
X183148628Y-182900057D01*
X183148628Y-183042914D01*
X182434342Y-183185771D01*
X183577200Y-182685771D02*
X184148628Y-182685771D01*
X183791485Y-182185771D02*
X183791485Y-183471485D01*
X183862914Y-183614342D01*
X184005771Y-183685771D01*
X184148628Y-183685771D01*
X184648628Y-183542914D02*
X184720057Y-183614342D01*
X184648628Y-183685771D01*
X184577200Y-183614342D01*
X184648628Y-183542914D01*
X184648628Y-183685771D01*
X184648628Y-182757200D02*
X184720057Y-182828628D01*
X184648628Y-182900057D01*
X184577200Y-182828628D01*
X184648628Y-182757200D01*
X184648628Y-182900057D01*
D10*
D11*
X197002200Y-191507200D02*
X197002200Y-194507200D01*
D10*
D11*
X261002200Y-191507200D02*
X261002200Y-198007200D01*
D14*
G04 #@! TO.C,R8*
X175460000Y-116000000D02*
X175206000Y-116000000D01*
X180540000Y-116000000D02*
X180794000Y-116000000D01*
X175460000Y-116000000D02*
X175460000Y-115238000D01*
X175460000Y-116762000D02*
X175460000Y-116000000D01*
X180540000Y-116762000D02*
X175460000Y-116762000D01*
X180540000Y-116000000D02*
X180540000Y-116762000D01*
X180540000Y-115238000D02*
X180540000Y-116000000D01*
X175460000Y-115238000D02*
X180540000Y-115238000D01*
G04 #@! TO.C,R1*
X123540000Y-97762000D02*
X118460000Y-97762000D01*
X118460000Y-97762000D02*
X118460000Y-97000000D01*
X118460000Y-97000000D02*
X118460000Y-96238000D01*
X118460000Y-96238000D02*
X123540000Y-96238000D01*
X123540000Y-96238000D02*
X123540000Y-97000000D01*
X123540000Y-97000000D02*
X123540000Y-97762000D01*
X118460000Y-97000000D02*
X118206000Y-97000000D01*
X123540000Y-97000000D02*
X123794000Y-97000000D01*
G04 #@! TO.C,R2*
X137460000Y-96238000D02*
X142540000Y-96238000D01*
X142540000Y-96238000D02*
X142540000Y-97000000D01*
X142540000Y-97000000D02*
X142540000Y-97762000D01*
X142540000Y-97762000D02*
X137460000Y-97762000D01*
X137460000Y-97762000D02*
X137460000Y-97000000D01*
X137460000Y-97000000D02*
X137460000Y-96238000D01*
X142540000Y-97000000D02*
X142794000Y-97000000D01*
X137460000Y-97000000D02*
X137206000Y-97000000D01*
G04 #@! TO.C,R3*
X156460000Y-97000000D02*
X156206000Y-97000000D01*
X161540000Y-97000000D02*
X161794000Y-97000000D01*
X156460000Y-97000000D02*
X156460000Y-96238000D01*
X156460000Y-97762000D02*
X156460000Y-97000000D01*
X161540000Y-97762000D02*
X156460000Y-97762000D01*
X161540000Y-97000000D02*
X161540000Y-97762000D01*
X161540000Y-96238000D02*
X161540000Y-97000000D01*
X156460000Y-96238000D02*
X161540000Y-96238000D01*
G04 #@! TO.C,R4*
X175460000Y-96238000D02*
X180540000Y-96238000D01*
X180540000Y-96238000D02*
X180540000Y-97000000D01*
X180540000Y-97000000D02*
X180540000Y-97762000D01*
X180540000Y-97762000D02*
X175460000Y-97762000D01*
X175460000Y-97762000D02*
X175460000Y-97000000D01*
X175460000Y-97000000D02*
X175460000Y-96238000D01*
X180540000Y-97000000D02*
X180794000Y-97000000D01*
X175460000Y-97000000D02*
X175206000Y-97000000D01*
G04 #@! TO.C,R5*
X123540000Y-116762000D02*
X118460000Y-116762000D01*
X118460000Y-116762000D02*
X118460000Y-116000000D01*
X118460000Y-116000000D02*
X118460000Y-115238000D01*
X118460000Y-115238000D02*
X123540000Y-115238000D01*
X123540000Y-115238000D02*
X123540000Y-116000000D01*
X123540000Y-116000000D02*
X123540000Y-116762000D01*
X118460000Y-116000000D02*
X118206000Y-116000000D01*
X123540000Y-116000000D02*
X123794000Y-116000000D01*
G04 #@! TO.C,R6*
X137460000Y-116000000D02*
X137206000Y-116000000D01*
X142540000Y-116000000D02*
X142794000Y-116000000D01*
X137460000Y-116000000D02*
X137460000Y-115238000D01*
X137460000Y-116762000D02*
X137460000Y-116000000D01*
X142540000Y-116762000D02*
X137460000Y-116762000D01*
X142540000Y-116000000D02*
X142540000Y-116762000D01*
X142540000Y-115238000D02*
X142540000Y-116000000D01*
X137460000Y-115238000D02*
X142540000Y-115238000D01*
G04 #@! TO.C,R7*
X156460000Y-116000000D02*
X156206000Y-116000000D01*
X161540000Y-116000000D02*
X161794000Y-116000000D01*
X156460000Y-116000000D02*
X156460000Y-115238000D01*
X156460000Y-116762000D02*
X156460000Y-116000000D01*
X161540000Y-116762000D02*
X156460000Y-116762000D01*
X161540000Y-116000000D02*
X161540000Y-116762000D01*
X161540000Y-115238000D02*
X161540000Y-116000000D01*
X156460000Y-115238000D02*
X161540000Y-115238000D01*
D11*
G04 #@! TO.C,SW1*
X115000000Y-95000000D02*
X115000000Y-93000000D01*
X117000000Y-95000000D02*
X115000000Y-95000000D01*
X127000000Y-95000000D02*
X125000000Y-95000000D01*
X127000000Y-93000000D02*
X127000000Y-95000000D01*
X127000000Y-83000000D02*
X127000000Y-85000000D01*
X125000000Y-83000000D02*
X127000000Y-83000000D01*
X115000000Y-83000000D02*
X117000000Y-83000000D01*
X115000000Y-85000000D02*
X115000000Y-83000000D01*
X128000000Y-82000000D02*
X114000000Y-82000000D01*
X128000000Y-96000000D02*
X128000000Y-82000000D01*
X114000000Y-96000000D02*
X128000000Y-96000000D01*
X114000000Y-82000000D02*
X114000000Y-96000000D01*
G04 #@! TO.C,SW2*
X134000000Y-95000000D02*
X134000000Y-93000000D01*
X136000000Y-95000000D02*
X134000000Y-95000000D01*
X146000000Y-95000000D02*
X144000000Y-95000000D01*
X146000000Y-93000000D02*
X146000000Y-95000000D01*
X146000000Y-83000000D02*
X146000000Y-85000000D01*
X144000000Y-83000000D02*
X146000000Y-83000000D01*
X134000000Y-83000000D02*
X136000000Y-83000000D01*
X134000000Y-85000000D02*
X134000000Y-83000000D01*
X147000000Y-82000000D02*
X133000000Y-82000000D01*
X147000000Y-96000000D02*
X147000000Y-82000000D01*
X133000000Y-96000000D02*
X147000000Y-96000000D01*
X133000000Y-82000000D02*
X133000000Y-96000000D01*
G04 #@! TO.C,SW3*
X152000000Y-82000000D02*
X152000000Y-96000000D01*
X152000000Y-96000000D02*
X166000000Y-96000000D01*
X166000000Y-96000000D02*
X166000000Y-82000000D01*
X166000000Y-82000000D02*
X152000000Y-82000000D01*
X153000000Y-85000000D02*
X153000000Y-83000000D01*
X153000000Y-83000000D02*
X155000000Y-83000000D01*
X163000000Y-83000000D02*
X165000000Y-83000000D01*
X165000000Y-83000000D02*
X165000000Y-85000000D01*
X165000000Y-93000000D02*
X165000000Y-95000000D01*
X165000000Y-95000000D02*
X163000000Y-95000000D01*
X155000000Y-95000000D02*
X153000000Y-95000000D01*
X153000000Y-95000000D02*
X153000000Y-93000000D01*
G04 #@! TO.C,SW4*
X171000000Y-82000000D02*
X171000000Y-96000000D01*
X171000000Y-96000000D02*
X185000000Y-96000000D01*
X185000000Y-96000000D02*
X185000000Y-82000000D01*
X185000000Y-82000000D02*
X171000000Y-82000000D01*
X172000000Y-85000000D02*
X172000000Y-83000000D01*
X172000000Y-83000000D02*
X174000000Y-83000000D01*
X182000000Y-83000000D02*
X184000000Y-83000000D01*
X184000000Y-83000000D02*
X184000000Y-85000000D01*
X184000000Y-93000000D02*
X184000000Y-95000000D01*
X184000000Y-95000000D02*
X182000000Y-95000000D01*
X174000000Y-95000000D02*
X172000000Y-95000000D01*
X172000000Y-95000000D02*
X172000000Y-93000000D01*
G04 #@! TO.C,SW5*
X115000000Y-114000000D02*
X115000000Y-112000000D01*
X117000000Y-114000000D02*
X115000000Y-114000000D01*
X127000000Y-114000000D02*
X125000000Y-114000000D01*
X127000000Y-112000000D02*
X127000000Y-114000000D01*
X127000000Y-102000000D02*
X127000000Y-104000000D01*
X125000000Y-102000000D02*
X127000000Y-102000000D01*
X115000000Y-102000000D02*
X117000000Y-102000000D01*
X115000000Y-104000000D02*
X115000000Y-102000000D01*
X128000000Y-101000000D02*
X114000000Y-101000000D01*
X128000000Y-115000000D02*
X128000000Y-101000000D01*
X114000000Y-115000000D02*
X128000000Y-115000000D01*
X114000000Y-101000000D02*
X114000000Y-115000000D01*
G04 #@! TO.C,SW6*
X133000000Y-101000000D02*
X133000000Y-115000000D01*
X133000000Y-115000000D02*
X147000000Y-115000000D01*
X147000000Y-115000000D02*
X147000000Y-101000000D01*
X147000000Y-101000000D02*
X133000000Y-101000000D01*
X134000000Y-104000000D02*
X134000000Y-102000000D01*
X134000000Y-102000000D02*
X136000000Y-102000000D01*
X144000000Y-102000000D02*
X146000000Y-102000000D01*
X146000000Y-102000000D02*
X146000000Y-104000000D01*
X146000000Y-112000000D02*
X146000000Y-114000000D01*
X146000000Y-114000000D02*
X144000000Y-114000000D01*
X136000000Y-114000000D02*
X134000000Y-114000000D01*
X134000000Y-114000000D02*
X134000000Y-112000000D01*
G04 #@! TO.C,SW7*
X152000000Y-101000000D02*
X152000000Y-115000000D01*
X152000000Y-115000000D02*
X166000000Y-115000000D01*
X166000000Y-115000000D02*
X166000000Y-101000000D01*
X166000000Y-101000000D02*
X152000000Y-101000000D01*
X153000000Y-104000000D02*
X153000000Y-102000000D01*
X153000000Y-102000000D02*
X155000000Y-102000000D01*
X163000000Y-102000000D02*
X165000000Y-102000000D01*
X165000000Y-102000000D02*
X165000000Y-104000000D01*
X165000000Y-112000000D02*
X165000000Y-114000000D01*
X165000000Y-114000000D02*
X163000000Y-114000000D01*
X155000000Y-114000000D02*
X153000000Y-114000000D01*
X153000000Y-114000000D02*
X153000000Y-112000000D01*
G04 #@! TO.C,SW8*
X172000000Y-114000000D02*
X172000000Y-112000000D01*
X174000000Y-114000000D02*
X172000000Y-114000000D01*
X184000000Y-114000000D02*
X182000000Y-114000000D01*
X184000000Y-112000000D02*
X184000000Y-114000000D01*
X184000000Y-102000000D02*
X184000000Y-104000000D01*
X182000000Y-102000000D02*
X184000000Y-102000000D01*
X172000000Y-102000000D02*
X174000000Y-102000000D01*
X172000000Y-104000000D02*
X172000000Y-102000000D01*
X185000000Y-101000000D02*
X171000000Y-101000000D01*
X185000000Y-115000000D02*
X185000000Y-101000000D01*
X171000000Y-115000000D02*
X185000000Y-115000000D01*
X171000000Y-101000000D02*
X171000000Y-115000000D01*
G04 #@! TO.C,R8*
D15*
X177898400Y-116275771D02*
X177695200Y-115985485D01*
X177550057Y-116275771D02*
X177550057Y-115666171D01*
X177782285Y-115666171D01*
X177840342Y-115695200D01*
X177869371Y-115724228D01*
X177898400Y-115782285D01*
X177898400Y-115869371D01*
X177869371Y-115927428D01*
X177840342Y-115956457D01*
X177782285Y-115985485D01*
X177550057Y-115985485D01*
X178246742Y-115927428D02*
X178188685Y-115898400D01*
X178159657Y-115869371D01*
X178130628Y-115811314D01*
X178130628Y-115782285D01*
X178159657Y-115724228D01*
X178188685Y-115695200D01*
X178246742Y-115666171D01*
X178362857Y-115666171D01*
X178420914Y-115695200D01*
X178449942Y-115724228D01*
X178478971Y-115782285D01*
X178478971Y-115811314D01*
X178449942Y-115869371D01*
X178420914Y-115898400D01*
X178362857Y-115927428D01*
X178246742Y-115927428D01*
X178188685Y-115956457D01*
X178159657Y-115985485D01*
X178130628Y-116043542D01*
X178130628Y-116159657D01*
X178159657Y-116217714D01*
X178188685Y-116246742D01*
X178246742Y-116275771D01*
X178362857Y-116275771D01*
X178420914Y-116246742D01*
X178449942Y-116217714D01*
X178478971Y-116159657D01*
X178478971Y-116043542D01*
X178449942Y-115985485D01*
X178420914Y-115956457D01*
X178362857Y-115927428D01*
G04 #@! TO.C,R1*
X120898400Y-97275771D02*
X120695200Y-96985485D01*
X120550057Y-97275771D02*
X120550057Y-96666171D01*
X120782285Y-96666171D01*
X120840342Y-96695200D01*
X120869371Y-96724228D01*
X120898400Y-96782285D01*
X120898400Y-96869371D01*
X120869371Y-96927428D01*
X120840342Y-96956457D01*
X120782285Y-96985485D01*
X120550057Y-96985485D01*
X121478971Y-97275771D02*
X121130628Y-97275771D01*
X121304800Y-97275771D02*
X121304800Y-96666171D01*
X121246742Y-96753257D01*
X121188685Y-96811314D01*
X121130628Y-96840342D01*
G04 #@! TO.C,R2*
X139898400Y-97275771D02*
X139695200Y-96985485D01*
X139550057Y-97275771D02*
X139550057Y-96666171D01*
X139782285Y-96666171D01*
X139840342Y-96695200D01*
X139869371Y-96724228D01*
X139898400Y-96782285D01*
X139898400Y-96869371D01*
X139869371Y-96927428D01*
X139840342Y-96956457D01*
X139782285Y-96985485D01*
X139550057Y-96985485D01*
X140130628Y-96724228D02*
X140159657Y-96695200D01*
X140217714Y-96666171D01*
X140362857Y-96666171D01*
X140420914Y-96695200D01*
X140449942Y-96724228D01*
X140478971Y-96782285D01*
X140478971Y-96840342D01*
X140449942Y-96927428D01*
X140101600Y-97275771D01*
X140478971Y-97275771D01*
G04 #@! TO.C,R3*
X158898400Y-97275771D02*
X158695200Y-96985485D01*
X158550057Y-97275771D02*
X158550057Y-96666171D01*
X158782285Y-96666171D01*
X158840342Y-96695200D01*
X158869371Y-96724228D01*
X158898400Y-96782285D01*
X158898400Y-96869371D01*
X158869371Y-96927428D01*
X158840342Y-96956457D01*
X158782285Y-96985485D01*
X158550057Y-96985485D01*
X159101600Y-96666171D02*
X159478971Y-96666171D01*
X159275771Y-96898400D01*
X159362857Y-96898400D01*
X159420914Y-96927428D01*
X159449942Y-96956457D01*
X159478971Y-97014514D01*
X159478971Y-97159657D01*
X159449942Y-97217714D01*
X159420914Y-97246742D01*
X159362857Y-97275771D01*
X159188685Y-97275771D01*
X159130628Y-97246742D01*
X159101600Y-97217714D01*
G04 #@! TO.C,R4*
X177898400Y-97275771D02*
X177695200Y-96985485D01*
X177550057Y-97275771D02*
X177550057Y-96666171D01*
X177782285Y-96666171D01*
X177840342Y-96695200D01*
X177869371Y-96724228D01*
X177898400Y-96782285D01*
X177898400Y-96869371D01*
X177869371Y-96927428D01*
X177840342Y-96956457D01*
X177782285Y-96985485D01*
X177550057Y-96985485D01*
X178420914Y-96869371D02*
X178420914Y-97275771D01*
X178275771Y-96637142D02*
X178130628Y-97072571D01*
X178508000Y-97072571D01*
G04 #@! TO.C,R5*
X120898400Y-116275771D02*
X120695200Y-115985485D01*
X120550057Y-116275771D02*
X120550057Y-115666171D01*
X120782285Y-115666171D01*
X120840342Y-115695200D01*
X120869371Y-115724228D01*
X120898400Y-115782285D01*
X120898400Y-115869371D01*
X120869371Y-115927428D01*
X120840342Y-115956457D01*
X120782285Y-115985485D01*
X120550057Y-115985485D01*
X121449942Y-115666171D02*
X121159657Y-115666171D01*
X121130628Y-115956457D01*
X121159657Y-115927428D01*
X121217714Y-115898400D01*
X121362857Y-115898400D01*
X121420914Y-115927428D01*
X121449942Y-115956457D01*
X121478971Y-116014514D01*
X121478971Y-116159657D01*
X121449942Y-116217714D01*
X121420914Y-116246742D01*
X121362857Y-116275771D01*
X121217714Y-116275771D01*
X121159657Y-116246742D01*
X121130628Y-116217714D01*
G04 #@! TO.C,R6*
X139898400Y-116275771D02*
X139695200Y-115985485D01*
X139550057Y-116275771D02*
X139550057Y-115666171D01*
X139782285Y-115666171D01*
X139840342Y-115695200D01*
X139869371Y-115724228D01*
X139898400Y-115782285D01*
X139898400Y-115869371D01*
X139869371Y-115927428D01*
X139840342Y-115956457D01*
X139782285Y-115985485D01*
X139550057Y-115985485D01*
X140420914Y-115666171D02*
X140304800Y-115666171D01*
X140246742Y-115695200D01*
X140217714Y-115724228D01*
X140159657Y-115811314D01*
X140130628Y-115927428D01*
X140130628Y-116159657D01*
X140159657Y-116217714D01*
X140188685Y-116246742D01*
X140246742Y-116275771D01*
X140362857Y-116275771D01*
X140420914Y-116246742D01*
X140449942Y-116217714D01*
X140478971Y-116159657D01*
X140478971Y-116014514D01*
X140449942Y-115956457D01*
X140420914Y-115927428D01*
X140362857Y-115898400D01*
X140246742Y-115898400D01*
X140188685Y-115927428D01*
X140159657Y-115956457D01*
X140130628Y-116014514D01*
G04 #@! TO.C,R7*
X158898400Y-116275771D02*
X158695200Y-115985485D01*
X158550057Y-116275771D02*
X158550057Y-115666171D01*
X158782285Y-115666171D01*
X158840342Y-115695200D01*
X158869371Y-115724228D01*
X158898400Y-115782285D01*
X158898400Y-115869371D01*
X158869371Y-115927428D01*
X158840342Y-115956457D01*
X158782285Y-115985485D01*
X158550057Y-115985485D01*
X159101600Y-115666171D02*
X159508000Y-115666171D01*
X159246742Y-116275771D01*
G04 #@! TO.C,SW1*
D11*
X116666666Y-84404761D02*
X116809523Y-84452380D01*
X117047619Y-84452380D01*
X117142857Y-84404761D01*
X117190476Y-84357142D01*
X117238095Y-84261904D01*
X117238095Y-84166666D01*
X117190476Y-84071428D01*
X117142857Y-84023809D01*
X117047619Y-83976190D01*
X116857142Y-83928571D01*
X116761904Y-83880952D01*
X116714285Y-83833333D01*
X116666666Y-83738095D01*
X116666666Y-83642857D01*
X116714285Y-83547619D01*
X116761904Y-83500000D01*
X116857142Y-83452380D01*
X117095238Y-83452380D01*
X117238095Y-83500000D01*
X117571428Y-83452380D02*
X117809523Y-84452380D01*
X118000000Y-83738095D01*
X118190476Y-84452380D01*
X118428571Y-83452380D01*
X119333333Y-84452380D02*
X118761904Y-84452380D01*
X119047619Y-84452380D02*
X119047619Y-83452380D01*
X118952380Y-83595238D01*
X118857142Y-83690476D01*
X118761904Y-83738095D01*
G04 #@! TO.C,SW2*
X135666666Y-84404761D02*
X135809523Y-84452380D01*
X136047619Y-84452380D01*
X136142857Y-84404761D01*
X136190476Y-84357142D01*
X136238095Y-84261904D01*
X136238095Y-84166666D01*
X136190476Y-84071428D01*
X136142857Y-84023809D01*
X136047619Y-83976190D01*
X135857142Y-83928571D01*
X135761904Y-83880952D01*
X135714285Y-83833333D01*
X135666666Y-83738095D01*
X135666666Y-83642857D01*
X135714285Y-83547619D01*
X135761904Y-83500000D01*
X135857142Y-83452380D01*
X136095238Y-83452380D01*
X136238095Y-83500000D01*
X136571428Y-83452380D02*
X136809523Y-84452380D01*
X137000000Y-83738095D01*
X137190476Y-84452380D01*
X137428571Y-83452380D01*
X137761904Y-83547619D02*
X137809523Y-83500000D01*
X137904761Y-83452380D01*
X138142857Y-83452380D01*
X138238095Y-83500000D01*
X138285714Y-83547619D01*
X138333333Y-83642857D01*
X138333333Y-83738095D01*
X138285714Y-83880952D01*
X137714285Y-84452380D01*
X138333333Y-84452380D01*
G04 #@! TO.C,SW3*
X154666666Y-84404761D02*
X154809523Y-84452380D01*
X155047619Y-84452380D01*
X155142857Y-84404761D01*
X155190476Y-84357142D01*
X155238095Y-84261904D01*
X155238095Y-84166666D01*
X155190476Y-84071428D01*
X155142857Y-84023809D01*
X155047619Y-83976190D01*
X154857142Y-83928571D01*
X154761904Y-83880952D01*
X154714285Y-83833333D01*
X154666666Y-83738095D01*
X154666666Y-83642857D01*
X154714285Y-83547619D01*
X154761904Y-83500000D01*
X154857142Y-83452380D01*
X155095238Y-83452380D01*
X155238095Y-83500000D01*
X155571428Y-83452380D02*
X155809523Y-84452380D01*
X156000000Y-83738095D01*
X156190476Y-84452380D01*
X156428571Y-83452380D01*
X156714285Y-83452380D02*
X157333333Y-83452380D01*
X157000000Y-83833333D01*
X157142857Y-83833333D01*
X157238095Y-83880952D01*
X157285714Y-83928571D01*
X157333333Y-84023809D01*
X157333333Y-84261904D01*
X157285714Y-84357142D01*
X157238095Y-84404761D01*
X157142857Y-84452380D01*
X156857142Y-84452380D01*
X156761904Y-84404761D01*
X156714285Y-84357142D01*
G04 #@! TO.C,SW4*
X173666666Y-84404761D02*
X173809523Y-84452380D01*
X174047619Y-84452380D01*
X174142857Y-84404761D01*
X174190476Y-84357142D01*
X174238095Y-84261904D01*
X174238095Y-84166666D01*
X174190476Y-84071428D01*
X174142857Y-84023809D01*
X174047619Y-83976190D01*
X173857142Y-83928571D01*
X173761904Y-83880952D01*
X173714285Y-83833333D01*
X173666666Y-83738095D01*
X173666666Y-83642857D01*
X173714285Y-83547619D01*
X173761904Y-83500000D01*
X173857142Y-83452380D01*
X174095238Y-83452380D01*
X174238095Y-83500000D01*
X174571428Y-83452380D02*
X174809523Y-84452380D01*
X175000000Y-83738095D01*
X175190476Y-84452380D01*
X175428571Y-83452380D01*
X176238095Y-83785714D02*
X176238095Y-84452380D01*
X176000000Y-83404761D02*
X175761904Y-84119047D01*
X176380952Y-84119047D01*
G04 #@! TO.C,SW5*
X116666666Y-103404761D02*
X116809523Y-103452380D01*
X117047619Y-103452380D01*
X117142857Y-103404761D01*
X117190476Y-103357142D01*
X117238095Y-103261904D01*
X117238095Y-103166666D01*
X117190476Y-103071428D01*
X117142857Y-103023809D01*
X117047619Y-102976190D01*
X116857142Y-102928571D01*
X116761904Y-102880952D01*
X116714285Y-102833333D01*
X116666666Y-102738095D01*
X116666666Y-102642857D01*
X116714285Y-102547619D01*
X116761904Y-102500000D01*
X116857142Y-102452380D01*
X117095238Y-102452380D01*
X117238095Y-102500000D01*
X117571428Y-102452380D02*
X117809523Y-103452380D01*
X118000000Y-102738095D01*
X118190476Y-103452380D01*
X118428571Y-102452380D01*
X119285714Y-102452380D02*
X118809523Y-102452380D01*
X118761904Y-102928571D01*
X118809523Y-102880952D01*
X118904761Y-102833333D01*
X119142857Y-102833333D01*
X119238095Y-102880952D01*
X119285714Y-102928571D01*
X119333333Y-103023809D01*
X119333333Y-103261904D01*
X119285714Y-103357142D01*
X119238095Y-103404761D01*
X119142857Y-103452380D01*
X118904761Y-103452380D01*
X118809523Y-103404761D01*
X118761904Y-103357142D01*
G04 #@! TO.C,SW6*
X135666666Y-103404761D02*
X135809523Y-103452380D01*
X136047619Y-103452380D01*
X136142857Y-103404761D01*
X136190476Y-103357142D01*
X136238095Y-103261904D01*
X136238095Y-103166666D01*
X136190476Y-103071428D01*
X136142857Y-103023809D01*
X136047619Y-102976190D01*
X135857142Y-102928571D01*
X135761904Y-102880952D01*
X135714285Y-102833333D01*
X135666666Y-102738095D01*
X135666666Y-102642857D01*
X135714285Y-102547619D01*
X135761904Y-102500000D01*
X135857142Y-102452380D01*
X136095238Y-102452380D01*
X136238095Y-102500000D01*
X136571428Y-102452380D02*
X136809523Y-103452380D01*
X137000000Y-102738095D01*
X137190476Y-103452380D01*
X137428571Y-102452380D01*
X138238095Y-102452380D02*
X138047619Y-102452380D01*
X137952380Y-102500000D01*
X137904761Y-102547619D01*
X137809523Y-102690476D01*
X137761904Y-102880952D01*
X137761904Y-103261904D01*
X137809523Y-103357142D01*
X137857142Y-103404761D01*
X137952380Y-103452380D01*
X138142857Y-103452380D01*
X138238095Y-103404761D01*
X138285714Y-103357142D01*
X138333333Y-103261904D01*
X138333333Y-103023809D01*
X138285714Y-102928571D01*
X138238095Y-102880952D01*
X138142857Y-102833333D01*
X137952380Y-102833333D01*
X137857142Y-102880952D01*
X137809523Y-102928571D01*
X137761904Y-103023809D01*
G04 #@! TO.C,SW7*
X154666666Y-103404761D02*
X154809523Y-103452380D01*
X155047619Y-103452380D01*
X155142857Y-103404761D01*
X155190476Y-103357142D01*
X155238095Y-103261904D01*
X155238095Y-103166666D01*
X155190476Y-103071428D01*
X155142857Y-103023809D01*
X155047619Y-102976190D01*
X154857142Y-102928571D01*
X154761904Y-102880952D01*
X154714285Y-102833333D01*
X154666666Y-102738095D01*
X154666666Y-102642857D01*
X154714285Y-102547619D01*
X154761904Y-102500000D01*
X154857142Y-102452380D01*
X155095238Y-102452380D01*
X155238095Y-102500000D01*
X155571428Y-102452380D02*
X155809523Y-103452380D01*
X156000000Y-102738095D01*
X156190476Y-103452380D01*
X156428571Y-102452380D01*
X156714285Y-102452380D02*
X157380952Y-102452380D01*
X156952380Y-103452380D01*
G04 #@! TO.C,SW8*
X173666666Y-103404761D02*
X173809523Y-103452380D01*
X174047619Y-103452380D01*
X174142857Y-103404761D01*
X174190476Y-103357142D01*
X174238095Y-103261904D01*
X174238095Y-103166666D01*
X174190476Y-103071428D01*
X174142857Y-103023809D01*
X174047619Y-102976190D01*
X173857142Y-102928571D01*
X173761904Y-102880952D01*
X173714285Y-102833333D01*
X173666666Y-102738095D01*
X173666666Y-102642857D01*
X173714285Y-102547619D01*
X173761904Y-102500000D01*
X173857142Y-102452380D01*
X174095238Y-102452380D01*
X174238095Y-102500000D01*
X174571428Y-102452380D02*
X174809523Y-103452380D01*
X175000000Y-102738095D01*
X175190476Y-103452380D01*
X175428571Y-102452380D01*
X175952380Y-102880952D02*
X175857142Y-102833333D01*
X175809523Y-102785714D01*
X175761904Y-102690476D01*
X175761904Y-102642857D01*
X175809523Y-102547619D01*
X175857142Y-102500000D01*
X175952380Y-102452380D01*
X176142857Y-102452380D01*
X176238095Y-102500000D01*
X176285714Y-102547619D01*
X176333333Y-102642857D01*
X176333333Y-102690476D01*
X176285714Y-102785714D01*
X176238095Y-102833333D01*
X176142857Y-102880952D01*
X175952380Y-102880952D01*
X175857142Y-102928571D01*
X175809523Y-102976190D01*
X175761904Y-103071428D01*
X175761904Y-103261904D01*
X175809523Y-103357142D01*
X175857142Y-103404761D01*
X175952380Y-103452380D01*
X176142857Y-103452380D01*
X176238095Y-103404761D01*
X176285714Y-103357142D01*
X176333333Y-103261904D01*
X176333333Y-103071428D01*
X176285714Y-102976190D01*
X176238095Y-102928571D01*
X176142857Y-102880952D01*
G04 #@! TD*
M02*
