<?xml version="1.0"?>
<!-- Generated by SVGo -->
<svg width="106.202mm" height="68.102mm"
     viewBox="0.000 0.000 106.202 68.102"
     xmlns="http://www.w3.org/2000/svg" 
     xmlns:xlink="http://www.w3.org/1999/xlink">
<polygon points="48.100,5.000 48.100,15.001 15.001,15.001 15.001,53.102 91.202,53.102 91.202,15.001 58.100,15.001 58.100,5.001 96.202,5.001 96.594,5.016 96.984,5.062 97.369,5.139 97.747,5.245 98.115,5.381 98.471,5.545 98.814,5.737 99.140,5.955 99.449,6.198 99.737,6.465 100.004,6.753 100.247,7.062 100.465,7.388 100.657,7.731 100.821,8.087 100.957,8.455 101.063,8.833 101.140,9.218 101.186,9.608 101.202,10.001 101.202,58.102 101.186,58.494 101.140,58.884 101.063,59.269 100.957,59.647 100.821,60.015 100.657,60.371 100.465,60.714 100.247,61.040 100.004,61.349 99.737,61.637 99.449,61.904 99.140,62.147 98.814,62.365 98.471,62.557 98.115,62.721 97.747,62.857 97.369,62.963 96.984,63.040 96.594,63.086 96.201,63.102 10.001,63.102 9.608,63.086 9.218,63.040 8.833,62.963 8.455,62.857 8.087,62.721 7.731,62.557 7.388,62.365 7.062,62.147 6.753,61.904 6.465,61.637 6.198,61.349 5.955,61.040 5.737,60.714 5.545,60.371 5.381,60.015 5.245,59.647 5.139,59.269 5.062,58.884 5.016,58.494 5.000,58.101 5.001,10.001 5.016,9.608 5.062,9.218 5.139,8.833 5.245,8.455 5.381,8.087 5.545,7.731 5.737,7.388 5.955,7.062 6.198,6.753 6.465,6.465 6.753,6.198 7.062,5.955 7.388,5.737 7.731,5.545 8.087,5.381 8.455,5.245 8.833,5.139 9.218,5.062 9.608,5.016 10.001,5.000" style="fill:none;stroke-width:0.050000mm;stroke:black"/>
<polygon points="95.707,56.580 95.261,56.807 94.907,57.161 94.680,57.607 94.602,58.102 94.680,58.596 94.907,59.042 95.261,59.396 95.707,59.623 96.202,59.702 96.696,59.623 97.142,59.396 97.496,59.042 97.723,58.596 97.801,58.102 97.723,57.607 97.496,57.161 97.142,56.807 96.696,56.580 96.202,56.502" style="fill:none;stroke-width:0.050000mm;stroke:black"/>
<polygon points="9.506,56.580 9.060,56.807 8.706,57.161 8.479,57.607 8.401,58.102 8.479,58.596 8.706,59.042 9.060,59.396 9.506,59.623 10.001,59.702 10.495,59.623 10.941,59.396 11.295,59.042 11.522,58.596 11.601,58.102 11.522,57.607 11.295,57.161 10.941,56.807 10.495,56.580 10.001,56.502" style="fill:none;stroke-width:0.050000mm;stroke:black"/>
<polygon points="95.707,8.479 95.261,8.706 94.907,9.060 94.680,9.506 94.602,10.001 94.680,10.495 94.907,10.941 95.261,11.295 95.707,11.522 96.202,11.601 96.696,11.522 97.142,11.295 97.496,10.941 97.723,10.495 97.801,10.001 97.723,9.506 97.496,9.060 97.142,8.706 96.696,8.479 96.202,8.401" style="fill:none;stroke-width:0.050000mm;stroke:black"/>
<polygon points="9.506,8.479 9.060,8.706 8.706,9.060 8.479,9.506 8.401,10.001 8.479,10.495 8.706,10.941 9.060,11.295 9.506,11.522 10.001,11.601 10.495,11.522 10.941,11.295 11.295,10.941 11.522,10.495 11.601,10.001 11.522,9.506 11.295,9.060 10.941,8.706 10.495,8.479 10.001,8.401" style="fill:none;stroke-width:0.050000mm;stroke:black"/>
</svg>
