G04 #@! TF.GenerationSoftware,KiCad,Pcbnew,5.0.2-bee76a0~70~ubuntu18.04.1*
G04 #@! TF.CreationDate,2019-03-19T15:09:44-04:00*
G04 #@! TF.ProjectId,8_key_simple_graphics (copy),385f6b65-795f-4736-996d-706c655f6772,rev?*
G04 #@! TF.SameCoordinates,Original*
G04 #@! TF.FileFunction,Copper,L2,Bot*
G04 #@! TF.FilePolarity,Positive*
%FSLAX46Y46*%
G04 Gerber Fmt 4.6, Leading zero omitted, Abs format (unit mm)*
G04 Created by KiCad (PCBNEW 5.0.2-bee76a0~70~ubuntu18.04.1) date Tue 19 Mar 2019 03:09:44 PM EDT*
%MOMM*%
%LPD*%
G01*
G04 APERTURE LIST*
G04 #@! TA.AperFunction,ComponentPad*
%ADD10C,1.879600*%
G04 #@! TD*
G04 #@! TA.AperFunction,ComponentPad*
%ADD11C,2.032000*%
G04 #@! TD*
G04 #@! TA.AperFunction,ComponentPad*
%ADD12R,2.032000X2.032000*%
G04 #@! TD*
G04 #@! TA.AperFunction,ComponentPad*
%ADD13C,2.540000*%
G04 #@! TD*
G04 #@! TA.AperFunction,ViaPad*
%ADD14C,0.508000*%
G04 #@! TD*
G04 #@! TA.AperFunction,Conductor*
%ADD15C,0.254000*%
G04 #@! TD*
G04 APERTURE END LIST*
D10*
G04 #@! TO.P,B1,24*
G04 #@! TO.N,VIN*
X154620000Y-99700000D03*
G04 #@! TO.P,B1,23*
G04 #@! TO.N,GND*
X154620000Y-97160000D03*
G04 #@! TO.P,B1,22*
G04 #@! TO.N,RESET*
X154620000Y-94620000D03*
G04 #@! TO.P,B1,21*
G04 #@! TO.N,VCC*
X154620000Y-92080000D03*
G04 #@! TO.P,B1,20*
G04 #@! TO.N,KEY1*
X154620000Y-89540000D03*
G04 #@! TO.P,B1,19*
G04 #@! TO.N,KEY2*
X154620000Y-87000000D03*
G04 #@! TO.P,B1,18*
G04 #@! TO.N,KEY3*
X154620000Y-84460000D03*
G04 #@! TO.P,B1,17*
G04 #@! TO.N,KEY4*
X154620000Y-81920000D03*
G04 #@! TO.P,B1,16*
G04 #@! TO.N,KEY5*
X154620000Y-79380000D03*
G04 #@! TO.P,B1,15*
G04 #@! TO.N,KEY6*
X154620000Y-76840000D03*
G04 #@! TO.P,B1,14*
G04 #@! TO.N,KEY7*
X154620000Y-74300000D03*
G04 #@! TO.P,B1,13*
G04 #@! TO.N,KEY8*
X154620000Y-71760000D03*
G04 #@! TO.P,B1,12*
G04 #@! TO.N,LED8*
X139380000Y-71760000D03*
G04 #@! TO.P,B1,11*
G04 #@! TO.N,LED7*
X139380000Y-74300000D03*
G04 #@! TO.P,B1,10*
G04 #@! TO.N,LED6*
X139380000Y-76840000D03*
G04 #@! TO.P,B1,9*
G04 #@! TO.N,LED5*
X139380000Y-79380000D03*
G04 #@! TO.P,B1,8*
G04 #@! TO.N,LED4*
X139380000Y-81920000D03*
G04 #@! TO.P,B1,7*
G04 #@! TO.N,LED3*
X139380000Y-84460000D03*
G04 #@! TO.P,B1,6*
G04 #@! TO.N,LED2*
X139380000Y-87000000D03*
G04 #@! TO.P,B1,5*
G04 #@! TO.N,LED1*
X139380000Y-89540000D03*
G04 #@! TO.P,B1,4*
G04 #@! TO.N,GND*
X139380000Y-92080000D03*
G04 #@! TO.P,B1,3*
X139380000Y-94620000D03*
G04 #@! TO.P,B1,2*
G04 #@! TO.N,RX*
X139380000Y-97160000D03*
G04 #@! TO.P,B1,1*
G04 #@! TO.N,TX*
X139380000Y-99700000D03*
G04 #@! TD*
G04 #@! TO.P,J1,6*
G04 #@! TO.N,GND*
X136500000Y-90920000D03*
G04 #@! TO.P,J1,5*
G04 #@! TO.N,RESET*
X136500000Y-93460000D03*
G04 #@! TO.P,J1,4*
G04 #@! TO.N,RX*
X136500000Y-96000000D03*
G04 #@! TO.P,J1,3*
G04 #@! TO.N,TX*
X136500000Y-98540000D03*
G04 #@! TO.P,J1,2*
G04 #@! TO.N,VIN*
X136500000Y-101080000D03*
G04 #@! TO.P,J1,1*
G04 #@! TO.N,VCC*
X136500000Y-103620000D03*
G04 #@! TD*
G04 #@! TO.P,R1,P$2*
G04 #@! TO.N,Net-(R1-PadP$2)*
X131810000Y-103500000D03*
G04 #@! TO.P,R1,P$1*
G04 #@! TO.N,LED1*
X124190000Y-103500000D03*
G04 #@! TD*
G04 #@! TO.P,R2,P$2*
G04 #@! TO.N,Net-(R2-PadP$2)*
X150810000Y-103500000D03*
G04 #@! TO.P,R2,P$1*
G04 #@! TO.N,LED2*
X143190000Y-103500000D03*
G04 #@! TD*
G04 #@! TO.P,R3,P$2*
G04 #@! TO.N,Net-(R3-PadP$2)*
X169810000Y-103500000D03*
G04 #@! TO.P,R3,P$1*
G04 #@! TO.N,LED3*
X162190000Y-103500000D03*
G04 #@! TD*
G04 #@! TO.P,R4,P$2*
G04 #@! TO.N,Net-(R4-PadP$2)*
X188810000Y-103500000D03*
G04 #@! TO.P,R4,P$1*
G04 #@! TO.N,LED4*
X181190000Y-103500000D03*
G04 #@! TD*
G04 #@! TO.P,R5,P$2*
G04 #@! TO.N,Net-(R5-PadP$2)*
X131810000Y-84500000D03*
G04 #@! TO.P,R5,P$1*
G04 #@! TO.N,LED5*
X124190000Y-84500000D03*
G04 #@! TD*
G04 #@! TO.P,R6,P$2*
G04 #@! TO.N,Net-(R6-PadP$2)*
X150810000Y-84500000D03*
G04 #@! TO.P,R6,P$1*
G04 #@! TO.N,LED6*
X143190000Y-84500000D03*
G04 #@! TD*
G04 #@! TO.P,R7,P$2*
G04 #@! TO.N,Net-(R7-PadP$2)*
X169810000Y-84500000D03*
G04 #@! TO.P,R7,P$1*
G04 #@! TO.N,LED7*
X162190000Y-84500000D03*
G04 #@! TD*
G04 #@! TO.P,R8,P$2*
G04 #@! TO.N,Net-(R8-PadP$2)*
X188810000Y-84500000D03*
G04 #@! TO.P,R8,P$1*
G04 #@! TO.N,LED8*
X181190000Y-84500000D03*
G04 #@! TD*
G04 #@! TO.P,S1,4*
G04 #@! TO.N,N/C*
X177760600Y-88751200D03*
G04 #@! TO.P,S1,3*
G04 #@! TO.N,GND*
X177760600Y-82248800D03*
G04 #@! TO.P,S1,2*
G04 #@! TO.N,N/C*
X173239400Y-88751200D03*
G04 #@! TO.P,S1,1*
G04 #@! TO.N,RESET*
X173239400Y-82248800D03*
G04 #@! TD*
D11*
G04 #@! TO.P,SW1,A*
G04 #@! TO.N,Net-(R1-PadP$2)*
X126730000Y-100080000D03*
D12*
G04 #@! TO.P,SW1,K*
G04 #@! TO.N,GND*
X129270000Y-100080000D03*
D13*
G04 #@! TO.P,SW1,S2*
X130540000Y-89920000D03*
G04 #@! TO.P,SW1,S1*
G04 #@! TO.N,KEY1*
X124190000Y-92460000D03*
G04 #@! TD*
D11*
G04 #@! TO.P,SW2,A*
G04 #@! TO.N,Net-(R2-PadP$2)*
X145730000Y-100080000D03*
D12*
G04 #@! TO.P,SW2,K*
G04 #@! TO.N,GND*
X148270000Y-100080000D03*
D13*
G04 #@! TO.P,SW2,S2*
X149540000Y-89920000D03*
G04 #@! TO.P,SW2,S1*
G04 #@! TO.N,KEY2*
X143190000Y-92460000D03*
G04 #@! TD*
D11*
G04 #@! TO.P,SW3,A*
G04 #@! TO.N,Net-(R3-PadP$2)*
X164730000Y-100080000D03*
D12*
G04 #@! TO.P,SW3,K*
G04 #@! TO.N,GND*
X167270000Y-100080000D03*
D13*
G04 #@! TO.P,SW3,S2*
X168540000Y-89920000D03*
G04 #@! TO.P,SW3,S1*
G04 #@! TO.N,KEY3*
X162190000Y-92460000D03*
G04 #@! TD*
D11*
G04 #@! TO.P,SW4,A*
G04 #@! TO.N,Net-(R4-PadP$2)*
X183730000Y-100080000D03*
D12*
G04 #@! TO.P,SW4,K*
G04 #@! TO.N,GND*
X186270000Y-100080000D03*
D13*
G04 #@! TO.P,SW4,S2*
X187540000Y-89920000D03*
G04 #@! TO.P,SW4,S1*
G04 #@! TO.N,KEY4*
X181190000Y-92460000D03*
G04 #@! TD*
D11*
G04 #@! TO.P,SW5,A*
G04 #@! TO.N,Net-(R5-PadP$2)*
X126730000Y-81080000D03*
D12*
G04 #@! TO.P,SW5,K*
G04 #@! TO.N,GND*
X129270000Y-81080000D03*
D13*
G04 #@! TO.P,SW5,S2*
X130540000Y-70920000D03*
G04 #@! TO.P,SW5,S1*
G04 #@! TO.N,KEY5*
X124190000Y-73460000D03*
G04 #@! TD*
D11*
G04 #@! TO.P,SW6,A*
G04 #@! TO.N,Net-(R6-PadP$2)*
X145730000Y-81080000D03*
D12*
G04 #@! TO.P,SW6,K*
G04 #@! TO.N,GND*
X148270000Y-81080000D03*
D13*
G04 #@! TO.P,SW6,S2*
X149540000Y-70920000D03*
G04 #@! TO.P,SW6,S1*
G04 #@! TO.N,KEY6*
X143190000Y-73460000D03*
G04 #@! TD*
D11*
G04 #@! TO.P,SW7,A*
G04 #@! TO.N,Net-(R7-PadP$2)*
X164730000Y-81080000D03*
D12*
G04 #@! TO.P,SW7,K*
G04 #@! TO.N,GND*
X167270000Y-81080000D03*
D13*
G04 #@! TO.P,SW7,S2*
X168540000Y-70920000D03*
G04 #@! TO.P,SW7,S1*
G04 #@! TO.N,KEY7*
X162190000Y-73460000D03*
G04 #@! TD*
D11*
G04 #@! TO.P,SW8,A*
G04 #@! TO.N,Net-(R8-PadP$2)*
X183730000Y-81080000D03*
D12*
G04 #@! TO.P,SW8,K*
G04 #@! TO.N,GND*
X186270000Y-81080000D03*
D13*
G04 #@! TO.P,SW8,S2*
X187540000Y-70920000D03*
G04 #@! TO.P,SW8,S1*
G04 #@! TO.N,KEY8*
X181190000Y-73460000D03*
G04 #@! TD*
D14*
G04 #@! TO.N,VCC*
X142167800Y-101997300D03*
G04 #@! TD*
D15*
G04 #@! TO.N,TX*
X138220000Y-98540000D02*
X139380000Y-99700000D01*
X136500000Y-98540000D02*
X138220000Y-98540000D01*
G04 #@! TO.N,GND*
X136500000Y-90920000D02*
X135280799Y-92139201D01*
X135914783Y-99759201D02*
X137085217Y-99759201D01*
X137085217Y-99759201D02*
X142045217Y-104719201D01*
X135280799Y-92139201D02*
X135280799Y-99125217D01*
X135280799Y-99125217D02*
X135914783Y-99759201D01*
X142045217Y-104719201D02*
X151395217Y-104719201D01*
X151395217Y-104719201D02*
X155839201Y-100275217D01*
X140319799Y-91140201D02*
X139380000Y-92080000D01*
X155839201Y-100275217D02*
X155839201Y-91494783D01*
X155839201Y-91494783D02*
X155205217Y-90860799D01*
X155205217Y-90860799D02*
X140599201Y-90860799D01*
X140599201Y-90860799D02*
X140319799Y-91140201D01*
G04 #@! TO.N,LED1*
X140648000Y-88272000D02*
X139380000Y-89540000D01*
X140648000Y-86516300D02*
X140648000Y-88272000D01*
X139861700Y-85730000D02*
X140648000Y-86516300D01*
X138886400Y-85730000D02*
X139861700Y-85730000D01*
X134226600Y-90389800D02*
X138886400Y-85730000D01*
X134226600Y-92058000D02*
X134226600Y-90389800D01*
X128111800Y-98172800D02*
X134226600Y-92058000D01*
X126733000Y-98172800D02*
X128111800Y-98172800D01*
X124190000Y-100715800D02*
X126733000Y-98172800D01*
X124190000Y-103500000D02*
X124190000Y-100715800D01*
G04 #@! TO.N,LED2*
X138152800Y-88227200D02*
X139380000Y-87000000D01*
X138152800Y-97777500D02*
X138152800Y-88227200D01*
X138805300Y-98430000D02*
X138152800Y-97777500D01*
X139862300Y-98430000D02*
X138805300Y-98430000D01*
X140746100Y-99313800D02*
X139862300Y-98430000D01*
X140746100Y-101352300D02*
X140746100Y-99313800D01*
X142893800Y-103500000D02*
X140746100Y-101352300D01*
X143190000Y-103500000D02*
X142893800Y-103500000D01*
G04 #@! TO.N,LED3*
X143240500Y-88320500D02*
X139380000Y-84460000D01*
X155125200Y-88320500D02*
X143240500Y-88320500D01*
X156246200Y-89441500D02*
X155125200Y-88320500D01*
X156246200Y-97556200D02*
X156246200Y-89441500D01*
X162190000Y-103500000D02*
X156246200Y-97556200D01*
G04 #@! TO.N,LED4*
X139380000Y-82462200D02*
X139380000Y-81920000D01*
X142637400Y-85719600D02*
X139380000Y-82462200D01*
X151466300Y-85719600D02*
X142637400Y-85719600D01*
X153995900Y-83190000D02*
X151466300Y-85719600D01*
X155183200Y-83190000D02*
X153995900Y-83190000D01*
X163763900Y-91770700D02*
X155183200Y-83190000D01*
X163763900Y-93610500D02*
X163763900Y-91770700D01*
X163704900Y-93669500D02*
X163763900Y-93610500D01*
X163704900Y-95926200D02*
X163704900Y-93669500D01*
X165375200Y-97596500D02*
X163704900Y-95926200D01*
X175286500Y-97596500D02*
X165375200Y-97596500D01*
X181190000Y-103500000D02*
X175286500Y-97596500D01*
G04 #@! TO.N,LED6*
X143190000Y-80650000D02*
X139380000Y-76840000D01*
X143190000Y-84500000D02*
X143190000Y-80650000D01*
G04 #@! TO.N,LED7*
X139380000Y-75115200D02*
X139380000Y-74300000D01*
X144035500Y-79770700D02*
X139380000Y-75115200D01*
X151493000Y-79770700D02*
X144035500Y-79770700D01*
X152422700Y-80700400D02*
X151493000Y-79770700D01*
X158390400Y-80700400D02*
X152422700Y-80700400D01*
X162190000Y-84500000D02*
X158390400Y-80700400D01*
G04 #@! TO.N,KEY6*
X151240000Y-73460000D02*
X154620000Y-76840000D01*
X143190000Y-73460000D02*
X151240000Y-73460000D01*
G04 #@! TO.N,KEY4*
X165160000Y-92460000D02*
X154620000Y-81920000D01*
X181190000Y-92460000D02*
X165160000Y-92460000D01*
G04 #@! TO.N,KEY3*
X154620000Y-84890000D02*
X154620000Y-84460000D01*
X162190000Y-92460000D02*
X154620000Y-84890000D01*
G04 #@! TO.N,VCC*
X153212200Y-92080000D02*
X154620000Y-92080000D01*
X147869600Y-97422600D02*
X153212200Y-92080000D01*
X146534700Y-97422600D02*
X147869600Y-97422600D01*
X142167800Y-101789500D02*
X146534700Y-97422600D01*
X142167800Y-101997300D02*
X142167800Y-101789500D01*
G04 #@! TO.N,Net-(R1-PadP$2)*
X130150000Y-103500000D02*
X131810000Y-103500000D01*
X126730000Y-100080000D02*
X130150000Y-103500000D01*
G04 #@! TO.N,Net-(R2-PadP$2)*
X149150000Y-103500000D02*
X150810000Y-103500000D01*
X145730000Y-100080000D02*
X149150000Y-103500000D01*
G04 #@! TO.N,Net-(R3-PadP$2)*
X168150000Y-103500000D02*
X169810000Y-103500000D01*
X164730000Y-100080000D02*
X168150000Y-103500000D01*
G04 #@! TO.N,Net-(R4-PadP$2)*
X187150000Y-103500000D02*
X188810000Y-103500000D01*
X183730000Y-100080000D02*
X187150000Y-103500000D01*
G04 #@! TO.N,Net-(R5-PadP$2)*
X130150000Y-84500000D02*
X131810000Y-84500000D01*
X126730000Y-81080000D02*
X130150000Y-84500000D01*
G04 #@! TO.N,Net-(R6-PadP$2)*
X149150000Y-84500000D02*
X150810000Y-84500000D01*
X145730000Y-81080000D02*
X149150000Y-84500000D01*
G04 #@! TO.N,Net-(R7-PadP$2)*
X168150000Y-84500000D02*
X169810000Y-84500000D01*
X164730000Y-81080000D02*
X168150000Y-84500000D01*
G04 #@! TO.N,Net-(R8-PadP$2)*
X187150000Y-84500000D02*
X188810000Y-84500000D01*
X183730000Y-81080000D02*
X187150000Y-84500000D01*
G04 #@! TD*
G04 #@! TO.N,GND*
G36*
X191856609Y-68720877D02*
X192095901Y-68768475D01*
X192177201Y-68822798D01*
X192231525Y-68904101D01*
X192279123Y-69143391D01*
X192315001Y-69230008D01*
X192315000Y-103769994D01*
X192279123Y-103856609D01*
X192231525Y-104095899D01*
X192177201Y-104177202D01*
X192095901Y-104231525D01*
X191856609Y-104279123D01*
X191769994Y-104315000D01*
X190176967Y-104315000D01*
X190384800Y-103813247D01*
X190384800Y-103186753D01*
X190145051Y-102607948D01*
X189702052Y-102164949D01*
X189123247Y-101925200D01*
X188496753Y-101925200D01*
X187917948Y-102164949D01*
X187474949Y-102607948D01*
X187434128Y-102706498D01*
X186397002Y-101669371D01*
X186397002Y-101572252D01*
X186555750Y-101731000D01*
X187412309Y-101731000D01*
X187645698Y-101634327D01*
X187824327Y-101455699D01*
X187921000Y-101222310D01*
X187921000Y-100365750D01*
X187762250Y-100207000D01*
X186397000Y-100207000D01*
X186397000Y-100227000D01*
X186143000Y-100227000D01*
X186143000Y-100207000D01*
X186123000Y-100207000D01*
X186123000Y-99953000D01*
X186143000Y-99953000D01*
X186143000Y-98587750D01*
X186397000Y-98587750D01*
X186397000Y-99953000D01*
X187762250Y-99953000D01*
X187921000Y-99794250D01*
X187921000Y-98937690D01*
X187824327Y-98704301D01*
X187645698Y-98525673D01*
X187412309Y-98429000D01*
X186555750Y-98429000D01*
X186397000Y-98587750D01*
X186143000Y-98587750D01*
X185984250Y-98429000D01*
X185127691Y-98429000D01*
X184894302Y-98525673D01*
X184715673Y-98704301D01*
X184707910Y-98723044D01*
X184665216Y-98680350D01*
X184058404Y-98429000D01*
X183401596Y-98429000D01*
X182794784Y-98680350D01*
X182330350Y-99144784D01*
X182079000Y-99751596D01*
X182079000Y-100408404D01*
X182330350Y-101015216D01*
X182794784Y-101479650D01*
X183401596Y-101731000D01*
X184058404Y-101731000D01*
X184231621Y-101659251D01*
X186558118Y-103985749D01*
X186600629Y-104049371D01*
X186664250Y-104091881D01*
X186664251Y-104091882D01*
X186852681Y-104217787D01*
X186852682Y-104217787D01*
X186852683Y-104217788D01*
X187074952Y-104262000D01*
X187074956Y-104262000D01*
X187149999Y-104276927D01*
X187225042Y-104262000D01*
X187421080Y-104262000D01*
X187443033Y-104315000D01*
X182556967Y-104315000D01*
X182764800Y-103813247D01*
X182764800Y-103186753D01*
X182525051Y-102607948D01*
X182082052Y-102164949D01*
X181503247Y-101925200D01*
X180876753Y-101925200D01*
X180746700Y-101979070D01*
X175878383Y-97110753D01*
X175835871Y-97047129D01*
X175583817Y-96878712D01*
X175361548Y-96834500D01*
X175361543Y-96834500D01*
X175286500Y-96819573D01*
X175211457Y-96834500D01*
X167883326Y-96834500D01*
X168228674Y-96489152D01*
X168628900Y-95522921D01*
X168628900Y-94704436D01*
X169594100Y-94704436D01*
X169594100Y-95295564D01*
X169820314Y-95841695D01*
X170238305Y-96259686D01*
X170784436Y-96485900D01*
X171375564Y-96485900D01*
X171921695Y-96259686D01*
X172339686Y-95841695D01*
X172565900Y-95295564D01*
X172565900Y-94704436D01*
X172339686Y-94158305D01*
X171921695Y-93740314D01*
X171375564Y-93514100D01*
X170784436Y-93514100D01*
X170238305Y-93740314D01*
X169820314Y-94158305D01*
X169594100Y-94704436D01*
X168628900Y-94704436D01*
X168628900Y-94477079D01*
X168228674Y-93510848D01*
X167939826Y-93222000D01*
X179443674Y-93222000D01*
X179573419Y-93535232D01*
X179078305Y-93740314D01*
X178660314Y-94158305D01*
X178434100Y-94704436D01*
X178434100Y-95295564D01*
X178660314Y-95841695D01*
X179078305Y-96259686D01*
X179624436Y-96485900D01*
X180215564Y-96485900D01*
X180761695Y-96259686D01*
X181179686Y-95841695D01*
X181405900Y-95295564D01*
X181405900Y-94704436D01*
X181265302Y-94365000D01*
X181568928Y-94365000D01*
X182269096Y-94074981D01*
X182727554Y-93616523D01*
X182371100Y-94477079D01*
X182371100Y-95522921D01*
X182771326Y-96489152D01*
X183510848Y-97228674D01*
X184477079Y-97628900D01*
X185522921Y-97628900D01*
X186489152Y-97228674D01*
X187228674Y-96489152D01*
X187628900Y-95522921D01*
X187628900Y-94704436D01*
X188594100Y-94704436D01*
X188594100Y-95295564D01*
X188820314Y-95841695D01*
X189238305Y-96259686D01*
X189784436Y-96485900D01*
X190375564Y-96485900D01*
X190921695Y-96259686D01*
X191339686Y-95841695D01*
X191565900Y-95295564D01*
X191565900Y-94704436D01*
X191339686Y-94158305D01*
X190921695Y-93740314D01*
X190375564Y-93514100D01*
X189784436Y-93514100D01*
X189238305Y-93740314D01*
X188820314Y-94158305D01*
X188594100Y-94704436D01*
X187628900Y-94704436D01*
X187628900Y-94477079D01*
X187228674Y-93510848D01*
X186489152Y-92771326D01*
X185522921Y-92371100D01*
X184477079Y-92371100D01*
X183510848Y-92771326D01*
X182848753Y-93433421D01*
X183095000Y-92838928D01*
X183095000Y-92081072D01*
X182804981Y-91380904D01*
X182691854Y-91267777D01*
X186371828Y-91267777D01*
X186503520Y-91562657D01*
X187211036Y-91834261D01*
X187968632Y-91814436D01*
X188576480Y-91562657D01*
X188708172Y-91267777D01*
X187540000Y-90099605D01*
X186371828Y-91267777D01*
X182691854Y-91267777D01*
X182269096Y-90845019D01*
X181568928Y-90555000D01*
X180811072Y-90555000D01*
X180110904Y-90845019D01*
X179575019Y-91380904D01*
X179443674Y-91698000D01*
X169249733Y-91698000D01*
X169576480Y-91562657D01*
X169708172Y-91267777D01*
X168540000Y-90099605D01*
X167371828Y-91267777D01*
X167503520Y-91562657D01*
X167856082Y-91698000D01*
X165475631Y-91698000D01*
X163368667Y-89591036D01*
X166625739Y-89591036D01*
X166645564Y-90348632D01*
X166897343Y-90956480D01*
X167192223Y-91088172D01*
X168360395Y-89920000D01*
X168719605Y-89920000D01*
X169887777Y-91088172D01*
X170182657Y-90956480D01*
X170454261Y-90248964D01*
X170434436Y-89491368D01*
X170182657Y-88883520D01*
X169887777Y-88751828D01*
X168719605Y-89920000D01*
X168360395Y-89920000D01*
X167192223Y-88751828D01*
X166897343Y-88883520D01*
X166625739Y-89591036D01*
X163368667Y-89591036D01*
X162349854Y-88572223D01*
X167371828Y-88572223D01*
X168540000Y-89740395D01*
X169708172Y-88572223D01*
X169648208Y-88437953D01*
X171664600Y-88437953D01*
X171664600Y-89064447D01*
X171904349Y-89643252D01*
X172347348Y-90086251D01*
X172926153Y-90326000D01*
X173552647Y-90326000D01*
X174131452Y-90086251D01*
X174574451Y-89643252D01*
X174814200Y-89064447D01*
X174814200Y-88437953D01*
X176185800Y-88437953D01*
X176185800Y-89064447D01*
X176425549Y-89643252D01*
X176868548Y-90086251D01*
X177447353Y-90326000D01*
X178073847Y-90326000D01*
X178652652Y-90086251D01*
X179095651Y-89643252D01*
X179117279Y-89591036D01*
X185625739Y-89591036D01*
X185645564Y-90348632D01*
X185897343Y-90956480D01*
X186192223Y-91088172D01*
X187360395Y-89920000D01*
X187719605Y-89920000D01*
X188887777Y-91088172D01*
X189182657Y-90956480D01*
X189454261Y-90248964D01*
X189434436Y-89491368D01*
X189182657Y-88883520D01*
X188887777Y-88751828D01*
X187719605Y-89920000D01*
X187360395Y-89920000D01*
X186192223Y-88751828D01*
X185897343Y-88883520D01*
X185625739Y-89591036D01*
X179117279Y-89591036D01*
X179335400Y-89064447D01*
X179335400Y-88572223D01*
X186371828Y-88572223D01*
X187540000Y-89740395D01*
X188708172Y-88572223D01*
X188576480Y-88277343D01*
X187868964Y-88005739D01*
X187111368Y-88025564D01*
X186503520Y-88277343D01*
X186371828Y-88572223D01*
X179335400Y-88572223D01*
X179335400Y-88437953D01*
X179095651Y-87859148D01*
X178652652Y-87416149D01*
X178073847Y-87176400D01*
X177447353Y-87176400D01*
X176868548Y-87416149D01*
X176425549Y-87859148D01*
X176185800Y-88437953D01*
X174814200Y-88437953D01*
X174574451Y-87859148D01*
X174131452Y-87416149D01*
X173552647Y-87176400D01*
X172926153Y-87176400D01*
X172347348Y-87416149D01*
X171904349Y-87859148D01*
X171664600Y-88437953D01*
X169648208Y-88437953D01*
X169576480Y-88277343D01*
X168868964Y-88005739D01*
X168111368Y-88025564D01*
X167503520Y-88277343D01*
X167371828Y-88572223D01*
X162349854Y-88572223D01*
X156140930Y-82363300D01*
X156194800Y-82233247D01*
X156194800Y-81606753D01*
X156135007Y-81462400D01*
X158074770Y-81462400D01*
X160669070Y-84056700D01*
X160615200Y-84186753D01*
X160615200Y-84813247D01*
X160854949Y-85392052D01*
X161297948Y-85835051D01*
X161876753Y-86074800D01*
X162503247Y-86074800D01*
X163082052Y-85835051D01*
X163525051Y-85392052D01*
X163764800Y-84813247D01*
X163764800Y-84186753D01*
X163525051Y-83607948D01*
X163082052Y-83164949D01*
X162503247Y-82925200D01*
X161876753Y-82925200D01*
X161746700Y-82979070D01*
X159519226Y-80751596D01*
X163079000Y-80751596D01*
X163079000Y-81408404D01*
X163330350Y-82015216D01*
X163794784Y-82479650D01*
X164401596Y-82731000D01*
X165058404Y-82731000D01*
X165231621Y-82659251D01*
X167558118Y-84985749D01*
X167600629Y-85049371D01*
X167664251Y-85091882D01*
X167852681Y-85217787D01*
X167852682Y-85217787D01*
X167852683Y-85217788D01*
X168074952Y-85262000D01*
X168074956Y-85262000D01*
X168149999Y-85276927D01*
X168225042Y-85262000D01*
X168421080Y-85262000D01*
X168474949Y-85392052D01*
X168917948Y-85835051D01*
X169496753Y-86074800D01*
X170123247Y-86074800D01*
X170702052Y-85835051D01*
X171145051Y-85392052D01*
X171384800Y-84813247D01*
X171384800Y-84186753D01*
X179615200Y-84186753D01*
X179615200Y-84813247D01*
X179854949Y-85392052D01*
X180297948Y-85835051D01*
X180876753Y-86074800D01*
X181503247Y-86074800D01*
X182082052Y-85835051D01*
X182525051Y-85392052D01*
X182764800Y-84813247D01*
X182764800Y-84186753D01*
X182525051Y-83607948D01*
X182082052Y-83164949D01*
X181503247Y-82925200D01*
X180876753Y-82925200D01*
X180297948Y-83164949D01*
X179854949Y-83607948D01*
X179615200Y-84186753D01*
X171384800Y-84186753D01*
X171145051Y-83607948D01*
X170702052Y-83164949D01*
X170123247Y-82925200D01*
X169496753Y-82925200D01*
X168917948Y-83164949D01*
X168474949Y-83607948D01*
X168434128Y-83706498D01*
X167397002Y-82669371D01*
X167397002Y-82572252D01*
X167555750Y-82731000D01*
X168412309Y-82731000D01*
X168645698Y-82634327D01*
X168824327Y-82455699D01*
X168921000Y-82222310D01*
X168921000Y-81935553D01*
X171664600Y-81935553D01*
X171664600Y-82562047D01*
X171904349Y-83140852D01*
X172347348Y-83583851D01*
X172926153Y-83823600D01*
X173552647Y-83823600D01*
X174131452Y-83583851D01*
X174357535Y-83357768D01*
X176831237Y-83357768D01*
X176922523Y-83618380D01*
X177510433Y-83834845D01*
X178136428Y-83809849D01*
X178598677Y-83618380D01*
X178689963Y-83357768D01*
X177760600Y-82428405D01*
X176831237Y-83357768D01*
X174357535Y-83357768D01*
X174574451Y-83140852D01*
X174814200Y-82562047D01*
X174814200Y-81998633D01*
X176174555Y-81998633D01*
X176199551Y-82624628D01*
X176391020Y-83086877D01*
X176651632Y-83178163D01*
X177580995Y-82248800D01*
X177940205Y-82248800D01*
X178869568Y-83178163D01*
X179130180Y-83086877D01*
X179346645Y-82498967D01*
X179321649Y-81872972D01*
X179130180Y-81410723D01*
X178869568Y-81319437D01*
X177940205Y-82248800D01*
X177580995Y-82248800D01*
X176651632Y-81319437D01*
X176391020Y-81410723D01*
X176174555Y-81998633D01*
X174814200Y-81998633D01*
X174814200Y-81935553D01*
X174574451Y-81356748D01*
X174357535Y-81139832D01*
X176831237Y-81139832D01*
X177760600Y-82069195D01*
X178689963Y-81139832D01*
X178598677Y-80879220D01*
X178252056Y-80751596D01*
X182079000Y-80751596D01*
X182079000Y-81408404D01*
X182330350Y-82015216D01*
X182794784Y-82479650D01*
X183401596Y-82731000D01*
X184058404Y-82731000D01*
X184231621Y-82659251D01*
X186558118Y-84985749D01*
X186600629Y-85049371D01*
X186664251Y-85091882D01*
X186852681Y-85217787D01*
X186852682Y-85217787D01*
X186852683Y-85217788D01*
X187074952Y-85262000D01*
X187074956Y-85262000D01*
X187149999Y-85276927D01*
X187225042Y-85262000D01*
X187421080Y-85262000D01*
X187474949Y-85392052D01*
X187917948Y-85835051D01*
X188496753Y-86074800D01*
X189123247Y-86074800D01*
X189702052Y-85835051D01*
X190145051Y-85392052D01*
X190384800Y-84813247D01*
X190384800Y-84186753D01*
X190145051Y-83607948D01*
X189702052Y-83164949D01*
X189123247Y-82925200D01*
X188496753Y-82925200D01*
X187917948Y-83164949D01*
X187474949Y-83607948D01*
X187434128Y-83706498D01*
X186397002Y-82669371D01*
X186397002Y-82572252D01*
X186555750Y-82731000D01*
X187412309Y-82731000D01*
X187645698Y-82634327D01*
X187824327Y-82455699D01*
X187921000Y-82222310D01*
X187921000Y-81365750D01*
X187762250Y-81207000D01*
X186397000Y-81207000D01*
X186397000Y-81227000D01*
X186143000Y-81227000D01*
X186143000Y-81207000D01*
X186123000Y-81207000D01*
X186123000Y-80953000D01*
X186143000Y-80953000D01*
X186143000Y-79587750D01*
X186397000Y-79587750D01*
X186397000Y-80953000D01*
X187762250Y-80953000D01*
X187921000Y-80794250D01*
X187921000Y-79937690D01*
X187824327Y-79704301D01*
X187645698Y-79525673D01*
X187412309Y-79429000D01*
X186555750Y-79429000D01*
X186397000Y-79587750D01*
X186143000Y-79587750D01*
X185984250Y-79429000D01*
X185127691Y-79429000D01*
X184894302Y-79525673D01*
X184715673Y-79704301D01*
X184707910Y-79723044D01*
X184665216Y-79680350D01*
X184058404Y-79429000D01*
X183401596Y-79429000D01*
X182794784Y-79680350D01*
X182330350Y-80144784D01*
X182079000Y-80751596D01*
X178252056Y-80751596D01*
X178010767Y-80662755D01*
X177384772Y-80687751D01*
X176922523Y-80879220D01*
X176831237Y-81139832D01*
X174357535Y-81139832D01*
X174131452Y-80913749D01*
X173552647Y-80674000D01*
X172926153Y-80674000D01*
X172347348Y-80913749D01*
X171904349Y-81356748D01*
X171664600Y-81935553D01*
X168921000Y-81935553D01*
X168921000Y-81365750D01*
X168762250Y-81207000D01*
X167397000Y-81207000D01*
X167397000Y-81227000D01*
X167143000Y-81227000D01*
X167143000Y-81207000D01*
X167123000Y-81207000D01*
X167123000Y-80953000D01*
X167143000Y-80953000D01*
X167143000Y-79587750D01*
X167397000Y-79587750D01*
X167397000Y-80953000D01*
X168762250Y-80953000D01*
X168921000Y-80794250D01*
X168921000Y-79937690D01*
X168824327Y-79704301D01*
X168645698Y-79525673D01*
X168412309Y-79429000D01*
X167555750Y-79429000D01*
X167397000Y-79587750D01*
X167143000Y-79587750D01*
X166984250Y-79429000D01*
X166127691Y-79429000D01*
X165894302Y-79525673D01*
X165715673Y-79704301D01*
X165707910Y-79723044D01*
X165665216Y-79680350D01*
X165058404Y-79429000D01*
X164401596Y-79429000D01*
X163794784Y-79680350D01*
X163330350Y-80144784D01*
X163079000Y-80751596D01*
X159519226Y-80751596D01*
X158982283Y-80214653D01*
X158939771Y-80151029D01*
X158687717Y-79982612D01*
X158465448Y-79938400D01*
X158465443Y-79938400D01*
X158390400Y-79923473D01*
X158315357Y-79938400D01*
X156093254Y-79938400D01*
X156194800Y-79693247D01*
X156194800Y-79066753D01*
X155955051Y-78487948D01*
X155577103Y-78110000D01*
X155955051Y-77732052D01*
X156194800Y-77153247D01*
X156194800Y-76526753D01*
X155955051Y-75947948D01*
X155711539Y-75704436D01*
X159434100Y-75704436D01*
X159434100Y-76295564D01*
X159660314Y-76841695D01*
X160078305Y-77259686D01*
X160624436Y-77485900D01*
X161215564Y-77485900D01*
X161761695Y-77259686D01*
X162179686Y-76841695D01*
X162405900Y-76295564D01*
X162405900Y-75704436D01*
X162265302Y-75365000D01*
X162568928Y-75365000D01*
X163269096Y-75074981D01*
X163727554Y-74616523D01*
X163371100Y-75477079D01*
X163371100Y-76522921D01*
X163771326Y-77489152D01*
X164510848Y-78228674D01*
X165477079Y-78628900D01*
X166522921Y-78628900D01*
X167489152Y-78228674D01*
X168228674Y-77489152D01*
X168628900Y-76522921D01*
X168628900Y-75704436D01*
X169594100Y-75704436D01*
X169594100Y-76295564D01*
X169820314Y-76841695D01*
X170238305Y-77259686D01*
X170784436Y-77485900D01*
X171375564Y-77485900D01*
X171921695Y-77259686D01*
X172339686Y-76841695D01*
X172565900Y-76295564D01*
X172565900Y-75704436D01*
X178434100Y-75704436D01*
X178434100Y-76295564D01*
X178660314Y-76841695D01*
X179078305Y-77259686D01*
X179624436Y-77485900D01*
X180215564Y-77485900D01*
X180761695Y-77259686D01*
X181179686Y-76841695D01*
X181405900Y-76295564D01*
X181405900Y-75704436D01*
X181265302Y-75365000D01*
X181568928Y-75365000D01*
X182269096Y-75074981D01*
X182727554Y-74616523D01*
X182371100Y-75477079D01*
X182371100Y-76522921D01*
X182771326Y-77489152D01*
X183510848Y-78228674D01*
X184477079Y-78628900D01*
X185522921Y-78628900D01*
X186489152Y-78228674D01*
X187228674Y-77489152D01*
X187628900Y-76522921D01*
X187628900Y-75704436D01*
X188594100Y-75704436D01*
X188594100Y-76295564D01*
X188820314Y-76841695D01*
X189238305Y-77259686D01*
X189784436Y-77485900D01*
X190375564Y-77485900D01*
X190921695Y-77259686D01*
X191339686Y-76841695D01*
X191565900Y-76295564D01*
X191565900Y-75704436D01*
X191339686Y-75158305D01*
X190921695Y-74740314D01*
X190375564Y-74514100D01*
X189784436Y-74514100D01*
X189238305Y-74740314D01*
X188820314Y-75158305D01*
X188594100Y-75704436D01*
X187628900Y-75704436D01*
X187628900Y-75477079D01*
X187228674Y-74510848D01*
X186489152Y-73771326D01*
X185522921Y-73371100D01*
X184477079Y-73371100D01*
X183510848Y-73771326D01*
X182848753Y-74433421D01*
X183095000Y-73838928D01*
X183095000Y-73081072D01*
X182804981Y-72380904D01*
X182691854Y-72267777D01*
X186371828Y-72267777D01*
X186503520Y-72562657D01*
X187211036Y-72834261D01*
X187968632Y-72814436D01*
X188576480Y-72562657D01*
X188708172Y-72267777D01*
X187540000Y-71099605D01*
X186371828Y-72267777D01*
X182691854Y-72267777D01*
X182269096Y-71845019D01*
X181568928Y-71555000D01*
X180811072Y-71555000D01*
X180110904Y-71845019D01*
X179575019Y-72380904D01*
X179285000Y-73081072D01*
X179285000Y-73838928D01*
X179573419Y-74535232D01*
X179078305Y-74740314D01*
X178660314Y-75158305D01*
X178434100Y-75704436D01*
X172565900Y-75704436D01*
X172339686Y-75158305D01*
X171921695Y-74740314D01*
X171375564Y-74514100D01*
X170784436Y-74514100D01*
X170238305Y-74740314D01*
X169820314Y-75158305D01*
X169594100Y-75704436D01*
X168628900Y-75704436D01*
X168628900Y-75477079D01*
X168228674Y-74510848D01*
X167489152Y-73771326D01*
X166522921Y-73371100D01*
X165477079Y-73371100D01*
X164510848Y-73771326D01*
X163848753Y-74433421D01*
X164095000Y-73838928D01*
X164095000Y-73081072D01*
X163804981Y-72380904D01*
X163691854Y-72267777D01*
X167371828Y-72267777D01*
X167503520Y-72562657D01*
X168211036Y-72834261D01*
X168968632Y-72814436D01*
X169576480Y-72562657D01*
X169708172Y-72267777D01*
X168540000Y-71099605D01*
X167371828Y-72267777D01*
X163691854Y-72267777D01*
X163269096Y-71845019D01*
X162568928Y-71555000D01*
X161811072Y-71555000D01*
X161110904Y-71845019D01*
X160575019Y-72380904D01*
X160285000Y-73081072D01*
X160285000Y-73838928D01*
X160573419Y-74535232D01*
X160078305Y-74740314D01*
X159660314Y-75158305D01*
X159434100Y-75704436D01*
X155711539Y-75704436D01*
X155577103Y-75570000D01*
X155955051Y-75192052D01*
X156194800Y-74613247D01*
X156194800Y-73986753D01*
X155955051Y-73407948D01*
X155577103Y-73030000D01*
X155955051Y-72652052D01*
X156194800Y-72073247D01*
X156194800Y-71446753D01*
X155955051Y-70867948D01*
X155678139Y-70591036D01*
X166625739Y-70591036D01*
X166645564Y-71348632D01*
X166897343Y-71956480D01*
X167192223Y-72088172D01*
X168360395Y-70920000D01*
X168719605Y-70920000D01*
X169887777Y-72088172D01*
X170182657Y-71956480D01*
X170454261Y-71248964D01*
X170437045Y-70591036D01*
X185625739Y-70591036D01*
X185645564Y-71348632D01*
X185897343Y-71956480D01*
X186192223Y-72088172D01*
X187360395Y-70920000D01*
X187719605Y-70920000D01*
X188887777Y-72088172D01*
X189182657Y-71956480D01*
X189454261Y-71248964D01*
X189434436Y-70491368D01*
X189182657Y-69883520D01*
X188887777Y-69751828D01*
X187719605Y-70920000D01*
X187360395Y-70920000D01*
X186192223Y-69751828D01*
X185897343Y-69883520D01*
X185625739Y-70591036D01*
X170437045Y-70591036D01*
X170434436Y-70491368D01*
X170182657Y-69883520D01*
X169887777Y-69751828D01*
X168719605Y-70920000D01*
X168360395Y-70920000D01*
X167192223Y-69751828D01*
X166897343Y-69883520D01*
X166625739Y-70591036D01*
X155678139Y-70591036D01*
X155512052Y-70424949D01*
X154933247Y-70185200D01*
X154306753Y-70185200D01*
X153727948Y-70424949D01*
X153284949Y-70867948D01*
X153045200Y-71446753D01*
X153045200Y-72073247D01*
X153284949Y-72652052D01*
X153662897Y-73030000D01*
X153284949Y-73407948D01*
X153045200Y-73986753D01*
X153045200Y-74187570D01*
X151831883Y-72974253D01*
X151789371Y-72910629D01*
X151537317Y-72742212D01*
X151315048Y-72698000D01*
X151315043Y-72698000D01*
X151240000Y-72683073D01*
X151164957Y-72698000D01*
X150249733Y-72698000D01*
X150576480Y-72562657D01*
X150708172Y-72267777D01*
X149540000Y-71099605D01*
X148371828Y-72267777D01*
X148503520Y-72562657D01*
X148856082Y-72698000D01*
X144936326Y-72698000D01*
X144804981Y-72380904D01*
X144269096Y-71845019D01*
X143568928Y-71555000D01*
X142811072Y-71555000D01*
X142110904Y-71845019D01*
X141575019Y-72380904D01*
X141285000Y-73081072D01*
X141285000Y-73838928D01*
X141573419Y-74535232D01*
X141078305Y-74740314D01*
X140777619Y-75041000D01*
X140954800Y-74613247D01*
X140954800Y-73986753D01*
X140715051Y-73407948D01*
X140337103Y-73030000D01*
X140715051Y-72652052D01*
X140954800Y-72073247D01*
X140954800Y-71446753D01*
X140715051Y-70867948D01*
X140438139Y-70591036D01*
X147625739Y-70591036D01*
X147645564Y-71348632D01*
X147897343Y-71956480D01*
X148192223Y-72088172D01*
X149360395Y-70920000D01*
X149719605Y-70920000D01*
X150887777Y-72088172D01*
X151182657Y-71956480D01*
X151454261Y-71248964D01*
X151434436Y-70491368D01*
X151182657Y-69883520D01*
X150887777Y-69751828D01*
X149719605Y-70920000D01*
X149360395Y-70920000D01*
X148192223Y-69751828D01*
X147897343Y-69883520D01*
X147625739Y-70591036D01*
X140438139Y-70591036D01*
X140272052Y-70424949D01*
X139693247Y-70185200D01*
X139066753Y-70185200D01*
X138487948Y-70424949D01*
X138044949Y-70867948D01*
X137805200Y-71446753D01*
X137805200Y-72073247D01*
X138044949Y-72652052D01*
X138422897Y-73030000D01*
X138044949Y-73407948D01*
X137805200Y-73986753D01*
X137805200Y-74613247D01*
X138044949Y-75192052D01*
X138422897Y-75570000D01*
X138044949Y-75947948D01*
X137805200Y-76526753D01*
X137805200Y-77153247D01*
X138044949Y-77732052D01*
X138422897Y-78110000D01*
X138044949Y-78487948D01*
X137805200Y-79066753D01*
X137805200Y-79693247D01*
X138044949Y-80272052D01*
X138422897Y-80650000D01*
X138044949Y-81027948D01*
X137805200Y-81606753D01*
X137805200Y-82233247D01*
X138044949Y-82812052D01*
X138422897Y-83190000D01*
X138044949Y-83567948D01*
X137805200Y-84146753D01*
X137805200Y-84773247D01*
X138044949Y-85352052D01*
X138115833Y-85422936D01*
X133740851Y-89797919D01*
X133677230Y-89840429D01*
X133634719Y-89904051D01*
X133634718Y-89904052D01*
X133508813Y-90092483D01*
X133449673Y-90389800D01*
X133464601Y-90464848D01*
X133464600Y-91742369D01*
X130628900Y-94578070D01*
X130628900Y-94477079D01*
X130228674Y-93510848D01*
X129489152Y-92771326D01*
X128522921Y-92371100D01*
X127477079Y-92371100D01*
X126510848Y-92771326D01*
X125848753Y-93433421D01*
X126095000Y-92838928D01*
X126095000Y-92081072D01*
X125804981Y-91380904D01*
X125691854Y-91267777D01*
X129371828Y-91267777D01*
X129503520Y-91562657D01*
X130211036Y-91834261D01*
X130968632Y-91814436D01*
X131576480Y-91562657D01*
X131708172Y-91267777D01*
X130540000Y-90099605D01*
X129371828Y-91267777D01*
X125691854Y-91267777D01*
X125269096Y-90845019D01*
X124568928Y-90555000D01*
X123811072Y-90555000D01*
X123110904Y-90845019D01*
X122575019Y-91380904D01*
X122285000Y-92081072D01*
X122285000Y-92838928D01*
X122573419Y-93535232D01*
X122078305Y-93740314D01*
X121660314Y-94158305D01*
X121434100Y-94704436D01*
X121434100Y-95295564D01*
X121660314Y-95841695D01*
X122078305Y-96259686D01*
X122624436Y-96485900D01*
X123215564Y-96485900D01*
X123761695Y-96259686D01*
X124179686Y-95841695D01*
X124405900Y-95295564D01*
X124405900Y-94704436D01*
X124265302Y-94365000D01*
X124568928Y-94365000D01*
X125269096Y-94074981D01*
X125727554Y-93616523D01*
X125371100Y-94477079D01*
X125371100Y-95522921D01*
X125771326Y-96489152D01*
X126510848Y-97228674D01*
X126950539Y-97410800D01*
X126808042Y-97410800D01*
X126732999Y-97395873D01*
X126657956Y-97410800D01*
X126657952Y-97410800D01*
X126435683Y-97455012D01*
X126183629Y-97623429D01*
X126141118Y-97687051D01*
X123704251Y-100123919D01*
X123640630Y-100166429D01*
X123598119Y-100230051D01*
X123598118Y-100230052D01*
X123472213Y-100418483D01*
X123413073Y-100715800D01*
X123428001Y-100790848D01*
X123428000Y-102111079D01*
X123297948Y-102164949D01*
X122854949Y-102607948D01*
X122615200Y-103186753D01*
X122615200Y-103813247D01*
X122823033Y-104315000D01*
X121230006Y-104315000D01*
X121143391Y-104279123D01*
X120904101Y-104231525D01*
X120822798Y-104177201D01*
X120768475Y-104095901D01*
X120720877Y-103856609D01*
X120685000Y-103769994D01*
X120685000Y-89591036D01*
X128625739Y-89591036D01*
X128645564Y-90348632D01*
X128897343Y-90956480D01*
X129192223Y-91088172D01*
X130360395Y-89920000D01*
X130719605Y-89920000D01*
X131887777Y-91088172D01*
X132182657Y-90956480D01*
X132454261Y-90248964D01*
X132434436Y-89491368D01*
X132182657Y-88883520D01*
X131887777Y-88751828D01*
X130719605Y-89920000D01*
X130360395Y-89920000D01*
X129192223Y-88751828D01*
X128897343Y-88883520D01*
X128625739Y-89591036D01*
X120685000Y-89591036D01*
X120685000Y-88572223D01*
X129371828Y-88572223D01*
X130540000Y-89740395D01*
X131708172Y-88572223D01*
X131576480Y-88277343D01*
X130868964Y-88005739D01*
X130111368Y-88025564D01*
X129503520Y-88277343D01*
X129371828Y-88572223D01*
X120685000Y-88572223D01*
X120685000Y-84186753D01*
X122615200Y-84186753D01*
X122615200Y-84813247D01*
X122854949Y-85392052D01*
X123297948Y-85835051D01*
X123876753Y-86074800D01*
X124503247Y-86074800D01*
X125082052Y-85835051D01*
X125525051Y-85392052D01*
X125764800Y-84813247D01*
X125764800Y-84186753D01*
X125525051Y-83607948D01*
X125082052Y-83164949D01*
X124503247Y-82925200D01*
X123876753Y-82925200D01*
X123297948Y-83164949D01*
X122854949Y-83607948D01*
X122615200Y-84186753D01*
X120685000Y-84186753D01*
X120685000Y-80751596D01*
X125079000Y-80751596D01*
X125079000Y-81408404D01*
X125330350Y-82015216D01*
X125794784Y-82479650D01*
X126401596Y-82731000D01*
X127058404Y-82731000D01*
X127231621Y-82659251D01*
X129558118Y-84985749D01*
X129600629Y-85049371D01*
X129664251Y-85091882D01*
X129852681Y-85217787D01*
X129852682Y-85217787D01*
X129852683Y-85217788D01*
X130074952Y-85262000D01*
X130074956Y-85262000D01*
X130149999Y-85276927D01*
X130225042Y-85262000D01*
X130421080Y-85262000D01*
X130474949Y-85392052D01*
X130917948Y-85835051D01*
X131496753Y-86074800D01*
X132123247Y-86074800D01*
X132702052Y-85835051D01*
X133145051Y-85392052D01*
X133384800Y-84813247D01*
X133384800Y-84186753D01*
X133145051Y-83607948D01*
X132702052Y-83164949D01*
X132123247Y-82925200D01*
X131496753Y-82925200D01*
X130917948Y-83164949D01*
X130474949Y-83607948D01*
X130434128Y-83706498D01*
X129397002Y-82669371D01*
X129397002Y-82572252D01*
X129555750Y-82731000D01*
X130412309Y-82731000D01*
X130645698Y-82634327D01*
X130824327Y-82455699D01*
X130921000Y-82222310D01*
X130921000Y-81365750D01*
X130762250Y-81207000D01*
X129397000Y-81207000D01*
X129397000Y-81227000D01*
X129143000Y-81227000D01*
X129143000Y-81207000D01*
X129123000Y-81207000D01*
X129123000Y-80953000D01*
X129143000Y-80953000D01*
X129143000Y-79587750D01*
X129397000Y-79587750D01*
X129397000Y-80953000D01*
X130762250Y-80953000D01*
X130921000Y-80794250D01*
X130921000Y-79937690D01*
X130824327Y-79704301D01*
X130645698Y-79525673D01*
X130412309Y-79429000D01*
X129555750Y-79429000D01*
X129397000Y-79587750D01*
X129143000Y-79587750D01*
X128984250Y-79429000D01*
X128127691Y-79429000D01*
X127894302Y-79525673D01*
X127715673Y-79704301D01*
X127707910Y-79723044D01*
X127665216Y-79680350D01*
X127058404Y-79429000D01*
X126401596Y-79429000D01*
X125794784Y-79680350D01*
X125330350Y-80144784D01*
X125079000Y-80751596D01*
X120685000Y-80751596D01*
X120685000Y-75704436D01*
X121434100Y-75704436D01*
X121434100Y-76295564D01*
X121660314Y-76841695D01*
X122078305Y-77259686D01*
X122624436Y-77485900D01*
X123215564Y-77485900D01*
X123761695Y-77259686D01*
X124179686Y-76841695D01*
X124405900Y-76295564D01*
X124405900Y-75704436D01*
X124265302Y-75365000D01*
X124568928Y-75365000D01*
X125269096Y-75074981D01*
X125727554Y-74616523D01*
X125371100Y-75477079D01*
X125371100Y-76522921D01*
X125771326Y-77489152D01*
X126510848Y-78228674D01*
X127477079Y-78628900D01*
X128522921Y-78628900D01*
X129489152Y-78228674D01*
X130228674Y-77489152D01*
X130628900Y-76522921D01*
X130628900Y-75704436D01*
X131594100Y-75704436D01*
X131594100Y-76295564D01*
X131820314Y-76841695D01*
X132238305Y-77259686D01*
X132784436Y-77485900D01*
X133375564Y-77485900D01*
X133921695Y-77259686D01*
X134339686Y-76841695D01*
X134565900Y-76295564D01*
X134565900Y-75704436D01*
X134339686Y-75158305D01*
X133921695Y-74740314D01*
X133375564Y-74514100D01*
X132784436Y-74514100D01*
X132238305Y-74740314D01*
X131820314Y-75158305D01*
X131594100Y-75704436D01*
X130628900Y-75704436D01*
X130628900Y-75477079D01*
X130228674Y-74510848D01*
X129489152Y-73771326D01*
X128522921Y-73371100D01*
X127477079Y-73371100D01*
X126510848Y-73771326D01*
X125848753Y-74433421D01*
X126095000Y-73838928D01*
X126095000Y-73081072D01*
X125804981Y-72380904D01*
X125691854Y-72267777D01*
X129371828Y-72267777D01*
X129503520Y-72562657D01*
X130211036Y-72834261D01*
X130968632Y-72814436D01*
X131576480Y-72562657D01*
X131708172Y-72267777D01*
X130540000Y-71099605D01*
X129371828Y-72267777D01*
X125691854Y-72267777D01*
X125269096Y-71845019D01*
X124568928Y-71555000D01*
X123811072Y-71555000D01*
X123110904Y-71845019D01*
X122575019Y-72380904D01*
X122285000Y-73081072D01*
X122285000Y-73838928D01*
X122573419Y-74535232D01*
X122078305Y-74740314D01*
X121660314Y-75158305D01*
X121434100Y-75704436D01*
X120685000Y-75704436D01*
X120685000Y-70591036D01*
X128625739Y-70591036D01*
X128645564Y-71348632D01*
X128897343Y-71956480D01*
X129192223Y-72088172D01*
X130360395Y-70920000D01*
X130719605Y-70920000D01*
X131887777Y-72088172D01*
X132182657Y-71956480D01*
X132454261Y-71248964D01*
X132434436Y-70491368D01*
X132182657Y-69883520D01*
X131887777Y-69751828D01*
X130719605Y-70920000D01*
X130360395Y-70920000D01*
X129192223Y-69751828D01*
X128897343Y-69883520D01*
X128625739Y-70591036D01*
X120685000Y-70591036D01*
X120685000Y-69572223D01*
X129371828Y-69572223D01*
X130540000Y-70740395D01*
X131708172Y-69572223D01*
X148371828Y-69572223D01*
X149540000Y-70740395D01*
X150708172Y-69572223D01*
X167371828Y-69572223D01*
X168540000Y-70740395D01*
X169708172Y-69572223D01*
X186371828Y-69572223D01*
X187540000Y-70740395D01*
X188708172Y-69572223D01*
X188576480Y-69277343D01*
X187868964Y-69005739D01*
X187111368Y-69025564D01*
X186503520Y-69277343D01*
X186371828Y-69572223D01*
X169708172Y-69572223D01*
X169576480Y-69277343D01*
X168868964Y-69005739D01*
X168111368Y-69025564D01*
X167503520Y-69277343D01*
X167371828Y-69572223D01*
X150708172Y-69572223D01*
X150576480Y-69277343D01*
X149868964Y-69005739D01*
X149111368Y-69025564D01*
X148503520Y-69277343D01*
X148371828Y-69572223D01*
X131708172Y-69572223D01*
X131576480Y-69277343D01*
X130868964Y-69005739D01*
X130111368Y-69025564D01*
X129503520Y-69277343D01*
X129371828Y-69572223D01*
X120685000Y-69572223D01*
X120685000Y-69230006D01*
X120720877Y-69143391D01*
X120768475Y-68904099D01*
X120822798Y-68822799D01*
X120904101Y-68768475D01*
X121143391Y-68720877D01*
X121230006Y-68685000D01*
X191769994Y-68685000D01*
X191856609Y-68720877D01*
X191856609Y-68720877D01*
G37*
X191856609Y-68720877D02*
X192095901Y-68768475D01*
X192177201Y-68822798D01*
X192231525Y-68904101D01*
X192279123Y-69143391D01*
X192315001Y-69230008D01*
X192315000Y-103769994D01*
X192279123Y-103856609D01*
X192231525Y-104095899D01*
X192177201Y-104177202D01*
X192095901Y-104231525D01*
X191856609Y-104279123D01*
X191769994Y-104315000D01*
X190176967Y-104315000D01*
X190384800Y-103813247D01*
X190384800Y-103186753D01*
X190145051Y-102607948D01*
X189702052Y-102164949D01*
X189123247Y-101925200D01*
X188496753Y-101925200D01*
X187917948Y-102164949D01*
X187474949Y-102607948D01*
X187434128Y-102706498D01*
X186397002Y-101669371D01*
X186397002Y-101572252D01*
X186555750Y-101731000D01*
X187412309Y-101731000D01*
X187645698Y-101634327D01*
X187824327Y-101455699D01*
X187921000Y-101222310D01*
X187921000Y-100365750D01*
X187762250Y-100207000D01*
X186397000Y-100207000D01*
X186397000Y-100227000D01*
X186143000Y-100227000D01*
X186143000Y-100207000D01*
X186123000Y-100207000D01*
X186123000Y-99953000D01*
X186143000Y-99953000D01*
X186143000Y-98587750D01*
X186397000Y-98587750D01*
X186397000Y-99953000D01*
X187762250Y-99953000D01*
X187921000Y-99794250D01*
X187921000Y-98937690D01*
X187824327Y-98704301D01*
X187645698Y-98525673D01*
X187412309Y-98429000D01*
X186555750Y-98429000D01*
X186397000Y-98587750D01*
X186143000Y-98587750D01*
X185984250Y-98429000D01*
X185127691Y-98429000D01*
X184894302Y-98525673D01*
X184715673Y-98704301D01*
X184707910Y-98723044D01*
X184665216Y-98680350D01*
X184058404Y-98429000D01*
X183401596Y-98429000D01*
X182794784Y-98680350D01*
X182330350Y-99144784D01*
X182079000Y-99751596D01*
X182079000Y-100408404D01*
X182330350Y-101015216D01*
X182794784Y-101479650D01*
X183401596Y-101731000D01*
X184058404Y-101731000D01*
X184231621Y-101659251D01*
X186558118Y-103985749D01*
X186600629Y-104049371D01*
X186664250Y-104091881D01*
X186664251Y-104091882D01*
X186852681Y-104217787D01*
X186852682Y-104217787D01*
X186852683Y-104217788D01*
X187074952Y-104262000D01*
X187074956Y-104262000D01*
X187149999Y-104276927D01*
X187225042Y-104262000D01*
X187421080Y-104262000D01*
X187443033Y-104315000D01*
X182556967Y-104315000D01*
X182764800Y-103813247D01*
X182764800Y-103186753D01*
X182525051Y-102607948D01*
X182082052Y-102164949D01*
X181503247Y-101925200D01*
X180876753Y-101925200D01*
X180746700Y-101979070D01*
X175878383Y-97110753D01*
X175835871Y-97047129D01*
X175583817Y-96878712D01*
X175361548Y-96834500D01*
X175361543Y-96834500D01*
X175286500Y-96819573D01*
X175211457Y-96834500D01*
X167883326Y-96834500D01*
X168228674Y-96489152D01*
X168628900Y-95522921D01*
X168628900Y-94704436D01*
X169594100Y-94704436D01*
X169594100Y-95295564D01*
X169820314Y-95841695D01*
X170238305Y-96259686D01*
X170784436Y-96485900D01*
X171375564Y-96485900D01*
X171921695Y-96259686D01*
X172339686Y-95841695D01*
X172565900Y-95295564D01*
X172565900Y-94704436D01*
X172339686Y-94158305D01*
X171921695Y-93740314D01*
X171375564Y-93514100D01*
X170784436Y-93514100D01*
X170238305Y-93740314D01*
X169820314Y-94158305D01*
X169594100Y-94704436D01*
X168628900Y-94704436D01*
X168628900Y-94477079D01*
X168228674Y-93510848D01*
X167939826Y-93222000D01*
X179443674Y-93222000D01*
X179573419Y-93535232D01*
X179078305Y-93740314D01*
X178660314Y-94158305D01*
X178434100Y-94704436D01*
X178434100Y-95295564D01*
X178660314Y-95841695D01*
X179078305Y-96259686D01*
X179624436Y-96485900D01*
X180215564Y-96485900D01*
X180761695Y-96259686D01*
X181179686Y-95841695D01*
X181405900Y-95295564D01*
X181405900Y-94704436D01*
X181265302Y-94365000D01*
X181568928Y-94365000D01*
X182269096Y-94074981D01*
X182727554Y-93616523D01*
X182371100Y-94477079D01*
X182371100Y-95522921D01*
X182771326Y-96489152D01*
X183510848Y-97228674D01*
X184477079Y-97628900D01*
X185522921Y-97628900D01*
X186489152Y-97228674D01*
X187228674Y-96489152D01*
X187628900Y-95522921D01*
X187628900Y-94704436D01*
X188594100Y-94704436D01*
X188594100Y-95295564D01*
X188820314Y-95841695D01*
X189238305Y-96259686D01*
X189784436Y-96485900D01*
X190375564Y-96485900D01*
X190921695Y-96259686D01*
X191339686Y-95841695D01*
X191565900Y-95295564D01*
X191565900Y-94704436D01*
X191339686Y-94158305D01*
X190921695Y-93740314D01*
X190375564Y-93514100D01*
X189784436Y-93514100D01*
X189238305Y-93740314D01*
X188820314Y-94158305D01*
X188594100Y-94704436D01*
X187628900Y-94704436D01*
X187628900Y-94477079D01*
X187228674Y-93510848D01*
X186489152Y-92771326D01*
X185522921Y-92371100D01*
X184477079Y-92371100D01*
X183510848Y-92771326D01*
X182848753Y-93433421D01*
X183095000Y-92838928D01*
X183095000Y-92081072D01*
X182804981Y-91380904D01*
X182691854Y-91267777D01*
X186371828Y-91267777D01*
X186503520Y-91562657D01*
X187211036Y-91834261D01*
X187968632Y-91814436D01*
X188576480Y-91562657D01*
X188708172Y-91267777D01*
X187540000Y-90099605D01*
X186371828Y-91267777D01*
X182691854Y-91267777D01*
X182269096Y-90845019D01*
X181568928Y-90555000D01*
X180811072Y-90555000D01*
X180110904Y-90845019D01*
X179575019Y-91380904D01*
X179443674Y-91698000D01*
X169249733Y-91698000D01*
X169576480Y-91562657D01*
X169708172Y-91267777D01*
X168540000Y-90099605D01*
X167371828Y-91267777D01*
X167503520Y-91562657D01*
X167856082Y-91698000D01*
X165475631Y-91698000D01*
X163368667Y-89591036D01*
X166625739Y-89591036D01*
X166645564Y-90348632D01*
X166897343Y-90956480D01*
X167192223Y-91088172D01*
X168360395Y-89920000D01*
X168719605Y-89920000D01*
X169887777Y-91088172D01*
X170182657Y-90956480D01*
X170454261Y-90248964D01*
X170434436Y-89491368D01*
X170182657Y-88883520D01*
X169887777Y-88751828D01*
X168719605Y-89920000D01*
X168360395Y-89920000D01*
X167192223Y-88751828D01*
X166897343Y-88883520D01*
X166625739Y-89591036D01*
X163368667Y-89591036D01*
X162349854Y-88572223D01*
X167371828Y-88572223D01*
X168540000Y-89740395D01*
X169708172Y-88572223D01*
X169648208Y-88437953D01*
X171664600Y-88437953D01*
X171664600Y-89064447D01*
X171904349Y-89643252D01*
X172347348Y-90086251D01*
X172926153Y-90326000D01*
X173552647Y-90326000D01*
X174131452Y-90086251D01*
X174574451Y-89643252D01*
X174814200Y-89064447D01*
X174814200Y-88437953D01*
X176185800Y-88437953D01*
X176185800Y-89064447D01*
X176425549Y-89643252D01*
X176868548Y-90086251D01*
X177447353Y-90326000D01*
X178073847Y-90326000D01*
X178652652Y-90086251D01*
X179095651Y-89643252D01*
X179117279Y-89591036D01*
X185625739Y-89591036D01*
X185645564Y-90348632D01*
X185897343Y-90956480D01*
X186192223Y-91088172D01*
X187360395Y-89920000D01*
X187719605Y-89920000D01*
X188887777Y-91088172D01*
X189182657Y-90956480D01*
X189454261Y-90248964D01*
X189434436Y-89491368D01*
X189182657Y-88883520D01*
X188887777Y-88751828D01*
X187719605Y-89920000D01*
X187360395Y-89920000D01*
X186192223Y-88751828D01*
X185897343Y-88883520D01*
X185625739Y-89591036D01*
X179117279Y-89591036D01*
X179335400Y-89064447D01*
X179335400Y-88572223D01*
X186371828Y-88572223D01*
X187540000Y-89740395D01*
X188708172Y-88572223D01*
X188576480Y-88277343D01*
X187868964Y-88005739D01*
X187111368Y-88025564D01*
X186503520Y-88277343D01*
X186371828Y-88572223D01*
X179335400Y-88572223D01*
X179335400Y-88437953D01*
X179095651Y-87859148D01*
X178652652Y-87416149D01*
X178073847Y-87176400D01*
X177447353Y-87176400D01*
X176868548Y-87416149D01*
X176425549Y-87859148D01*
X176185800Y-88437953D01*
X174814200Y-88437953D01*
X174574451Y-87859148D01*
X174131452Y-87416149D01*
X173552647Y-87176400D01*
X172926153Y-87176400D01*
X172347348Y-87416149D01*
X171904349Y-87859148D01*
X171664600Y-88437953D01*
X169648208Y-88437953D01*
X169576480Y-88277343D01*
X168868964Y-88005739D01*
X168111368Y-88025564D01*
X167503520Y-88277343D01*
X167371828Y-88572223D01*
X162349854Y-88572223D01*
X156140930Y-82363300D01*
X156194800Y-82233247D01*
X156194800Y-81606753D01*
X156135007Y-81462400D01*
X158074770Y-81462400D01*
X160669070Y-84056700D01*
X160615200Y-84186753D01*
X160615200Y-84813247D01*
X160854949Y-85392052D01*
X161297948Y-85835051D01*
X161876753Y-86074800D01*
X162503247Y-86074800D01*
X163082052Y-85835051D01*
X163525051Y-85392052D01*
X163764800Y-84813247D01*
X163764800Y-84186753D01*
X163525051Y-83607948D01*
X163082052Y-83164949D01*
X162503247Y-82925200D01*
X161876753Y-82925200D01*
X161746700Y-82979070D01*
X159519226Y-80751596D01*
X163079000Y-80751596D01*
X163079000Y-81408404D01*
X163330350Y-82015216D01*
X163794784Y-82479650D01*
X164401596Y-82731000D01*
X165058404Y-82731000D01*
X165231621Y-82659251D01*
X167558118Y-84985749D01*
X167600629Y-85049371D01*
X167664251Y-85091882D01*
X167852681Y-85217787D01*
X167852682Y-85217787D01*
X167852683Y-85217788D01*
X168074952Y-85262000D01*
X168074956Y-85262000D01*
X168149999Y-85276927D01*
X168225042Y-85262000D01*
X168421080Y-85262000D01*
X168474949Y-85392052D01*
X168917948Y-85835051D01*
X169496753Y-86074800D01*
X170123247Y-86074800D01*
X170702052Y-85835051D01*
X171145051Y-85392052D01*
X171384800Y-84813247D01*
X171384800Y-84186753D01*
X179615200Y-84186753D01*
X179615200Y-84813247D01*
X179854949Y-85392052D01*
X180297948Y-85835051D01*
X180876753Y-86074800D01*
X181503247Y-86074800D01*
X182082052Y-85835051D01*
X182525051Y-85392052D01*
X182764800Y-84813247D01*
X182764800Y-84186753D01*
X182525051Y-83607948D01*
X182082052Y-83164949D01*
X181503247Y-82925200D01*
X180876753Y-82925200D01*
X180297948Y-83164949D01*
X179854949Y-83607948D01*
X179615200Y-84186753D01*
X171384800Y-84186753D01*
X171145051Y-83607948D01*
X170702052Y-83164949D01*
X170123247Y-82925200D01*
X169496753Y-82925200D01*
X168917948Y-83164949D01*
X168474949Y-83607948D01*
X168434128Y-83706498D01*
X167397002Y-82669371D01*
X167397002Y-82572252D01*
X167555750Y-82731000D01*
X168412309Y-82731000D01*
X168645698Y-82634327D01*
X168824327Y-82455699D01*
X168921000Y-82222310D01*
X168921000Y-81935553D01*
X171664600Y-81935553D01*
X171664600Y-82562047D01*
X171904349Y-83140852D01*
X172347348Y-83583851D01*
X172926153Y-83823600D01*
X173552647Y-83823600D01*
X174131452Y-83583851D01*
X174357535Y-83357768D01*
X176831237Y-83357768D01*
X176922523Y-83618380D01*
X177510433Y-83834845D01*
X178136428Y-83809849D01*
X178598677Y-83618380D01*
X178689963Y-83357768D01*
X177760600Y-82428405D01*
X176831237Y-83357768D01*
X174357535Y-83357768D01*
X174574451Y-83140852D01*
X174814200Y-82562047D01*
X174814200Y-81998633D01*
X176174555Y-81998633D01*
X176199551Y-82624628D01*
X176391020Y-83086877D01*
X176651632Y-83178163D01*
X177580995Y-82248800D01*
X177940205Y-82248800D01*
X178869568Y-83178163D01*
X179130180Y-83086877D01*
X179346645Y-82498967D01*
X179321649Y-81872972D01*
X179130180Y-81410723D01*
X178869568Y-81319437D01*
X177940205Y-82248800D01*
X177580995Y-82248800D01*
X176651632Y-81319437D01*
X176391020Y-81410723D01*
X176174555Y-81998633D01*
X174814200Y-81998633D01*
X174814200Y-81935553D01*
X174574451Y-81356748D01*
X174357535Y-81139832D01*
X176831237Y-81139832D01*
X177760600Y-82069195D01*
X178689963Y-81139832D01*
X178598677Y-80879220D01*
X178252056Y-80751596D01*
X182079000Y-80751596D01*
X182079000Y-81408404D01*
X182330350Y-82015216D01*
X182794784Y-82479650D01*
X183401596Y-82731000D01*
X184058404Y-82731000D01*
X184231621Y-82659251D01*
X186558118Y-84985749D01*
X186600629Y-85049371D01*
X186664251Y-85091882D01*
X186852681Y-85217787D01*
X186852682Y-85217787D01*
X186852683Y-85217788D01*
X187074952Y-85262000D01*
X187074956Y-85262000D01*
X187149999Y-85276927D01*
X187225042Y-85262000D01*
X187421080Y-85262000D01*
X187474949Y-85392052D01*
X187917948Y-85835051D01*
X188496753Y-86074800D01*
X189123247Y-86074800D01*
X189702052Y-85835051D01*
X190145051Y-85392052D01*
X190384800Y-84813247D01*
X190384800Y-84186753D01*
X190145051Y-83607948D01*
X189702052Y-83164949D01*
X189123247Y-82925200D01*
X188496753Y-82925200D01*
X187917948Y-83164949D01*
X187474949Y-83607948D01*
X187434128Y-83706498D01*
X186397002Y-82669371D01*
X186397002Y-82572252D01*
X186555750Y-82731000D01*
X187412309Y-82731000D01*
X187645698Y-82634327D01*
X187824327Y-82455699D01*
X187921000Y-82222310D01*
X187921000Y-81365750D01*
X187762250Y-81207000D01*
X186397000Y-81207000D01*
X186397000Y-81227000D01*
X186143000Y-81227000D01*
X186143000Y-81207000D01*
X186123000Y-81207000D01*
X186123000Y-80953000D01*
X186143000Y-80953000D01*
X186143000Y-79587750D01*
X186397000Y-79587750D01*
X186397000Y-80953000D01*
X187762250Y-80953000D01*
X187921000Y-80794250D01*
X187921000Y-79937690D01*
X187824327Y-79704301D01*
X187645698Y-79525673D01*
X187412309Y-79429000D01*
X186555750Y-79429000D01*
X186397000Y-79587750D01*
X186143000Y-79587750D01*
X185984250Y-79429000D01*
X185127691Y-79429000D01*
X184894302Y-79525673D01*
X184715673Y-79704301D01*
X184707910Y-79723044D01*
X184665216Y-79680350D01*
X184058404Y-79429000D01*
X183401596Y-79429000D01*
X182794784Y-79680350D01*
X182330350Y-80144784D01*
X182079000Y-80751596D01*
X178252056Y-80751596D01*
X178010767Y-80662755D01*
X177384772Y-80687751D01*
X176922523Y-80879220D01*
X176831237Y-81139832D01*
X174357535Y-81139832D01*
X174131452Y-80913749D01*
X173552647Y-80674000D01*
X172926153Y-80674000D01*
X172347348Y-80913749D01*
X171904349Y-81356748D01*
X171664600Y-81935553D01*
X168921000Y-81935553D01*
X168921000Y-81365750D01*
X168762250Y-81207000D01*
X167397000Y-81207000D01*
X167397000Y-81227000D01*
X167143000Y-81227000D01*
X167143000Y-81207000D01*
X167123000Y-81207000D01*
X167123000Y-80953000D01*
X167143000Y-80953000D01*
X167143000Y-79587750D01*
X167397000Y-79587750D01*
X167397000Y-80953000D01*
X168762250Y-80953000D01*
X168921000Y-80794250D01*
X168921000Y-79937690D01*
X168824327Y-79704301D01*
X168645698Y-79525673D01*
X168412309Y-79429000D01*
X167555750Y-79429000D01*
X167397000Y-79587750D01*
X167143000Y-79587750D01*
X166984250Y-79429000D01*
X166127691Y-79429000D01*
X165894302Y-79525673D01*
X165715673Y-79704301D01*
X165707910Y-79723044D01*
X165665216Y-79680350D01*
X165058404Y-79429000D01*
X164401596Y-79429000D01*
X163794784Y-79680350D01*
X163330350Y-80144784D01*
X163079000Y-80751596D01*
X159519226Y-80751596D01*
X158982283Y-80214653D01*
X158939771Y-80151029D01*
X158687717Y-79982612D01*
X158465448Y-79938400D01*
X158465443Y-79938400D01*
X158390400Y-79923473D01*
X158315357Y-79938400D01*
X156093254Y-79938400D01*
X156194800Y-79693247D01*
X156194800Y-79066753D01*
X155955051Y-78487948D01*
X155577103Y-78110000D01*
X155955051Y-77732052D01*
X156194800Y-77153247D01*
X156194800Y-76526753D01*
X155955051Y-75947948D01*
X155711539Y-75704436D01*
X159434100Y-75704436D01*
X159434100Y-76295564D01*
X159660314Y-76841695D01*
X160078305Y-77259686D01*
X160624436Y-77485900D01*
X161215564Y-77485900D01*
X161761695Y-77259686D01*
X162179686Y-76841695D01*
X162405900Y-76295564D01*
X162405900Y-75704436D01*
X162265302Y-75365000D01*
X162568928Y-75365000D01*
X163269096Y-75074981D01*
X163727554Y-74616523D01*
X163371100Y-75477079D01*
X163371100Y-76522921D01*
X163771326Y-77489152D01*
X164510848Y-78228674D01*
X165477079Y-78628900D01*
X166522921Y-78628900D01*
X167489152Y-78228674D01*
X168228674Y-77489152D01*
X168628900Y-76522921D01*
X168628900Y-75704436D01*
X169594100Y-75704436D01*
X169594100Y-76295564D01*
X169820314Y-76841695D01*
X170238305Y-77259686D01*
X170784436Y-77485900D01*
X171375564Y-77485900D01*
X171921695Y-77259686D01*
X172339686Y-76841695D01*
X172565900Y-76295564D01*
X172565900Y-75704436D01*
X178434100Y-75704436D01*
X178434100Y-76295564D01*
X178660314Y-76841695D01*
X179078305Y-77259686D01*
X179624436Y-77485900D01*
X180215564Y-77485900D01*
X180761695Y-77259686D01*
X181179686Y-76841695D01*
X181405900Y-76295564D01*
X181405900Y-75704436D01*
X181265302Y-75365000D01*
X181568928Y-75365000D01*
X182269096Y-75074981D01*
X182727554Y-74616523D01*
X182371100Y-75477079D01*
X182371100Y-76522921D01*
X182771326Y-77489152D01*
X183510848Y-78228674D01*
X184477079Y-78628900D01*
X185522921Y-78628900D01*
X186489152Y-78228674D01*
X187228674Y-77489152D01*
X187628900Y-76522921D01*
X187628900Y-75704436D01*
X188594100Y-75704436D01*
X188594100Y-76295564D01*
X188820314Y-76841695D01*
X189238305Y-77259686D01*
X189784436Y-77485900D01*
X190375564Y-77485900D01*
X190921695Y-77259686D01*
X191339686Y-76841695D01*
X191565900Y-76295564D01*
X191565900Y-75704436D01*
X191339686Y-75158305D01*
X190921695Y-74740314D01*
X190375564Y-74514100D01*
X189784436Y-74514100D01*
X189238305Y-74740314D01*
X188820314Y-75158305D01*
X188594100Y-75704436D01*
X187628900Y-75704436D01*
X187628900Y-75477079D01*
X187228674Y-74510848D01*
X186489152Y-73771326D01*
X185522921Y-73371100D01*
X184477079Y-73371100D01*
X183510848Y-73771326D01*
X182848753Y-74433421D01*
X183095000Y-73838928D01*
X183095000Y-73081072D01*
X182804981Y-72380904D01*
X182691854Y-72267777D01*
X186371828Y-72267777D01*
X186503520Y-72562657D01*
X187211036Y-72834261D01*
X187968632Y-72814436D01*
X188576480Y-72562657D01*
X188708172Y-72267777D01*
X187540000Y-71099605D01*
X186371828Y-72267777D01*
X182691854Y-72267777D01*
X182269096Y-71845019D01*
X181568928Y-71555000D01*
X180811072Y-71555000D01*
X180110904Y-71845019D01*
X179575019Y-72380904D01*
X179285000Y-73081072D01*
X179285000Y-73838928D01*
X179573419Y-74535232D01*
X179078305Y-74740314D01*
X178660314Y-75158305D01*
X178434100Y-75704436D01*
X172565900Y-75704436D01*
X172339686Y-75158305D01*
X171921695Y-74740314D01*
X171375564Y-74514100D01*
X170784436Y-74514100D01*
X170238305Y-74740314D01*
X169820314Y-75158305D01*
X169594100Y-75704436D01*
X168628900Y-75704436D01*
X168628900Y-75477079D01*
X168228674Y-74510848D01*
X167489152Y-73771326D01*
X166522921Y-73371100D01*
X165477079Y-73371100D01*
X164510848Y-73771326D01*
X163848753Y-74433421D01*
X164095000Y-73838928D01*
X164095000Y-73081072D01*
X163804981Y-72380904D01*
X163691854Y-72267777D01*
X167371828Y-72267777D01*
X167503520Y-72562657D01*
X168211036Y-72834261D01*
X168968632Y-72814436D01*
X169576480Y-72562657D01*
X169708172Y-72267777D01*
X168540000Y-71099605D01*
X167371828Y-72267777D01*
X163691854Y-72267777D01*
X163269096Y-71845019D01*
X162568928Y-71555000D01*
X161811072Y-71555000D01*
X161110904Y-71845019D01*
X160575019Y-72380904D01*
X160285000Y-73081072D01*
X160285000Y-73838928D01*
X160573419Y-74535232D01*
X160078305Y-74740314D01*
X159660314Y-75158305D01*
X159434100Y-75704436D01*
X155711539Y-75704436D01*
X155577103Y-75570000D01*
X155955051Y-75192052D01*
X156194800Y-74613247D01*
X156194800Y-73986753D01*
X155955051Y-73407948D01*
X155577103Y-73030000D01*
X155955051Y-72652052D01*
X156194800Y-72073247D01*
X156194800Y-71446753D01*
X155955051Y-70867948D01*
X155678139Y-70591036D01*
X166625739Y-70591036D01*
X166645564Y-71348632D01*
X166897343Y-71956480D01*
X167192223Y-72088172D01*
X168360395Y-70920000D01*
X168719605Y-70920000D01*
X169887777Y-72088172D01*
X170182657Y-71956480D01*
X170454261Y-71248964D01*
X170437045Y-70591036D01*
X185625739Y-70591036D01*
X185645564Y-71348632D01*
X185897343Y-71956480D01*
X186192223Y-72088172D01*
X187360395Y-70920000D01*
X187719605Y-70920000D01*
X188887777Y-72088172D01*
X189182657Y-71956480D01*
X189454261Y-71248964D01*
X189434436Y-70491368D01*
X189182657Y-69883520D01*
X188887777Y-69751828D01*
X187719605Y-70920000D01*
X187360395Y-70920000D01*
X186192223Y-69751828D01*
X185897343Y-69883520D01*
X185625739Y-70591036D01*
X170437045Y-70591036D01*
X170434436Y-70491368D01*
X170182657Y-69883520D01*
X169887777Y-69751828D01*
X168719605Y-70920000D01*
X168360395Y-70920000D01*
X167192223Y-69751828D01*
X166897343Y-69883520D01*
X166625739Y-70591036D01*
X155678139Y-70591036D01*
X155512052Y-70424949D01*
X154933247Y-70185200D01*
X154306753Y-70185200D01*
X153727948Y-70424949D01*
X153284949Y-70867948D01*
X153045200Y-71446753D01*
X153045200Y-72073247D01*
X153284949Y-72652052D01*
X153662897Y-73030000D01*
X153284949Y-73407948D01*
X153045200Y-73986753D01*
X153045200Y-74187570D01*
X151831883Y-72974253D01*
X151789371Y-72910629D01*
X151537317Y-72742212D01*
X151315048Y-72698000D01*
X151315043Y-72698000D01*
X151240000Y-72683073D01*
X151164957Y-72698000D01*
X150249733Y-72698000D01*
X150576480Y-72562657D01*
X150708172Y-72267777D01*
X149540000Y-71099605D01*
X148371828Y-72267777D01*
X148503520Y-72562657D01*
X148856082Y-72698000D01*
X144936326Y-72698000D01*
X144804981Y-72380904D01*
X144269096Y-71845019D01*
X143568928Y-71555000D01*
X142811072Y-71555000D01*
X142110904Y-71845019D01*
X141575019Y-72380904D01*
X141285000Y-73081072D01*
X141285000Y-73838928D01*
X141573419Y-74535232D01*
X141078305Y-74740314D01*
X140777619Y-75041000D01*
X140954800Y-74613247D01*
X140954800Y-73986753D01*
X140715051Y-73407948D01*
X140337103Y-73030000D01*
X140715051Y-72652052D01*
X140954800Y-72073247D01*
X140954800Y-71446753D01*
X140715051Y-70867948D01*
X140438139Y-70591036D01*
X147625739Y-70591036D01*
X147645564Y-71348632D01*
X147897343Y-71956480D01*
X148192223Y-72088172D01*
X149360395Y-70920000D01*
X149719605Y-70920000D01*
X150887777Y-72088172D01*
X151182657Y-71956480D01*
X151454261Y-71248964D01*
X151434436Y-70491368D01*
X151182657Y-69883520D01*
X150887777Y-69751828D01*
X149719605Y-70920000D01*
X149360395Y-70920000D01*
X148192223Y-69751828D01*
X147897343Y-69883520D01*
X147625739Y-70591036D01*
X140438139Y-70591036D01*
X140272052Y-70424949D01*
X139693247Y-70185200D01*
X139066753Y-70185200D01*
X138487948Y-70424949D01*
X138044949Y-70867948D01*
X137805200Y-71446753D01*
X137805200Y-72073247D01*
X138044949Y-72652052D01*
X138422897Y-73030000D01*
X138044949Y-73407948D01*
X137805200Y-73986753D01*
X137805200Y-74613247D01*
X138044949Y-75192052D01*
X138422897Y-75570000D01*
X138044949Y-75947948D01*
X137805200Y-76526753D01*
X137805200Y-77153247D01*
X138044949Y-77732052D01*
X138422897Y-78110000D01*
X138044949Y-78487948D01*
X137805200Y-79066753D01*
X137805200Y-79693247D01*
X138044949Y-80272052D01*
X138422897Y-80650000D01*
X138044949Y-81027948D01*
X137805200Y-81606753D01*
X137805200Y-82233247D01*
X138044949Y-82812052D01*
X138422897Y-83190000D01*
X138044949Y-83567948D01*
X137805200Y-84146753D01*
X137805200Y-84773247D01*
X138044949Y-85352052D01*
X138115833Y-85422936D01*
X133740851Y-89797919D01*
X133677230Y-89840429D01*
X133634719Y-89904051D01*
X133634718Y-89904052D01*
X133508813Y-90092483D01*
X133449673Y-90389800D01*
X133464601Y-90464848D01*
X133464600Y-91742369D01*
X130628900Y-94578070D01*
X130628900Y-94477079D01*
X130228674Y-93510848D01*
X129489152Y-92771326D01*
X128522921Y-92371100D01*
X127477079Y-92371100D01*
X126510848Y-92771326D01*
X125848753Y-93433421D01*
X126095000Y-92838928D01*
X126095000Y-92081072D01*
X125804981Y-91380904D01*
X125691854Y-91267777D01*
X129371828Y-91267777D01*
X129503520Y-91562657D01*
X130211036Y-91834261D01*
X130968632Y-91814436D01*
X131576480Y-91562657D01*
X131708172Y-91267777D01*
X130540000Y-90099605D01*
X129371828Y-91267777D01*
X125691854Y-91267777D01*
X125269096Y-90845019D01*
X124568928Y-90555000D01*
X123811072Y-90555000D01*
X123110904Y-90845019D01*
X122575019Y-91380904D01*
X122285000Y-92081072D01*
X122285000Y-92838928D01*
X122573419Y-93535232D01*
X122078305Y-93740314D01*
X121660314Y-94158305D01*
X121434100Y-94704436D01*
X121434100Y-95295564D01*
X121660314Y-95841695D01*
X122078305Y-96259686D01*
X122624436Y-96485900D01*
X123215564Y-96485900D01*
X123761695Y-96259686D01*
X124179686Y-95841695D01*
X124405900Y-95295564D01*
X124405900Y-94704436D01*
X124265302Y-94365000D01*
X124568928Y-94365000D01*
X125269096Y-94074981D01*
X125727554Y-93616523D01*
X125371100Y-94477079D01*
X125371100Y-95522921D01*
X125771326Y-96489152D01*
X126510848Y-97228674D01*
X126950539Y-97410800D01*
X126808042Y-97410800D01*
X126732999Y-97395873D01*
X126657956Y-97410800D01*
X126657952Y-97410800D01*
X126435683Y-97455012D01*
X126183629Y-97623429D01*
X126141118Y-97687051D01*
X123704251Y-100123919D01*
X123640630Y-100166429D01*
X123598119Y-100230051D01*
X123598118Y-100230052D01*
X123472213Y-100418483D01*
X123413073Y-100715800D01*
X123428001Y-100790848D01*
X123428000Y-102111079D01*
X123297948Y-102164949D01*
X122854949Y-102607948D01*
X122615200Y-103186753D01*
X122615200Y-103813247D01*
X122823033Y-104315000D01*
X121230006Y-104315000D01*
X121143391Y-104279123D01*
X120904101Y-104231525D01*
X120822798Y-104177201D01*
X120768475Y-104095901D01*
X120720877Y-103856609D01*
X120685000Y-103769994D01*
X120685000Y-89591036D01*
X128625739Y-89591036D01*
X128645564Y-90348632D01*
X128897343Y-90956480D01*
X129192223Y-91088172D01*
X130360395Y-89920000D01*
X130719605Y-89920000D01*
X131887777Y-91088172D01*
X132182657Y-90956480D01*
X132454261Y-90248964D01*
X132434436Y-89491368D01*
X132182657Y-88883520D01*
X131887777Y-88751828D01*
X130719605Y-89920000D01*
X130360395Y-89920000D01*
X129192223Y-88751828D01*
X128897343Y-88883520D01*
X128625739Y-89591036D01*
X120685000Y-89591036D01*
X120685000Y-88572223D01*
X129371828Y-88572223D01*
X130540000Y-89740395D01*
X131708172Y-88572223D01*
X131576480Y-88277343D01*
X130868964Y-88005739D01*
X130111368Y-88025564D01*
X129503520Y-88277343D01*
X129371828Y-88572223D01*
X120685000Y-88572223D01*
X120685000Y-84186753D01*
X122615200Y-84186753D01*
X122615200Y-84813247D01*
X122854949Y-85392052D01*
X123297948Y-85835051D01*
X123876753Y-86074800D01*
X124503247Y-86074800D01*
X125082052Y-85835051D01*
X125525051Y-85392052D01*
X125764800Y-84813247D01*
X125764800Y-84186753D01*
X125525051Y-83607948D01*
X125082052Y-83164949D01*
X124503247Y-82925200D01*
X123876753Y-82925200D01*
X123297948Y-83164949D01*
X122854949Y-83607948D01*
X122615200Y-84186753D01*
X120685000Y-84186753D01*
X120685000Y-80751596D01*
X125079000Y-80751596D01*
X125079000Y-81408404D01*
X125330350Y-82015216D01*
X125794784Y-82479650D01*
X126401596Y-82731000D01*
X127058404Y-82731000D01*
X127231621Y-82659251D01*
X129558118Y-84985749D01*
X129600629Y-85049371D01*
X129664251Y-85091882D01*
X129852681Y-85217787D01*
X129852682Y-85217787D01*
X129852683Y-85217788D01*
X130074952Y-85262000D01*
X130074956Y-85262000D01*
X130149999Y-85276927D01*
X130225042Y-85262000D01*
X130421080Y-85262000D01*
X130474949Y-85392052D01*
X130917948Y-85835051D01*
X131496753Y-86074800D01*
X132123247Y-86074800D01*
X132702052Y-85835051D01*
X133145051Y-85392052D01*
X133384800Y-84813247D01*
X133384800Y-84186753D01*
X133145051Y-83607948D01*
X132702052Y-83164949D01*
X132123247Y-82925200D01*
X131496753Y-82925200D01*
X130917948Y-83164949D01*
X130474949Y-83607948D01*
X130434128Y-83706498D01*
X129397002Y-82669371D01*
X129397002Y-82572252D01*
X129555750Y-82731000D01*
X130412309Y-82731000D01*
X130645698Y-82634327D01*
X130824327Y-82455699D01*
X130921000Y-82222310D01*
X130921000Y-81365750D01*
X130762250Y-81207000D01*
X129397000Y-81207000D01*
X129397000Y-81227000D01*
X129143000Y-81227000D01*
X129143000Y-81207000D01*
X129123000Y-81207000D01*
X129123000Y-80953000D01*
X129143000Y-80953000D01*
X129143000Y-79587750D01*
X129397000Y-79587750D01*
X129397000Y-80953000D01*
X130762250Y-80953000D01*
X130921000Y-80794250D01*
X130921000Y-79937690D01*
X130824327Y-79704301D01*
X130645698Y-79525673D01*
X130412309Y-79429000D01*
X129555750Y-79429000D01*
X129397000Y-79587750D01*
X129143000Y-79587750D01*
X128984250Y-79429000D01*
X128127691Y-79429000D01*
X127894302Y-79525673D01*
X127715673Y-79704301D01*
X127707910Y-79723044D01*
X127665216Y-79680350D01*
X127058404Y-79429000D01*
X126401596Y-79429000D01*
X125794784Y-79680350D01*
X125330350Y-80144784D01*
X125079000Y-80751596D01*
X120685000Y-80751596D01*
X120685000Y-75704436D01*
X121434100Y-75704436D01*
X121434100Y-76295564D01*
X121660314Y-76841695D01*
X122078305Y-77259686D01*
X122624436Y-77485900D01*
X123215564Y-77485900D01*
X123761695Y-77259686D01*
X124179686Y-76841695D01*
X124405900Y-76295564D01*
X124405900Y-75704436D01*
X124265302Y-75365000D01*
X124568928Y-75365000D01*
X125269096Y-75074981D01*
X125727554Y-74616523D01*
X125371100Y-75477079D01*
X125371100Y-76522921D01*
X125771326Y-77489152D01*
X126510848Y-78228674D01*
X127477079Y-78628900D01*
X128522921Y-78628900D01*
X129489152Y-78228674D01*
X130228674Y-77489152D01*
X130628900Y-76522921D01*
X130628900Y-75704436D01*
X131594100Y-75704436D01*
X131594100Y-76295564D01*
X131820314Y-76841695D01*
X132238305Y-77259686D01*
X132784436Y-77485900D01*
X133375564Y-77485900D01*
X133921695Y-77259686D01*
X134339686Y-76841695D01*
X134565900Y-76295564D01*
X134565900Y-75704436D01*
X134339686Y-75158305D01*
X133921695Y-74740314D01*
X133375564Y-74514100D01*
X132784436Y-74514100D01*
X132238305Y-74740314D01*
X131820314Y-75158305D01*
X131594100Y-75704436D01*
X130628900Y-75704436D01*
X130628900Y-75477079D01*
X130228674Y-74510848D01*
X129489152Y-73771326D01*
X128522921Y-73371100D01*
X127477079Y-73371100D01*
X126510848Y-73771326D01*
X125848753Y-74433421D01*
X126095000Y-73838928D01*
X126095000Y-73081072D01*
X125804981Y-72380904D01*
X125691854Y-72267777D01*
X129371828Y-72267777D01*
X129503520Y-72562657D01*
X130211036Y-72834261D01*
X130968632Y-72814436D01*
X131576480Y-72562657D01*
X131708172Y-72267777D01*
X130540000Y-71099605D01*
X129371828Y-72267777D01*
X125691854Y-72267777D01*
X125269096Y-71845019D01*
X124568928Y-71555000D01*
X123811072Y-71555000D01*
X123110904Y-71845019D01*
X122575019Y-72380904D01*
X122285000Y-73081072D01*
X122285000Y-73838928D01*
X122573419Y-74535232D01*
X122078305Y-74740314D01*
X121660314Y-75158305D01*
X121434100Y-75704436D01*
X120685000Y-75704436D01*
X120685000Y-70591036D01*
X128625739Y-70591036D01*
X128645564Y-71348632D01*
X128897343Y-71956480D01*
X129192223Y-72088172D01*
X130360395Y-70920000D01*
X130719605Y-70920000D01*
X131887777Y-72088172D01*
X132182657Y-71956480D01*
X132454261Y-71248964D01*
X132434436Y-70491368D01*
X132182657Y-69883520D01*
X131887777Y-69751828D01*
X130719605Y-70920000D01*
X130360395Y-70920000D01*
X129192223Y-69751828D01*
X128897343Y-69883520D01*
X128625739Y-70591036D01*
X120685000Y-70591036D01*
X120685000Y-69572223D01*
X129371828Y-69572223D01*
X130540000Y-70740395D01*
X131708172Y-69572223D01*
X148371828Y-69572223D01*
X149540000Y-70740395D01*
X150708172Y-69572223D01*
X167371828Y-69572223D01*
X168540000Y-70740395D01*
X169708172Y-69572223D01*
X186371828Y-69572223D01*
X187540000Y-70740395D01*
X188708172Y-69572223D01*
X188576480Y-69277343D01*
X187868964Y-69005739D01*
X187111368Y-69025564D01*
X186503520Y-69277343D01*
X186371828Y-69572223D01*
X169708172Y-69572223D01*
X169576480Y-69277343D01*
X168868964Y-69005739D01*
X168111368Y-69025564D01*
X167503520Y-69277343D01*
X167371828Y-69572223D01*
X150708172Y-69572223D01*
X150576480Y-69277343D01*
X149868964Y-69005739D01*
X149111368Y-69025564D01*
X148503520Y-69277343D01*
X148371828Y-69572223D01*
X131708172Y-69572223D01*
X131576480Y-69277343D01*
X130868964Y-69005739D01*
X130111368Y-69025564D01*
X129503520Y-69277343D01*
X129371828Y-69572223D01*
X120685000Y-69572223D01*
X120685000Y-69230006D01*
X120720877Y-69143391D01*
X120768475Y-68904099D01*
X120822798Y-68822799D01*
X120904101Y-68768475D01*
X121143391Y-68720877D01*
X121230006Y-68685000D01*
X191769994Y-68685000D01*
X191856609Y-68720877D01*
G36*
X150820314Y-95841695D02*
X151238305Y-96259686D01*
X151784436Y-96485900D01*
X152375564Y-96485900D01*
X152921695Y-96259686D01*
X153339686Y-95841695D01*
X153420204Y-95647307D01*
X153725214Y-95952317D01*
X153690637Y-96051032D01*
X154620000Y-96980395D01*
X154634143Y-96966253D01*
X154813748Y-97145858D01*
X154799605Y-97160000D01*
X155599475Y-97959870D01*
X155696829Y-98105571D01*
X155760453Y-98148083D01*
X160669070Y-103056700D01*
X160615200Y-103186753D01*
X160615200Y-103813247D01*
X160823033Y-104315000D01*
X152176967Y-104315000D01*
X152384800Y-103813247D01*
X152384800Y-103186753D01*
X152145051Y-102607948D01*
X151702052Y-102164949D01*
X151123247Y-101925200D01*
X150496753Y-101925200D01*
X149917948Y-102164949D01*
X149474949Y-102607948D01*
X149434128Y-102706498D01*
X148397002Y-101669371D01*
X148397002Y-101572252D01*
X148555750Y-101731000D01*
X149412309Y-101731000D01*
X149645698Y-101634327D01*
X149824327Y-101455699D01*
X149921000Y-101222310D01*
X149921000Y-100365750D01*
X149762250Y-100207000D01*
X148397000Y-100207000D01*
X148397000Y-100227000D01*
X148143000Y-100227000D01*
X148143000Y-100207000D01*
X148123000Y-100207000D01*
X148123000Y-99953000D01*
X148143000Y-99953000D01*
X148143000Y-98587750D01*
X148397000Y-98587750D01*
X148397000Y-99953000D01*
X149762250Y-99953000D01*
X149921000Y-99794250D01*
X149921000Y-99386753D01*
X153045200Y-99386753D01*
X153045200Y-100013247D01*
X153284949Y-100592052D01*
X153727948Y-101035051D01*
X154306753Y-101274800D01*
X154933247Y-101274800D01*
X155512052Y-101035051D01*
X155955051Y-100592052D01*
X156194800Y-100013247D01*
X156194800Y-99386753D01*
X155955051Y-98807948D01*
X155514786Y-98367683D01*
X155549363Y-98268968D01*
X154620000Y-97339605D01*
X153690637Y-98268968D01*
X153725214Y-98367683D01*
X153284949Y-98807948D01*
X153045200Y-99386753D01*
X149921000Y-99386753D01*
X149921000Y-98937690D01*
X149824327Y-98704301D01*
X149645698Y-98525673D01*
X149412309Y-98429000D01*
X148555750Y-98429000D01*
X148397000Y-98587750D01*
X148143000Y-98587750D01*
X147984250Y-98429000D01*
X147127691Y-98429000D01*
X146894302Y-98525673D01*
X146715673Y-98704301D01*
X146707910Y-98723044D01*
X146665216Y-98680350D01*
X146445564Y-98589367D01*
X146850331Y-98184600D01*
X147794557Y-98184600D01*
X147869600Y-98199527D01*
X147944643Y-98184600D01*
X147944648Y-98184600D01*
X148166917Y-98140388D01*
X148418971Y-97971971D01*
X148461483Y-97908347D01*
X149459997Y-96909833D01*
X153033955Y-96909833D01*
X153058951Y-97535828D01*
X153250420Y-97998077D01*
X153511032Y-98089363D01*
X154440395Y-97160000D01*
X153511032Y-96230637D01*
X153250420Y-96321923D01*
X153033955Y-96909833D01*
X149459997Y-96909833D01*
X150734737Y-95635093D01*
X150820314Y-95841695D01*
X150820314Y-95841695D01*
G37*
X150820314Y-95841695D02*
X151238305Y-96259686D01*
X151784436Y-96485900D01*
X152375564Y-96485900D01*
X152921695Y-96259686D01*
X153339686Y-95841695D01*
X153420204Y-95647307D01*
X153725214Y-95952317D01*
X153690637Y-96051032D01*
X154620000Y-96980395D01*
X154634143Y-96966253D01*
X154813748Y-97145858D01*
X154799605Y-97160000D01*
X155599475Y-97959870D01*
X155696829Y-98105571D01*
X155760453Y-98148083D01*
X160669070Y-103056700D01*
X160615200Y-103186753D01*
X160615200Y-103813247D01*
X160823033Y-104315000D01*
X152176967Y-104315000D01*
X152384800Y-103813247D01*
X152384800Y-103186753D01*
X152145051Y-102607948D01*
X151702052Y-102164949D01*
X151123247Y-101925200D01*
X150496753Y-101925200D01*
X149917948Y-102164949D01*
X149474949Y-102607948D01*
X149434128Y-102706498D01*
X148397002Y-101669371D01*
X148397002Y-101572252D01*
X148555750Y-101731000D01*
X149412309Y-101731000D01*
X149645698Y-101634327D01*
X149824327Y-101455699D01*
X149921000Y-101222310D01*
X149921000Y-100365750D01*
X149762250Y-100207000D01*
X148397000Y-100207000D01*
X148397000Y-100227000D01*
X148143000Y-100227000D01*
X148143000Y-100207000D01*
X148123000Y-100207000D01*
X148123000Y-99953000D01*
X148143000Y-99953000D01*
X148143000Y-98587750D01*
X148397000Y-98587750D01*
X148397000Y-99953000D01*
X149762250Y-99953000D01*
X149921000Y-99794250D01*
X149921000Y-99386753D01*
X153045200Y-99386753D01*
X153045200Y-100013247D01*
X153284949Y-100592052D01*
X153727948Y-101035051D01*
X154306753Y-101274800D01*
X154933247Y-101274800D01*
X155512052Y-101035051D01*
X155955051Y-100592052D01*
X156194800Y-100013247D01*
X156194800Y-99386753D01*
X155955051Y-98807948D01*
X155514786Y-98367683D01*
X155549363Y-98268968D01*
X154620000Y-97339605D01*
X153690637Y-98268968D01*
X153725214Y-98367683D01*
X153284949Y-98807948D01*
X153045200Y-99386753D01*
X149921000Y-99386753D01*
X149921000Y-98937690D01*
X149824327Y-98704301D01*
X149645698Y-98525673D01*
X149412309Y-98429000D01*
X148555750Y-98429000D01*
X148397000Y-98587750D01*
X148143000Y-98587750D01*
X147984250Y-98429000D01*
X147127691Y-98429000D01*
X146894302Y-98525673D01*
X146715673Y-98704301D01*
X146707910Y-98723044D01*
X146665216Y-98680350D01*
X146445564Y-98589367D01*
X146850331Y-98184600D01*
X147794557Y-98184600D01*
X147869600Y-98199527D01*
X147944643Y-98184600D01*
X147944648Y-98184600D01*
X148166917Y-98140388D01*
X148418971Y-97971971D01*
X148461483Y-97908347D01*
X149459997Y-96909833D01*
X153033955Y-96909833D01*
X153058951Y-97535828D01*
X153250420Y-97998077D01*
X153511032Y-98089363D01*
X154440395Y-97160000D01*
X153511032Y-96230637D01*
X153250420Y-96321923D01*
X153033955Y-96909833D01*
X149459997Y-96909833D01*
X150734737Y-95635093D01*
X150820314Y-95841695D01*
G36*
X160416345Y-91763976D02*
X160285000Y-92081072D01*
X160285000Y-92838928D01*
X160573419Y-93535232D01*
X160078305Y-93740314D01*
X159660314Y-94158305D01*
X159434100Y-94704436D01*
X159434100Y-95295564D01*
X159660314Y-95841695D01*
X160078305Y-96259686D01*
X160624436Y-96485900D01*
X161215564Y-96485900D01*
X161761695Y-96259686D01*
X162179686Y-95841695D01*
X162405900Y-95295564D01*
X162405900Y-94704436D01*
X162265302Y-94365000D01*
X162568928Y-94365000D01*
X162942901Y-94210095D01*
X162942900Y-95851157D01*
X162927973Y-95926200D01*
X162942900Y-96001243D01*
X162942900Y-96001247D01*
X162987112Y-96223516D01*
X163155529Y-96475571D01*
X163219153Y-96518083D01*
X164783317Y-98082248D01*
X164825829Y-98145871D01*
X165077883Y-98314288D01*
X165300152Y-98358500D01*
X165300157Y-98358500D01*
X165375200Y-98373427D01*
X165450243Y-98358500D01*
X174970870Y-98358500D01*
X179669070Y-103056700D01*
X179615200Y-103186753D01*
X179615200Y-103813247D01*
X179823033Y-104315000D01*
X171176967Y-104315000D01*
X171384800Y-103813247D01*
X171384800Y-103186753D01*
X171145051Y-102607948D01*
X170702052Y-102164949D01*
X170123247Y-101925200D01*
X169496753Y-101925200D01*
X168917948Y-102164949D01*
X168474949Y-102607948D01*
X168434128Y-102706498D01*
X167397002Y-101669371D01*
X167397002Y-101572252D01*
X167555750Y-101731000D01*
X168412309Y-101731000D01*
X168645698Y-101634327D01*
X168824327Y-101455699D01*
X168921000Y-101222310D01*
X168921000Y-100365750D01*
X168762250Y-100207000D01*
X167397000Y-100207000D01*
X167397000Y-100227000D01*
X167143000Y-100227000D01*
X167143000Y-100207000D01*
X167123000Y-100207000D01*
X167123000Y-99953000D01*
X167143000Y-99953000D01*
X167143000Y-98587750D01*
X167397000Y-98587750D01*
X167397000Y-99953000D01*
X168762250Y-99953000D01*
X168921000Y-99794250D01*
X168921000Y-98937690D01*
X168824327Y-98704301D01*
X168645698Y-98525673D01*
X168412309Y-98429000D01*
X167555750Y-98429000D01*
X167397000Y-98587750D01*
X167143000Y-98587750D01*
X166984250Y-98429000D01*
X166127691Y-98429000D01*
X165894302Y-98525673D01*
X165715673Y-98704301D01*
X165707910Y-98723044D01*
X165665216Y-98680350D01*
X165058404Y-98429000D01*
X164401596Y-98429000D01*
X163794784Y-98680350D01*
X163330350Y-99144784D01*
X163079000Y-99751596D01*
X163079000Y-100408404D01*
X163330350Y-101015216D01*
X163794784Y-101479650D01*
X164401596Y-101731000D01*
X165058404Y-101731000D01*
X165231621Y-101659251D01*
X167558118Y-103985749D01*
X167600629Y-104049371D01*
X167664250Y-104091881D01*
X167664251Y-104091882D01*
X167852681Y-104217787D01*
X167852682Y-104217787D01*
X167852683Y-104217788D01*
X168074952Y-104262000D01*
X168074956Y-104262000D01*
X168149999Y-104276927D01*
X168225042Y-104262000D01*
X168421080Y-104262000D01*
X168443033Y-104315000D01*
X163556967Y-104315000D01*
X163764800Y-103813247D01*
X163764800Y-103186753D01*
X163525051Y-102607948D01*
X163082052Y-102164949D01*
X162503247Y-101925200D01*
X161876753Y-101925200D01*
X161746700Y-101979070D01*
X157008200Y-97240570D01*
X157008200Y-89516542D01*
X157023127Y-89441499D01*
X157008200Y-89366456D01*
X157008200Y-89366452D01*
X156963988Y-89144183D01*
X156893232Y-89038288D01*
X156838082Y-88955751D01*
X156795571Y-88892129D01*
X156731949Y-88849618D01*
X155864717Y-87982386D01*
X155955051Y-87892052D01*
X156127674Y-87475304D01*
X160416345Y-91763976D01*
X160416345Y-91763976D01*
G37*
X160416345Y-91763976D02*
X160285000Y-92081072D01*
X160285000Y-92838928D01*
X160573419Y-93535232D01*
X160078305Y-93740314D01*
X159660314Y-94158305D01*
X159434100Y-94704436D01*
X159434100Y-95295564D01*
X159660314Y-95841695D01*
X160078305Y-96259686D01*
X160624436Y-96485900D01*
X161215564Y-96485900D01*
X161761695Y-96259686D01*
X162179686Y-95841695D01*
X162405900Y-95295564D01*
X162405900Y-94704436D01*
X162265302Y-94365000D01*
X162568928Y-94365000D01*
X162942901Y-94210095D01*
X162942900Y-95851157D01*
X162927973Y-95926200D01*
X162942900Y-96001243D01*
X162942900Y-96001247D01*
X162987112Y-96223516D01*
X163155529Y-96475571D01*
X163219153Y-96518083D01*
X164783317Y-98082248D01*
X164825829Y-98145871D01*
X165077883Y-98314288D01*
X165300152Y-98358500D01*
X165300157Y-98358500D01*
X165375200Y-98373427D01*
X165450243Y-98358500D01*
X174970870Y-98358500D01*
X179669070Y-103056700D01*
X179615200Y-103186753D01*
X179615200Y-103813247D01*
X179823033Y-104315000D01*
X171176967Y-104315000D01*
X171384800Y-103813247D01*
X171384800Y-103186753D01*
X171145051Y-102607948D01*
X170702052Y-102164949D01*
X170123247Y-101925200D01*
X169496753Y-101925200D01*
X168917948Y-102164949D01*
X168474949Y-102607948D01*
X168434128Y-102706498D01*
X167397002Y-101669371D01*
X167397002Y-101572252D01*
X167555750Y-101731000D01*
X168412309Y-101731000D01*
X168645698Y-101634327D01*
X168824327Y-101455699D01*
X168921000Y-101222310D01*
X168921000Y-100365750D01*
X168762250Y-100207000D01*
X167397000Y-100207000D01*
X167397000Y-100227000D01*
X167143000Y-100227000D01*
X167143000Y-100207000D01*
X167123000Y-100207000D01*
X167123000Y-99953000D01*
X167143000Y-99953000D01*
X167143000Y-98587750D01*
X167397000Y-98587750D01*
X167397000Y-99953000D01*
X168762250Y-99953000D01*
X168921000Y-99794250D01*
X168921000Y-98937690D01*
X168824327Y-98704301D01*
X168645698Y-98525673D01*
X168412309Y-98429000D01*
X167555750Y-98429000D01*
X167397000Y-98587750D01*
X167143000Y-98587750D01*
X166984250Y-98429000D01*
X166127691Y-98429000D01*
X165894302Y-98525673D01*
X165715673Y-98704301D01*
X165707910Y-98723044D01*
X165665216Y-98680350D01*
X165058404Y-98429000D01*
X164401596Y-98429000D01*
X163794784Y-98680350D01*
X163330350Y-99144784D01*
X163079000Y-99751596D01*
X163079000Y-100408404D01*
X163330350Y-101015216D01*
X163794784Y-101479650D01*
X164401596Y-101731000D01*
X165058404Y-101731000D01*
X165231621Y-101659251D01*
X167558118Y-103985749D01*
X167600629Y-104049371D01*
X167664250Y-104091881D01*
X167664251Y-104091882D01*
X167852681Y-104217787D01*
X167852682Y-104217787D01*
X167852683Y-104217788D01*
X168074952Y-104262000D01*
X168074956Y-104262000D01*
X168149999Y-104276927D01*
X168225042Y-104262000D01*
X168421080Y-104262000D01*
X168443033Y-104315000D01*
X163556967Y-104315000D01*
X163764800Y-103813247D01*
X163764800Y-103186753D01*
X163525051Y-102607948D01*
X163082052Y-102164949D01*
X162503247Y-101925200D01*
X161876753Y-101925200D01*
X161746700Y-101979070D01*
X157008200Y-97240570D01*
X157008200Y-89516542D01*
X157023127Y-89441499D01*
X157008200Y-89366456D01*
X157008200Y-89366452D01*
X156963988Y-89144183D01*
X156893232Y-89038288D01*
X156838082Y-88955751D01*
X156795571Y-88892129D01*
X156731949Y-88849618D01*
X155864717Y-87982386D01*
X155955051Y-87892052D01*
X156127674Y-87475304D01*
X160416345Y-91763976D01*
G36*
X136693748Y-90905858D02*
X136679605Y-90920000D01*
X136693748Y-90934143D01*
X136514143Y-91113748D01*
X136500000Y-91099605D01*
X135570637Y-92028968D01*
X135605214Y-92127683D01*
X135164949Y-92567948D01*
X134925200Y-93146753D01*
X134925200Y-93773247D01*
X135164949Y-94352052D01*
X135542897Y-94730000D01*
X135164949Y-95107948D01*
X134925200Y-95686753D01*
X134925200Y-96313247D01*
X135164949Y-96892052D01*
X135542897Y-97270000D01*
X135164949Y-97647948D01*
X134925200Y-98226753D01*
X134925200Y-98853247D01*
X135164949Y-99432052D01*
X135542897Y-99810000D01*
X135164949Y-100187948D01*
X134925200Y-100766753D01*
X134925200Y-101393247D01*
X135164949Y-101972052D01*
X135542897Y-102350000D01*
X135164949Y-102727948D01*
X134925200Y-103306753D01*
X134925200Y-103933247D01*
X135083327Y-104315000D01*
X133176967Y-104315000D01*
X133384800Y-103813247D01*
X133384800Y-103186753D01*
X133145051Y-102607948D01*
X132702052Y-102164949D01*
X132123247Y-101925200D01*
X131496753Y-101925200D01*
X130917948Y-102164949D01*
X130474949Y-102607948D01*
X130434128Y-102706498D01*
X129397002Y-101669371D01*
X129397002Y-101572252D01*
X129555750Y-101731000D01*
X130412309Y-101731000D01*
X130645698Y-101634327D01*
X130824327Y-101455699D01*
X130921000Y-101222310D01*
X130921000Y-100365750D01*
X130762250Y-100207000D01*
X129397000Y-100207000D01*
X129397000Y-100227000D01*
X129143000Y-100227000D01*
X129143000Y-100207000D01*
X129123000Y-100207000D01*
X129123000Y-99953000D01*
X129143000Y-99953000D01*
X129143000Y-98587750D01*
X129397000Y-98587750D01*
X129397000Y-99953000D01*
X130762250Y-99953000D01*
X130921000Y-99794250D01*
X130921000Y-98937690D01*
X130824327Y-98704301D01*
X130645698Y-98525673D01*
X130412309Y-98429000D01*
X129555750Y-98429000D01*
X129397000Y-98587750D01*
X129143000Y-98587750D01*
X128984250Y-98429000D01*
X128933230Y-98429000D01*
X131732511Y-95629719D01*
X131820314Y-95841695D01*
X132238305Y-96259686D01*
X132784436Y-96485900D01*
X133375564Y-96485900D01*
X133921695Y-96259686D01*
X134339686Y-95841695D01*
X134565900Y-95295564D01*
X134565900Y-94704436D01*
X134339686Y-94158305D01*
X133921695Y-93740314D01*
X133709720Y-93652511D01*
X134712350Y-92649881D01*
X134775971Y-92607371D01*
X134944388Y-92355317D01*
X134988600Y-92133048D01*
X134988600Y-92133044D01*
X135003527Y-92058001D01*
X134988600Y-91982958D01*
X134988600Y-91415692D01*
X135130420Y-91758077D01*
X135391032Y-91849363D01*
X136320395Y-90920000D01*
X136306253Y-90905858D01*
X136485858Y-90726253D01*
X136500000Y-90740395D01*
X136514143Y-90726253D01*
X136693748Y-90905858D01*
X136693748Y-90905858D01*
G37*
X136693748Y-90905858D02*
X136679605Y-90920000D01*
X136693748Y-90934143D01*
X136514143Y-91113748D01*
X136500000Y-91099605D01*
X135570637Y-92028968D01*
X135605214Y-92127683D01*
X135164949Y-92567948D01*
X134925200Y-93146753D01*
X134925200Y-93773247D01*
X135164949Y-94352052D01*
X135542897Y-94730000D01*
X135164949Y-95107948D01*
X134925200Y-95686753D01*
X134925200Y-96313247D01*
X135164949Y-96892052D01*
X135542897Y-97270000D01*
X135164949Y-97647948D01*
X134925200Y-98226753D01*
X134925200Y-98853247D01*
X135164949Y-99432052D01*
X135542897Y-99810000D01*
X135164949Y-100187948D01*
X134925200Y-100766753D01*
X134925200Y-101393247D01*
X135164949Y-101972052D01*
X135542897Y-102350000D01*
X135164949Y-102727948D01*
X134925200Y-103306753D01*
X134925200Y-103933247D01*
X135083327Y-104315000D01*
X133176967Y-104315000D01*
X133384800Y-103813247D01*
X133384800Y-103186753D01*
X133145051Y-102607948D01*
X132702052Y-102164949D01*
X132123247Y-101925200D01*
X131496753Y-101925200D01*
X130917948Y-102164949D01*
X130474949Y-102607948D01*
X130434128Y-102706498D01*
X129397002Y-101669371D01*
X129397002Y-101572252D01*
X129555750Y-101731000D01*
X130412309Y-101731000D01*
X130645698Y-101634327D01*
X130824327Y-101455699D01*
X130921000Y-101222310D01*
X130921000Y-100365750D01*
X130762250Y-100207000D01*
X129397000Y-100207000D01*
X129397000Y-100227000D01*
X129143000Y-100227000D01*
X129143000Y-100207000D01*
X129123000Y-100207000D01*
X129123000Y-99953000D01*
X129143000Y-99953000D01*
X129143000Y-98587750D01*
X129397000Y-98587750D01*
X129397000Y-99953000D01*
X130762250Y-99953000D01*
X130921000Y-99794250D01*
X130921000Y-98937690D01*
X130824327Y-98704301D01*
X130645698Y-98525673D01*
X130412309Y-98429000D01*
X129555750Y-98429000D01*
X129397000Y-98587750D01*
X129143000Y-98587750D01*
X128984250Y-98429000D01*
X128933230Y-98429000D01*
X131732511Y-95629719D01*
X131820314Y-95841695D01*
X132238305Y-96259686D01*
X132784436Y-96485900D01*
X133375564Y-96485900D01*
X133921695Y-96259686D01*
X134339686Y-95841695D01*
X134565900Y-95295564D01*
X134565900Y-94704436D01*
X134339686Y-94158305D01*
X133921695Y-93740314D01*
X133709720Y-93652511D01*
X134712350Y-92649881D01*
X134775971Y-92607371D01*
X134944388Y-92355317D01*
X134988600Y-92133048D01*
X134988600Y-92133044D01*
X135003527Y-92058001D01*
X134988600Y-91982958D01*
X134988600Y-91415692D01*
X135130420Y-91758077D01*
X135391032Y-91849363D01*
X136320395Y-90920000D01*
X136306253Y-90905858D01*
X136485858Y-90726253D01*
X136500000Y-90740395D01*
X136514143Y-90726253D01*
X136693748Y-90905858D01*
G36*
X142648616Y-88806246D02*
X142691129Y-88869871D01*
X142819658Y-88955751D01*
X142943181Y-89038287D01*
X142943182Y-89038287D01*
X142943183Y-89038288D01*
X143165452Y-89082500D01*
X143165456Y-89082500D01*
X143240499Y-89097427D01*
X143315542Y-89082500D01*
X147820958Y-89082500D01*
X147625739Y-89591036D01*
X147645564Y-90348632D01*
X147897343Y-90956480D01*
X148192223Y-91088172D01*
X149360395Y-89920000D01*
X149346253Y-89905858D01*
X149525858Y-89726253D01*
X149540000Y-89740395D01*
X149554143Y-89726253D01*
X149733748Y-89905858D01*
X149719605Y-89920000D01*
X150887777Y-91088172D01*
X151182657Y-90956480D01*
X151454261Y-90248964D01*
X151434436Y-89491368D01*
X151265077Y-89082500D01*
X153104952Y-89082500D01*
X153045200Y-89226753D01*
X153045200Y-89853247D01*
X153284949Y-90432052D01*
X153662897Y-90810000D01*
X153284949Y-91187948D01*
X153235355Y-91307679D01*
X153212199Y-91303073D01*
X153137156Y-91318000D01*
X153137152Y-91318000D01*
X152914883Y-91362212D01*
X152914882Y-91362213D01*
X152914881Y-91362213D01*
X152726451Y-91488118D01*
X152662829Y-91530629D01*
X152620318Y-91594251D01*
X149628900Y-94585670D01*
X149628900Y-94477079D01*
X149228674Y-93510848D01*
X148489152Y-92771326D01*
X147522921Y-92371100D01*
X146477079Y-92371100D01*
X145510848Y-92771326D01*
X144848753Y-93433421D01*
X145095000Y-92838928D01*
X145095000Y-92081072D01*
X144804981Y-91380904D01*
X144691854Y-91267777D01*
X148371828Y-91267777D01*
X148503520Y-91562657D01*
X149211036Y-91834261D01*
X149968632Y-91814436D01*
X150576480Y-91562657D01*
X150708172Y-91267777D01*
X149540000Y-90099605D01*
X148371828Y-91267777D01*
X144691854Y-91267777D01*
X144269096Y-90845019D01*
X143568928Y-90555000D01*
X142811072Y-90555000D01*
X142110904Y-90845019D01*
X141575019Y-91380904D01*
X141285000Y-92081072D01*
X141285000Y-92838928D01*
X141573419Y-93535232D01*
X141078305Y-93740314D01*
X140833674Y-93984945D01*
X140749580Y-93781923D01*
X140488968Y-93690637D01*
X139559605Y-94620000D01*
X140488968Y-95549363D01*
X140532859Y-95533989D01*
X140660314Y-95841695D01*
X141078305Y-96259686D01*
X141624436Y-96485900D01*
X142215564Y-96485900D01*
X142761695Y-96259686D01*
X143179686Y-95841695D01*
X143405900Y-95295564D01*
X143405900Y-94704436D01*
X143265302Y-94365000D01*
X143568928Y-94365000D01*
X144269096Y-94074981D01*
X144727554Y-93616523D01*
X144371100Y-94477079D01*
X144371100Y-95522921D01*
X144771326Y-96489152D01*
X145510848Y-97228674D01*
X145609947Y-97269722D01*
X141682053Y-101197617D01*
X141674256Y-101202826D01*
X141508100Y-101036670D01*
X141508100Y-99388843D01*
X141523027Y-99313800D01*
X141508100Y-99238757D01*
X141508100Y-99238752D01*
X141463888Y-99016483D01*
X141295471Y-98764429D01*
X141231849Y-98721918D01*
X140638517Y-98128586D01*
X140715051Y-98052052D01*
X140954800Y-97473247D01*
X140954800Y-96846753D01*
X140715051Y-96267948D01*
X140274786Y-95827683D01*
X140309363Y-95728968D01*
X139380000Y-94799605D01*
X139365858Y-94813748D01*
X139186253Y-94634143D01*
X139200395Y-94620000D01*
X139186253Y-94605858D01*
X139365858Y-94426253D01*
X139380000Y-94440395D01*
X140309363Y-93511032D01*
X140252957Y-93350000D01*
X140309363Y-93188968D01*
X139380000Y-92259605D01*
X139365858Y-92273748D01*
X139186253Y-92094143D01*
X139200395Y-92080000D01*
X139559605Y-92080000D01*
X140488968Y-93009363D01*
X140749580Y-92918077D01*
X140966045Y-92330167D01*
X140941049Y-91704172D01*
X140749580Y-91241923D01*
X140488968Y-91150637D01*
X139559605Y-92080000D01*
X139200395Y-92080000D01*
X139186253Y-92065858D01*
X139365858Y-91886253D01*
X139380000Y-91900395D01*
X140309363Y-90971032D01*
X140274786Y-90872317D01*
X140715051Y-90432052D01*
X140954800Y-89853247D01*
X140954800Y-89226753D01*
X140900930Y-89096700D01*
X141133749Y-88863882D01*
X141197371Y-88821371D01*
X141365788Y-88569317D01*
X141410000Y-88347048D01*
X141410000Y-88347047D01*
X141424928Y-88272000D01*
X141410000Y-88196953D01*
X141410000Y-87567630D01*
X142648616Y-88806246D01*
X142648616Y-88806246D01*
G37*
X142648616Y-88806246D02*
X142691129Y-88869871D01*
X142819658Y-88955751D01*
X142943181Y-89038287D01*
X142943182Y-89038287D01*
X142943183Y-89038288D01*
X143165452Y-89082500D01*
X143165456Y-89082500D01*
X143240499Y-89097427D01*
X143315542Y-89082500D01*
X147820958Y-89082500D01*
X147625739Y-89591036D01*
X147645564Y-90348632D01*
X147897343Y-90956480D01*
X148192223Y-91088172D01*
X149360395Y-89920000D01*
X149346253Y-89905858D01*
X149525858Y-89726253D01*
X149540000Y-89740395D01*
X149554143Y-89726253D01*
X149733748Y-89905858D01*
X149719605Y-89920000D01*
X150887777Y-91088172D01*
X151182657Y-90956480D01*
X151454261Y-90248964D01*
X151434436Y-89491368D01*
X151265077Y-89082500D01*
X153104952Y-89082500D01*
X153045200Y-89226753D01*
X153045200Y-89853247D01*
X153284949Y-90432052D01*
X153662897Y-90810000D01*
X153284949Y-91187948D01*
X153235355Y-91307679D01*
X153212199Y-91303073D01*
X153137156Y-91318000D01*
X153137152Y-91318000D01*
X152914883Y-91362212D01*
X152914882Y-91362213D01*
X152914881Y-91362213D01*
X152726451Y-91488118D01*
X152662829Y-91530629D01*
X152620318Y-91594251D01*
X149628900Y-94585670D01*
X149628900Y-94477079D01*
X149228674Y-93510848D01*
X148489152Y-92771326D01*
X147522921Y-92371100D01*
X146477079Y-92371100D01*
X145510848Y-92771326D01*
X144848753Y-93433421D01*
X145095000Y-92838928D01*
X145095000Y-92081072D01*
X144804981Y-91380904D01*
X144691854Y-91267777D01*
X148371828Y-91267777D01*
X148503520Y-91562657D01*
X149211036Y-91834261D01*
X149968632Y-91814436D01*
X150576480Y-91562657D01*
X150708172Y-91267777D01*
X149540000Y-90099605D01*
X148371828Y-91267777D01*
X144691854Y-91267777D01*
X144269096Y-90845019D01*
X143568928Y-90555000D01*
X142811072Y-90555000D01*
X142110904Y-90845019D01*
X141575019Y-91380904D01*
X141285000Y-92081072D01*
X141285000Y-92838928D01*
X141573419Y-93535232D01*
X141078305Y-93740314D01*
X140833674Y-93984945D01*
X140749580Y-93781923D01*
X140488968Y-93690637D01*
X139559605Y-94620000D01*
X140488968Y-95549363D01*
X140532859Y-95533989D01*
X140660314Y-95841695D01*
X141078305Y-96259686D01*
X141624436Y-96485900D01*
X142215564Y-96485900D01*
X142761695Y-96259686D01*
X143179686Y-95841695D01*
X143405900Y-95295564D01*
X143405900Y-94704436D01*
X143265302Y-94365000D01*
X143568928Y-94365000D01*
X144269096Y-94074981D01*
X144727554Y-93616523D01*
X144371100Y-94477079D01*
X144371100Y-95522921D01*
X144771326Y-96489152D01*
X145510848Y-97228674D01*
X145609947Y-97269722D01*
X141682053Y-101197617D01*
X141674256Y-101202826D01*
X141508100Y-101036670D01*
X141508100Y-99388843D01*
X141523027Y-99313800D01*
X141508100Y-99238757D01*
X141508100Y-99238752D01*
X141463888Y-99016483D01*
X141295471Y-98764429D01*
X141231849Y-98721918D01*
X140638517Y-98128586D01*
X140715051Y-98052052D01*
X140954800Y-97473247D01*
X140954800Y-96846753D01*
X140715051Y-96267948D01*
X140274786Y-95827683D01*
X140309363Y-95728968D01*
X139380000Y-94799605D01*
X139365858Y-94813748D01*
X139186253Y-94634143D01*
X139200395Y-94620000D01*
X139186253Y-94605858D01*
X139365858Y-94426253D01*
X139380000Y-94440395D01*
X140309363Y-93511032D01*
X140252957Y-93350000D01*
X140309363Y-93188968D01*
X139380000Y-92259605D01*
X139365858Y-92273748D01*
X139186253Y-92094143D01*
X139200395Y-92080000D01*
X139559605Y-92080000D01*
X140488968Y-93009363D01*
X140749580Y-92918077D01*
X140966045Y-92330167D01*
X140941049Y-91704172D01*
X140749580Y-91241923D01*
X140488968Y-91150637D01*
X139559605Y-92080000D01*
X139200395Y-92080000D01*
X139186253Y-92065858D01*
X139365858Y-91886253D01*
X139380000Y-91900395D01*
X140309363Y-90971032D01*
X140274786Y-90872317D01*
X140715051Y-90432052D01*
X140954800Y-89853247D01*
X140954800Y-89226753D01*
X140900930Y-89096700D01*
X141133749Y-88863882D01*
X141197371Y-88821371D01*
X141365788Y-88569317D01*
X141410000Y-88347048D01*
X141410000Y-88347047D01*
X141424928Y-88272000D01*
X141410000Y-88196953D01*
X141410000Y-87567630D01*
X142648616Y-88806246D01*
G36*
X151830817Y-81186148D02*
X151873329Y-81249771D01*
X151936951Y-81292282D01*
X152125381Y-81418187D01*
X152125382Y-81418187D01*
X152125383Y-81418188D01*
X152347652Y-81462400D01*
X152347656Y-81462400D01*
X152422699Y-81477327D01*
X152497742Y-81462400D01*
X153104993Y-81462400D01*
X153045200Y-81606753D01*
X153045200Y-82233247D01*
X153284949Y-82812052D01*
X153290583Y-82817686D01*
X152249107Y-83859162D01*
X152145051Y-83607948D01*
X151702052Y-83164949D01*
X151123247Y-82925200D01*
X150496753Y-82925200D01*
X149917948Y-83164949D01*
X149474949Y-83607948D01*
X149434128Y-83706498D01*
X148397002Y-82669371D01*
X148397002Y-82572252D01*
X148555750Y-82731000D01*
X149412309Y-82731000D01*
X149645698Y-82634327D01*
X149824327Y-82455699D01*
X149921000Y-82222310D01*
X149921000Y-81365750D01*
X149762250Y-81207000D01*
X148397000Y-81207000D01*
X148397000Y-81227000D01*
X148143000Y-81227000D01*
X148143000Y-81207000D01*
X148123000Y-81207000D01*
X148123000Y-80953000D01*
X148143000Y-80953000D01*
X148143000Y-80933000D01*
X148397000Y-80933000D01*
X148397000Y-80953000D01*
X149762250Y-80953000D01*
X149921000Y-80794250D01*
X149921000Y-80532700D01*
X151177370Y-80532700D01*
X151830817Y-81186148D01*
X151830817Y-81186148D01*
G37*
X151830817Y-81186148D02*
X151873329Y-81249771D01*
X151936951Y-81292282D01*
X152125381Y-81418187D01*
X152125382Y-81418187D01*
X152125383Y-81418188D01*
X152347652Y-81462400D01*
X152347656Y-81462400D01*
X152422699Y-81477327D01*
X152497742Y-81462400D01*
X153104993Y-81462400D01*
X153045200Y-81606753D01*
X153045200Y-82233247D01*
X153284949Y-82812052D01*
X153290583Y-82817686D01*
X152249107Y-83859162D01*
X152145051Y-83607948D01*
X151702052Y-83164949D01*
X151123247Y-82925200D01*
X150496753Y-82925200D01*
X149917948Y-83164949D01*
X149474949Y-83607948D01*
X149434128Y-83706498D01*
X148397002Y-82669371D01*
X148397002Y-82572252D01*
X148555750Y-82731000D01*
X149412309Y-82731000D01*
X149645698Y-82634327D01*
X149824327Y-82455699D01*
X149921000Y-82222310D01*
X149921000Y-81365750D01*
X149762250Y-81207000D01*
X148397000Y-81207000D01*
X148397000Y-81227000D01*
X148143000Y-81227000D01*
X148143000Y-81207000D01*
X148123000Y-81207000D01*
X148123000Y-80953000D01*
X148143000Y-80953000D01*
X148143000Y-80933000D01*
X148397000Y-80933000D01*
X148397000Y-80953000D01*
X149762250Y-80953000D01*
X149921000Y-80794250D01*
X149921000Y-80532700D01*
X151177370Y-80532700D01*
X151830817Y-81186148D01*
G04 #@! TD*
M02*
