M48
;DRILL file {KiCad 5.0.2-bee76a0~70~ubuntu18.04.1} date Tue 19 Mar 2019 03:09:47 PM EDT
;FORMAT={-:-/ absolute / inch / decimal}
FMAT,2
INCH,TZ
T1C0.0670
T2C0.1570
%
G90
G05
T1
X4.8394Y-2.9921
X5.2394Y-2.9921
X7.0835Y-3.7402
X7.4835Y-3.7402
X5.5874Y-3.7402
X5.9874Y-3.7402
X7.0835Y-2.9921
X7.4835Y-2.9921
X6.3354Y-2.9921
X6.7354Y-2.9921
X4.8394Y-3.7402
X5.2394Y-3.7402
X6.3354Y-3.7402
X6.7354Y-3.7402
X5.5874Y-2.9921
X5.9874Y-2.9921
T2
X5.0394Y-2.9921
X7.2835Y-3.7402
X5.7874Y-3.7402
X7.2835Y-2.9921
X6.5354Y-2.9921
X5.0394Y-3.7402
X6.5354Y-3.7402
X5.7874Y-2.9921
T0
M30
