G04 #@! TF.GenerationSoftware,KiCad,Pcbnew,5.0.2-bee76a0~70~ubuntu18.04.1*
G04 #@! TF.CreationDate,2019-03-19T15:09:44-04:00*
G04 #@! TF.ProjectId,8_key_simple_graphics (copy),385f6b65-795f-4736-996d-706c655f6772,rev?*
G04 #@! TF.SameCoordinates,Original*
G04 #@! TF.FileFunction,Soldermask,Bot*
G04 #@! TF.FilePolarity,Negative*
%FSLAX46Y46*%
G04 Gerber Fmt 4.6, Leading zero omitted, Abs format (unit mm)*
G04 Created by KiCad (PCBNEW 5.0.2-bee76a0~70~ubuntu18.04.1) date Tue 19 Mar 2019 03:09:44 PM EDT*
%MOMM*%
%LPD*%
G01*
G04 APERTURE LIST*
%ADD10C,0.100000*%
G04 APERTURE END LIST*
D10*
G36*
X136803765Y-102618620D02*
X136993289Y-102697123D01*
X137163855Y-102811092D01*
X137308908Y-102956145D01*
X137422877Y-103126711D01*
X137501380Y-103316235D01*
X137541400Y-103517430D01*
X137541400Y-103722570D01*
X137501380Y-103923765D01*
X137422877Y-104113289D01*
X137308908Y-104283855D01*
X137163855Y-104428908D01*
X136993289Y-104542877D01*
X136803765Y-104621380D01*
X136602570Y-104661400D01*
X136397430Y-104661400D01*
X136196235Y-104621380D01*
X136006711Y-104542877D01*
X135836145Y-104428908D01*
X135691092Y-104283855D01*
X135577123Y-104113289D01*
X135498620Y-103923765D01*
X135458600Y-103722570D01*
X135458600Y-103517430D01*
X135498620Y-103316235D01*
X135577123Y-103126711D01*
X135691092Y-102956145D01*
X135836145Y-102811092D01*
X136006711Y-102697123D01*
X136196235Y-102618620D01*
X136397430Y-102578600D01*
X136602570Y-102578600D01*
X136803765Y-102618620D01*
X136803765Y-102618620D01*
G37*
G36*
X189113765Y-102498620D02*
X189303289Y-102577123D01*
X189473855Y-102691092D01*
X189618908Y-102836145D01*
X189732877Y-103006711D01*
X189811380Y-103196235D01*
X189851400Y-103397430D01*
X189851400Y-103602570D01*
X189811380Y-103803765D01*
X189732877Y-103993289D01*
X189618908Y-104163855D01*
X189473855Y-104308908D01*
X189303289Y-104422877D01*
X189113765Y-104501380D01*
X188912570Y-104541400D01*
X188707430Y-104541400D01*
X188506235Y-104501380D01*
X188316711Y-104422877D01*
X188146145Y-104308908D01*
X188001092Y-104163855D01*
X187887123Y-103993289D01*
X187808620Y-103803765D01*
X187768600Y-103602570D01*
X187768600Y-103397430D01*
X187808620Y-103196235D01*
X187887123Y-103006711D01*
X188001092Y-102836145D01*
X188146145Y-102691092D01*
X188316711Y-102577123D01*
X188506235Y-102498620D01*
X188707430Y-102458600D01*
X188912570Y-102458600D01*
X189113765Y-102498620D01*
X189113765Y-102498620D01*
G37*
G36*
X181493765Y-102498620D02*
X181683289Y-102577123D01*
X181853855Y-102691092D01*
X181998908Y-102836145D01*
X182112877Y-103006711D01*
X182191380Y-103196235D01*
X182231400Y-103397430D01*
X182231400Y-103602570D01*
X182191380Y-103803765D01*
X182112877Y-103993289D01*
X181998908Y-104163855D01*
X181853855Y-104308908D01*
X181683289Y-104422877D01*
X181493765Y-104501380D01*
X181292570Y-104541400D01*
X181087430Y-104541400D01*
X180886235Y-104501380D01*
X180696711Y-104422877D01*
X180526145Y-104308908D01*
X180381092Y-104163855D01*
X180267123Y-103993289D01*
X180188620Y-103803765D01*
X180148600Y-103602570D01*
X180148600Y-103397430D01*
X180188620Y-103196235D01*
X180267123Y-103006711D01*
X180381092Y-102836145D01*
X180526145Y-102691092D01*
X180696711Y-102577123D01*
X180886235Y-102498620D01*
X181087430Y-102458600D01*
X181292570Y-102458600D01*
X181493765Y-102498620D01*
X181493765Y-102498620D01*
G37*
G36*
X162493765Y-102498620D02*
X162683289Y-102577123D01*
X162853855Y-102691092D01*
X162998908Y-102836145D01*
X163112877Y-103006711D01*
X163191380Y-103196235D01*
X163231400Y-103397430D01*
X163231400Y-103602570D01*
X163191380Y-103803765D01*
X163112877Y-103993289D01*
X162998908Y-104163855D01*
X162853855Y-104308908D01*
X162683289Y-104422877D01*
X162493765Y-104501380D01*
X162292570Y-104541400D01*
X162087430Y-104541400D01*
X161886235Y-104501380D01*
X161696711Y-104422877D01*
X161526145Y-104308908D01*
X161381092Y-104163855D01*
X161267123Y-103993289D01*
X161188620Y-103803765D01*
X161148600Y-103602570D01*
X161148600Y-103397430D01*
X161188620Y-103196235D01*
X161267123Y-103006711D01*
X161381092Y-102836145D01*
X161526145Y-102691092D01*
X161696711Y-102577123D01*
X161886235Y-102498620D01*
X162087430Y-102458600D01*
X162292570Y-102458600D01*
X162493765Y-102498620D01*
X162493765Y-102498620D01*
G37*
G36*
X170113765Y-102498620D02*
X170303289Y-102577123D01*
X170473855Y-102691092D01*
X170618908Y-102836145D01*
X170732877Y-103006711D01*
X170811380Y-103196235D01*
X170851400Y-103397430D01*
X170851400Y-103602570D01*
X170811380Y-103803765D01*
X170732877Y-103993289D01*
X170618908Y-104163855D01*
X170473855Y-104308908D01*
X170303289Y-104422877D01*
X170113765Y-104501380D01*
X169912570Y-104541400D01*
X169707430Y-104541400D01*
X169506235Y-104501380D01*
X169316711Y-104422877D01*
X169146145Y-104308908D01*
X169001092Y-104163855D01*
X168887123Y-103993289D01*
X168808620Y-103803765D01*
X168768600Y-103602570D01*
X168768600Y-103397430D01*
X168808620Y-103196235D01*
X168887123Y-103006711D01*
X169001092Y-102836145D01*
X169146145Y-102691092D01*
X169316711Y-102577123D01*
X169506235Y-102498620D01*
X169707430Y-102458600D01*
X169912570Y-102458600D01*
X170113765Y-102498620D01*
X170113765Y-102498620D01*
G37*
G36*
X151113765Y-102498620D02*
X151303289Y-102577123D01*
X151473855Y-102691092D01*
X151618908Y-102836145D01*
X151732877Y-103006711D01*
X151811380Y-103196235D01*
X151851400Y-103397430D01*
X151851400Y-103602570D01*
X151811380Y-103803765D01*
X151732877Y-103993289D01*
X151618908Y-104163855D01*
X151473855Y-104308908D01*
X151303289Y-104422877D01*
X151113765Y-104501380D01*
X150912570Y-104541400D01*
X150707430Y-104541400D01*
X150506235Y-104501380D01*
X150316711Y-104422877D01*
X150146145Y-104308908D01*
X150001092Y-104163855D01*
X149887123Y-103993289D01*
X149808620Y-103803765D01*
X149768600Y-103602570D01*
X149768600Y-103397430D01*
X149808620Y-103196235D01*
X149887123Y-103006711D01*
X150001092Y-102836145D01*
X150146145Y-102691092D01*
X150316711Y-102577123D01*
X150506235Y-102498620D01*
X150707430Y-102458600D01*
X150912570Y-102458600D01*
X151113765Y-102498620D01*
X151113765Y-102498620D01*
G37*
G36*
X124493765Y-102498620D02*
X124683289Y-102577123D01*
X124853855Y-102691092D01*
X124998908Y-102836145D01*
X125112877Y-103006711D01*
X125191380Y-103196235D01*
X125231400Y-103397430D01*
X125231400Y-103602570D01*
X125191380Y-103803765D01*
X125112877Y-103993289D01*
X124998908Y-104163855D01*
X124853855Y-104308908D01*
X124683289Y-104422877D01*
X124493765Y-104501380D01*
X124292570Y-104541400D01*
X124087430Y-104541400D01*
X123886235Y-104501380D01*
X123696711Y-104422877D01*
X123526145Y-104308908D01*
X123381092Y-104163855D01*
X123267123Y-103993289D01*
X123188620Y-103803765D01*
X123148600Y-103602570D01*
X123148600Y-103397430D01*
X123188620Y-103196235D01*
X123267123Y-103006711D01*
X123381092Y-102836145D01*
X123526145Y-102691092D01*
X123696711Y-102577123D01*
X123886235Y-102498620D01*
X124087430Y-102458600D01*
X124292570Y-102458600D01*
X124493765Y-102498620D01*
X124493765Y-102498620D01*
G37*
G36*
X132113765Y-102498620D02*
X132303289Y-102577123D01*
X132473855Y-102691092D01*
X132618908Y-102836145D01*
X132732877Y-103006711D01*
X132811380Y-103196235D01*
X132851400Y-103397430D01*
X132851400Y-103602570D01*
X132811380Y-103803765D01*
X132732877Y-103993289D01*
X132618908Y-104163855D01*
X132473855Y-104308908D01*
X132303289Y-104422877D01*
X132113765Y-104501380D01*
X131912570Y-104541400D01*
X131707430Y-104541400D01*
X131506235Y-104501380D01*
X131316711Y-104422877D01*
X131146145Y-104308908D01*
X131001092Y-104163855D01*
X130887123Y-103993289D01*
X130808620Y-103803765D01*
X130768600Y-103602570D01*
X130768600Y-103397430D01*
X130808620Y-103196235D01*
X130887123Y-103006711D01*
X131001092Y-102836145D01*
X131146145Y-102691092D01*
X131316711Y-102577123D01*
X131506235Y-102498620D01*
X131707430Y-102458600D01*
X131912570Y-102458600D01*
X132113765Y-102498620D01*
X132113765Y-102498620D01*
G37*
G36*
X143493765Y-102498620D02*
X143683289Y-102577123D01*
X143853855Y-102691092D01*
X143998908Y-102836145D01*
X144112877Y-103006711D01*
X144191380Y-103196235D01*
X144231400Y-103397430D01*
X144231400Y-103602570D01*
X144191380Y-103803765D01*
X144112877Y-103993289D01*
X143998908Y-104163855D01*
X143853855Y-104308908D01*
X143683289Y-104422877D01*
X143493765Y-104501380D01*
X143292570Y-104541400D01*
X143087430Y-104541400D01*
X142886235Y-104501380D01*
X142696711Y-104422877D01*
X142526145Y-104308908D01*
X142381092Y-104163855D01*
X142267123Y-103993289D01*
X142188620Y-103803765D01*
X142148600Y-103602570D01*
X142148600Y-103397430D01*
X142188620Y-103196235D01*
X142267123Y-103006711D01*
X142381092Y-102836145D01*
X142526145Y-102691092D01*
X142696711Y-102577123D01*
X142886235Y-102498620D01*
X143087430Y-102458600D01*
X143292570Y-102458600D01*
X143493765Y-102498620D01*
X143493765Y-102498620D01*
G37*
G36*
X136803765Y-100078620D02*
X136993289Y-100157123D01*
X137163855Y-100271092D01*
X137308908Y-100416145D01*
X137422877Y-100586711D01*
X137501380Y-100776235D01*
X137541400Y-100977430D01*
X137541400Y-101182570D01*
X137501380Y-101383765D01*
X137422877Y-101573289D01*
X137308908Y-101743855D01*
X137163855Y-101888908D01*
X136993289Y-102002877D01*
X136803765Y-102081380D01*
X136602570Y-102121400D01*
X136397430Y-102121400D01*
X136196235Y-102081380D01*
X136006711Y-102002877D01*
X135836145Y-101888908D01*
X135691092Y-101743855D01*
X135577123Y-101573289D01*
X135498620Y-101383765D01*
X135458600Y-101182570D01*
X135458600Y-100977430D01*
X135498620Y-100776235D01*
X135577123Y-100586711D01*
X135691092Y-100416145D01*
X135836145Y-100271092D01*
X136006711Y-100157123D01*
X136196235Y-100078620D01*
X136397430Y-100038600D01*
X136602570Y-100038600D01*
X136803765Y-100078620D01*
X136803765Y-100078620D01*
G37*
G36*
X168336800Y-101146800D02*
X166203200Y-101146800D01*
X166203200Y-99013200D01*
X168336800Y-99013200D01*
X168336800Y-101146800D01*
X168336800Y-101146800D01*
G37*
G36*
X187336800Y-101146800D02*
X185203200Y-101146800D01*
X185203200Y-99013200D01*
X187336800Y-99013200D01*
X187336800Y-101146800D01*
X187336800Y-101146800D01*
G37*
G36*
X127041174Y-99054196D02*
X127235318Y-99134613D01*
X127410048Y-99251364D01*
X127558636Y-99399952D01*
X127675387Y-99574682D01*
X127755804Y-99768826D01*
X127796800Y-99974928D01*
X127796800Y-100185072D01*
X127755804Y-100391174D01*
X127675387Y-100585318D01*
X127558636Y-100760048D01*
X127410048Y-100908636D01*
X127235318Y-101025387D01*
X127041174Y-101105804D01*
X126835072Y-101146800D01*
X126624928Y-101146800D01*
X126418826Y-101105804D01*
X126224682Y-101025387D01*
X126049952Y-100908636D01*
X125901364Y-100760048D01*
X125784613Y-100585318D01*
X125704196Y-100391174D01*
X125663200Y-100185072D01*
X125663200Y-99974928D01*
X125704196Y-99768826D01*
X125784613Y-99574682D01*
X125901364Y-99399952D01*
X126049952Y-99251364D01*
X126224682Y-99134613D01*
X126418826Y-99054196D01*
X126624928Y-99013200D01*
X126835072Y-99013200D01*
X127041174Y-99054196D01*
X127041174Y-99054196D01*
G37*
G36*
X130336800Y-101146800D02*
X128203200Y-101146800D01*
X128203200Y-99013200D01*
X130336800Y-99013200D01*
X130336800Y-101146800D01*
X130336800Y-101146800D01*
G37*
G36*
X146041174Y-99054196D02*
X146235318Y-99134613D01*
X146410048Y-99251364D01*
X146558636Y-99399952D01*
X146675387Y-99574682D01*
X146755804Y-99768826D01*
X146796800Y-99974928D01*
X146796800Y-100185072D01*
X146755804Y-100391174D01*
X146675387Y-100585318D01*
X146558636Y-100760048D01*
X146410048Y-100908636D01*
X146235318Y-101025387D01*
X146041174Y-101105804D01*
X145835072Y-101146800D01*
X145624928Y-101146800D01*
X145418826Y-101105804D01*
X145224682Y-101025387D01*
X145049952Y-100908636D01*
X144901364Y-100760048D01*
X144784613Y-100585318D01*
X144704196Y-100391174D01*
X144663200Y-100185072D01*
X144663200Y-99974928D01*
X144704196Y-99768826D01*
X144784613Y-99574682D01*
X144901364Y-99399952D01*
X145049952Y-99251364D01*
X145224682Y-99134613D01*
X145418826Y-99054196D01*
X145624928Y-99013200D01*
X145835072Y-99013200D01*
X146041174Y-99054196D01*
X146041174Y-99054196D01*
G37*
G36*
X149336800Y-101146800D02*
X147203200Y-101146800D01*
X147203200Y-99013200D01*
X149336800Y-99013200D01*
X149336800Y-101146800D01*
X149336800Y-101146800D01*
G37*
G36*
X165041174Y-99054196D02*
X165235318Y-99134613D01*
X165410048Y-99251364D01*
X165558636Y-99399952D01*
X165675387Y-99574682D01*
X165755804Y-99768826D01*
X165796800Y-99974928D01*
X165796800Y-100185072D01*
X165755804Y-100391174D01*
X165675387Y-100585318D01*
X165558636Y-100760048D01*
X165410048Y-100908636D01*
X165235318Y-101025387D01*
X165041174Y-101105804D01*
X164835072Y-101146800D01*
X164624928Y-101146800D01*
X164418826Y-101105804D01*
X164224682Y-101025387D01*
X164049952Y-100908636D01*
X163901364Y-100760048D01*
X163784613Y-100585318D01*
X163704196Y-100391174D01*
X163663200Y-100185072D01*
X163663200Y-99974928D01*
X163704196Y-99768826D01*
X163784613Y-99574682D01*
X163901364Y-99399952D01*
X164049952Y-99251364D01*
X164224682Y-99134613D01*
X164418826Y-99054196D01*
X164624928Y-99013200D01*
X164835072Y-99013200D01*
X165041174Y-99054196D01*
X165041174Y-99054196D01*
G37*
G36*
X184041174Y-99054196D02*
X184235318Y-99134613D01*
X184410048Y-99251364D01*
X184558636Y-99399952D01*
X184675387Y-99574682D01*
X184755804Y-99768826D01*
X184796800Y-99974928D01*
X184796800Y-100185072D01*
X184755804Y-100391174D01*
X184675387Y-100585318D01*
X184558636Y-100760048D01*
X184410048Y-100908636D01*
X184235318Y-101025387D01*
X184041174Y-101105804D01*
X183835072Y-101146800D01*
X183624928Y-101146800D01*
X183418826Y-101105804D01*
X183224682Y-101025387D01*
X183049952Y-100908636D01*
X182901364Y-100760048D01*
X182784613Y-100585318D01*
X182704196Y-100391174D01*
X182663200Y-100185072D01*
X182663200Y-99974928D01*
X182704196Y-99768826D01*
X182784613Y-99574682D01*
X182901364Y-99399952D01*
X183049952Y-99251364D01*
X183224682Y-99134613D01*
X183418826Y-99054196D01*
X183624928Y-99013200D01*
X183835072Y-99013200D01*
X184041174Y-99054196D01*
X184041174Y-99054196D01*
G37*
G36*
X139683765Y-98698620D02*
X139873289Y-98777123D01*
X140043855Y-98891092D01*
X140188908Y-99036145D01*
X140302877Y-99206711D01*
X140381380Y-99396235D01*
X140421400Y-99597430D01*
X140421400Y-99802570D01*
X140381380Y-100003765D01*
X140302877Y-100193289D01*
X140188908Y-100363855D01*
X140043855Y-100508908D01*
X139873289Y-100622877D01*
X139683765Y-100701380D01*
X139482570Y-100741400D01*
X139277430Y-100741400D01*
X139076235Y-100701380D01*
X138886711Y-100622877D01*
X138716145Y-100508908D01*
X138571092Y-100363855D01*
X138457123Y-100193289D01*
X138378620Y-100003765D01*
X138338600Y-99802570D01*
X138338600Y-99597430D01*
X138378620Y-99396235D01*
X138457123Y-99206711D01*
X138571092Y-99036145D01*
X138716145Y-98891092D01*
X138886711Y-98777123D01*
X139076235Y-98698620D01*
X139277430Y-98658600D01*
X139482570Y-98658600D01*
X139683765Y-98698620D01*
X139683765Y-98698620D01*
G37*
G36*
X154923765Y-98698620D02*
X155113289Y-98777123D01*
X155283855Y-98891092D01*
X155428908Y-99036145D01*
X155542877Y-99206711D01*
X155621380Y-99396235D01*
X155661400Y-99597430D01*
X155661400Y-99802570D01*
X155621380Y-100003765D01*
X155542877Y-100193289D01*
X155428908Y-100363855D01*
X155283855Y-100508908D01*
X155113289Y-100622877D01*
X154923765Y-100701380D01*
X154722570Y-100741400D01*
X154517430Y-100741400D01*
X154316235Y-100701380D01*
X154126711Y-100622877D01*
X153956145Y-100508908D01*
X153811092Y-100363855D01*
X153697123Y-100193289D01*
X153618620Y-100003765D01*
X153578600Y-99802570D01*
X153578600Y-99597430D01*
X153618620Y-99396235D01*
X153697123Y-99206711D01*
X153811092Y-99036145D01*
X153956145Y-98891092D01*
X154126711Y-98777123D01*
X154316235Y-98698620D01*
X154517430Y-98658600D01*
X154722570Y-98658600D01*
X154923765Y-98698620D01*
X154923765Y-98698620D01*
G37*
G36*
X136803765Y-97538620D02*
X136993289Y-97617123D01*
X137163855Y-97731092D01*
X137308908Y-97876145D01*
X137422877Y-98046711D01*
X137501380Y-98236235D01*
X137541400Y-98437430D01*
X137541400Y-98642570D01*
X137501380Y-98843765D01*
X137422877Y-99033289D01*
X137308908Y-99203855D01*
X137163855Y-99348908D01*
X136993289Y-99462877D01*
X136803765Y-99541380D01*
X136602570Y-99581400D01*
X136397430Y-99581400D01*
X136196235Y-99541380D01*
X136006711Y-99462877D01*
X135836145Y-99348908D01*
X135691092Y-99203855D01*
X135577123Y-99033289D01*
X135498620Y-98843765D01*
X135458600Y-98642570D01*
X135458600Y-98437430D01*
X135498620Y-98236235D01*
X135577123Y-98046711D01*
X135691092Y-97876145D01*
X135836145Y-97731092D01*
X136006711Y-97617123D01*
X136196235Y-97538620D01*
X136397430Y-97498600D01*
X136602570Y-97498600D01*
X136803765Y-97538620D01*
X136803765Y-97538620D01*
G37*
G36*
X154923765Y-96158620D02*
X155113289Y-96237123D01*
X155283855Y-96351092D01*
X155428908Y-96496145D01*
X155542877Y-96666711D01*
X155621380Y-96856235D01*
X155661400Y-97057430D01*
X155661400Y-97262570D01*
X155621380Y-97463765D01*
X155542877Y-97653289D01*
X155428908Y-97823855D01*
X155283855Y-97968908D01*
X155113289Y-98082877D01*
X154923765Y-98161380D01*
X154722570Y-98201400D01*
X154517430Y-98201400D01*
X154316235Y-98161380D01*
X154126711Y-98082877D01*
X153956145Y-97968908D01*
X153811092Y-97823855D01*
X153697123Y-97653289D01*
X153618620Y-97463765D01*
X153578600Y-97262570D01*
X153578600Y-97057430D01*
X153618620Y-96856235D01*
X153697123Y-96666711D01*
X153811092Y-96496145D01*
X153956145Y-96351092D01*
X154126711Y-96237123D01*
X154316235Y-96158620D01*
X154517430Y-96118600D01*
X154722570Y-96118600D01*
X154923765Y-96158620D01*
X154923765Y-96158620D01*
G37*
G36*
X139683765Y-96158620D02*
X139873289Y-96237123D01*
X140043855Y-96351092D01*
X140188908Y-96496145D01*
X140302877Y-96666711D01*
X140381380Y-96856235D01*
X140421400Y-97057430D01*
X140421400Y-97262570D01*
X140381380Y-97463765D01*
X140302877Y-97653289D01*
X140188908Y-97823855D01*
X140043855Y-97968908D01*
X139873289Y-98082877D01*
X139683765Y-98161380D01*
X139482570Y-98201400D01*
X139277430Y-98201400D01*
X139076235Y-98161380D01*
X138886711Y-98082877D01*
X138716145Y-97968908D01*
X138571092Y-97823855D01*
X138457123Y-97653289D01*
X138378620Y-97463765D01*
X138338600Y-97262570D01*
X138338600Y-97057430D01*
X138378620Y-96856235D01*
X138457123Y-96666711D01*
X138571092Y-96496145D01*
X138716145Y-96351092D01*
X138886711Y-96237123D01*
X139076235Y-96158620D01*
X139277430Y-96118600D01*
X139482570Y-96118600D01*
X139683765Y-96158620D01*
X139683765Y-96158620D01*
G37*
G36*
X166440570Y-93002877D02*
X166596417Y-93033877D01*
X166711099Y-93081380D01*
X166968527Y-93188010D01*
X167303423Y-93411780D01*
X167588220Y-93696577D01*
X167811990Y-94031473D01*
X167851439Y-94126712D01*
X167966123Y-94403583D01*
X167985580Y-94501400D01*
X168044700Y-94798613D01*
X168044700Y-95201387D01*
X167966123Y-95596416D01*
X167811990Y-95968527D01*
X167588220Y-96303423D01*
X167303423Y-96588220D01*
X166968527Y-96811990D01*
X166750550Y-96902279D01*
X166596417Y-96966123D01*
X166464740Y-96992315D01*
X166201387Y-97044700D01*
X165798613Y-97044700D01*
X165535260Y-96992315D01*
X165403583Y-96966123D01*
X165249450Y-96902279D01*
X165031473Y-96811990D01*
X164696577Y-96588220D01*
X164411780Y-96303423D01*
X164188010Y-95968527D01*
X164033877Y-95596416D01*
X163955300Y-95201387D01*
X163955300Y-94798613D01*
X164014420Y-94501400D01*
X164033877Y-94403583D01*
X164148561Y-94126712D01*
X164188010Y-94031473D01*
X164411780Y-93696577D01*
X164696577Y-93411780D01*
X165031473Y-93188010D01*
X165288901Y-93081380D01*
X165403583Y-93033877D01*
X165559430Y-93002877D01*
X165798613Y-92955300D01*
X166201387Y-92955300D01*
X166440570Y-93002877D01*
X166440570Y-93002877D01*
G37*
G36*
X147440570Y-93002877D02*
X147596417Y-93033877D01*
X147711099Y-93081380D01*
X147968527Y-93188010D01*
X148303423Y-93411780D01*
X148588220Y-93696577D01*
X148811990Y-94031473D01*
X148851439Y-94126712D01*
X148966123Y-94403583D01*
X148985580Y-94501400D01*
X149044700Y-94798613D01*
X149044700Y-95201387D01*
X148966123Y-95596416D01*
X148811990Y-95968527D01*
X148588220Y-96303423D01*
X148303423Y-96588220D01*
X147968527Y-96811990D01*
X147750550Y-96902279D01*
X147596417Y-96966123D01*
X147464740Y-96992315D01*
X147201387Y-97044700D01*
X146798613Y-97044700D01*
X146535260Y-96992315D01*
X146403583Y-96966123D01*
X146249450Y-96902279D01*
X146031473Y-96811990D01*
X145696577Y-96588220D01*
X145411780Y-96303423D01*
X145188010Y-95968527D01*
X145033877Y-95596416D01*
X144955300Y-95201387D01*
X144955300Y-94798613D01*
X145014420Y-94501400D01*
X145033877Y-94403583D01*
X145148561Y-94126712D01*
X145188010Y-94031473D01*
X145411780Y-93696577D01*
X145696577Y-93411780D01*
X146031473Y-93188010D01*
X146288901Y-93081380D01*
X146403583Y-93033877D01*
X146559430Y-93002877D01*
X146798613Y-92955300D01*
X147201387Y-92955300D01*
X147440570Y-93002877D01*
X147440570Y-93002877D01*
G37*
G36*
X128440570Y-93002877D02*
X128596417Y-93033877D01*
X128711099Y-93081380D01*
X128968527Y-93188010D01*
X129303423Y-93411780D01*
X129588220Y-93696577D01*
X129811990Y-94031473D01*
X129851439Y-94126712D01*
X129966123Y-94403583D01*
X129985580Y-94501400D01*
X130044700Y-94798613D01*
X130044700Y-95201387D01*
X129966123Y-95596416D01*
X129811990Y-95968527D01*
X129588220Y-96303423D01*
X129303423Y-96588220D01*
X128968527Y-96811990D01*
X128750550Y-96902279D01*
X128596417Y-96966123D01*
X128464740Y-96992315D01*
X128201387Y-97044700D01*
X127798613Y-97044700D01*
X127535260Y-96992315D01*
X127403583Y-96966123D01*
X127249450Y-96902279D01*
X127031473Y-96811990D01*
X126696577Y-96588220D01*
X126411780Y-96303423D01*
X126188010Y-95968527D01*
X126033877Y-95596416D01*
X125955300Y-95201387D01*
X125955300Y-94798613D01*
X126014420Y-94501400D01*
X126033877Y-94403583D01*
X126148561Y-94126712D01*
X126188010Y-94031473D01*
X126411780Y-93696577D01*
X126696577Y-93411780D01*
X127031473Y-93188010D01*
X127288901Y-93081380D01*
X127403583Y-93033877D01*
X127559430Y-93002877D01*
X127798613Y-92955300D01*
X128201387Y-92955300D01*
X128440570Y-93002877D01*
X128440570Y-93002877D01*
G37*
G36*
X185440570Y-93002877D02*
X185596417Y-93033877D01*
X185711099Y-93081380D01*
X185968527Y-93188010D01*
X186303423Y-93411780D01*
X186588220Y-93696577D01*
X186811990Y-94031473D01*
X186851439Y-94126712D01*
X186966123Y-94403583D01*
X186985580Y-94501400D01*
X187044700Y-94798613D01*
X187044700Y-95201387D01*
X186966123Y-95596416D01*
X186811990Y-95968527D01*
X186588220Y-96303423D01*
X186303423Y-96588220D01*
X185968527Y-96811990D01*
X185750550Y-96902279D01*
X185596417Y-96966123D01*
X185464740Y-96992315D01*
X185201387Y-97044700D01*
X184798613Y-97044700D01*
X184535260Y-96992315D01*
X184403583Y-96966123D01*
X184249450Y-96902279D01*
X184031473Y-96811990D01*
X183696577Y-96588220D01*
X183411780Y-96303423D01*
X183188010Y-95968527D01*
X183033877Y-95596416D01*
X182955300Y-95201387D01*
X182955300Y-94798613D01*
X183014420Y-94501400D01*
X183033877Y-94403583D01*
X183148561Y-94126712D01*
X183188010Y-94031473D01*
X183411780Y-93696577D01*
X183696577Y-93411780D01*
X184031473Y-93188010D01*
X184288901Y-93081380D01*
X184403583Y-93033877D01*
X184559430Y-93002877D01*
X184798613Y-92955300D01*
X185201387Y-92955300D01*
X185440570Y-93002877D01*
X185440570Y-93002877D01*
G37*
G36*
X136803765Y-94998620D02*
X136993289Y-95077123D01*
X137163855Y-95191092D01*
X137308908Y-95336145D01*
X137422877Y-95506711D01*
X137501380Y-95696235D01*
X137541400Y-95897430D01*
X137541400Y-96102570D01*
X137501380Y-96303765D01*
X137422877Y-96493289D01*
X137308908Y-96663855D01*
X137163855Y-96808908D01*
X136993289Y-96922877D01*
X136803765Y-97001380D01*
X136602570Y-97041400D01*
X136397430Y-97041400D01*
X136196235Y-97001380D01*
X136006711Y-96922877D01*
X135836145Y-96808908D01*
X135691092Y-96663855D01*
X135577123Y-96493289D01*
X135498620Y-96303765D01*
X135458600Y-96102570D01*
X135458600Y-95897430D01*
X135498620Y-95696235D01*
X135577123Y-95506711D01*
X135691092Y-95336145D01*
X135836145Y-95191092D01*
X136006711Y-95077123D01*
X136196235Y-94998620D01*
X136397430Y-94958600D01*
X136602570Y-94958600D01*
X136803765Y-94998620D01*
X136803765Y-94998620D01*
G37*
G36*
X161183016Y-94132951D02*
X161347114Y-94200923D01*
X161494803Y-94299606D01*
X161620394Y-94425197D01*
X161719077Y-94572886D01*
X161787049Y-94736984D01*
X161821700Y-94911189D01*
X161821700Y-95088811D01*
X161787049Y-95263016D01*
X161719077Y-95427114D01*
X161620394Y-95574803D01*
X161494803Y-95700394D01*
X161347114Y-95799077D01*
X161183016Y-95867049D01*
X161008811Y-95901700D01*
X160831189Y-95901700D01*
X160656984Y-95867049D01*
X160492886Y-95799077D01*
X160345197Y-95700394D01*
X160219606Y-95574803D01*
X160120923Y-95427114D01*
X160052951Y-95263016D01*
X160018300Y-95088811D01*
X160018300Y-94911189D01*
X160052951Y-94736984D01*
X160120923Y-94572886D01*
X160219606Y-94425197D01*
X160345197Y-94299606D01*
X160492886Y-94200923D01*
X160656984Y-94132951D01*
X160831189Y-94098300D01*
X161008811Y-94098300D01*
X161183016Y-94132951D01*
X161183016Y-94132951D01*
G37*
G36*
X123183016Y-94132951D02*
X123347114Y-94200923D01*
X123494803Y-94299606D01*
X123620394Y-94425197D01*
X123719077Y-94572886D01*
X123787049Y-94736984D01*
X123821700Y-94911189D01*
X123821700Y-95088811D01*
X123787049Y-95263016D01*
X123719077Y-95427114D01*
X123620394Y-95574803D01*
X123494803Y-95700394D01*
X123347114Y-95799077D01*
X123183016Y-95867049D01*
X123008811Y-95901700D01*
X122831189Y-95901700D01*
X122656984Y-95867049D01*
X122492886Y-95799077D01*
X122345197Y-95700394D01*
X122219606Y-95574803D01*
X122120923Y-95427114D01*
X122052951Y-95263016D01*
X122018300Y-95088811D01*
X122018300Y-94911189D01*
X122052951Y-94736984D01*
X122120923Y-94572886D01*
X122219606Y-94425197D01*
X122345197Y-94299606D01*
X122492886Y-94200923D01*
X122656984Y-94132951D01*
X122831189Y-94098300D01*
X123008811Y-94098300D01*
X123183016Y-94132951D01*
X123183016Y-94132951D01*
G37*
G36*
X180183016Y-94132951D02*
X180347114Y-94200923D01*
X180494803Y-94299606D01*
X180620394Y-94425197D01*
X180719077Y-94572886D01*
X180787049Y-94736984D01*
X180821700Y-94911189D01*
X180821700Y-95088811D01*
X180787049Y-95263016D01*
X180719077Y-95427114D01*
X180620394Y-95574803D01*
X180494803Y-95700394D01*
X180347114Y-95799077D01*
X180183016Y-95867049D01*
X180008811Y-95901700D01*
X179831189Y-95901700D01*
X179656984Y-95867049D01*
X179492886Y-95799077D01*
X179345197Y-95700394D01*
X179219606Y-95574803D01*
X179120923Y-95427114D01*
X179052951Y-95263016D01*
X179018300Y-95088811D01*
X179018300Y-94911189D01*
X179052951Y-94736984D01*
X179120923Y-94572886D01*
X179219606Y-94425197D01*
X179345197Y-94299606D01*
X179492886Y-94200923D01*
X179656984Y-94132951D01*
X179831189Y-94098300D01*
X180008811Y-94098300D01*
X180183016Y-94132951D01*
X180183016Y-94132951D01*
G37*
G36*
X190343016Y-94132951D02*
X190507114Y-94200923D01*
X190654803Y-94299606D01*
X190780394Y-94425197D01*
X190879077Y-94572886D01*
X190947049Y-94736984D01*
X190981700Y-94911189D01*
X190981700Y-95088811D01*
X190947049Y-95263016D01*
X190879077Y-95427114D01*
X190780394Y-95574803D01*
X190654803Y-95700394D01*
X190507114Y-95799077D01*
X190343016Y-95867049D01*
X190168811Y-95901700D01*
X189991189Y-95901700D01*
X189816984Y-95867049D01*
X189652886Y-95799077D01*
X189505197Y-95700394D01*
X189379606Y-95574803D01*
X189280923Y-95427114D01*
X189212951Y-95263016D01*
X189178300Y-95088811D01*
X189178300Y-94911189D01*
X189212951Y-94736984D01*
X189280923Y-94572886D01*
X189379606Y-94425197D01*
X189505197Y-94299606D01*
X189652886Y-94200923D01*
X189816984Y-94132951D01*
X189991189Y-94098300D01*
X190168811Y-94098300D01*
X190343016Y-94132951D01*
X190343016Y-94132951D01*
G37*
G36*
X142183016Y-94132951D02*
X142347114Y-94200923D01*
X142494803Y-94299606D01*
X142620394Y-94425197D01*
X142719077Y-94572886D01*
X142787049Y-94736984D01*
X142821700Y-94911189D01*
X142821700Y-95088811D01*
X142787049Y-95263016D01*
X142719077Y-95427114D01*
X142620394Y-95574803D01*
X142494803Y-95700394D01*
X142347114Y-95799077D01*
X142183016Y-95867049D01*
X142008811Y-95901700D01*
X141831189Y-95901700D01*
X141656984Y-95867049D01*
X141492886Y-95799077D01*
X141345197Y-95700394D01*
X141219606Y-95574803D01*
X141120923Y-95427114D01*
X141052951Y-95263016D01*
X141018300Y-95088811D01*
X141018300Y-94911189D01*
X141052951Y-94736984D01*
X141120923Y-94572886D01*
X141219606Y-94425197D01*
X141345197Y-94299606D01*
X141492886Y-94200923D01*
X141656984Y-94132951D01*
X141831189Y-94098300D01*
X142008811Y-94098300D01*
X142183016Y-94132951D01*
X142183016Y-94132951D01*
G37*
G36*
X133343016Y-94132951D02*
X133507114Y-94200923D01*
X133654803Y-94299606D01*
X133780394Y-94425197D01*
X133879077Y-94572886D01*
X133947049Y-94736984D01*
X133981700Y-94911189D01*
X133981700Y-95088811D01*
X133947049Y-95263016D01*
X133879077Y-95427114D01*
X133780394Y-95574803D01*
X133654803Y-95700394D01*
X133507114Y-95799077D01*
X133343016Y-95867049D01*
X133168811Y-95901700D01*
X132991189Y-95901700D01*
X132816984Y-95867049D01*
X132652886Y-95799077D01*
X132505197Y-95700394D01*
X132379606Y-95574803D01*
X132280923Y-95427114D01*
X132212951Y-95263016D01*
X132178300Y-95088811D01*
X132178300Y-94911189D01*
X132212951Y-94736984D01*
X132280923Y-94572886D01*
X132379606Y-94425197D01*
X132505197Y-94299606D01*
X132652886Y-94200923D01*
X132816984Y-94132951D01*
X132991189Y-94098300D01*
X133168811Y-94098300D01*
X133343016Y-94132951D01*
X133343016Y-94132951D01*
G37*
G36*
X171343016Y-94132951D02*
X171507114Y-94200923D01*
X171654803Y-94299606D01*
X171780394Y-94425197D01*
X171879077Y-94572886D01*
X171947049Y-94736984D01*
X171981700Y-94911189D01*
X171981700Y-95088811D01*
X171947049Y-95263016D01*
X171879077Y-95427114D01*
X171780394Y-95574803D01*
X171654803Y-95700394D01*
X171507114Y-95799077D01*
X171343016Y-95867049D01*
X171168811Y-95901700D01*
X170991189Y-95901700D01*
X170816984Y-95867049D01*
X170652886Y-95799077D01*
X170505197Y-95700394D01*
X170379606Y-95574803D01*
X170280923Y-95427114D01*
X170212951Y-95263016D01*
X170178300Y-95088811D01*
X170178300Y-94911189D01*
X170212951Y-94736984D01*
X170280923Y-94572886D01*
X170379606Y-94425197D01*
X170505197Y-94299606D01*
X170652886Y-94200923D01*
X170816984Y-94132951D01*
X170991189Y-94098300D01*
X171168811Y-94098300D01*
X171343016Y-94132951D01*
X171343016Y-94132951D01*
G37*
G36*
X152343016Y-94132951D02*
X152507114Y-94200923D01*
X152654803Y-94299606D01*
X152780394Y-94425197D01*
X152879077Y-94572886D01*
X152947049Y-94736984D01*
X152981700Y-94911189D01*
X152981700Y-95088811D01*
X152947049Y-95263016D01*
X152879077Y-95427114D01*
X152780394Y-95574803D01*
X152654803Y-95700394D01*
X152507114Y-95799077D01*
X152343016Y-95867049D01*
X152168811Y-95901700D01*
X151991189Y-95901700D01*
X151816984Y-95867049D01*
X151652886Y-95799077D01*
X151505197Y-95700394D01*
X151379606Y-95574803D01*
X151280923Y-95427114D01*
X151212951Y-95263016D01*
X151178300Y-95088811D01*
X151178300Y-94911189D01*
X151212951Y-94736984D01*
X151280923Y-94572886D01*
X151379606Y-94425197D01*
X151505197Y-94299606D01*
X151652886Y-94200923D01*
X151816984Y-94132951D01*
X151991189Y-94098300D01*
X152168811Y-94098300D01*
X152343016Y-94132951D01*
X152343016Y-94132951D01*
G37*
G36*
X154923765Y-93618620D02*
X155113289Y-93697123D01*
X155283855Y-93811092D01*
X155428908Y-93956145D01*
X155542877Y-94126711D01*
X155621380Y-94316235D01*
X155661400Y-94517430D01*
X155661400Y-94722570D01*
X155621380Y-94923765D01*
X155542877Y-95113289D01*
X155428908Y-95283855D01*
X155283855Y-95428908D01*
X155113289Y-95542877D01*
X154923765Y-95621380D01*
X154722570Y-95661400D01*
X154517430Y-95661400D01*
X154316235Y-95621380D01*
X154126711Y-95542877D01*
X153956145Y-95428908D01*
X153811092Y-95283855D01*
X153697123Y-95113289D01*
X153618620Y-94923765D01*
X153578600Y-94722570D01*
X153578600Y-94517430D01*
X153618620Y-94316235D01*
X153697123Y-94126711D01*
X153811092Y-93956145D01*
X153956145Y-93811092D01*
X154126711Y-93697123D01*
X154316235Y-93618620D01*
X154517430Y-93578600D01*
X154722570Y-93578600D01*
X154923765Y-93618620D01*
X154923765Y-93618620D01*
G37*
G36*
X139683765Y-93618620D02*
X139873289Y-93697123D01*
X140043855Y-93811092D01*
X140188908Y-93956145D01*
X140302877Y-94126711D01*
X140381380Y-94316235D01*
X140421400Y-94517430D01*
X140421400Y-94722570D01*
X140381380Y-94923765D01*
X140302877Y-95113289D01*
X140188908Y-95283855D01*
X140043855Y-95428908D01*
X139873289Y-95542877D01*
X139683765Y-95621380D01*
X139482570Y-95661400D01*
X139277430Y-95661400D01*
X139076235Y-95621380D01*
X138886711Y-95542877D01*
X138716145Y-95428908D01*
X138571092Y-95283855D01*
X138457123Y-95113289D01*
X138378620Y-94923765D01*
X138338600Y-94722570D01*
X138338600Y-94517430D01*
X138378620Y-94316235D01*
X138457123Y-94126711D01*
X138571092Y-93956145D01*
X138716145Y-93811092D01*
X138886711Y-93697123D01*
X139076235Y-93618620D01*
X139277430Y-93578600D01*
X139482570Y-93578600D01*
X139683765Y-93618620D01*
X139683765Y-93618620D01*
G37*
G36*
X136803765Y-92458620D02*
X136993289Y-92537123D01*
X137163855Y-92651092D01*
X137308908Y-92796145D01*
X137422877Y-92966711D01*
X137501380Y-93156235D01*
X137541400Y-93357430D01*
X137541400Y-93562570D01*
X137501380Y-93763765D01*
X137422877Y-93953289D01*
X137308908Y-94123855D01*
X137163855Y-94268908D01*
X136993289Y-94382877D01*
X136803765Y-94461380D01*
X136602570Y-94501400D01*
X136397430Y-94501400D01*
X136196235Y-94461380D01*
X136006711Y-94382877D01*
X135836145Y-94268908D01*
X135691092Y-94123855D01*
X135577123Y-93953289D01*
X135498620Y-93763765D01*
X135458600Y-93562570D01*
X135458600Y-93357430D01*
X135498620Y-93156235D01*
X135577123Y-92966711D01*
X135691092Y-92796145D01*
X135836145Y-92651092D01*
X136006711Y-92537123D01*
X136196235Y-92458620D01*
X136397430Y-92418600D01*
X136602570Y-92418600D01*
X136803765Y-92458620D01*
X136803765Y-92458620D01*
G37*
G36*
X162575263Y-91189957D02*
X162815634Y-91289522D01*
X163031961Y-91434067D01*
X163215933Y-91618039D01*
X163290013Y-91728908D01*
X163360479Y-91834368D01*
X163460043Y-92074737D01*
X163510800Y-92329911D01*
X163510800Y-92590089D01*
X163460043Y-92845263D01*
X163381917Y-93033877D01*
X163360478Y-93085634D01*
X163215933Y-93301961D01*
X163031961Y-93485933D01*
X162815634Y-93630478D01*
X162815633Y-93630479D01*
X162815632Y-93630479D01*
X162575263Y-93730043D01*
X162320089Y-93780800D01*
X162059911Y-93780800D01*
X161804737Y-93730043D01*
X161564368Y-93630479D01*
X161564367Y-93630479D01*
X161564366Y-93630478D01*
X161348039Y-93485933D01*
X161164067Y-93301961D01*
X161019522Y-93085634D01*
X160998084Y-93033877D01*
X160919957Y-92845263D01*
X160869200Y-92590089D01*
X160869200Y-92329911D01*
X160919957Y-92074737D01*
X161019521Y-91834368D01*
X161089987Y-91728908D01*
X161164067Y-91618039D01*
X161348039Y-91434067D01*
X161564366Y-91289522D01*
X161804737Y-91189957D01*
X162059911Y-91139200D01*
X162320089Y-91139200D01*
X162575263Y-91189957D01*
X162575263Y-91189957D01*
G37*
G36*
X143575263Y-91189957D02*
X143815634Y-91289522D01*
X144031961Y-91434067D01*
X144215933Y-91618039D01*
X144290013Y-91728908D01*
X144360479Y-91834368D01*
X144460043Y-92074737D01*
X144510800Y-92329911D01*
X144510800Y-92590089D01*
X144460043Y-92845263D01*
X144381917Y-93033877D01*
X144360478Y-93085634D01*
X144215933Y-93301961D01*
X144031961Y-93485933D01*
X143815634Y-93630478D01*
X143815633Y-93630479D01*
X143815632Y-93630479D01*
X143575263Y-93730043D01*
X143320089Y-93780800D01*
X143059911Y-93780800D01*
X142804737Y-93730043D01*
X142564368Y-93630479D01*
X142564367Y-93630479D01*
X142564366Y-93630478D01*
X142348039Y-93485933D01*
X142164067Y-93301961D01*
X142019522Y-93085634D01*
X141998084Y-93033877D01*
X141919957Y-92845263D01*
X141869200Y-92590089D01*
X141869200Y-92329911D01*
X141919957Y-92074737D01*
X142019521Y-91834368D01*
X142089987Y-91728908D01*
X142164067Y-91618039D01*
X142348039Y-91434067D01*
X142564366Y-91289522D01*
X142804737Y-91189957D01*
X143059911Y-91139200D01*
X143320089Y-91139200D01*
X143575263Y-91189957D01*
X143575263Y-91189957D01*
G37*
G36*
X181575263Y-91189957D02*
X181815634Y-91289522D01*
X182031961Y-91434067D01*
X182215933Y-91618039D01*
X182290013Y-91728908D01*
X182360479Y-91834368D01*
X182460043Y-92074737D01*
X182510800Y-92329911D01*
X182510800Y-92590089D01*
X182460043Y-92845263D01*
X182381917Y-93033877D01*
X182360478Y-93085634D01*
X182215933Y-93301961D01*
X182031961Y-93485933D01*
X181815634Y-93630478D01*
X181815633Y-93630479D01*
X181815632Y-93630479D01*
X181575263Y-93730043D01*
X181320089Y-93780800D01*
X181059911Y-93780800D01*
X180804737Y-93730043D01*
X180564368Y-93630479D01*
X180564367Y-93630479D01*
X180564366Y-93630478D01*
X180348039Y-93485933D01*
X180164067Y-93301961D01*
X180019522Y-93085634D01*
X179998084Y-93033877D01*
X179919957Y-92845263D01*
X179869200Y-92590089D01*
X179869200Y-92329911D01*
X179919957Y-92074737D01*
X180019521Y-91834368D01*
X180089987Y-91728908D01*
X180164067Y-91618039D01*
X180348039Y-91434067D01*
X180564366Y-91289522D01*
X180804737Y-91189957D01*
X181059911Y-91139200D01*
X181320089Y-91139200D01*
X181575263Y-91189957D01*
X181575263Y-91189957D01*
G37*
G36*
X124575263Y-91189957D02*
X124815634Y-91289522D01*
X125031961Y-91434067D01*
X125215933Y-91618039D01*
X125290013Y-91728908D01*
X125360479Y-91834368D01*
X125460043Y-92074737D01*
X125510800Y-92329911D01*
X125510800Y-92590089D01*
X125460043Y-92845263D01*
X125381917Y-93033877D01*
X125360478Y-93085634D01*
X125215933Y-93301961D01*
X125031961Y-93485933D01*
X124815634Y-93630478D01*
X124815633Y-93630479D01*
X124815632Y-93630479D01*
X124575263Y-93730043D01*
X124320089Y-93780800D01*
X124059911Y-93780800D01*
X123804737Y-93730043D01*
X123564368Y-93630479D01*
X123564367Y-93630479D01*
X123564366Y-93630478D01*
X123348039Y-93485933D01*
X123164067Y-93301961D01*
X123019522Y-93085634D01*
X122998084Y-93033877D01*
X122919957Y-92845263D01*
X122869200Y-92590089D01*
X122869200Y-92329911D01*
X122919957Y-92074737D01*
X123019521Y-91834368D01*
X123089987Y-91728908D01*
X123164067Y-91618039D01*
X123348039Y-91434067D01*
X123564366Y-91289522D01*
X123804737Y-91189957D01*
X124059911Y-91139200D01*
X124320089Y-91139200D01*
X124575263Y-91189957D01*
X124575263Y-91189957D01*
G37*
G36*
X139683765Y-91078620D02*
X139873289Y-91157123D01*
X140043855Y-91271092D01*
X140188908Y-91416145D01*
X140302877Y-91586711D01*
X140381380Y-91776235D01*
X140421400Y-91977430D01*
X140421400Y-92182570D01*
X140381380Y-92383765D01*
X140302877Y-92573289D01*
X140188908Y-92743855D01*
X140043855Y-92888908D01*
X139873289Y-93002877D01*
X139683765Y-93081380D01*
X139482570Y-93121400D01*
X139277430Y-93121400D01*
X139076235Y-93081380D01*
X138886711Y-93002877D01*
X138716145Y-92888908D01*
X138571092Y-92743855D01*
X138457123Y-92573289D01*
X138378620Y-92383765D01*
X138338600Y-92182570D01*
X138338600Y-91977430D01*
X138378620Y-91776235D01*
X138457123Y-91586711D01*
X138571092Y-91416145D01*
X138716145Y-91271092D01*
X138886711Y-91157123D01*
X139076235Y-91078620D01*
X139277430Y-91038600D01*
X139482570Y-91038600D01*
X139683765Y-91078620D01*
X139683765Y-91078620D01*
G37*
G36*
X154923765Y-91078620D02*
X155113289Y-91157123D01*
X155283855Y-91271092D01*
X155428908Y-91416145D01*
X155542877Y-91586711D01*
X155621380Y-91776235D01*
X155661400Y-91977430D01*
X155661400Y-92182570D01*
X155621380Y-92383765D01*
X155542877Y-92573289D01*
X155428908Y-92743855D01*
X155283855Y-92888908D01*
X155113289Y-93002877D01*
X154923765Y-93081380D01*
X154722570Y-93121400D01*
X154517430Y-93121400D01*
X154316235Y-93081380D01*
X154126711Y-93002877D01*
X153956145Y-92888908D01*
X153811092Y-92743855D01*
X153697123Y-92573289D01*
X153618620Y-92383765D01*
X153578600Y-92182570D01*
X153578600Y-91977430D01*
X153618620Y-91776235D01*
X153697123Y-91586711D01*
X153811092Y-91416145D01*
X153956145Y-91271092D01*
X154126711Y-91157123D01*
X154316235Y-91078620D01*
X154517430Y-91038600D01*
X154722570Y-91038600D01*
X154923765Y-91078620D01*
X154923765Y-91078620D01*
G37*
G36*
X136803765Y-89918620D02*
X136993289Y-89997123D01*
X137163855Y-90111092D01*
X137308908Y-90256145D01*
X137422877Y-90426711D01*
X137501380Y-90616235D01*
X137541400Y-90817430D01*
X137541400Y-91022570D01*
X137501380Y-91223765D01*
X137422877Y-91413289D01*
X137308908Y-91583855D01*
X137163855Y-91728908D01*
X136993289Y-91842877D01*
X136803765Y-91921380D01*
X136602570Y-91961400D01*
X136397430Y-91961400D01*
X136196235Y-91921380D01*
X136006711Y-91842877D01*
X135836145Y-91728908D01*
X135691092Y-91583855D01*
X135577123Y-91413289D01*
X135498620Y-91223765D01*
X135458600Y-91022570D01*
X135458600Y-90817430D01*
X135498620Y-90616235D01*
X135577123Y-90426711D01*
X135691092Y-90256145D01*
X135836145Y-90111092D01*
X136006711Y-89997123D01*
X136196235Y-89918620D01*
X136397430Y-89878600D01*
X136602570Y-89878600D01*
X136803765Y-89918620D01*
X136803765Y-89918620D01*
G37*
G36*
X130918592Y-88648630D02*
X130925263Y-88649957D01*
X131165634Y-88749522D01*
X131381961Y-88894067D01*
X131565933Y-89078039D01*
X131710478Y-89294366D01*
X131810043Y-89534737D01*
X131860800Y-89789913D01*
X131860800Y-90050087D01*
X131810043Y-90305263D01*
X131710478Y-90545634D01*
X131565933Y-90761961D01*
X131381961Y-90945933D01*
X131165634Y-91090478D01*
X131165633Y-91090479D01*
X131165632Y-91090479D01*
X130925263Y-91190043D01*
X130670089Y-91240800D01*
X130409911Y-91240800D01*
X130154737Y-91190043D01*
X129914368Y-91090479D01*
X129914367Y-91090479D01*
X129914366Y-91090478D01*
X129698039Y-90945933D01*
X129514067Y-90761961D01*
X129369522Y-90545634D01*
X129269957Y-90305263D01*
X129219200Y-90050087D01*
X129219200Y-89789913D01*
X129269957Y-89534737D01*
X129369522Y-89294366D01*
X129514067Y-89078039D01*
X129698039Y-88894067D01*
X129914366Y-88749522D01*
X130154737Y-88649957D01*
X130161408Y-88648630D01*
X130409911Y-88599200D01*
X130670089Y-88599200D01*
X130918592Y-88648630D01*
X130918592Y-88648630D01*
G37*
G36*
X187918592Y-88648630D02*
X187925263Y-88649957D01*
X188165634Y-88749522D01*
X188381961Y-88894067D01*
X188565933Y-89078039D01*
X188710478Y-89294366D01*
X188810043Y-89534737D01*
X188860800Y-89789913D01*
X188860800Y-90050087D01*
X188810043Y-90305263D01*
X188710478Y-90545634D01*
X188565933Y-90761961D01*
X188381961Y-90945933D01*
X188165634Y-91090478D01*
X188165633Y-91090479D01*
X188165632Y-91090479D01*
X187925263Y-91190043D01*
X187670089Y-91240800D01*
X187409911Y-91240800D01*
X187154737Y-91190043D01*
X186914368Y-91090479D01*
X186914367Y-91090479D01*
X186914366Y-91090478D01*
X186698039Y-90945933D01*
X186514067Y-90761961D01*
X186369522Y-90545634D01*
X186269957Y-90305263D01*
X186219200Y-90050087D01*
X186219200Y-89789913D01*
X186269957Y-89534737D01*
X186369522Y-89294366D01*
X186514067Y-89078039D01*
X186698039Y-88894067D01*
X186914366Y-88749522D01*
X187154737Y-88649957D01*
X187161408Y-88648630D01*
X187409911Y-88599200D01*
X187670089Y-88599200D01*
X187918592Y-88648630D01*
X187918592Y-88648630D01*
G37*
G36*
X168918592Y-88648630D02*
X168925263Y-88649957D01*
X169165634Y-88749522D01*
X169381961Y-88894067D01*
X169565933Y-89078039D01*
X169710478Y-89294366D01*
X169810043Y-89534737D01*
X169860800Y-89789913D01*
X169860800Y-90050087D01*
X169810043Y-90305263D01*
X169710478Y-90545634D01*
X169565933Y-90761961D01*
X169381961Y-90945933D01*
X169165634Y-91090478D01*
X169165633Y-91090479D01*
X169165632Y-91090479D01*
X168925263Y-91190043D01*
X168670089Y-91240800D01*
X168409911Y-91240800D01*
X168154737Y-91190043D01*
X167914368Y-91090479D01*
X167914367Y-91090479D01*
X167914366Y-91090478D01*
X167698039Y-90945933D01*
X167514067Y-90761961D01*
X167369522Y-90545634D01*
X167269957Y-90305263D01*
X167219200Y-90050087D01*
X167219200Y-89789913D01*
X167269957Y-89534737D01*
X167369522Y-89294366D01*
X167514067Y-89078039D01*
X167698039Y-88894067D01*
X167914366Y-88749522D01*
X168154737Y-88649957D01*
X168161408Y-88648630D01*
X168409911Y-88599200D01*
X168670089Y-88599200D01*
X168918592Y-88648630D01*
X168918592Y-88648630D01*
G37*
G36*
X149918592Y-88648630D02*
X149925263Y-88649957D01*
X150165634Y-88749522D01*
X150381961Y-88894067D01*
X150565933Y-89078039D01*
X150710478Y-89294366D01*
X150810043Y-89534737D01*
X150860800Y-89789913D01*
X150860800Y-90050087D01*
X150810043Y-90305263D01*
X150710478Y-90545634D01*
X150565933Y-90761961D01*
X150381961Y-90945933D01*
X150165634Y-91090478D01*
X150165633Y-91090479D01*
X150165632Y-91090479D01*
X149925263Y-91190043D01*
X149670089Y-91240800D01*
X149409911Y-91240800D01*
X149154737Y-91190043D01*
X148914368Y-91090479D01*
X148914367Y-91090479D01*
X148914366Y-91090478D01*
X148698039Y-90945933D01*
X148514067Y-90761961D01*
X148369522Y-90545634D01*
X148269957Y-90305263D01*
X148219200Y-90050087D01*
X148219200Y-89789913D01*
X148269957Y-89534737D01*
X148369522Y-89294366D01*
X148514067Y-89078039D01*
X148698039Y-88894067D01*
X148914366Y-88749522D01*
X149154737Y-88649957D01*
X149161408Y-88648630D01*
X149409911Y-88599200D01*
X149670089Y-88599200D01*
X149918592Y-88648630D01*
X149918592Y-88648630D01*
G37*
G36*
X154923765Y-88538620D02*
X155113289Y-88617123D01*
X155283855Y-88731092D01*
X155428908Y-88876145D01*
X155542877Y-89046711D01*
X155621380Y-89236235D01*
X155661400Y-89437430D01*
X155661400Y-89642570D01*
X155621380Y-89843765D01*
X155542877Y-90033289D01*
X155428908Y-90203855D01*
X155283855Y-90348908D01*
X155113289Y-90462877D01*
X154923765Y-90541380D01*
X154722570Y-90581400D01*
X154517430Y-90581400D01*
X154316235Y-90541380D01*
X154126711Y-90462877D01*
X153956145Y-90348908D01*
X153811092Y-90203855D01*
X153697123Y-90033289D01*
X153618620Y-89843765D01*
X153578600Y-89642570D01*
X153578600Y-89437430D01*
X153618620Y-89236235D01*
X153697123Y-89046711D01*
X153811092Y-88876145D01*
X153956145Y-88731092D01*
X154126711Y-88617123D01*
X154316235Y-88538620D01*
X154517430Y-88498600D01*
X154722570Y-88498600D01*
X154923765Y-88538620D01*
X154923765Y-88538620D01*
G37*
G36*
X139683765Y-88538620D02*
X139873289Y-88617123D01*
X140043855Y-88731092D01*
X140188908Y-88876145D01*
X140302877Y-89046711D01*
X140381380Y-89236235D01*
X140421400Y-89437430D01*
X140421400Y-89642570D01*
X140381380Y-89843765D01*
X140302877Y-90033289D01*
X140188908Y-90203855D01*
X140043855Y-90348908D01*
X139873289Y-90462877D01*
X139683765Y-90541380D01*
X139482570Y-90581400D01*
X139277430Y-90581400D01*
X139076235Y-90541380D01*
X138886711Y-90462877D01*
X138716145Y-90348908D01*
X138571092Y-90203855D01*
X138457123Y-90033289D01*
X138378620Y-89843765D01*
X138338600Y-89642570D01*
X138338600Y-89437430D01*
X138378620Y-89236235D01*
X138457123Y-89046711D01*
X138571092Y-88876145D01*
X138716145Y-88731092D01*
X138886711Y-88617123D01*
X139076235Y-88538620D01*
X139277430Y-88498600D01*
X139482570Y-88498600D01*
X139683765Y-88538620D01*
X139683765Y-88538620D01*
G37*
G36*
X178064365Y-87749820D02*
X178253889Y-87828323D01*
X178424455Y-87942292D01*
X178569508Y-88087345D01*
X178683477Y-88257911D01*
X178761980Y-88447435D01*
X178802000Y-88648630D01*
X178802000Y-88853770D01*
X178761980Y-89054965D01*
X178683477Y-89244489D01*
X178569508Y-89415055D01*
X178424455Y-89560108D01*
X178253889Y-89674077D01*
X178064365Y-89752580D01*
X177863170Y-89792600D01*
X177658030Y-89792600D01*
X177456835Y-89752580D01*
X177267311Y-89674077D01*
X177096745Y-89560108D01*
X176951692Y-89415055D01*
X176837723Y-89244489D01*
X176759220Y-89054965D01*
X176719200Y-88853770D01*
X176719200Y-88648630D01*
X176759220Y-88447435D01*
X176837723Y-88257911D01*
X176951692Y-88087345D01*
X177096745Y-87942292D01*
X177267311Y-87828323D01*
X177456835Y-87749820D01*
X177658030Y-87709800D01*
X177863170Y-87709800D01*
X178064365Y-87749820D01*
X178064365Y-87749820D01*
G37*
G36*
X173543165Y-87749820D02*
X173732689Y-87828323D01*
X173903255Y-87942292D01*
X174048308Y-88087345D01*
X174162277Y-88257911D01*
X174240780Y-88447435D01*
X174280800Y-88648630D01*
X174280800Y-88853770D01*
X174240780Y-89054965D01*
X174162277Y-89244489D01*
X174048308Y-89415055D01*
X173903255Y-89560108D01*
X173732689Y-89674077D01*
X173543165Y-89752580D01*
X173341970Y-89792600D01*
X173136830Y-89792600D01*
X172935635Y-89752580D01*
X172746111Y-89674077D01*
X172575545Y-89560108D01*
X172430492Y-89415055D01*
X172316523Y-89244489D01*
X172238020Y-89054965D01*
X172198000Y-88853770D01*
X172198000Y-88648630D01*
X172238020Y-88447435D01*
X172316523Y-88257911D01*
X172430492Y-88087345D01*
X172575545Y-87942292D01*
X172746111Y-87828323D01*
X172935635Y-87749820D01*
X173136830Y-87709800D01*
X173341970Y-87709800D01*
X173543165Y-87749820D01*
X173543165Y-87749820D01*
G37*
G36*
X154923765Y-85998620D02*
X155113289Y-86077123D01*
X155283855Y-86191092D01*
X155428908Y-86336145D01*
X155542877Y-86506711D01*
X155621380Y-86696235D01*
X155661400Y-86897430D01*
X155661400Y-87102570D01*
X155621380Y-87303765D01*
X155542877Y-87493289D01*
X155428908Y-87663855D01*
X155283855Y-87808908D01*
X155113289Y-87922877D01*
X154923765Y-88001380D01*
X154722570Y-88041400D01*
X154517430Y-88041400D01*
X154316235Y-88001380D01*
X154126711Y-87922877D01*
X153956145Y-87808908D01*
X153811092Y-87663855D01*
X153697123Y-87493289D01*
X153618620Y-87303765D01*
X153578600Y-87102570D01*
X153578600Y-86897430D01*
X153618620Y-86696235D01*
X153697123Y-86506711D01*
X153811092Y-86336145D01*
X153956145Y-86191092D01*
X154126711Y-86077123D01*
X154316235Y-85998620D01*
X154517430Y-85958600D01*
X154722570Y-85958600D01*
X154923765Y-85998620D01*
X154923765Y-85998620D01*
G37*
G36*
X139683765Y-85998620D02*
X139873289Y-86077123D01*
X140043855Y-86191092D01*
X140188908Y-86336145D01*
X140302877Y-86506711D01*
X140381380Y-86696235D01*
X140421400Y-86897430D01*
X140421400Y-87102570D01*
X140381380Y-87303765D01*
X140302877Y-87493289D01*
X140188908Y-87663855D01*
X140043855Y-87808908D01*
X139873289Y-87922877D01*
X139683765Y-88001380D01*
X139482570Y-88041400D01*
X139277430Y-88041400D01*
X139076235Y-88001380D01*
X138886711Y-87922877D01*
X138716145Y-87808908D01*
X138571092Y-87663855D01*
X138457123Y-87493289D01*
X138378620Y-87303765D01*
X138338600Y-87102570D01*
X138338600Y-86897430D01*
X138378620Y-86696235D01*
X138457123Y-86506711D01*
X138571092Y-86336145D01*
X138716145Y-86191092D01*
X138886711Y-86077123D01*
X139076235Y-85998620D01*
X139277430Y-85958600D01*
X139482570Y-85958600D01*
X139683765Y-85998620D01*
X139683765Y-85998620D01*
G37*
G36*
X162493765Y-83498620D02*
X162683289Y-83577123D01*
X162853855Y-83691092D01*
X162998908Y-83836145D01*
X163112877Y-84006711D01*
X163191380Y-84196235D01*
X163231400Y-84397430D01*
X163231400Y-84602570D01*
X163191380Y-84803765D01*
X163112877Y-84993289D01*
X162998908Y-85163855D01*
X162853855Y-85308908D01*
X162683289Y-85422877D01*
X162493765Y-85501380D01*
X162292570Y-85541400D01*
X162087430Y-85541400D01*
X161886235Y-85501380D01*
X161696711Y-85422877D01*
X161526145Y-85308908D01*
X161381092Y-85163855D01*
X161267123Y-84993289D01*
X161188620Y-84803765D01*
X161148600Y-84602570D01*
X161148600Y-84397430D01*
X161188620Y-84196235D01*
X161267123Y-84006711D01*
X161381092Y-83836145D01*
X161526145Y-83691092D01*
X161696711Y-83577123D01*
X161886235Y-83498620D01*
X162087430Y-83458600D01*
X162292570Y-83458600D01*
X162493765Y-83498620D01*
X162493765Y-83498620D01*
G37*
G36*
X132113765Y-83498620D02*
X132303289Y-83577123D01*
X132473855Y-83691092D01*
X132618908Y-83836145D01*
X132732877Y-84006711D01*
X132811380Y-84196235D01*
X132851400Y-84397430D01*
X132851400Y-84602570D01*
X132811380Y-84803765D01*
X132732877Y-84993289D01*
X132618908Y-85163855D01*
X132473855Y-85308908D01*
X132303289Y-85422877D01*
X132113765Y-85501380D01*
X131912570Y-85541400D01*
X131707430Y-85541400D01*
X131506235Y-85501380D01*
X131316711Y-85422877D01*
X131146145Y-85308908D01*
X131001092Y-85163855D01*
X130887123Y-84993289D01*
X130808620Y-84803765D01*
X130768600Y-84602570D01*
X130768600Y-84397430D01*
X130808620Y-84196235D01*
X130887123Y-84006711D01*
X131001092Y-83836145D01*
X131146145Y-83691092D01*
X131316711Y-83577123D01*
X131506235Y-83498620D01*
X131707430Y-83458600D01*
X131912570Y-83458600D01*
X132113765Y-83498620D01*
X132113765Y-83498620D01*
G37*
G36*
X170113765Y-83498620D02*
X170303289Y-83577123D01*
X170473855Y-83691092D01*
X170618908Y-83836145D01*
X170732877Y-84006711D01*
X170811380Y-84196235D01*
X170851400Y-84397430D01*
X170851400Y-84602570D01*
X170811380Y-84803765D01*
X170732877Y-84993289D01*
X170618908Y-85163855D01*
X170473855Y-85308908D01*
X170303289Y-85422877D01*
X170113765Y-85501380D01*
X169912570Y-85541400D01*
X169707430Y-85541400D01*
X169506235Y-85501380D01*
X169316711Y-85422877D01*
X169146145Y-85308908D01*
X169001092Y-85163855D01*
X168887123Y-84993289D01*
X168808620Y-84803765D01*
X168768600Y-84602570D01*
X168768600Y-84397430D01*
X168808620Y-84196235D01*
X168887123Y-84006711D01*
X169001092Y-83836145D01*
X169146145Y-83691092D01*
X169316711Y-83577123D01*
X169506235Y-83498620D01*
X169707430Y-83458600D01*
X169912570Y-83458600D01*
X170113765Y-83498620D01*
X170113765Y-83498620D01*
G37*
G36*
X143493765Y-83498620D02*
X143683289Y-83577123D01*
X143853855Y-83691092D01*
X143998908Y-83836145D01*
X144112877Y-84006711D01*
X144191380Y-84196235D01*
X144231400Y-84397430D01*
X144231400Y-84602570D01*
X144191380Y-84803765D01*
X144112877Y-84993289D01*
X143998908Y-85163855D01*
X143853855Y-85308908D01*
X143683289Y-85422877D01*
X143493765Y-85501380D01*
X143292570Y-85541400D01*
X143087430Y-85541400D01*
X142886235Y-85501380D01*
X142696711Y-85422877D01*
X142526145Y-85308908D01*
X142381092Y-85163855D01*
X142267123Y-84993289D01*
X142188620Y-84803765D01*
X142148600Y-84602570D01*
X142148600Y-84397430D01*
X142188620Y-84196235D01*
X142267123Y-84006711D01*
X142381092Y-83836145D01*
X142526145Y-83691092D01*
X142696711Y-83577123D01*
X142886235Y-83498620D01*
X143087430Y-83458600D01*
X143292570Y-83458600D01*
X143493765Y-83498620D01*
X143493765Y-83498620D01*
G37*
G36*
X151113765Y-83498620D02*
X151303289Y-83577123D01*
X151473855Y-83691092D01*
X151618908Y-83836145D01*
X151732877Y-84006711D01*
X151811380Y-84196235D01*
X151851400Y-84397430D01*
X151851400Y-84602570D01*
X151811380Y-84803765D01*
X151732877Y-84993289D01*
X151618908Y-85163855D01*
X151473855Y-85308908D01*
X151303289Y-85422877D01*
X151113765Y-85501380D01*
X150912570Y-85541400D01*
X150707430Y-85541400D01*
X150506235Y-85501380D01*
X150316711Y-85422877D01*
X150146145Y-85308908D01*
X150001092Y-85163855D01*
X149887123Y-84993289D01*
X149808620Y-84803765D01*
X149768600Y-84602570D01*
X149768600Y-84397430D01*
X149808620Y-84196235D01*
X149887123Y-84006711D01*
X150001092Y-83836145D01*
X150146145Y-83691092D01*
X150316711Y-83577123D01*
X150506235Y-83498620D01*
X150707430Y-83458600D01*
X150912570Y-83458600D01*
X151113765Y-83498620D01*
X151113765Y-83498620D01*
G37*
G36*
X189113765Y-83498620D02*
X189303289Y-83577123D01*
X189473855Y-83691092D01*
X189618908Y-83836145D01*
X189732877Y-84006711D01*
X189811380Y-84196235D01*
X189851400Y-84397430D01*
X189851400Y-84602570D01*
X189811380Y-84803765D01*
X189732877Y-84993289D01*
X189618908Y-85163855D01*
X189473855Y-85308908D01*
X189303289Y-85422877D01*
X189113765Y-85501380D01*
X188912570Y-85541400D01*
X188707430Y-85541400D01*
X188506235Y-85501380D01*
X188316711Y-85422877D01*
X188146145Y-85308908D01*
X188001092Y-85163855D01*
X187887123Y-84993289D01*
X187808620Y-84803765D01*
X187768600Y-84602570D01*
X187768600Y-84397430D01*
X187808620Y-84196235D01*
X187887123Y-84006711D01*
X188001092Y-83836145D01*
X188146145Y-83691092D01*
X188316711Y-83577123D01*
X188506235Y-83498620D01*
X188707430Y-83458600D01*
X188912570Y-83458600D01*
X189113765Y-83498620D01*
X189113765Y-83498620D01*
G37*
G36*
X181493765Y-83498620D02*
X181683289Y-83577123D01*
X181853855Y-83691092D01*
X181998908Y-83836145D01*
X182112877Y-84006711D01*
X182191380Y-84196235D01*
X182231400Y-84397430D01*
X182231400Y-84602570D01*
X182191380Y-84803765D01*
X182112877Y-84993289D01*
X181998908Y-85163855D01*
X181853855Y-85308908D01*
X181683289Y-85422877D01*
X181493765Y-85501380D01*
X181292570Y-85541400D01*
X181087430Y-85541400D01*
X180886235Y-85501380D01*
X180696711Y-85422877D01*
X180526145Y-85308908D01*
X180381092Y-85163855D01*
X180267123Y-84993289D01*
X180188620Y-84803765D01*
X180148600Y-84602570D01*
X180148600Y-84397430D01*
X180188620Y-84196235D01*
X180267123Y-84006711D01*
X180381092Y-83836145D01*
X180526145Y-83691092D01*
X180696711Y-83577123D01*
X180886235Y-83498620D01*
X181087430Y-83458600D01*
X181292570Y-83458600D01*
X181493765Y-83498620D01*
X181493765Y-83498620D01*
G37*
G36*
X124493765Y-83498620D02*
X124683289Y-83577123D01*
X124853855Y-83691092D01*
X124998908Y-83836145D01*
X125112877Y-84006711D01*
X125191380Y-84196235D01*
X125231400Y-84397430D01*
X125231400Y-84602570D01*
X125191380Y-84803765D01*
X125112877Y-84993289D01*
X124998908Y-85163855D01*
X124853855Y-85308908D01*
X124683289Y-85422877D01*
X124493765Y-85501380D01*
X124292570Y-85541400D01*
X124087430Y-85541400D01*
X123886235Y-85501380D01*
X123696711Y-85422877D01*
X123526145Y-85308908D01*
X123381092Y-85163855D01*
X123267123Y-84993289D01*
X123188620Y-84803765D01*
X123148600Y-84602570D01*
X123148600Y-84397430D01*
X123188620Y-84196235D01*
X123267123Y-84006711D01*
X123381092Y-83836145D01*
X123526145Y-83691092D01*
X123696711Y-83577123D01*
X123886235Y-83498620D01*
X124087430Y-83458600D01*
X124292570Y-83458600D01*
X124493765Y-83498620D01*
X124493765Y-83498620D01*
G37*
G36*
X154923765Y-83458620D02*
X155113289Y-83537123D01*
X155283855Y-83651092D01*
X155428908Y-83796145D01*
X155542877Y-83966711D01*
X155621380Y-84156235D01*
X155661400Y-84357430D01*
X155661400Y-84562570D01*
X155621380Y-84763765D01*
X155542877Y-84953289D01*
X155428908Y-85123855D01*
X155283855Y-85268908D01*
X155113289Y-85382877D01*
X154923765Y-85461380D01*
X154722570Y-85501400D01*
X154517430Y-85501400D01*
X154316235Y-85461380D01*
X154126711Y-85382877D01*
X153956145Y-85268908D01*
X153811092Y-85123855D01*
X153697123Y-84953289D01*
X153618620Y-84763765D01*
X153578600Y-84562570D01*
X153578600Y-84357430D01*
X153618620Y-84156235D01*
X153697123Y-83966711D01*
X153811092Y-83796145D01*
X153956145Y-83651092D01*
X154126711Y-83537123D01*
X154316235Y-83458620D01*
X154517430Y-83418600D01*
X154722570Y-83418600D01*
X154923765Y-83458620D01*
X154923765Y-83458620D01*
G37*
G36*
X139683765Y-83458620D02*
X139873289Y-83537123D01*
X140043855Y-83651092D01*
X140188908Y-83796145D01*
X140302877Y-83966711D01*
X140381380Y-84156235D01*
X140421400Y-84357430D01*
X140421400Y-84562570D01*
X140381380Y-84763765D01*
X140302877Y-84953289D01*
X140188908Y-85123855D01*
X140043855Y-85268908D01*
X139873289Y-85382877D01*
X139683765Y-85461380D01*
X139482570Y-85501400D01*
X139277430Y-85501400D01*
X139076235Y-85461380D01*
X138886711Y-85382877D01*
X138716145Y-85268908D01*
X138571092Y-85123855D01*
X138457123Y-84953289D01*
X138378620Y-84763765D01*
X138338600Y-84562570D01*
X138338600Y-84357430D01*
X138378620Y-84156235D01*
X138457123Y-83966711D01*
X138571092Y-83796145D01*
X138716145Y-83651092D01*
X138886711Y-83537123D01*
X139076235Y-83458620D01*
X139277430Y-83418600D01*
X139482570Y-83418600D01*
X139683765Y-83458620D01*
X139683765Y-83458620D01*
G37*
G36*
X173543165Y-81247420D02*
X173732689Y-81325923D01*
X173903255Y-81439892D01*
X174048308Y-81584945D01*
X174162277Y-81755511D01*
X174240780Y-81945035D01*
X174280800Y-82146230D01*
X174280800Y-82351370D01*
X174240780Y-82552565D01*
X174162277Y-82742089D01*
X174048308Y-82912655D01*
X173903255Y-83057708D01*
X173732689Y-83171677D01*
X173543165Y-83250180D01*
X173341970Y-83290200D01*
X173136830Y-83290200D01*
X172935635Y-83250180D01*
X172746111Y-83171677D01*
X172575545Y-83057708D01*
X172430492Y-82912655D01*
X172316523Y-82742089D01*
X172238020Y-82552565D01*
X172198000Y-82351370D01*
X172198000Y-82146230D01*
X172238020Y-81945035D01*
X172316523Y-81755511D01*
X172430492Y-81584945D01*
X172575545Y-81439892D01*
X172746111Y-81325923D01*
X172935635Y-81247420D01*
X173136830Y-81207400D01*
X173341970Y-81207400D01*
X173543165Y-81247420D01*
X173543165Y-81247420D01*
G37*
G36*
X178064365Y-81247420D02*
X178253889Y-81325923D01*
X178424455Y-81439892D01*
X178569508Y-81584945D01*
X178683477Y-81755511D01*
X178761980Y-81945035D01*
X178802000Y-82146230D01*
X178802000Y-82351370D01*
X178761980Y-82552565D01*
X178683477Y-82742089D01*
X178569508Y-82912655D01*
X178424455Y-83057708D01*
X178253889Y-83171677D01*
X178064365Y-83250180D01*
X177863170Y-83290200D01*
X177658030Y-83290200D01*
X177456835Y-83250180D01*
X177267311Y-83171677D01*
X177096745Y-83057708D01*
X176951692Y-82912655D01*
X176837723Y-82742089D01*
X176759220Y-82552565D01*
X176719200Y-82351370D01*
X176719200Y-82146230D01*
X176759220Y-81945035D01*
X176837723Y-81755511D01*
X176951692Y-81584945D01*
X177096745Y-81439892D01*
X177267311Y-81325923D01*
X177456835Y-81247420D01*
X177658030Y-81207400D01*
X177863170Y-81207400D01*
X178064365Y-81247420D01*
X178064365Y-81247420D01*
G37*
G36*
X154923765Y-80918620D02*
X155113289Y-80997123D01*
X155283855Y-81111092D01*
X155428908Y-81256145D01*
X155542877Y-81426711D01*
X155621380Y-81616235D01*
X155661400Y-81817430D01*
X155661400Y-82022570D01*
X155621380Y-82223765D01*
X155542877Y-82413289D01*
X155428908Y-82583855D01*
X155283855Y-82728908D01*
X155113289Y-82842877D01*
X154923765Y-82921380D01*
X154722570Y-82961400D01*
X154517430Y-82961400D01*
X154316235Y-82921380D01*
X154126711Y-82842877D01*
X153956145Y-82728908D01*
X153811092Y-82583855D01*
X153697123Y-82413289D01*
X153618620Y-82223765D01*
X153578600Y-82022570D01*
X153578600Y-81817430D01*
X153618620Y-81616235D01*
X153697123Y-81426711D01*
X153811092Y-81256145D01*
X153956145Y-81111092D01*
X154126711Y-80997123D01*
X154316235Y-80918620D01*
X154517430Y-80878600D01*
X154722570Y-80878600D01*
X154923765Y-80918620D01*
X154923765Y-80918620D01*
G37*
G36*
X139683765Y-80918620D02*
X139873289Y-80997123D01*
X140043855Y-81111092D01*
X140188908Y-81256145D01*
X140302877Y-81426711D01*
X140381380Y-81616235D01*
X140421400Y-81817430D01*
X140421400Y-82022570D01*
X140381380Y-82223765D01*
X140302877Y-82413289D01*
X140188908Y-82583855D01*
X140043855Y-82728908D01*
X139873289Y-82842877D01*
X139683765Y-82921380D01*
X139482570Y-82961400D01*
X139277430Y-82961400D01*
X139076235Y-82921380D01*
X138886711Y-82842877D01*
X138716145Y-82728908D01*
X138571092Y-82583855D01*
X138457123Y-82413289D01*
X138378620Y-82223765D01*
X138338600Y-82022570D01*
X138338600Y-81817430D01*
X138378620Y-81616235D01*
X138457123Y-81426711D01*
X138571092Y-81256145D01*
X138716145Y-81111092D01*
X138886711Y-80997123D01*
X139076235Y-80918620D01*
X139277430Y-80878600D01*
X139482570Y-80878600D01*
X139683765Y-80918620D01*
X139683765Y-80918620D01*
G37*
G36*
X165041174Y-80054196D02*
X165235318Y-80134613D01*
X165410048Y-80251364D01*
X165558636Y-80399952D01*
X165675387Y-80574682D01*
X165755804Y-80768826D01*
X165796800Y-80974928D01*
X165796800Y-81185072D01*
X165755804Y-81391174D01*
X165675387Y-81585318D01*
X165558636Y-81760048D01*
X165410048Y-81908636D01*
X165235318Y-82025387D01*
X165041174Y-82105804D01*
X164835072Y-82146800D01*
X164624928Y-82146800D01*
X164418826Y-82105804D01*
X164224682Y-82025387D01*
X164049952Y-81908636D01*
X163901364Y-81760048D01*
X163784613Y-81585318D01*
X163704196Y-81391174D01*
X163663200Y-81185072D01*
X163663200Y-80974928D01*
X163704196Y-80768826D01*
X163784613Y-80574682D01*
X163901364Y-80399952D01*
X164049952Y-80251364D01*
X164224682Y-80134613D01*
X164418826Y-80054196D01*
X164624928Y-80013200D01*
X164835072Y-80013200D01*
X165041174Y-80054196D01*
X165041174Y-80054196D01*
G37*
G36*
X149336800Y-82146800D02*
X147203200Y-82146800D01*
X147203200Y-80013200D01*
X149336800Y-80013200D01*
X149336800Y-82146800D01*
X149336800Y-82146800D01*
G37*
G36*
X146041174Y-80054196D02*
X146235318Y-80134613D01*
X146410048Y-80251364D01*
X146558636Y-80399952D01*
X146675387Y-80574682D01*
X146755804Y-80768826D01*
X146796800Y-80974928D01*
X146796800Y-81185072D01*
X146755804Y-81391174D01*
X146675387Y-81585318D01*
X146558636Y-81760048D01*
X146410048Y-81908636D01*
X146235318Y-82025387D01*
X146041174Y-82105804D01*
X145835072Y-82146800D01*
X145624928Y-82146800D01*
X145418826Y-82105804D01*
X145224682Y-82025387D01*
X145049952Y-81908636D01*
X144901364Y-81760048D01*
X144784613Y-81585318D01*
X144704196Y-81391174D01*
X144663200Y-81185072D01*
X144663200Y-80974928D01*
X144704196Y-80768826D01*
X144784613Y-80574682D01*
X144901364Y-80399952D01*
X145049952Y-80251364D01*
X145224682Y-80134613D01*
X145418826Y-80054196D01*
X145624928Y-80013200D01*
X145835072Y-80013200D01*
X146041174Y-80054196D01*
X146041174Y-80054196D01*
G37*
G36*
X130336800Y-82146800D02*
X128203200Y-82146800D01*
X128203200Y-80013200D01*
X130336800Y-80013200D01*
X130336800Y-82146800D01*
X130336800Y-82146800D01*
G37*
G36*
X127041174Y-80054196D02*
X127235318Y-80134613D01*
X127410048Y-80251364D01*
X127558636Y-80399952D01*
X127675387Y-80574682D01*
X127755804Y-80768826D01*
X127796800Y-80974928D01*
X127796800Y-81185072D01*
X127755804Y-81391174D01*
X127675387Y-81585318D01*
X127558636Y-81760048D01*
X127410048Y-81908636D01*
X127235318Y-82025387D01*
X127041174Y-82105804D01*
X126835072Y-82146800D01*
X126624928Y-82146800D01*
X126418826Y-82105804D01*
X126224682Y-82025387D01*
X126049952Y-81908636D01*
X125901364Y-81760048D01*
X125784613Y-81585318D01*
X125704196Y-81391174D01*
X125663200Y-81185072D01*
X125663200Y-80974928D01*
X125704196Y-80768826D01*
X125784613Y-80574682D01*
X125901364Y-80399952D01*
X126049952Y-80251364D01*
X126224682Y-80134613D01*
X126418826Y-80054196D01*
X126624928Y-80013200D01*
X126835072Y-80013200D01*
X127041174Y-80054196D01*
X127041174Y-80054196D01*
G37*
G36*
X168336800Y-82146800D02*
X166203200Y-82146800D01*
X166203200Y-80013200D01*
X168336800Y-80013200D01*
X168336800Y-82146800D01*
X168336800Y-82146800D01*
G37*
G36*
X184041174Y-80054196D02*
X184235318Y-80134613D01*
X184410048Y-80251364D01*
X184558636Y-80399952D01*
X184675387Y-80574682D01*
X184755804Y-80768826D01*
X184796800Y-80974928D01*
X184796800Y-81185072D01*
X184755804Y-81391174D01*
X184675387Y-81585318D01*
X184558636Y-81760048D01*
X184410048Y-81908636D01*
X184235318Y-82025387D01*
X184041174Y-82105804D01*
X183835072Y-82146800D01*
X183624928Y-82146800D01*
X183418826Y-82105804D01*
X183224682Y-82025387D01*
X183049952Y-81908636D01*
X182901364Y-81760048D01*
X182784613Y-81585318D01*
X182704196Y-81391174D01*
X182663200Y-81185072D01*
X182663200Y-80974928D01*
X182704196Y-80768826D01*
X182784613Y-80574682D01*
X182901364Y-80399952D01*
X183049952Y-80251364D01*
X183224682Y-80134613D01*
X183418826Y-80054196D01*
X183624928Y-80013200D01*
X183835072Y-80013200D01*
X184041174Y-80054196D01*
X184041174Y-80054196D01*
G37*
G36*
X187336800Y-82146800D02*
X185203200Y-82146800D01*
X185203200Y-80013200D01*
X187336800Y-80013200D01*
X187336800Y-82146800D01*
X187336800Y-82146800D01*
G37*
G36*
X139683765Y-78378620D02*
X139873289Y-78457123D01*
X140043855Y-78571092D01*
X140188908Y-78716145D01*
X140302877Y-78886711D01*
X140381380Y-79076235D01*
X140421400Y-79277430D01*
X140421400Y-79482570D01*
X140381380Y-79683765D01*
X140302877Y-79873289D01*
X140188908Y-80043855D01*
X140043855Y-80188908D01*
X139873289Y-80302877D01*
X139683765Y-80381380D01*
X139482570Y-80421400D01*
X139277430Y-80421400D01*
X139076235Y-80381380D01*
X138886711Y-80302877D01*
X138716145Y-80188908D01*
X138571092Y-80043855D01*
X138457123Y-79873289D01*
X138378620Y-79683765D01*
X138338600Y-79482570D01*
X138338600Y-79277430D01*
X138378620Y-79076235D01*
X138457123Y-78886711D01*
X138571092Y-78716145D01*
X138716145Y-78571092D01*
X138886711Y-78457123D01*
X139076235Y-78378620D01*
X139277430Y-78338600D01*
X139482570Y-78338600D01*
X139683765Y-78378620D01*
X139683765Y-78378620D01*
G37*
G36*
X154923765Y-78378620D02*
X155113289Y-78457123D01*
X155283855Y-78571092D01*
X155428908Y-78716145D01*
X155542877Y-78886711D01*
X155621380Y-79076235D01*
X155661400Y-79277430D01*
X155661400Y-79482570D01*
X155621380Y-79683765D01*
X155542877Y-79873289D01*
X155428908Y-80043855D01*
X155283855Y-80188908D01*
X155113289Y-80302877D01*
X154923765Y-80381380D01*
X154722570Y-80421400D01*
X154517430Y-80421400D01*
X154316235Y-80381380D01*
X154126711Y-80302877D01*
X153956145Y-80188908D01*
X153811092Y-80043855D01*
X153697123Y-79873289D01*
X153618620Y-79683765D01*
X153578600Y-79482570D01*
X153578600Y-79277430D01*
X153618620Y-79076235D01*
X153697123Y-78886711D01*
X153811092Y-78716145D01*
X153956145Y-78571092D01*
X154126711Y-78457123D01*
X154316235Y-78378620D01*
X154517430Y-78338600D01*
X154722570Y-78338600D01*
X154923765Y-78378620D01*
X154923765Y-78378620D01*
G37*
G36*
X185464740Y-74007685D02*
X185596417Y-74033877D01*
X185721364Y-74085632D01*
X185968527Y-74188010D01*
X186303423Y-74411780D01*
X186588220Y-74696577D01*
X186811990Y-75031473D01*
X186966123Y-75403584D01*
X187044700Y-75798613D01*
X187044700Y-76201387D01*
X186966123Y-76596416D01*
X186811990Y-76968527D01*
X186588220Y-77303423D01*
X186303423Y-77588220D01*
X185968527Y-77811990D01*
X185800956Y-77881400D01*
X185596417Y-77966123D01*
X185464740Y-77992315D01*
X185201387Y-78044700D01*
X184798613Y-78044700D01*
X184535260Y-77992315D01*
X184403583Y-77966123D01*
X184199044Y-77881400D01*
X184031473Y-77811990D01*
X183696577Y-77588220D01*
X183411780Y-77303423D01*
X183188010Y-76968527D01*
X183033877Y-76596416D01*
X182955300Y-76201387D01*
X182955300Y-75798613D01*
X183033877Y-75403584D01*
X183188010Y-75031473D01*
X183411780Y-74696577D01*
X183696577Y-74411780D01*
X184031473Y-74188010D01*
X184278636Y-74085632D01*
X184403583Y-74033877D01*
X184535260Y-74007685D01*
X184798613Y-73955300D01*
X185201387Y-73955300D01*
X185464740Y-74007685D01*
X185464740Y-74007685D01*
G37*
G36*
X166464740Y-74007685D02*
X166596417Y-74033877D01*
X166721364Y-74085632D01*
X166968527Y-74188010D01*
X167303423Y-74411780D01*
X167588220Y-74696577D01*
X167811990Y-75031473D01*
X167966123Y-75403584D01*
X168044700Y-75798613D01*
X168044700Y-76201387D01*
X167966123Y-76596416D01*
X167811990Y-76968527D01*
X167588220Y-77303423D01*
X167303423Y-77588220D01*
X166968527Y-77811990D01*
X166800956Y-77881400D01*
X166596417Y-77966123D01*
X166464740Y-77992315D01*
X166201387Y-78044700D01*
X165798613Y-78044700D01*
X165535260Y-77992315D01*
X165403583Y-77966123D01*
X165199044Y-77881400D01*
X165031473Y-77811990D01*
X164696577Y-77588220D01*
X164411780Y-77303423D01*
X164188010Y-76968527D01*
X164033877Y-76596416D01*
X163955300Y-76201387D01*
X163955300Y-75798613D01*
X164033877Y-75403584D01*
X164188010Y-75031473D01*
X164411780Y-74696577D01*
X164696577Y-74411780D01*
X165031473Y-74188010D01*
X165278636Y-74085632D01*
X165403583Y-74033877D01*
X165535260Y-74007685D01*
X165798613Y-73955300D01*
X166201387Y-73955300D01*
X166464740Y-74007685D01*
X166464740Y-74007685D01*
G37*
G36*
X147464740Y-74007685D02*
X147596417Y-74033877D01*
X147721364Y-74085632D01*
X147968527Y-74188010D01*
X148303423Y-74411780D01*
X148588220Y-74696577D01*
X148811990Y-75031473D01*
X148966123Y-75403584D01*
X149044700Y-75798613D01*
X149044700Y-76201387D01*
X148966123Y-76596416D01*
X148811990Y-76968527D01*
X148588220Y-77303423D01*
X148303423Y-77588220D01*
X147968527Y-77811990D01*
X147800956Y-77881400D01*
X147596417Y-77966123D01*
X147464740Y-77992315D01*
X147201387Y-78044700D01*
X146798613Y-78044700D01*
X146535260Y-77992315D01*
X146403583Y-77966123D01*
X146199044Y-77881400D01*
X146031473Y-77811990D01*
X145696577Y-77588220D01*
X145411780Y-77303423D01*
X145188010Y-76968527D01*
X145033877Y-76596416D01*
X144955300Y-76201387D01*
X144955300Y-75798613D01*
X145033877Y-75403584D01*
X145188010Y-75031473D01*
X145411780Y-74696577D01*
X145696577Y-74411780D01*
X146031473Y-74188010D01*
X146278636Y-74085632D01*
X146403583Y-74033877D01*
X146535260Y-74007685D01*
X146798613Y-73955300D01*
X147201387Y-73955300D01*
X147464740Y-74007685D01*
X147464740Y-74007685D01*
G37*
G36*
X128464740Y-74007685D02*
X128596417Y-74033877D01*
X128721364Y-74085632D01*
X128968527Y-74188010D01*
X129303423Y-74411780D01*
X129588220Y-74696577D01*
X129811990Y-75031473D01*
X129966123Y-75403584D01*
X130044700Y-75798613D01*
X130044700Y-76201387D01*
X129966123Y-76596416D01*
X129811990Y-76968527D01*
X129588220Y-77303423D01*
X129303423Y-77588220D01*
X128968527Y-77811990D01*
X128800956Y-77881400D01*
X128596417Y-77966123D01*
X128464740Y-77992315D01*
X128201387Y-78044700D01*
X127798613Y-78044700D01*
X127535260Y-77992315D01*
X127403583Y-77966123D01*
X127199044Y-77881400D01*
X127031473Y-77811990D01*
X126696577Y-77588220D01*
X126411780Y-77303423D01*
X126188010Y-76968527D01*
X126033877Y-76596416D01*
X125955300Y-76201387D01*
X125955300Y-75798613D01*
X126033877Y-75403584D01*
X126188010Y-75031473D01*
X126411780Y-74696577D01*
X126696577Y-74411780D01*
X127031473Y-74188010D01*
X127278636Y-74085632D01*
X127403583Y-74033877D01*
X127535260Y-74007685D01*
X127798613Y-73955300D01*
X128201387Y-73955300D01*
X128464740Y-74007685D01*
X128464740Y-74007685D01*
G37*
G36*
X139683765Y-75838620D02*
X139873289Y-75917123D01*
X140043855Y-76031092D01*
X140188908Y-76176145D01*
X140302877Y-76346711D01*
X140381380Y-76536235D01*
X140421400Y-76737430D01*
X140421400Y-76942570D01*
X140381380Y-77143765D01*
X140302877Y-77333289D01*
X140188908Y-77503855D01*
X140043855Y-77648908D01*
X139873289Y-77762877D01*
X139683765Y-77841380D01*
X139482570Y-77881400D01*
X139277430Y-77881400D01*
X139076235Y-77841380D01*
X138886711Y-77762877D01*
X138716145Y-77648908D01*
X138571092Y-77503855D01*
X138457123Y-77333289D01*
X138378620Y-77143765D01*
X138338600Y-76942570D01*
X138338600Y-76737430D01*
X138378620Y-76536235D01*
X138457123Y-76346711D01*
X138571092Y-76176145D01*
X138716145Y-76031092D01*
X138886711Y-75917123D01*
X139076235Y-75838620D01*
X139277430Y-75798600D01*
X139482570Y-75798600D01*
X139683765Y-75838620D01*
X139683765Y-75838620D01*
G37*
G36*
X154923765Y-75838620D02*
X155113289Y-75917123D01*
X155283855Y-76031092D01*
X155428908Y-76176145D01*
X155542877Y-76346711D01*
X155621380Y-76536235D01*
X155661400Y-76737430D01*
X155661400Y-76942570D01*
X155621380Y-77143765D01*
X155542877Y-77333289D01*
X155428908Y-77503855D01*
X155283855Y-77648908D01*
X155113289Y-77762877D01*
X154923765Y-77841380D01*
X154722570Y-77881400D01*
X154517430Y-77881400D01*
X154316235Y-77841380D01*
X154126711Y-77762877D01*
X153956145Y-77648908D01*
X153811092Y-77503855D01*
X153697123Y-77333289D01*
X153618620Y-77143765D01*
X153578600Y-76942570D01*
X153578600Y-76737430D01*
X153618620Y-76536235D01*
X153697123Y-76346711D01*
X153811092Y-76176145D01*
X153956145Y-76031092D01*
X154126711Y-75917123D01*
X154316235Y-75838620D01*
X154517430Y-75798600D01*
X154722570Y-75798600D01*
X154923765Y-75838620D01*
X154923765Y-75838620D01*
G37*
G36*
X171343016Y-75132951D02*
X171507114Y-75200923D01*
X171654803Y-75299606D01*
X171780394Y-75425197D01*
X171879077Y-75572886D01*
X171947049Y-75736984D01*
X171981700Y-75911189D01*
X171981700Y-76088811D01*
X171947049Y-76263016D01*
X171879077Y-76427114D01*
X171780394Y-76574803D01*
X171654803Y-76700394D01*
X171507114Y-76799077D01*
X171343016Y-76867049D01*
X171168811Y-76901700D01*
X170991189Y-76901700D01*
X170816984Y-76867049D01*
X170652886Y-76799077D01*
X170505197Y-76700394D01*
X170379606Y-76574803D01*
X170280923Y-76427114D01*
X170212951Y-76263016D01*
X170178300Y-76088811D01*
X170178300Y-75911189D01*
X170212951Y-75736984D01*
X170280923Y-75572886D01*
X170379606Y-75425197D01*
X170505197Y-75299606D01*
X170652886Y-75200923D01*
X170816984Y-75132951D01*
X170991189Y-75098300D01*
X171168811Y-75098300D01*
X171343016Y-75132951D01*
X171343016Y-75132951D01*
G37*
G36*
X180183016Y-75132951D02*
X180347114Y-75200923D01*
X180494803Y-75299606D01*
X180620394Y-75425197D01*
X180719077Y-75572886D01*
X180787049Y-75736984D01*
X180821700Y-75911189D01*
X180821700Y-76088811D01*
X180787049Y-76263016D01*
X180719077Y-76427114D01*
X180620394Y-76574803D01*
X180494803Y-76700394D01*
X180347114Y-76799077D01*
X180183016Y-76867049D01*
X180008811Y-76901700D01*
X179831189Y-76901700D01*
X179656984Y-76867049D01*
X179492886Y-76799077D01*
X179345197Y-76700394D01*
X179219606Y-76574803D01*
X179120923Y-76427114D01*
X179052951Y-76263016D01*
X179018300Y-76088811D01*
X179018300Y-75911189D01*
X179052951Y-75736984D01*
X179120923Y-75572886D01*
X179219606Y-75425197D01*
X179345197Y-75299606D01*
X179492886Y-75200923D01*
X179656984Y-75132951D01*
X179831189Y-75098300D01*
X180008811Y-75098300D01*
X180183016Y-75132951D01*
X180183016Y-75132951D01*
G37*
G36*
X161183016Y-75132951D02*
X161347114Y-75200923D01*
X161494803Y-75299606D01*
X161620394Y-75425197D01*
X161719077Y-75572886D01*
X161787049Y-75736984D01*
X161821700Y-75911189D01*
X161821700Y-76088811D01*
X161787049Y-76263016D01*
X161719077Y-76427114D01*
X161620394Y-76574803D01*
X161494803Y-76700394D01*
X161347114Y-76799077D01*
X161183016Y-76867049D01*
X161008811Y-76901700D01*
X160831189Y-76901700D01*
X160656984Y-76867049D01*
X160492886Y-76799077D01*
X160345197Y-76700394D01*
X160219606Y-76574803D01*
X160120923Y-76427114D01*
X160052951Y-76263016D01*
X160018300Y-76088811D01*
X160018300Y-75911189D01*
X160052951Y-75736984D01*
X160120923Y-75572886D01*
X160219606Y-75425197D01*
X160345197Y-75299606D01*
X160492886Y-75200923D01*
X160656984Y-75132951D01*
X160831189Y-75098300D01*
X161008811Y-75098300D01*
X161183016Y-75132951D01*
X161183016Y-75132951D01*
G37*
G36*
X123183016Y-75132951D02*
X123347114Y-75200923D01*
X123494803Y-75299606D01*
X123620394Y-75425197D01*
X123719077Y-75572886D01*
X123787049Y-75736984D01*
X123821700Y-75911189D01*
X123821700Y-76088811D01*
X123787049Y-76263016D01*
X123719077Y-76427114D01*
X123620394Y-76574803D01*
X123494803Y-76700394D01*
X123347114Y-76799077D01*
X123183016Y-76867049D01*
X123008811Y-76901700D01*
X122831189Y-76901700D01*
X122656984Y-76867049D01*
X122492886Y-76799077D01*
X122345197Y-76700394D01*
X122219606Y-76574803D01*
X122120923Y-76427114D01*
X122052951Y-76263016D01*
X122018300Y-76088811D01*
X122018300Y-75911189D01*
X122052951Y-75736984D01*
X122120923Y-75572886D01*
X122219606Y-75425197D01*
X122345197Y-75299606D01*
X122492886Y-75200923D01*
X122656984Y-75132951D01*
X122831189Y-75098300D01*
X123008811Y-75098300D01*
X123183016Y-75132951D01*
X123183016Y-75132951D01*
G37*
G36*
X152343016Y-75132951D02*
X152507114Y-75200923D01*
X152654803Y-75299606D01*
X152780394Y-75425197D01*
X152879077Y-75572886D01*
X152947049Y-75736984D01*
X152981700Y-75911189D01*
X152981700Y-76088811D01*
X152947049Y-76263016D01*
X152879077Y-76427114D01*
X152780394Y-76574803D01*
X152654803Y-76700394D01*
X152507114Y-76799077D01*
X152343016Y-76867049D01*
X152168811Y-76901700D01*
X151991189Y-76901700D01*
X151816984Y-76867049D01*
X151652886Y-76799077D01*
X151505197Y-76700394D01*
X151379606Y-76574803D01*
X151280923Y-76427114D01*
X151212951Y-76263016D01*
X151178300Y-76088811D01*
X151178300Y-75911189D01*
X151212951Y-75736984D01*
X151280923Y-75572886D01*
X151379606Y-75425197D01*
X151505197Y-75299606D01*
X151652886Y-75200923D01*
X151816984Y-75132951D01*
X151991189Y-75098300D01*
X152168811Y-75098300D01*
X152343016Y-75132951D01*
X152343016Y-75132951D01*
G37*
G36*
X142183016Y-75132951D02*
X142347114Y-75200923D01*
X142494803Y-75299606D01*
X142620394Y-75425197D01*
X142719077Y-75572886D01*
X142787049Y-75736984D01*
X142821700Y-75911189D01*
X142821700Y-76088811D01*
X142787049Y-76263016D01*
X142719077Y-76427114D01*
X142620394Y-76574803D01*
X142494803Y-76700394D01*
X142347114Y-76799077D01*
X142183016Y-76867049D01*
X142008811Y-76901700D01*
X141831189Y-76901700D01*
X141656984Y-76867049D01*
X141492886Y-76799077D01*
X141345197Y-76700394D01*
X141219606Y-76574803D01*
X141120923Y-76427114D01*
X141052951Y-76263016D01*
X141018300Y-76088811D01*
X141018300Y-75911189D01*
X141052951Y-75736984D01*
X141120923Y-75572886D01*
X141219606Y-75425197D01*
X141345197Y-75299606D01*
X141492886Y-75200923D01*
X141656984Y-75132951D01*
X141831189Y-75098300D01*
X142008811Y-75098300D01*
X142183016Y-75132951D01*
X142183016Y-75132951D01*
G37*
G36*
X133343016Y-75132951D02*
X133507114Y-75200923D01*
X133654803Y-75299606D01*
X133780394Y-75425197D01*
X133879077Y-75572886D01*
X133947049Y-75736984D01*
X133981700Y-75911189D01*
X133981700Y-76088811D01*
X133947049Y-76263016D01*
X133879077Y-76427114D01*
X133780394Y-76574803D01*
X133654803Y-76700394D01*
X133507114Y-76799077D01*
X133343016Y-76867049D01*
X133168811Y-76901700D01*
X132991189Y-76901700D01*
X132816984Y-76867049D01*
X132652886Y-76799077D01*
X132505197Y-76700394D01*
X132379606Y-76574803D01*
X132280923Y-76427114D01*
X132212951Y-76263016D01*
X132178300Y-76088811D01*
X132178300Y-75911189D01*
X132212951Y-75736984D01*
X132280923Y-75572886D01*
X132379606Y-75425197D01*
X132505197Y-75299606D01*
X132652886Y-75200923D01*
X132816984Y-75132951D01*
X132991189Y-75098300D01*
X133168811Y-75098300D01*
X133343016Y-75132951D01*
X133343016Y-75132951D01*
G37*
G36*
X190343016Y-75132951D02*
X190507114Y-75200923D01*
X190654803Y-75299606D01*
X190780394Y-75425197D01*
X190879077Y-75572886D01*
X190947049Y-75736984D01*
X190981700Y-75911189D01*
X190981700Y-76088811D01*
X190947049Y-76263016D01*
X190879077Y-76427114D01*
X190780394Y-76574803D01*
X190654803Y-76700394D01*
X190507114Y-76799077D01*
X190343016Y-76867049D01*
X190168811Y-76901700D01*
X189991189Y-76901700D01*
X189816984Y-76867049D01*
X189652886Y-76799077D01*
X189505197Y-76700394D01*
X189379606Y-76574803D01*
X189280923Y-76427114D01*
X189212951Y-76263016D01*
X189178300Y-76088811D01*
X189178300Y-75911189D01*
X189212951Y-75736984D01*
X189280923Y-75572886D01*
X189379606Y-75425197D01*
X189505197Y-75299606D01*
X189652886Y-75200923D01*
X189816984Y-75132951D01*
X189991189Y-75098300D01*
X190168811Y-75098300D01*
X190343016Y-75132951D01*
X190343016Y-75132951D01*
G37*
G36*
X139683765Y-73298620D02*
X139873289Y-73377123D01*
X140043855Y-73491092D01*
X140188908Y-73636145D01*
X140302877Y-73806711D01*
X140381380Y-73996235D01*
X140421400Y-74197430D01*
X140421400Y-74402570D01*
X140381380Y-74603765D01*
X140302877Y-74793289D01*
X140188908Y-74963855D01*
X140043855Y-75108908D01*
X139873289Y-75222877D01*
X139683765Y-75301380D01*
X139482570Y-75341400D01*
X139277430Y-75341400D01*
X139076235Y-75301380D01*
X138886711Y-75222877D01*
X138716145Y-75108908D01*
X138571092Y-74963855D01*
X138457123Y-74793289D01*
X138378620Y-74603765D01*
X138338600Y-74402570D01*
X138338600Y-74197430D01*
X138378620Y-73996235D01*
X138457123Y-73806711D01*
X138571092Y-73636145D01*
X138716145Y-73491092D01*
X138886711Y-73377123D01*
X139076235Y-73298620D01*
X139277430Y-73258600D01*
X139482570Y-73258600D01*
X139683765Y-73298620D01*
X139683765Y-73298620D01*
G37*
G36*
X154923765Y-73298620D02*
X155113289Y-73377123D01*
X155283855Y-73491092D01*
X155428908Y-73636145D01*
X155542877Y-73806711D01*
X155621380Y-73996235D01*
X155661400Y-74197430D01*
X155661400Y-74402570D01*
X155621380Y-74603765D01*
X155542877Y-74793289D01*
X155428908Y-74963855D01*
X155283855Y-75108908D01*
X155113289Y-75222877D01*
X154923765Y-75301380D01*
X154722570Y-75341400D01*
X154517430Y-75341400D01*
X154316235Y-75301380D01*
X154126711Y-75222877D01*
X153956145Y-75108908D01*
X153811092Y-74963855D01*
X153697123Y-74793289D01*
X153618620Y-74603765D01*
X153578600Y-74402570D01*
X153578600Y-74197430D01*
X153618620Y-73996235D01*
X153697123Y-73806711D01*
X153811092Y-73636145D01*
X153956145Y-73491092D01*
X154126711Y-73377123D01*
X154316235Y-73298620D01*
X154517430Y-73258600D01*
X154722570Y-73258600D01*
X154923765Y-73298620D01*
X154923765Y-73298620D01*
G37*
G36*
X181575263Y-72189957D02*
X181728158Y-72253288D01*
X181815634Y-72289522D01*
X182031961Y-72434067D01*
X182215933Y-72618039D01*
X182360478Y-72834366D01*
X182360479Y-72834368D01*
X182460043Y-73074737D01*
X182510800Y-73329911D01*
X182510800Y-73590089D01*
X182460043Y-73845263D01*
X182381917Y-74033877D01*
X182360478Y-74085634D01*
X182215933Y-74301961D01*
X182031961Y-74485933D01*
X181815634Y-74630478D01*
X181815633Y-74630479D01*
X181815632Y-74630479D01*
X181575263Y-74730043D01*
X181320089Y-74780800D01*
X181059911Y-74780800D01*
X180804737Y-74730043D01*
X180564368Y-74630479D01*
X180564367Y-74630479D01*
X180564366Y-74630478D01*
X180348039Y-74485933D01*
X180164067Y-74301961D01*
X180019522Y-74085634D01*
X179998084Y-74033877D01*
X179919957Y-73845263D01*
X179869200Y-73590089D01*
X179869200Y-73329911D01*
X179919957Y-73074737D01*
X180019521Y-72834368D01*
X180019522Y-72834366D01*
X180164067Y-72618039D01*
X180348039Y-72434067D01*
X180564366Y-72289522D01*
X180651843Y-72253288D01*
X180804737Y-72189957D01*
X181059911Y-72139200D01*
X181320089Y-72139200D01*
X181575263Y-72189957D01*
X181575263Y-72189957D01*
G37*
G36*
X143575263Y-72189957D02*
X143728158Y-72253288D01*
X143815634Y-72289522D01*
X144031961Y-72434067D01*
X144215933Y-72618039D01*
X144360478Y-72834366D01*
X144360479Y-72834368D01*
X144460043Y-73074737D01*
X144510800Y-73329911D01*
X144510800Y-73590089D01*
X144460043Y-73845263D01*
X144381917Y-74033877D01*
X144360478Y-74085634D01*
X144215933Y-74301961D01*
X144031961Y-74485933D01*
X143815634Y-74630478D01*
X143815633Y-74630479D01*
X143815632Y-74630479D01*
X143575263Y-74730043D01*
X143320089Y-74780800D01*
X143059911Y-74780800D01*
X142804737Y-74730043D01*
X142564368Y-74630479D01*
X142564367Y-74630479D01*
X142564366Y-74630478D01*
X142348039Y-74485933D01*
X142164067Y-74301961D01*
X142019522Y-74085634D01*
X141998084Y-74033877D01*
X141919957Y-73845263D01*
X141869200Y-73590089D01*
X141869200Y-73329911D01*
X141919957Y-73074737D01*
X142019521Y-72834368D01*
X142019522Y-72834366D01*
X142164067Y-72618039D01*
X142348039Y-72434067D01*
X142564366Y-72289522D01*
X142651843Y-72253288D01*
X142804737Y-72189957D01*
X143059911Y-72139200D01*
X143320089Y-72139200D01*
X143575263Y-72189957D01*
X143575263Y-72189957D01*
G37*
G36*
X124575263Y-72189957D02*
X124728158Y-72253288D01*
X124815634Y-72289522D01*
X125031961Y-72434067D01*
X125215933Y-72618039D01*
X125360478Y-72834366D01*
X125360479Y-72834368D01*
X125460043Y-73074737D01*
X125510800Y-73329911D01*
X125510800Y-73590089D01*
X125460043Y-73845263D01*
X125381917Y-74033877D01*
X125360478Y-74085634D01*
X125215933Y-74301961D01*
X125031961Y-74485933D01*
X124815634Y-74630478D01*
X124815633Y-74630479D01*
X124815632Y-74630479D01*
X124575263Y-74730043D01*
X124320089Y-74780800D01*
X124059911Y-74780800D01*
X123804737Y-74730043D01*
X123564368Y-74630479D01*
X123564367Y-74630479D01*
X123564366Y-74630478D01*
X123348039Y-74485933D01*
X123164067Y-74301961D01*
X123019522Y-74085634D01*
X122998084Y-74033877D01*
X122919957Y-73845263D01*
X122869200Y-73590089D01*
X122869200Y-73329911D01*
X122919957Y-73074737D01*
X123019521Y-72834368D01*
X123019522Y-72834366D01*
X123164067Y-72618039D01*
X123348039Y-72434067D01*
X123564366Y-72289522D01*
X123651843Y-72253288D01*
X123804737Y-72189957D01*
X124059911Y-72139200D01*
X124320089Y-72139200D01*
X124575263Y-72189957D01*
X124575263Y-72189957D01*
G37*
G36*
X162575263Y-72189957D02*
X162728158Y-72253288D01*
X162815634Y-72289522D01*
X163031961Y-72434067D01*
X163215933Y-72618039D01*
X163360478Y-72834366D01*
X163360479Y-72834368D01*
X163460043Y-73074737D01*
X163510800Y-73329911D01*
X163510800Y-73590089D01*
X163460043Y-73845263D01*
X163381917Y-74033877D01*
X163360478Y-74085634D01*
X163215933Y-74301961D01*
X163031961Y-74485933D01*
X162815634Y-74630478D01*
X162815633Y-74630479D01*
X162815632Y-74630479D01*
X162575263Y-74730043D01*
X162320089Y-74780800D01*
X162059911Y-74780800D01*
X161804737Y-74730043D01*
X161564368Y-74630479D01*
X161564367Y-74630479D01*
X161564366Y-74630478D01*
X161348039Y-74485933D01*
X161164067Y-74301961D01*
X161019522Y-74085634D01*
X160998084Y-74033877D01*
X160919957Y-73845263D01*
X160869200Y-73590089D01*
X160869200Y-73329911D01*
X160919957Y-73074737D01*
X161019521Y-72834368D01*
X161019522Y-72834366D01*
X161164067Y-72618039D01*
X161348039Y-72434067D01*
X161564366Y-72289522D01*
X161651843Y-72253288D01*
X161804737Y-72189957D01*
X162059911Y-72139200D01*
X162320089Y-72139200D01*
X162575263Y-72189957D01*
X162575263Y-72189957D01*
G37*
G36*
X139683765Y-70758620D02*
X139873289Y-70837123D01*
X140043855Y-70951092D01*
X140188908Y-71096145D01*
X140302877Y-71266711D01*
X140381380Y-71456235D01*
X140421400Y-71657430D01*
X140421400Y-71862570D01*
X140381380Y-72063765D01*
X140302877Y-72253289D01*
X140188908Y-72423855D01*
X140043855Y-72568908D01*
X139873289Y-72682877D01*
X139683765Y-72761380D01*
X139482570Y-72801400D01*
X139277430Y-72801400D01*
X139076235Y-72761380D01*
X138886711Y-72682877D01*
X138716145Y-72568908D01*
X138571092Y-72423855D01*
X138457123Y-72253289D01*
X138378620Y-72063765D01*
X138338600Y-71862570D01*
X138338600Y-71657430D01*
X138378620Y-71456235D01*
X138457123Y-71266711D01*
X138571092Y-71096145D01*
X138716145Y-70951092D01*
X138886711Y-70837123D01*
X139076235Y-70758620D01*
X139277430Y-70718600D01*
X139482570Y-70718600D01*
X139683765Y-70758620D01*
X139683765Y-70758620D01*
G37*
G36*
X154923765Y-70758620D02*
X155113289Y-70837123D01*
X155283855Y-70951092D01*
X155428908Y-71096145D01*
X155542877Y-71266711D01*
X155621380Y-71456235D01*
X155661400Y-71657430D01*
X155661400Y-71862570D01*
X155621380Y-72063765D01*
X155542877Y-72253289D01*
X155428908Y-72423855D01*
X155283855Y-72568908D01*
X155113289Y-72682877D01*
X154923765Y-72761380D01*
X154722570Y-72801400D01*
X154517430Y-72801400D01*
X154316235Y-72761380D01*
X154126711Y-72682877D01*
X153956145Y-72568908D01*
X153811092Y-72423855D01*
X153697123Y-72253289D01*
X153618620Y-72063765D01*
X153578600Y-71862570D01*
X153578600Y-71657430D01*
X153618620Y-71456235D01*
X153697123Y-71266711D01*
X153811092Y-71096145D01*
X153956145Y-70951092D01*
X154126711Y-70837123D01*
X154316235Y-70758620D01*
X154517430Y-70718600D01*
X154722570Y-70718600D01*
X154923765Y-70758620D01*
X154923765Y-70758620D01*
G37*
G36*
X168925263Y-69649957D02*
X169165634Y-69749522D01*
X169381961Y-69894067D01*
X169565933Y-70078039D01*
X169710478Y-70294366D01*
X169710479Y-70294368D01*
X169810043Y-70534737D01*
X169860800Y-70789911D01*
X169860800Y-71050089D01*
X169817711Y-71266711D01*
X169810043Y-71305263D01*
X169710478Y-71545634D01*
X169565933Y-71761961D01*
X169381961Y-71945933D01*
X169165634Y-72090478D01*
X169165633Y-72090479D01*
X169165632Y-72090479D01*
X168925263Y-72190043D01*
X168670089Y-72240800D01*
X168409911Y-72240800D01*
X168154737Y-72190043D01*
X167914368Y-72090479D01*
X167914367Y-72090479D01*
X167914366Y-72090478D01*
X167698039Y-71945933D01*
X167514067Y-71761961D01*
X167369522Y-71545634D01*
X167269957Y-71305263D01*
X167262289Y-71266711D01*
X167219200Y-71050089D01*
X167219200Y-70789911D01*
X167269957Y-70534737D01*
X167369521Y-70294368D01*
X167369522Y-70294366D01*
X167514067Y-70078039D01*
X167698039Y-69894067D01*
X167914366Y-69749522D01*
X168154737Y-69649957D01*
X168409911Y-69599200D01*
X168670089Y-69599200D01*
X168925263Y-69649957D01*
X168925263Y-69649957D01*
G37*
G36*
X149925263Y-69649957D02*
X150165634Y-69749522D01*
X150381961Y-69894067D01*
X150565933Y-70078039D01*
X150710478Y-70294366D01*
X150710479Y-70294368D01*
X150810043Y-70534737D01*
X150860800Y-70789911D01*
X150860800Y-71050089D01*
X150817711Y-71266711D01*
X150810043Y-71305263D01*
X150710478Y-71545634D01*
X150565933Y-71761961D01*
X150381961Y-71945933D01*
X150165634Y-72090478D01*
X150165633Y-72090479D01*
X150165632Y-72090479D01*
X149925263Y-72190043D01*
X149670089Y-72240800D01*
X149409911Y-72240800D01*
X149154737Y-72190043D01*
X148914368Y-72090479D01*
X148914367Y-72090479D01*
X148914366Y-72090478D01*
X148698039Y-71945933D01*
X148514067Y-71761961D01*
X148369522Y-71545634D01*
X148269957Y-71305263D01*
X148262289Y-71266711D01*
X148219200Y-71050089D01*
X148219200Y-70789911D01*
X148269957Y-70534737D01*
X148369521Y-70294368D01*
X148369522Y-70294366D01*
X148514067Y-70078039D01*
X148698039Y-69894067D01*
X148914366Y-69749522D01*
X149154737Y-69649957D01*
X149409911Y-69599200D01*
X149670089Y-69599200D01*
X149925263Y-69649957D01*
X149925263Y-69649957D01*
G37*
G36*
X130925263Y-69649957D02*
X131165634Y-69749522D01*
X131381961Y-69894067D01*
X131565933Y-70078039D01*
X131710478Y-70294366D01*
X131710479Y-70294368D01*
X131810043Y-70534737D01*
X131860800Y-70789911D01*
X131860800Y-71050089D01*
X131817711Y-71266711D01*
X131810043Y-71305263D01*
X131710478Y-71545634D01*
X131565933Y-71761961D01*
X131381961Y-71945933D01*
X131165634Y-72090478D01*
X131165633Y-72090479D01*
X131165632Y-72090479D01*
X130925263Y-72190043D01*
X130670089Y-72240800D01*
X130409911Y-72240800D01*
X130154737Y-72190043D01*
X129914368Y-72090479D01*
X129914367Y-72090479D01*
X129914366Y-72090478D01*
X129698039Y-71945933D01*
X129514067Y-71761961D01*
X129369522Y-71545634D01*
X129269957Y-71305263D01*
X129262289Y-71266711D01*
X129219200Y-71050089D01*
X129219200Y-70789911D01*
X129269957Y-70534737D01*
X129369521Y-70294368D01*
X129369522Y-70294366D01*
X129514067Y-70078039D01*
X129698039Y-69894067D01*
X129914366Y-69749522D01*
X130154737Y-69649957D01*
X130409911Y-69599200D01*
X130670089Y-69599200D01*
X130925263Y-69649957D01*
X130925263Y-69649957D01*
G37*
G36*
X187925263Y-69649957D02*
X188165634Y-69749522D01*
X188381961Y-69894067D01*
X188565933Y-70078039D01*
X188710478Y-70294366D01*
X188710479Y-70294368D01*
X188810043Y-70534737D01*
X188860800Y-70789911D01*
X188860800Y-71050089D01*
X188817711Y-71266711D01*
X188810043Y-71305263D01*
X188710478Y-71545634D01*
X188565933Y-71761961D01*
X188381961Y-71945933D01*
X188165634Y-72090478D01*
X188165633Y-72090479D01*
X188165632Y-72090479D01*
X187925263Y-72190043D01*
X187670089Y-72240800D01*
X187409911Y-72240800D01*
X187154737Y-72190043D01*
X186914368Y-72090479D01*
X186914367Y-72090479D01*
X186914366Y-72090478D01*
X186698039Y-71945933D01*
X186514067Y-71761961D01*
X186369522Y-71545634D01*
X186269957Y-71305263D01*
X186262289Y-71266711D01*
X186219200Y-71050089D01*
X186219200Y-70789911D01*
X186269957Y-70534737D01*
X186369521Y-70294368D01*
X186369522Y-70294366D01*
X186514067Y-70078039D01*
X186698039Y-69894067D01*
X186914366Y-69749522D01*
X187154737Y-69649957D01*
X187409911Y-69599200D01*
X187670089Y-69599200D01*
X187925263Y-69649957D01*
X187925263Y-69649957D01*
G37*
M02*
