M48
;DRILL file {KiCad 5.0.2-bee76a0~70~ubuntu18.04.1} date Tue 19 Mar 2019 03:09:47 PM EDT
;FORMAT={-:-/ absolute / inch / decimal}
FMAT,2
INCH,TZ
T1C0.0100
T2C0.0354
T3C0.0390
T4C0.0400
T5C0.0590
%
G90
G05
T1
X5.5972Y-4.0156
T2
X7.1335Y-4.0748
X7.4335Y-4.0748
X5.6374Y-4.0748
X5.9374Y-4.0748
X6.3854Y-4.0748
X6.6854Y-4.0748
X4.8894Y-4.0748
X5.1894Y-4.0748
X6.3854Y-3.3268
X6.6854Y-3.3268
X5.6374Y-3.3268
X5.9374Y-3.3268
X7.1335Y-3.3268
X7.4335Y-3.3268
X4.8894Y-3.3268
X5.1894Y-3.3268
T3
X4.9894Y-3.1921
X5.0894Y-3.1921
X7.2335Y-3.9402
X7.3335Y-3.9402
X5.7374Y-3.9402
X5.8374Y-3.9402
X7.2335Y-3.1921
X7.3335Y-3.1921
X6.4854Y-3.1921
X6.5854Y-3.1921
X4.9894Y-3.9402
X5.0894Y-3.9402
X6.4854Y-3.9402
X6.5854Y-3.9402
X5.7374Y-3.1921
X5.8374Y-3.1921
T4
X5.4874Y-2.8252
X5.4874Y-2.9252
X5.4874Y-3.0252
X5.4874Y-3.1252
X5.4874Y-3.2252
X5.4874Y-3.3252
X5.4874Y-3.4252
X5.4874Y-3.5252
X5.4874Y-3.6252
X5.4874Y-3.7252
X5.4874Y-3.8252
X5.4874Y-3.9252
X6.0874Y-2.8252
X6.0874Y-2.9252
X6.0874Y-3.0252
X6.0874Y-3.1252
X6.0874Y-3.2252
X6.0874Y-3.3252
X6.0874Y-3.4252
X6.0874Y-3.5252
X6.0874Y-3.6252
X6.0874Y-3.7252
X6.0874Y-3.8252
X6.0874Y-3.9252
X5.374Y-3.5795
X5.374Y-3.6795
X5.374Y-3.7795
X5.374Y-3.8795
X5.374Y-3.9795
X5.374Y-4.0795
X6.8204Y-3.2381
X6.8204Y-3.4941
X6.9984Y-3.2381
X6.9984Y-3.4941
T5
X4.8894Y-2.8921
X5.1394Y-2.7921
X7.1335Y-3.6402
X7.3835Y-3.5402
X5.6374Y-3.6402
X5.8874Y-3.5402
X7.1335Y-2.8921
X7.3835Y-2.7921
X6.3854Y-2.8921
X6.6354Y-2.7921
X4.8894Y-3.6402
X5.1394Y-3.5402
X6.3854Y-3.6402
X6.6354Y-3.5402
X5.6374Y-2.8921
X5.8874Y-2.7921
T0
M30
