G04 #@! TF.GenerationSoftware,KiCad,Pcbnew,5.0.2-bee76a0~70~ubuntu18.04.1*
G04 #@! TF.CreationDate,2019-03-19T15:09:44-04:00*
G04 #@! TF.ProjectId,8_key_simple_graphics (copy),385f6b65-795f-4736-996d-706c655f6772,rev?*
G04 #@! TF.SameCoordinates,Original*
G04 #@! TF.FileFunction,Legend,Top*
G04 #@! TF.FilePolarity,Positive*
%FSLAX46Y46*%
G04 Gerber Fmt 4.6, Leading zero omitted, Abs format (unit mm)*
G04 Created by KiCad (PCBNEW 5.0.2-bee76a0~70~ubuntu18.04.1) date Tue 19 Mar 2019 03:09:44 PM EDT*
%MOMM*%
%LPD*%
G01*
G04 APERTURE LIST*
%ADD10C,0.203200*%
%ADD11C,0.150000*%
%ADD12C,0.127000*%
G04 APERTURE END LIST*
D10*
G04 #@! TO.C,R1*
X125460000Y-103500000D02*
X125206000Y-103500000D01*
X130540000Y-103500000D02*
X130794000Y-103500000D01*
X125460000Y-103500000D02*
X125460000Y-102738000D01*
X125460000Y-104262000D02*
X125460000Y-103500000D01*
X130540000Y-104262000D02*
X125460000Y-104262000D01*
X130540000Y-103500000D02*
X130540000Y-104262000D01*
X130540000Y-102738000D02*
X130540000Y-103500000D01*
X125460000Y-102738000D02*
X130540000Y-102738000D01*
G04 #@! TO.C,R2*
X144460000Y-103500000D02*
X144206000Y-103500000D01*
X149540000Y-103500000D02*
X149794000Y-103500000D01*
X144460000Y-103500000D02*
X144460000Y-102738000D01*
X144460000Y-104262000D02*
X144460000Y-103500000D01*
X149540000Y-104262000D02*
X144460000Y-104262000D01*
X149540000Y-103500000D02*
X149540000Y-104262000D01*
X149540000Y-102738000D02*
X149540000Y-103500000D01*
X144460000Y-102738000D02*
X149540000Y-102738000D01*
G04 #@! TO.C,R3*
X163460000Y-103500000D02*
X163206000Y-103500000D01*
X168540000Y-103500000D02*
X168794000Y-103500000D01*
X163460000Y-103500000D02*
X163460000Y-102738000D01*
X163460000Y-104262000D02*
X163460000Y-103500000D01*
X168540000Y-104262000D02*
X163460000Y-104262000D01*
X168540000Y-103500000D02*
X168540000Y-104262000D01*
X168540000Y-102738000D02*
X168540000Y-103500000D01*
X163460000Y-102738000D02*
X168540000Y-102738000D01*
G04 #@! TO.C,R4*
X182460000Y-103500000D02*
X182206000Y-103500000D01*
X187540000Y-103500000D02*
X187794000Y-103500000D01*
X182460000Y-103500000D02*
X182460000Y-102738000D01*
X182460000Y-104262000D02*
X182460000Y-103500000D01*
X187540000Y-104262000D02*
X182460000Y-104262000D01*
X187540000Y-103500000D02*
X187540000Y-104262000D01*
X187540000Y-102738000D02*
X187540000Y-103500000D01*
X182460000Y-102738000D02*
X187540000Y-102738000D01*
G04 #@! TO.C,R5*
X125460000Y-84500000D02*
X125206000Y-84500000D01*
X130540000Y-84500000D02*
X130794000Y-84500000D01*
X125460000Y-84500000D02*
X125460000Y-83738000D01*
X125460000Y-85262000D02*
X125460000Y-84500000D01*
X130540000Y-85262000D02*
X125460000Y-85262000D01*
X130540000Y-84500000D02*
X130540000Y-85262000D01*
X130540000Y-83738000D02*
X130540000Y-84500000D01*
X125460000Y-83738000D02*
X130540000Y-83738000D01*
G04 #@! TO.C,R6*
X144460000Y-84500000D02*
X144206000Y-84500000D01*
X149540000Y-84500000D02*
X149794000Y-84500000D01*
X144460000Y-84500000D02*
X144460000Y-83738000D01*
X144460000Y-85262000D02*
X144460000Y-84500000D01*
X149540000Y-85262000D02*
X144460000Y-85262000D01*
X149540000Y-84500000D02*
X149540000Y-85262000D01*
X149540000Y-83738000D02*
X149540000Y-84500000D01*
X144460000Y-83738000D02*
X149540000Y-83738000D01*
G04 #@! TO.C,R7*
X163460000Y-84500000D02*
X163206000Y-84500000D01*
X168540000Y-84500000D02*
X168794000Y-84500000D01*
X163460000Y-84500000D02*
X163460000Y-83738000D01*
X163460000Y-85262000D02*
X163460000Y-84500000D01*
X168540000Y-85262000D02*
X163460000Y-85262000D01*
X168540000Y-84500000D02*
X168540000Y-85262000D01*
X168540000Y-83738000D02*
X168540000Y-84500000D01*
X163460000Y-83738000D02*
X168540000Y-83738000D01*
G04 #@! TO.C,R8*
X182460000Y-84500000D02*
X182206000Y-84500000D01*
X187540000Y-84500000D02*
X187794000Y-84500000D01*
X182460000Y-84500000D02*
X182460000Y-83738000D01*
X182460000Y-85262000D02*
X182460000Y-84500000D01*
X187540000Y-85262000D02*
X182460000Y-85262000D01*
X187540000Y-84500000D02*
X187540000Y-85262000D01*
X187540000Y-83738000D02*
X187540000Y-84500000D01*
X182460000Y-83738000D02*
X187540000Y-83738000D01*
D11*
G04 #@! TO.C,SW1*
X121000000Y-88000000D02*
X121000000Y-102000000D01*
X121000000Y-102000000D02*
X135000000Y-102000000D01*
X135000000Y-102000000D02*
X135000000Y-88000000D01*
X135000000Y-88000000D02*
X121000000Y-88000000D01*
G04 #@! TO.C,SW2*
X140000000Y-88000000D02*
X140000000Y-102000000D01*
X140000000Y-102000000D02*
X154000000Y-102000000D01*
X154000000Y-102000000D02*
X154000000Y-88000000D01*
X154000000Y-88000000D02*
X140000000Y-88000000D01*
G04 #@! TO.C,SW3*
X159000000Y-88000000D02*
X159000000Y-102000000D01*
X159000000Y-102000000D02*
X173000000Y-102000000D01*
X173000000Y-102000000D02*
X173000000Y-88000000D01*
X173000000Y-88000000D02*
X159000000Y-88000000D01*
G04 #@! TO.C,SW4*
X178000000Y-88000000D02*
X178000000Y-102000000D01*
X178000000Y-102000000D02*
X192000000Y-102000000D01*
X192000000Y-102000000D02*
X192000000Y-88000000D01*
X192000000Y-88000000D02*
X178000000Y-88000000D01*
G04 #@! TO.C,SW5*
X121000000Y-69000000D02*
X121000000Y-83000000D01*
X121000000Y-83000000D02*
X135000000Y-83000000D01*
X135000000Y-83000000D02*
X135000000Y-69000000D01*
X135000000Y-69000000D02*
X121000000Y-69000000D01*
G04 #@! TO.C,SW6*
X140000000Y-69000000D02*
X140000000Y-83000000D01*
X140000000Y-83000000D02*
X154000000Y-83000000D01*
X154000000Y-83000000D02*
X154000000Y-69000000D01*
X154000000Y-69000000D02*
X140000000Y-69000000D01*
G04 #@! TO.C,SW7*
X159000000Y-69000000D02*
X159000000Y-83000000D01*
X159000000Y-83000000D02*
X173000000Y-83000000D01*
X173000000Y-83000000D02*
X173000000Y-69000000D01*
X173000000Y-69000000D02*
X159000000Y-69000000D01*
G04 #@! TO.C,SW8*
X178000000Y-69000000D02*
X178000000Y-83000000D01*
X178000000Y-83000000D02*
X192000000Y-83000000D01*
X192000000Y-83000000D02*
X192000000Y-69000000D01*
X192000000Y-69000000D02*
X178000000Y-69000000D01*
G04 #@! TO.C,R1*
D12*
X127898400Y-103775771D02*
X127695200Y-103485485D01*
X127550057Y-103775771D02*
X127550057Y-103166171D01*
X127782285Y-103166171D01*
X127840342Y-103195200D01*
X127869371Y-103224228D01*
X127898400Y-103282285D01*
X127898400Y-103369371D01*
X127869371Y-103427428D01*
X127840342Y-103456457D01*
X127782285Y-103485485D01*
X127550057Y-103485485D01*
X128478971Y-103775771D02*
X128130628Y-103775771D01*
X128304800Y-103775771D02*
X128304800Y-103166171D01*
X128246742Y-103253257D01*
X128188685Y-103311314D01*
X128130628Y-103340342D01*
G04 #@! TO.C,R2*
X146898400Y-103775771D02*
X146695200Y-103485485D01*
X146550057Y-103775771D02*
X146550057Y-103166171D01*
X146782285Y-103166171D01*
X146840342Y-103195200D01*
X146869371Y-103224228D01*
X146898400Y-103282285D01*
X146898400Y-103369371D01*
X146869371Y-103427428D01*
X146840342Y-103456457D01*
X146782285Y-103485485D01*
X146550057Y-103485485D01*
X147130628Y-103224228D02*
X147159657Y-103195200D01*
X147217714Y-103166171D01*
X147362857Y-103166171D01*
X147420914Y-103195200D01*
X147449942Y-103224228D01*
X147478971Y-103282285D01*
X147478971Y-103340342D01*
X147449942Y-103427428D01*
X147101600Y-103775771D01*
X147478971Y-103775771D01*
G04 #@! TO.C,R3*
X165898400Y-103775771D02*
X165695200Y-103485485D01*
X165550057Y-103775771D02*
X165550057Y-103166171D01*
X165782285Y-103166171D01*
X165840342Y-103195200D01*
X165869371Y-103224228D01*
X165898400Y-103282285D01*
X165898400Y-103369371D01*
X165869371Y-103427428D01*
X165840342Y-103456457D01*
X165782285Y-103485485D01*
X165550057Y-103485485D01*
X166101600Y-103166171D02*
X166478971Y-103166171D01*
X166275771Y-103398400D01*
X166362857Y-103398400D01*
X166420914Y-103427428D01*
X166449942Y-103456457D01*
X166478971Y-103514514D01*
X166478971Y-103659657D01*
X166449942Y-103717714D01*
X166420914Y-103746742D01*
X166362857Y-103775771D01*
X166188685Y-103775771D01*
X166130628Y-103746742D01*
X166101600Y-103717714D01*
G04 #@! TO.C,R4*
X184898400Y-103775771D02*
X184695200Y-103485485D01*
X184550057Y-103775771D02*
X184550057Y-103166171D01*
X184782285Y-103166171D01*
X184840342Y-103195200D01*
X184869371Y-103224228D01*
X184898400Y-103282285D01*
X184898400Y-103369371D01*
X184869371Y-103427428D01*
X184840342Y-103456457D01*
X184782285Y-103485485D01*
X184550057Y-103485485D01*
X185420914Y-103369371D02*
X185420914Y-103775771D01*
X185275771Y-103137142D02*
X185130628Y-103572571D01*
X185508000Y-103572571D01*
G04 #@! TO.C,R5*
X127898400Y-84775771D02*
X127695200Y-84485485D01*
X127550057Y-84775771D02*
X127550057Y-84166171D01*
X127782285Y-84166171D01*
X127840342Y-84195200D01*
X127869371Y-84224228D01*
X127898400Y-84282285D01*
X127898400Y-84369371D01*
X127869371Y-84427428D01*
X127840342Y-84456457D01*
X127782285Y-84485485D01*
X127550057Y-84485485D01*
X128449942Y-84166171D02*
X128159657Y-84166171D01*
X128130628Y-84456457D01*
X128159657Y-84427428D01*
X128217714Y-84398400D01*
X128362857Y-84398400D01*
X128420914Y-84427428D01*
X128449942Y-84456457D01*
X128478971Y-84514514D01*
X128478971Y-84659657D01*
X128449942Y-84717714D01*
X128420914Y-84746742D01*
X128362857Y-84775771D01*
X128217714Y-84775771D01*
X128159657Y-84746742D01*
X128130628Y-84717714D01*
G04 #@! TO.C,R6*
X146898400Y-84775771D02*
X146695200Y-84485485D01*
X146550057Y-84775771D02*
X146550057Y-84166171D01*
X146782285Y-84166171D01*
X146840342Y-84195200D01*
X146869371Y-84224228D01*
X146898400Y-84282285D01*
X146898400Y-84369371D01*
X146869371Y-84427428D01*
X146840342Y-84456457D01*
X146782285Y-84485485D01*
X146550057Y-84485485D01*
X147420914Y-84166171D02*
X147304800Y-84166171D01*
X147246742Y-84195200D01*
X147217714Y-84224228D01*
X147159657Y-84311314D01*
X147130628Y-84427428D01*
X147130628Y-84659657D01*
X147159657Y-84717714D01*
X147188685Y-84746742D01*
X147246742Y-84775771D01*
X147362857Y-84775771D01*
X147420914Y-84746742D01*
X147449942Y-84717714D01*
X147478971Y-84659657D01*
X147478971Y-84514514D01*
X147449942Y-84456457D01*
X147420914Y-84427428D01*
X147362857Y-84398400D01*
X147246742Y-84398400D01*
X147188685Y-84427428D01*
X147159657Y-84456457D01*
X147130628Y-84514514D01*
G04 #@! TO.C,R7*
X165898400Y-84775771D02*
X165695200Y-84485485D01*
X165550057Y-84775771D02*
X165550057Y-84166171D01*
X165782285Y-84166171D01*
X165840342Y-84195200D01*
X165869371Y-84224228D01*
X165898400Y-84282285D01*
X165898400Y-84369371D01*
X165869371Y-84427428D01*
X165840342Y-84456457D01*
X165782285Y-84485485D01*
X165550057Y-84485485D01*
X166101600Y-84166171D02*
X166508000Y-84166171D01*
X166246742Y-84775771D01*
G04 #@! TO.C,R8*
X184898400Y-84775771D02*
X184695200Y-84485485D01*
X184550057Y-84775771D02*
X184550057Y-84166171D01*
X184782285Y-84166171D01*
X184840342Y-84195200D01*
X184869371Y-84224228D01*
X184898400Y-84282285D01*
X184898400Y-84369371D01*
X184869371Y-84427428D01*
X184840342Y-84456457D01*
X184782285Y-84485485D01*
X184550057Y-84485485D01*
X185246742Y-84427428D02*
X185188685Y-84398400D01*
X185159657Y-84369371D01*
X185130628Y-84311314D01*
X185130628Y-84282285D01*
X185159657Y-84224228D01*
X185188685Y-84195200D01*
X185246742Y-84166171D01*
X185362857Y-84166171D01*
X185420914Y-84195200D01*
X185449942Y-84224228D01*
X185478971Y-84282285D01*
X185478971Y-84311314D01*
X185449942Y-84369371D01*
X185420914Y-84398400D01*
X185362857Y-84427428D01*
X185246742Y-84427428D01*
X185188685Y-84456457D01*
X185159657Y-84485485D01*
X185130628Y-84543542D01*
X185130628Y-84659657D01*
X185159657Y-84717714D01*
X185188685Y-84746742D01*
X185246742Y-84775771D01*
X185362857Y-84775771D01*
X185420914Y-84746742D01*
X185449942Y-84717714D01*
X185478971Y-84659657D01*
X185478971Y-84543542D01*
X185449942Y-84485485D01*
X185420914Y-84456457D01*
X185362857Y-84427428D01*
G04 #@! TO.C,SW1*
D11*
X121856666Y-89939761D02*
X121999523Y-89987380D01*
X122237619Y-89987380D01*
X122332857Y-89939761D01*
X122380476Y-89892142D01*
X122428095Y-89796904D01*
X122428095Y-89701666D01*
X122380476Y-89606428D01*
X122332857Y-89558809D01*
X122237619Y-89511190D01*
X122047142Y-89463571D01*
X121951904Y-89415952D01*
X121904285Y-89368333D01*
X121856666Y-89273095D01*
X121856666Y-89177857D01*
X121904285Y-89082619D01*
X121951904Y-89035000D01*
X122047142Y-88987380D01*
X122285238Y-88987380D01*
X122428095Y-89035000D01*
X122761428Y-88987380D02*
X122999523Y-89987380D01*
X123190000Y-89273095D01*
X123380476Y-89987380D01*
X123618571Y-88987380D01*
X124523333Y-89987380D02*
X123951904Y-89987380D01*
X124237619Y-89987380D02*
X124237619Y-88987380D01*
X124142380Y-89130238D01*
X124047142Y-89225476D01*
X123951904Y-89273095D01*
G04 #@! TO.C,SW2*
X140906666Y-89939761D02*
X141049523Y-89987380D01*
X141287619Y-89987380D01*
X141382857Y-89939761D01*
X141430476Y-89892142D01*
X141478095Y-89796904D01*
X141478095Y-89701666D01*
X141430476Y-89606428D01*
X141382857Y-89558809D01*
X141287619Y-89511190D01*
X141097142Y-89463571D01*
X141001904Y-89415952D01*
X140954285Y-89368333D01*
X140906666Y-89273095D01*
X140906666Y-89177857D01*
X140954285Y-89082619D01*
X141001904Y-89035000D01*
X141097142Y-88987380D01*
X141335238Y-88987380D01*
X141478095Y-89035000D01*
X141811428Y-88987380D02*
X142049523Y-89987380D01*
X142240000Y-89273095D01*
X142430476Y-89987380D01*
X142668571Y-88987380D01*
X143001904Y-89082619D02*
X143049523Y-89035000D01*
X143144761Y-88987380D01*
X143382857Y-88987380D01*
X143478095Y-89035000D01*
X143525714Y-89082619D01*
X143573333Y-89177857D01*
X143573333Y-89273095D01*
X143525714Y-89415952D01*
X142954285Y-89987380D01*
X143573333Y-89987380D01*
G04 #@! TO.C,SW3*
X159956666Y-89939761D02*
X160099523Y-89987380D01*
X160337619Y-89987380D01*
X160432857Y-89939761D01*
X160480476Y-89892142D01*
X160528095Y-89796904D01*
X160528095Y-89701666D01*
X160480476Y-89606428D01*
X160432857Y-89558809D01*
X160337619Y-89511190D01*
X160147142Y-89463571D01*
X160051904Y-89415952D01*
X160004285Y-89368333D01*
X159956666Y-89273095D01*
X159956666Y-89177857D01*
X160004285Y-89082619D01*
X160051904Y-89035000D01*
X160147142Y-88987380D01*
X160385238Y-88987380D01*
X160528095Y-89035000D01*
X160861428Y-88987380D02*
X161099523Y-89987380D01*
X161290000Y-89273095D01*
X161480476Y-89987380D01*
X161718571Y-88987380D01*
X162004285Y-88987380D02*
X162623333Y-88987380D01*
X162290000Y-89368333D01*
X162432857Y-89368333D01*
X162528095Y-89415952D01*
X162575714Y-89463571D01*
X162623333Y-89558809D01*
X162623333Y-89796904D01*
X162575714Y-89892142D01*
X162528095Y-89939761D01*
X162432857Y-89987380D01*
X162147142Y-89987380D01*
X162051904Y-89939761D01*
X162004285Y-89892142D01*
G04 #@! TO.C,SW4*
X179006666Y-89939761D02*
X179149523Y-89987380D01*
X179387619Y-89987380D01*
X179482857Y-89939761D01*
X179530476Y-89892142D01*
X179578095Y-89796904D01*
X179578095Y-89701666D01*
X179530476Y-89606428D01*
X179482857Y-89558809D01*
X179387619Y-89511190D01*
X179197142Y-89463571D01*
X179101904Y-89415952D01*
X179054285Y-89368333D01*
X179006666Y-89273095D01*
X179006666Y-89177857D01*
X179054285Y-89082619D01*
X179101904Y-89035000D01*
X179197142Y-88987380D01*
X179435238Y-88987380D01*
X179578095Y-89035000D01*
X179911428Y-88987380D02*
X180149523Y-89987380D01*
X180340000Y-89273095D01*
X180530476Y-89987380D01*
X180768571Y-88987380D01*
X181578095Y-89320714D02*
X181578095Y-89987380D01*
X181340000Y-88939761D02*
X181101904Y-89654047D01*
X181720952Y-89654047D01*
G04 #@! TO.C,SW5*
X121856666Y-70889761D02*
X121999523Y-70937380D01*
X122237619Y-70937380D01*
X122332857Y-70889761D01*
X122380476Y-70842142D01*
X122428095Y-70746904D01*
X122428095Y-70651666D01*
X122380476Y-70556428D01*
X122332857Y-70508809D01*
X122237619Y-70461190D01*
X122047142Y-70413571D01*
X121951904Y-70365952D01*
X121904285Y-70318333D01*
X121856666Y-70223095D01*
X121856666Y-70127857D01*
X121904285Y-70032619D01*
X121951904Y-69985000D01*
X122047142Y-69937380D01*
X122285238Y-69937380D01*
X122428095Y-69985000D01*
X122761428Y-69937380D02*
X122999523Y-70937380D01*
X123190000Y-70223095D01*
X123380476Y-70937380D01*
X123618571Y-69937380D01*
X124475714Y-69937380D02*
X123999523Y-69937380D01*
X123951904Y-70413571D01*
X123999523Y-70365952D01*
X124094761Y-70318333D01*
X124332857Y-70318333D01*
X124428095Y-70365952D01*
X124475714Y-70413571D01*
X124523333Y-70508809D01*
X124523333Y-70746904D01*
X124475714Y-70842142D01*
X124428095Y-70889761D01*
X124332857Y-70937380D01*
X124094761Y-70937380D01*
X123999523Y-70889761D01*
X123951904Y-70842142D01*
G04 #@! TO.C,SW6*
X140906666Y-70889761D02*
X141049523Y-70937380D01*
X141287619Y-70937380D01*
X141382857Y-70889761D01*
X141430476Y-70842142D01*
X141478095Y-70746904D01*
X141478095Y-70651666D01*
X141430476Y-70556428D01*
X141382857Y-70508809D01*
X141287619Y-70461190D01*
X141097142Y-70413571D01*
X141001904Y-70365952D01*
X140954285Y-70318333D01*
X140906666Y-70223095D01*
X140906666Y-70127857D01*
X140954285Y-70032619D01*
X141001904Y-69985000D01*
X141097142Y-69937380D01*
X141335238Y-69937380D01*
X141478095Y-69985000D01*
X141811428Y-69937380D02*
X142049523Y-70937380D01*
X142240000Y-70223095D01*
X142430476Y-70937380D01*
X142668571Y-69937380D01*
X143478095Y-69937380D02*
X143287619Y-69937380D01*
X143192380Y-69985000D01*
X143144761Y-70032619D01*
X143049523Y-70175476D01*
X143001904Y-70365952D01*
X143001904Y-70746904D01*
X143049523Y-70842142D01*
X143097142Y-70889761D01*
X143192380Y-70937380D01*
X143382857Y-70937380D01*
X143478095Y-70889761D01*
X143525714Y-70842142D01*
X143573333Y-70746904D01*
X143573333Y-70508809D01*
X143525714Y-70413571D01*
X143478095Y-70365952D01*
X143382857Y-70318333D01*
X143192380Y-70318333D01*
X143097142Y-70365952D01*
X143049523Y-70413571D01*
X143001904Y-70508809D01*
G04 #@! TO.C,SW7*
X159956666Y-70889761D02*
X160099523Y-70937380D01*
X160337619Y-70937380D01*
X160432857Y-70889761D01*
X160480476Y-70842142D01*
X160528095Y-70746904D01*
X160528095Y-70651666D01*
X160480476Y-70556428D01*
X160432857Y-70508809D01*
X160337619Y-70461190D01*
X160147142Y-70413571D01*
X160051904Y-70365952D01*
X160004285Y-70318333D01*
X159956666Y-70223095D01*
X159956666Y-70127857D01*
X160004285Y-70032619D01*
X160051904Y-69985000D01*
X160147142Y-69937380D01*
X160385238Y-69937380D01*
X160528095Y-69985000D01*
X160861428Y-69937380D02*
X161099523Y-70937380D01*
X161290000Y-70223095D01*
X161480476Y-70937380D01*
X161718571Y-69937380D01*
X162004285Y-69937380D02*
X162670952Y-69937380D01*
X162242380Y-70937380D01*
G04 #@! TO.C,SW8*
X179006666Y-70889761D02*
X179149523Y-70937380D01*
X179387619Y-70937380D01*
X179482857Y-70889761D01*
X179530476Y-70842142D01*
X179578095Y-70746904D01*
X179578095Y-70651666D01*
X179530476Y-70556428D01*
X179482857Y-70508809D01*
X179387619Y-70461190D01*
X179197142Y-70413571D01*
X179101904Y-70365952D01*
X179054285Y-70318333D01*
X179006666Y-70223095D01*
X179006666Y-70127857D01*
X179054285Y-70032619D01*
X179101904Y-69985000D01*
X179197142Y-69937380D01*
X179435238Y-69937380D01*
X179578095Y-69985000D01*
X179911428Y-69937380D02*
X180149523Y-70937380D01*
X180340000Y-70223095D01*
X180530476Y-70937380D01*
X180768571Y-69937380D01*
X181292380Y-70365952D02*
X181197142Y-70318333D01*
X181149523Y-70270714D01*
X181101904Y-70175476D01*
X181101904Y-70127857D01*
X181149523Y-70032619D01*
X181197142Y-69985000D01*
X181292380Y-69937380D01*
X181482857Y-69937380D01*
X181578095Y-69985000D01*
X181625714Y-70032619D01*
X181673333Y-70127857D01*
X181673333Y-70175476D01*
X181625714Y-70270714D01*
X181578095Y-70318333D01*
X181482857Y-70365952D01*
X181292380Y-70365952D01*
X181197142Y-70413571D01*
X181149523Y-70461190D01*
X181101904Y-70556428D01*
X181101904Y-70746904D01*
X181149523Y-70842142D01*
X181197142Y-70889761D01*
X181292380Y-70937380D01*
X181482857Y-70937380D01*
X181578095Y-70889761D01*
X181625714Y-70842142D01*
X181673333Y-70746904D01*
X181673333Y-70556428D01*
X181625714Y-70461190D01*
X181578095Y-70413571D01*
X181482857Y-70365952D01*
G04 #@! TD*
M02*
