G04 #@! TF.GenerationSoftware,KiCad,Pcbnew,5.0.2-bee76a0~70~ubuntu18.04.1*
G04 #@! TF.CreationDate,2019-02-02T15:30:55-05:00*
G04 #@! TF.ProjectId,8keyv2,386b6579-7632-42e6-9b69-6361645f7063,rev?*
G04 #@! TF.SameCoordinates,Original*
G04 #@! TF.FileFunction,Copper,L1,Top*
G04 #@! TF.FilePolarity,Positive*
%FSLAX46Y46*%
G04 Gerber Fmt 4.6, Leading zero omitted, Abs format (unit mm)*
G04 Created by KiCad (PCBNEW 5.0.2-bee76a0~70~ubuntu18.04.1) date Sat 02 Feb 2019 03:30:55 PM EST*
%MOMM*%
%LPD*%
G01*
G04 APERTURE LIST*
%ADD10C,0.100000*%
%ADD11C,0.150000*%
%ADD12C,0.300000*%
%ADD13C,0.400000*%
G04 #@! TA.AperFunction,ComponentPad*
%ADD14C,1.879600*%
G04 #@! TD*
G04 #@! TA.AperFunction,ComponentPad*
%ADD15C,2.540000*%
G04 #@! TD*
G04 #@! TA.AperFunction,ComponentPad*
%ADD16R,2.032000X2.032000*%
G04 #@! TD*
G04 #@! TA.AperFunction,ComponentPad*
%ADD17C,2.032000*%
G04 #@! TD*
G04 #@! TA.AperFunction,ViaPad*
%ADD18C,0.508000*%
G04 #@! TD*
G04 #@! TA.AperFunction,Conductor*
%ADD19C,0.152400*%
G04 #@! TD*
G04 #@! TA.AperFunction,Conductor*
%ADD20C,0.254000*%
G04 #@! TD*
G04 APERTURE END LIST*
D10*
D11*
X177002200Y-166007200D02*
X177002200Y-198007200D01*
X285002200Y-198007200D01*
X285002200Y-166007200D01*
X177002200Y-166007200D01*
D10*
D11*
X10000000Y-10000000D02*
X10000000Y-200007200D01*
X287002200Y-200007200D01*
X287002200Y-10000000D01*
X10000000Y-10000000D01*
D10*
D11*
X12000000Y-12000000D02*
X12000000Y-198007200D01*
X285002200Y-198007200D01*
X285002200Y-12000000D01*
X12000000Y-12000000D01*
D10*
D11*
X60000000Y-12000000D02*
X60000000Y-10000000D01*
D10*
D11*
X110000000Y-12000000D02*
X110000000Y-10000000D01*
D10*
D11*
X160000000Y-12000000D02*
X160000000Y-10000000D01*
D10*
D11*
X210000000Y-12000000D02*
X210000000Y-10000000D01*
D10*
D11*
X260000000Y-12000000D02*
X260000000Y-10000000D01*
D10*
D11*
X36065476Y-11588095D02*
X35322619Y-11588095D01*
X35694047Y-11588095D02*
X35694047Y-10288095D01*
X35570238Y-10473809D01*
X35446428Y-10597619D01*
X35322619Y-10659523D01*
D10*
D11*
X85322619Y-10411904D02*
X85384523Y-10350000D01*
X85508333Y-10288095D01*
X85817857Y-10288095D01*
X85941666Y-10350000D01*
X86003571Y-10411904D01*
X86065476Y-10535714D01*
X86065476Y-10659523D01*
X86003571Y-10845238D01*
X85260714Y-11588095D01*
X86065476Y-11588095D01*
D10*
D11*
X135260714Y-10288095D02*
X136065476Y-10288095D01*
X135632142Y-10783333D01*
X135817857Y-10783333D01*
X135941666Y-10845238D01*
X136003571Y-10907142D01*
X136065476Y-11030952D01*
X136065476Y-11340476D01*
X136003571Y-11464285D01*
X135941666Y-11526190D01*
X135817857Y-11588095D01*
X135446428Y-11588095D01*
X135322619Y-11526190D01*
X135260714Y-11464285D01*
D10*
D11*
X185941666Y-10721428D02*
X185941666Y-11588095D01*
X185632142Y-10226190D02*
X185322619Y-11154761D01*
X186127380Y-11154761D01*
D10*
D11*
X236003571Y-10288095D02*
X235384523Y-10288095D01*
X235322619Y-10907142D01*
X235384523Y-10845238D01*
X235508333Y-10783333D01*
X235817857Y-10783333D01*
X235941666Y-10845238D01*
X236003571Y-10907142D01*
X236065476Y-11030952D01*
X236065476Y-11340476D01*
X236003571Y-11464285D01*
X235941666Y-11526190D01*
X235817857Y-11588095D01*
X235508333Y-11588095D01*
X235384523Y-11526190D01*
X235322619Y-11464285D01*
D10*
D11*
X285941666Y-10288095D02*
X285694047Y-10288095D01*
X285570238Y-10350000D01*
X285508333Y-10411904D01*
X285384523Y-10597619D01*
X285322619Y-10845238D01*
X285322619Y-11340476D01*
X285384523Y-11464285D01*
X285446428Y-11526190D01*
X285570238Y-11588095D01*
X285817857Y-11588095D01*
X285941666Y-11526190D01*
X286003571Y-11464285D01*
X286065476Y-11340476D01*
X286065476Y-11030952D01*
X286003571Y-10907142D01*
X285941666Y-10845238D01*
X285817857Y-10783333D01*
X285570238Y-10783333D01*
X285446428Y-10845238D01*
X285384523Y-10907142D01*
X285322619Y-11030952D01*
D10*
D11*
X60000000Y-198007200D02*
X60000000Y-200007200D01*
D10*
D11*
X110000000Y-198007200D02*
X110000000Y-200007200D01*
D10*
D11*
X160000000Y-198007200D02*
X160000000Y-200007200D01*
D10*
D11*
X210000000Y-198007200D02*
X210000000Y-200007200D01*
D10*
D11*
X260000000Y-198007200D02*
X260000000Y-200007200D01*
D10*
D11*
X36065476Y-199595295D02*
X35322619Y-199595295D01*
X35694047Y-199595295D02*
X35694047Y-198295295D01*
X35570238Y-198481009D01*
X35446428Y-198604819D01*
X35322619Y-198666723D01*
D10*
D11*
X85322619Y-198419104D02*
X85384523Y-198357200D01*
X85508333Y-198295295D01*
X85817857Y-198295295D01*
X85941666Y-198357200D01*
X86003571Y-198419104D01*
X86065476Y-198542914D01*
X86065476Y-198666723D01*
X86003571Y-198852438D01*
X85260714Y-199595295D01*
X86065476Y-199595295D01*
D10*
D11*
X135260714Y-198295295D02*
X136065476Y-198295295D01*
X135632142Y-198790533D01*
X135817857Y-198790533D01*
X135941666Y-198852438D01*
X136003571Y-198914342D01*
X136065476Y-199038152D01*
X136065476Y-199347676D01*
X136003571Y-199471485D01*
X135941666Y-199533390D01*
X135817857Y-199595295D01*
X135446428Y-199595295D01*
X135322619Y-199533390D01*
X135260714Y-199471485D01*
D10*
D11*
X185941666Y-198728628D02*
X185941666Y-199595295D01*
X185632142Y-198233390D02*
X185322619Y-199161961D01*
X186127380Y-199161961D01*
D10*
D11*
X236003571Y-198295295D02*
X235384523Y-198295295D01*
X235322619Y-198914342D01*
X235384523Y-198852438D01*
X235508333Y-198790533D01*
X235817857Y-198790533D01*
X235941666Y-198852438D01*
X236003571Y-198914342D01*
X236065476Y-199038152D01*
X236065476Y-199347676D01*
X236003571Y-199471485D01*
X235941666Y-199533390D01*
X235817857Y-199595295D01*
X235508333Y-199595295D01*
X235384523Y-199533390D01*
X235322619Y-199471485D01*
D10*
D11*
X285941666Y-198295295D02*
X285694047Y-198295295D01*
X285570238Y-198357200D01*
X285508333Y-198419104D01*
X285384523Y-198604819D01*
X285322619Y-198852438D01*
X285322619Y-199347676D01*
X285384523Y-199471485D01*
X285446428Y-199533390D01*
X285570238Y-199595295D01*
X285817857Y-199595295D01*
X285941666Y-199533390D01*
X286003571Y-199471485D01*
X286065476Y-199347676D01*
X286065476Y-199038152D01*
X286003571Y-198914342D01*
X285941666Y-198852438D01*
X285817857Y-198790533D01*
X285570238Y-198790533D01*
X285446428Y-198852438D01*
X285384523Y-198914342D01*
X285322619Y-199038152D01*
D10*
D11*
X10000000Y-60000000D02*
X12000000Y-60000000D01*
D10*
D11*
X10000000Y-110000000D02*
X12000000Y-110000000D01*
D10*
D11*
X10000000Y-160000000D02*
X12000000Y-160000000D01*
D10*
D11*
X10690476Y-35216666D02*
X11309523Y-35216666D01*
X10566666Y-35588095D02*
X11000000Y-34288095D01*
X11433333Y-35588095D01*
D10*
D11*
X11092857Y-84907142D02*
X11278571Y-84969047D01*
X11340476Y-85030952D01*
X11402380Y-85154761D01*
X11402380Y-85340476D01*
X11340476Y-85464285D01*
X11278571Y-85526190D01*
X11154761Y-85588095D01*
X10659523Y-85588095D01*
X10659523Y-84288095D01*
X11092857Y-84288095D01*
X11216666Y-84350000D01*
X11278571Y-84411904D01*
X11340476Y-84535714D01*
X11340476Y-84659523D01*
X11278571Y-84783333D01*
X11216666Y-84845238D01*
X11092857Y-84907142D01*
X10659523Y-84907142D01*
D10*
D11*
X11402380Y-135464285D02*
X11340476Y-135526190D01*
X11154761Y-135588095D01*
X11030952Y-135588095D01*
X10845238Y-135526190D01*
X10721428Y-135402380D01*
X10659523Y-135278571D01*
X10597619Y-135030952D01*
X10597619Y-134845238D01*
X10659523Y-134597619D01*
X10721428Y-134473809D01*
X10845238Y-134350000D01*
X11030952Y-134288095D01*
X11154761Y-134288095D01*
X11340476Y-134350000D01*
X11402380Y-134411904D01*
D10*
D11*
X10659523Y-185588095D02*
X10659523Y-184288095D01*
X10969047Y-184288095D01*
X11154761Y-184350000D01*
X11278571Y-184473809D01*
X11340476Y-184597619D01*
X11402380Y-184845238D01*
X11402380Y-185030952D01*
X11340476Y-185278571D01*
X11278571Y-185402380D01*
X11154761Y-185526190D01*
X10969047Y-185588095D01*
X10659523Y-185588095D01*
D10*
D11*
X287002200Y-60000000D02*
X285002200Y-60000000D01*
D10*
D11*
X287002200Y-110000000D02*
X285002200Y-110000000D01*
D10*
D11*
X287002200Y-160000000D02*
X285002200Y-160000000D01*
D10*
D11*
X285692676Y-35216666D02*
X286311723Y-35216666D01*
X285568866Y-35588095D02*
X286002200Y-34288095D01*
X286435533Y-35588095D01*
D10*
D11*
X286095057Y-84907142D02*
X286280771Y-84969047D01*
X286342676Y-85030952D01*
X286404580Y-85154761D01*
X286404580Y-85340476D01*
X286342676Y-85464285D01*
X286280771Y-85526190D01*
X286156961Y-85588095D01*
X285661723Y-85588095D01*
X285661723Y-84288095D01*
X286095057Y-84288095D01*
X286218866Y-84350000D01*
X286280771Y-84411904D01*
X286342676Y-84535714D01*
X286342676Y-84659523D01*
X286280771Y-84783333D01*
X286218866Y-84845238D01*
X286095057Y-84907142D01*
X285661723Y-84907142D01*
D10*
D11*
X286404580Y-135464285D02*
X286342676Y-135526190D01*
X286156961Y-135588095D01*
X286033152Y-135588095D01*
X285847438Y-135526190D01*
X285723628Y-135402380D01*
X285661723Y-135278571D01*
X285599819Y-135030952D01*
X285599819Y-134845238D01*
X285661723Y-134597619D01*
X285723628Y-134473809D01*
X285847438Y-134350000D01*
X286033152Y-134288095D01*
X286156961Y-134288095D01*
X286342676Y-134350000D01*
X286404580Y-134411904D01*
D10*
D11*
X285661723Y-185588095D02*
X285661723Y-184288095D01*
X285971247Y-184288095D01*
X286156961Y-184350000D01*
X286280771Y-184473809D01*
X286342676Y-184597619D01*
X286404580Y-184845238D01*
X286404580Y-185030952D01*
X286342676Y-185278571D01*
X286280771Y-185402380D01*
X286156961Y-185526190D01*
X285971247Y-185588095D01*
X285661723Y-185588095D01*
D10*
D11*
X200434342Y-193785771D02*
X200434342Y-192285771D01*
X200791485Y-192285771D01*
X201005771Y-192357200D01*
X201148628Y-192500057D01*
X201220057Y-192642914D01*
X201291485Y-192928628D01*
X201291485Y-193142914D01*
X201220057Y-193428628D01*
X201148628Y-193571485D01*
X201005771Y-193714342D01*
X200791485Y-193785771D01*
X200434342Y-193785771D01*
X202577200Y-193785771D02*
X202577200Y-193000057D01*
X202505771Y-192857200D01*
X202362914Y-192785771D01*
X202077200Y-192785771D01*
X201934342Y-192857200D01*
X202577200Y-193714342D02*
X202434342Y-193785771D01*
X202077200Y-193785771D01*
X201934342Y-193714342D01*
X201862914Y-193571485D01*
X201862914Y-193428628D01*
X201934342Y-193285771D01*
X202077200Y-193214342D01*
X202434342Y-193214342D01*
X202577200Y-193142914D01*
X203077200Y-192785771D02*
X203648628Y-192785771D01*
X203291485Y-192285771D02*
X203291485Y-193571485D01*
X203362914Y-193714342D01*
X203505771Y-193785771D01*
X203648628Y-193785771D01*
X204720057Y-193714342D02*
X204577200Y-193785771D01*
X204291485Y-193785771D01*
X204148628Y-193714342D01*
X204077200Y-193571485D01*
X204077200Y-193000057D01*
X204148628Y-192857200D01*
X204291485Y-192785771D01*
X204577200Y-192785771D01*
X204720057Y-192857200D01*
X204791485Y-193000057D01*
X204791485Y-193142914D01*
X204077200Y-193285771D01*
X205434342Y-193642914D02*
X205505771Y-193714342D01*
X205434342Y-193785771D01*
X205362914Y-193714342D01*
X205434342Y-193642914D01*
X205434342Y-193785771D01*
X205434342Y-192857200D02*
X205505771Y-192928628D01*
X205434342Y-193000057D01*
X205362914Y-192928628D01*
X205434342Y-192857200D01*
X205434342Y-193000057D01*
D10*
D11*
X177002200Y-194507200D02*
X285002200Y-194507200D01*
D10*
D11*
X178434342Y-196585771D02*
X178434342Y-195085771D01*
X179291485Y-196585771D02*
X178648628Y-195728628D01*
X179291485Y-195085771D02*
X178434342Y-195942914D01*
X179934342Y-196585771D02*
X179934342Y-195585771D01*
X179934342Y-195085771D02*
X179862914Y-195157200D01*
X179934342Y-195228628D01*
X180005771Y-195157200D01*
X179934342Y-195085771D01*
X179934342Y-195228628D01*
X181505771Y-196442914D02*
X181434342Y-196514342D01*
X181220057Y-196585771D01*
X181077200Y-196585771D01*
X180862914Y-196514342D01*
X180720057Y-196371485D01*
X180648628Y-196228628D01*
X180577200Y-195942914D01*
X180577200Y-195728628D01*
X180648628Y-195442914D01*
X180720057Y-195300057D01*
X180862914Y-195157200D01*
X181077200Y-195085771D01*
X181220057Y-195085771D01*
X181434342Y-195157200D01*
X181505771Y-195228628D01*
X182791485Y-196585771D02*
X182791485Y-195800057D01*
X182720057Y-195657200D01*
X182577200Y-195585771D01*
X182291485Y-195585771D01*
X182148628Y-195657200D01*
X182791485Y-196514342D02*
X182648628Y-196585771D01*
X182291485Y-196585771D01*
X182148628Y-196514342D01*
X182077200Y-196371485D01*
X182077200Y-196228628D01*
X182148628Y-196085771D01*
X182291485Y-196014342D01*
X182648628Y-196014342D01*
X182791485Y-195942914D01*
X184148628Y-196585771D02*
X184148628Y-195085771D01*
X184148628Y-196514342D02*
X184005771Y-196585771D01*
X183720057Y-196585771D01*
X183577200Y-196514342D01*
X183505771Y-196442914D01*
X183434342Y-196300057D01*
X183434342Y-195871485D01*
X183505771Y-195728628D01*
X183577200Y-195657200D01*
X183720057Y-195585771D01*
X184005771Y-195585771D01*
X184148628Y-195657200D01*
X186005771Y-195800057D02*
X186505771Y-195800057D01*
X186720057Y-196585771D02*
X186005771Y-196585771D01*
X186005771Y-195085771D01*
X186720057Y-195085771D01*
X187362914Y-196442914D02*
X187434342Y-196514342D01*
X187362914Y-196585771D01*
X187291485Y-196514342D01*
X187362914Y-196442914D01*
X187362914Y-196585771D01*
X188077200Y-196585771D02*
X188077200Y-195085771D01*
X188434342Y-195085771D01*
X188648628Y-195157200D01*
X188791485Y-195300057D01*
X188862914Y-195442914D01*
X188934342Y-195728628D01*
X188934342Y-195942914D01*
X188862914Y-196228628D01*
X188791485Y-196371485D01*
X188648628Y-196514342D01*
X188434342Y-196585771D01*
X188077200Y-196585771D01*
X189577200Y-196442914D02*
X189648628Y-196514342D01*
X189577200Y-196585771D01*
X189505771Y-196514342D01*
X189577200Y-196442914D01*
X189577200Y-196585771D01*
X190220057Y-196157200D02*
X190934342Y-196157200D01*
X190077200Y-196585771D02*
X190577200Y-195085771D01*
X191077200Y-196585771D01*
X191577200Y-196442914D02*
X191648628Y-196514342D01*
X191577200Y-196585771D01*
X191505771Y-196514342D01*
X191577200Y-196442914D01*
X191577200Y-196585771D01*
X194577200Y-195585771D02*
X194577200Y-197085771D01*
X194577200Y-195657200D02*
X194720057Y-195585771D01*
X195005771Y-195585771D01*
X195148628Y-195657200D01*
X195220057Y-195728628D01*
X195291485Y-195871485D01*
X195291485Y-196300057D01*
X195220057Y-196442914D01*
X195148628Y-196514342D01*
X195005771Y-196585771D01*
X194720057Y-196585771D01*
X194577200Y-196514342D01*
X196577200Y-196514342D02*
X196434342Y-196585771D01*
X196148628Y-196585771D01*
X196005771Y-196514342D01*
X195934342Y-196442914D01*
X195862914Y-196300057D01*
X195862914Y-195871485D01*
X195934342Y-195728628D01*
X196005771Y-195657200D01*
X196148628Y-195585771D01*
X196434342Y-195585771D01*
X196577200Y-195657200D01*
X197220057Y-196585771D02*
X197220057Y-195085771D01*
X197220057Y-195657200D02*
X197362914Y-195585771D01*
X197648628Y-195585771D01*
X197791485Y-195657200D01*
X197862914Y-195728628D01*
X197934342Y-195871485D01*
X197934342Y-196300057D01*
X197862914Y-196442914D01*
X197791485Y-196514342D01*
X197648628Y-196585771D01*
X197362914Y-196585771D01*
X197220057Y-196514342D01*
X198577200Y-195585771D02*
X198577200Y-196585771D01*
X198577200Y-195728628D02*
X198648628Y-195657200D01*
X198791485Y-195585771D01*
X199005771Y-195585771D01*
X199148628Y-195657200D01*
X199220057Y-195800057D01*
X199220057Y-196585771D01*
X200505771Y-196514342D02*
X200362914Y-196585771D01*
X200077200Y-196585771D01*
X199934342Y-196514342D01*
X199862914Y-196371485D01*
X199862914Y-195800057D01*
X199934342Y-195657200D01*
X200077200Y-195585771D01*
X200362914Y-195585771D01*
X200505771Y-195657200D01*
X200577200Y-195800057D01*
X200577200Y-195942914D01*
X199862914Y-196085771D01*
X201077200Y-195585771D02*
X201362914Y-196585771D01*
X201648628Y-195871485D01*
X201934342Y-196585771D01*
X202220057Y-195585771D01*
X204648628Y-195085771D02*
X203934342Y-195085771D01*
X203862914Y-195800057D01*
X203934342Y-195728628D01*
X204077200Y-195657200D01*
X204434342Y-195657200D01*
X204577200Y-195728628D01*
X204648628Y-195800057D01*
X204720057Y-195942914D01*
X204720057Y-196300057D01*
X204648628Y-196442914D01*
X204577200Y-196514342D01*
X204434342Y-196585771D01*
X204077200Y-196585771D01*
X203934342Y-196514342D01*
X203862914Y-196442914D01*
X205362914Y-196442914D02*
X205434342Y-196514342D01*
X205362914Y-196585771D01*
X205291485Y-196514342D01*
X205362914Y-196442914D01*
X205362914Y-196585771D01*
X206362914Y-195085771D02*
X206505771Y-195085771D01*
X206648628Y-195157200D01*
X206720057Y-195228628D01*
X206791485Y-195371485D01*
X206862914Y-195657200D01*
X206862914Y-196014342D01*
X206791485Y-196300057D01*
X206720057Y-196442914D01*
X206648628Y-196514342D01*
X206505771Y-196585771D01*
X206362914Y-196585771D01*
X206220057Y-196514342D01*
X206148628Y-196442914D01*
X206077200Y-196300057D01*
X206005771Y-196014342D01*
X206005771Y-195657200D01*
X206077200Y-195371485D01*
X206148628Y-195228628D01*
X206220057Y-195157200D01*
X206362914Y-195085771D01*
X207505771Y-196442914D02*
X207577200Y-196514342D01*
X207505771Y-196585771D01*
X207434342Y-196514342D01*
X207505771Y-196442914D01*
X207505771Y-196585771D01*
X208148628Y-195228628D02*
X208220057Y-195157200D01*
X208362914Y-195085771D01*
X208720057Y-195085771D01*
X208862914Y-195157200D01*
X208934342Y-195228628D01*
X209005771Y-195371485D01*
X209005771Y-195514342D01*
X208934342Y-195728628D01*
X208077200Y-196585771D01*
X209005771Y-196585771D01*
X209648628Y-196014342D02*
X210791485Y-196014342D01*
X211505771Y-196585771D02*
X211505771Y-195085771D01*
X211505771Y-195657200D02*
X211648628Y-195585771D01*
X211934342Y-195585771D01*
X212077200Y-195657200D01*
X212148628Y-195728628D01*
X212220057Y-195871485D01*
X212220057Y-196300057D01*
X212148628Y-196442914D01*
X212077200Y-196514342D01*
X211934342Y-196585771D01*
X211648628Y-196585771D01*
X211505771Y-196514342D01*
X213434342Y-196514342D02*
X213291485Y-196585771D01*
X213005771Y-196585771D01*
X212862914Y-196514342D01*
X212791485Y-196371485D01*
X212791485Y-195800057D01*
X212862914Y-195657200D01*
X213005771Y-195585771D01*
X213291485Y-195585771D01*
X213434342Y-195657200D01*
X213505771Y-195800057D01*
X213505771Y-195942914D01*
X212791485Y-196085771D01*
X214720057Y-196514342D02*
X214577200Y-196585771D01*
X214291485Y-196585771D01*
X214148628Y-196514342D01*
X214077200Y-196371485D01*
X214077200Y-195800057D01*
X214148628Y-195657200D01*
X214291485Y-195585771D01*
X214577200Y-195585771D01*
X214720057Y-195657200D01*
X214791485Y-195800057D01*
X214791485Y-195942914D01*
X214077200Y-196085771D01*
X215291485Y-195085771D02*
X216291485Y-195085771D01*
X215648628Y-196585771D01*
X217505771Y-195085771D02*
X217220057Y-195085771D01*
X217077200Y-195157200D01*
X217005771Y-195228628D01*
X216862914Y-195442914D01*
X216791485Y-195728628D01*
X216791485Y-196300057D01*
X216862914Y-196442914D01*
X216934342Y-196514342D01*
X217077200Y-196585771D01*
X217362914Y-196585771D01*
X217505771Y-196514342D01*
X217577200Y-196442914D01*
X217648628Y-196300057D01*
X217648628Y-195942914D01*
X217577200Y-195800057D01*
X217505771Y-195728628D01*
X217362914Y-195657200D01*
X217077200Y-195657200D01*
X216934342Y-195728628D01*
X216862914Y-195800057D01*
X216791485Y-195942914D01*
X218934342Y-196585771D02*
X218934342Y-195800057D01*
X218862914Y-195657200D01*
X218720057Y-195585771D01*
X218434342Y-195585771D01*
X218291485Y-195657200D01*
X218934342Y-196514342D02*
X218791485Y-196585771D01*
X218434342Y-196585771D01*
X218291485Y-196514342D01*
X218220057Y-196371485D01*
X218220057Y-196228628D01*
X218291485Y-196085771D01*
X218434342Y-196014342D01*
X218791485Y-196014342D01*
X218934342Y-195942914D01*
X219934342Y-195085771D02*
X220077200Y-195085771D01*
X220220057Y-195157200D01*
X220291485Y-195228628D01*
X220362914Y-195371485D01*
X220434342Y-195657200D01*
X220434342Y-196014342D01*
X220362914Y-196300057D01*
X220291485Y-196442914D01*
X220220057Y-196514342D01*
X220077200Y-196585771D01*
X219934342Y-196585771D01*
X219791485Y-196514342D01*
X219720057Y-196442914D01*
X219648628Y-196300057D01*
X219577200Y-196014342D01*
X219577200Y-195657200D01*
X219648628Y-195371485D01*
X219720057Y-195228628D01*
X219791485Y-195157200D01*
X219934342Y-195085771D01*
X220720057Y-194677200D02*
X222148628Y-194677200D01*
X220934342Y-195085771D02*
X221934342Y-195085771D01*
X221291485Y-196585771D01*
X222148628Y-194677200D02*
X223577200Y-194677200D01*
X222791485Y-195085771D02*
X222934342Y-195085771D01*
X223077200Y-195157200D01*
X223148628Y-195228628D01*
X223220057Y-195371485D01*
X223291485Y-195657200D01*
X223291485Y-196014342D01*
X223220057Y-196300057D01*
X223148628Y-196442914D01*
X223077200Y-196514342D01*
X222934342Y-196585771D01*
X222791485Y-196585771D01*
X222648628Y-196514342D01*
X222577200Y-196442914D01*
X222505771Y-196300057D01*
X222434342Y-196014342D01*
X222434342Y-195657200D01*
X222505771Y-195371485D01*
X222577200Y-195228628D01*
X222648628Y-195157200D01*
X222791485Y-195085771D01*
X224577200Y-195585771D02*
X224577200Y-196585771D01*
X223934342Y-195585771D02*
X223934342Y-196371485D01*
X224005771Y-196514342D01*
X224148628Y-196585771D01*
X224362914Y-196585771D01*
X224505771Y-196514342D01*
X224577200Y-196442914D01*
X225291485Y-196585771D02*
X225291485Y-195085771D01*
X225291485Y-195657200D02*
X225434342Y-195585771D01*
X225720057Y-195585771D01*
X225862914Y-195657200D01*
X225934342Y-195728628D01*
X226005771Y-195871485D01*
X226005771Y-196300057D01*
X225934342Y-196442914D01*
X225862914Y-196514342D01*
X225720057Y-196585771D01*
X225434342Y-196585771D01*
X225291485Y-196514342D01*
X227291485Y-195585771D02*
X227291485Y-196585771D01*
X226648628Y-195585771D02*
X226648628Y-196371485D01*
X226720057Y-196514342D01*
X226862914Y-196585771D01*
X227077200Y-196585771D01*
X227220057Y-196514342D01*
X227291485Y-196442914D01*
X228005771Y-195585771D02*
X228005771Y-196585771D01*
X228005771Y-195728628D02*
X228077200Y-195657200D01*
X228220057Y-195585771D01*
X228434342Y-195585771D01*
X228577200Y-195657200D01*
X228648628Y-195800057D01*
X228648628Y-196585771D01*
X229148628Y-195585771D02*
X229720057Y-195585771D01*
X229362914Y-195085771D02*
X229362914Y-196371485D01*
X229434342Y-196514342D01*
X229577200Y-196585771D01*
X229720057Y-196585771D01*
X230862914Y-195585771D02*
X230862914Y-196585771D01*
X230220057Y-195585771D02*
X230220057Y-196371485D01*
X230291485Y-196514342D01*
X230434342Y-196585771D01*
X230648628Y-196585771D01*
X230791485Y-196514342D01*
X230862914Y-196442914D01*
X232362914Y-196585771D02*
X231505771Y-196585771D01*
X231934342Y-196585771D02*
X231934342Y-195085771D01*
X231791485Y-195300057D01*
X231648628Y-195442914D01*
X231505771Y-195514342D01*
X233220057Y-195728628D02*
X233077200Y-195657200D01*
X233005771Y-195585771D01*
X232934342Y-195442914D01*
X232934342Y-195371485D01*
X233005771Y-195228628D01*
X233077200Y-195157200D01*
X233220057Y-195085771D01*
X233505771Y-195085771D01*
X233648628Y-195157200D01*
X233720057Y-195228628D01*
X233791485Y-195371485D01*
X233791485Y-195442914D01*
X233720057Y-195585771D01*
X233648628Y-195657200D01*
X233505771Y-195728628D01*
X233220057Y-195728628D01*
X233077200Y-195800057D01*
X233005771Y-195871485D01*
X232934342Y-196014342D01*
X232934342Y-196300057D01*
X233005771Y-196442914D01*
X233077200Y-196514342D01*
X233220057Y-196585771D01*
X233505771Y-196585771D01*
X233648628Y-196514342D01*
X233720057Y-196442914D01*
X233791485Y-196300057D01*
X233791485Y-196014342D01*
X233720057Y-195871485D01*
X233648628Y-195800057D01*
X233505771Y-195728628D01*
X234434342Y-196442914D02*
X234505771Y-196514342D01*
X234434342Y-196585771D01*
X234362914Y-196514342D01*
X234434342Y-196442914D01*
X234434342Y-196585771D01*
X235434342Y-195085771D02*
X235577200Y-195085771D01*
X235720057Y-195157200D01*
X235791485Y-195228628D01*
X235862914Y-195371485D01*
X235934342Y-195657200D01*
X235934342Y-196014342D01*
X235862914Y-196300057D01*
X235791485Y-196442914D01*
X235720057Y-196514342D01*
X235577200Y-196585771D01*
X235434342Y-196585771D01*
X235291485Y-196514342D01*
X235220057Y-196442914D01*
X235148628Y-196300057D01*
X235077200Y-196014342D01*
X235077200Y-195657200D01*
X235148628Y-195371485D01*
X235220057Y-195228628D01*
X235291485Y-195157200D01*
X235434342Y-195085771D01*
X237220057Y-195585771D02*
X237220057Y-196585771D01*
X236862914Y-195014342D02*
X236505771Y-196085771D01*
X237434342Y-196085771D01*
X238005771Y-196442914D02*
X238077199Y-196514342D01*
X238005771Y-196585771D01*
X237934342Y-196514342D01*
X238005771Y-196442914D01*
X238005771Y-196585771D01*
X239505771Y-196585771D02*
X238648628Y-196585771D01*
X239077200Y-196585771D02*
X239077200Y-195085771D01*
X238934342Y-195300057D01*
X238791485Y-195442914D01*
X238648628Y-195514342D01*
D10*
D11*
X177002200Y-191507200D02*
X285002200Y-191507200D01*
D10*
D12*
X264411485Y-193785771D02*
X263911485Y-193071485D01*
X263554342Y-193785771D02*
X263554342Y-192285771D01*
X264125771Y-192285771D01*
X264268628Y-192357200D01*
X264340057Y-192428628D01*
X264411485Y-192571485D01*
X264411485Y-192785771D01*
X264340057Y-192928628D01*
X264268628Y-193000057D01*
X264125771Y-193071485D01*
X263554342Y-193071485D01*
X265625771Y-193714342D02*
X265482914Y-193785771D01*
X265197200Y-193785771D01*
X265054342Y-193714342D01*
X264982914Y-193571485D01*
X264982914Y-193000057D01*
X265054342Y-192857200D01*
X265197200Y-192785771D01*
X265482914Y-192785771D01*
X265625771Y-192857200D01*
X265697200Y-193000057D01*
X265697200Y-193142914D01*
X264982914Y-193285771D01*
X266197200Y-192785771D02*
X266554342Y-193785771D01*
X266911485Y-192785771D01*
X267482914Y-193642914D02*
X267554342Y-193714342D01*
X267482914Y-193785771D01*
X267411485Y-193714342D01*
X267482914Y-193642914D01*
X267482914Y-193785771D01*
X267482914Y-192857200D02*
X267554342Y-192928628D01*
X267482914Y-193000057D01*
X267411485Y-192928628D01*
X267482914Y-192857200D01*
X267482914Y-193000057D01*
D10*
D11*
X178362914Y-193714342D02*
X178577200Y-193785771D01*
X178934342Y-193785771D01*
X179077200Y-193714342D01*
X179148628Y-193642914D01*
X179220057Y-193500057D01*
X179220057Y-193357200D01*
X179148628Y-193214342D01*
X179077200Y-193142914D01*
X178934342Y-193071485D01*
X178648628Y-193000057D01*
X178505771Y-192928628D01*
X178434342Y-192857200D01*
X178362914Y-192714342D01*
X178362914Y-192571485D01*
X178434342Y-192428628D01*
X178505771Y-192357200D01*
X178648628Y-192285771D01*
X179005771Y-192285771D01*
X179220057Y-192357200D01*
X179862914Y-193785771D02*
X179862914Y-192785771D01*
X179862914Y-192285771D02*
X179791485Y-192357200D01*
X179862914Y-192428628D01*
X179934342Y-192357200D01*
X179862914Y-192285771D01*
X179862914Y-192428628D01*
X180434342Y-192785771D02*
X181220057Y-192785771D01*
X180434342Y-193785771D01*
X181220057Y-193785771D01*
X182362914Y-193714342D02*
X182220057Y-193785771D01*
X181934342Y-193785771D01*
X181791485Y-193714342D01*
X181720057Y-193571485D01*
X181720057Y-193000057D01*
X181791485Y-192857200D01*
X181934342Y-192785771D01*
X182220057Y-192785771D01*
X182362914Y-192857200D01*
X182434342Y-193000057D01*
X182434342Y-193142914D01*
X181720057Y-193285771D01*
X183077200Y-193642914D02*
X183148628Y-193714342D01*
X183077200Y-193785771D01*
X183005771Y-193714342D01*
X183077200Y-193642914D01*
X183077200Y-193785771D01*
X183077200Y-192857200D02*
X183148628Y-192928628D01*
X183077200Y-193000057D01*
X183005771Y-192928628D01*
X183077200Y-192857200D01*
X183077200Y-193000057D01*
X184862914Y-193357200D02*
X185577200Y-193357200D01*
X184720057Y-193785771D02*
X185220057Y-192285771D01*
X185720057Y-193785771D01*
X186862914Y-192785771D02*
X186862914Y-193785771D01*
X186505771Y-192214342D02*
X186148628Y-193285771D01*
X187077200Y-193285771D01*
D10*
D11*
X263434342Y-196585771D02*
X263434342Y-195085771D01*
X264791485Y-196585771D02*
X264791485Y-195085771D01*
X264791485Y-196514342D02*
X264648628Y-196585771D01*
X264362914Y-196585771D01*
X264220057Y-196514342D01*
X264148628Y-196442914D01*
X264077200Y-196300057D01*
X264077200Y-195871485D01*
X264148628Y-195728628D01*
X264220057Y-195657200D01*
X264362914Y-195585771D01*
X264648628Y-195585771D01*
X264791485Y-195657200D01*
X265505771Y-196442914D02*
X265577200Y-196514342D01*
X265505771Y-196585771D01*
X265434342Y-196514342D01*
X265505771Y-196442914D01*
X265505771Y-196585771D01*
X265505771Y-195657200D02*
X265577200Y-195728628D01*
X265505771Y-195800057D01*
X265434342Y-195728628D01*
X265505771Y-195657200D01*
X265505771Y-195800057D01*
X268148628Y-196585771D02*
X267291485Y-196585771D01*
X267720057Y-196585771D02*
X267720057Y-195085771D01*
X267577200Y-195300057D01*
X267434342Y-195442914D01*
X267291485Y-195514342D01*
X269862914Y-195014342D02*
X268577200Y-196942914D01*
X271148628Y-196585771D02*
X270291485Y-196585771D01*
X270720057Y-196585771D02*
X270720057Y-195085771D01*
X270577200Y-195300057D01*
X270434342Y-195442914D01*
X270291485Y-195514342D01*
D10*
D11*
X177002200Y-187507200D02*
X285002200Y-187507200D01*
D10*
D13*
X178714580Y-188211961D02*
X179857438Y-188211961D01*
X179036009Y-190211961D02*
X179286009Y-188211961D01*
X180274104Y-190211961D02*
X180440771Y-188878628D01*
X180524104Y-188211961D02*
X180416961Y-188307200D01*
X180500295Y-188402438D01*
X180607438Y-188307200D01*
X180524104Y-188211961D01*
X180500295Y-188402438D01*
X181107438Y-188878628D02*
X181869342Y-188878628D01*
X181476485Y-188211961D02*
X181262200Y-189926247D01*
X181333628Y-190116723D01*
X181512200Y-190211961D01*
X181702676Y-190211961D01*
X182655057Y-190211961D02*
X182476485Y-190116723D01*
X182405057Y-189926247D01*
X182619342Y-188211961D01*
X184190771Y-190116723D02*
X183988390Y-190211961D01*
X183607438Y-190211961D01*
X183428866Y-190116723D01*
X183357438Y-189926247D01*
X183452676Y-189164342D01*
X183571723Y-188973866D01*
X183774104Y-188878628D01*
X184155057Y-188878628D01*
X184333628Y-188973866D01*
X184405057Y-189164342D01*
X184381247Y-189354819D01*
X183405057Y-189545295D01*
X185155057Y-190021485D02*
X185238390Y-190116723D01*
X185131247Y-190211961D01*
X185047914Y-190116723D01*
X185155057Y-190021485D01*
X185131247Y-190211961D01*
X185286009Y-188973866D02*
X185369342Y-189069104D01*
X185262200Y-189164342D01*
X185178866Y-189069104D01*
X185286009Y-188973866D01*
X185262200Y-189164342D01*
D10*
D11*
X178934342Y-185600057D02*
X178434342Y-185600057D01*
X178434342Y-186385771D02*
X178434342Y-184885771D01*
X179148628Y-184885771D01*
X179720057Y-186385771D02*
X179720057Y-185385771D01*
X179720057Y-184885771D02*
X179648628Y-184957200D01*
X179720057Y-185028628D01*
X179791485Y-184957200D01*
X179720057Y-184885771D01*
X179720057Y-185028628D01*
X180648628Y-186385771D02*
X180505771Y-186314342D01*
X180434342Y-186171485D01*
X180434342Y-184885771D01*
X181791485Y-186314342D02*
X181648628Y-186385771D01*
X181362914Y-186385771D01*
X181220057Y-186314342D01*
X181148628Y-186171485D01*
X181148628Y-185600057D01*
X181220057Y-185457200D01*
X181362914Y-185385771D01*
X181648628Y-185385771D01*
X181791485Y-185457200D01*
X181862914Y-185600057D01*
X181862914Y-185742914D01*
X181148628Y-185885771D01*
X182505771Y-186242914D02*
X182577200Y-186314342D01*
X182505771Y-186385771D01*
X182434342Y-186314342D01*
X182505771Y-186242914D01*
X182505771Y-186385771D01*
X182505771Y-185457200D02*
X182577200Y-185528628D01*
X182505771Y-185600057D01*
X182434342Y-185528628D01*
X182505771Y-185457200D01*
X182505771Y-185600057D01*
X184577200Y-185528628D02*
X184434342Y-185457200D01*
X184362914Y-185385771D01*
X184291485Y-185242914D01*
X184291485Y-185171485D01*
X184362914Y-185028628D01*
X184434342Y-184957200D01*
X184577200Y-184885771D01*
X184862914Y-184885771D01*
X185005771Y-184957200D01*
X185077200Y-185028628D01*
X185148628Y-185171485D01*
X185148628Y-185242914D01*
X185077200Y-185385771D01*
X185005771Y-185457200D01*
X184862914Y-185528628D01*
X184577200Y-185528628D01*
X184434342Y-185600057D01*
X184362914Y-185671485D01*
X184291485Y-185814342D01*
X184291485Y-186100057D01*
X184362914Y-186242914D01*
X184434342Y-186314342D01*
X184577200Y-186385771D01*
X184862914Y-186385771D01*
X185005771Y-186314342D01*
X185077200Y-186242914D01*
X185148628Y-186100057D01*
X185148628Y-185814342D01*
X185077200Y-185671485D01*
X185005771Y-185600057D01*
X184862914Y-185528628D01*
X185791485Y-186385771D02*
X185791485Y-184885771D01*
X185934342Y-185814342D02*
X186362914Y-186385771D01*
X186362914Y-185385771D02*
X185791485Y-185957200D01*
X187577200Y-186314342D02*
X187434342Y-186385771D01*
X187148628Y-186385771D01*
X187005771Y-186314342D01*
X186934342Y-186171485D01*
X186934342Y-185600057D01*
X187005771Y-185457200D01*
X187148628Y-185385771D01*
X187434342Y-185385771D01*
X187577200Y-185457200D01*
X187648628Y-185600057D01*
X187648628Y-185742914D01*
X186934342Y-185885771D01*
X188148628Y-185385771D02*
X188505771Y-186385771D01*
X188862914Y-185385771D02*
X188505771Y-186385771D01*
X188362914Y-186742914D01*
X188291485Y-186814342D01*
X188148628Y-186885771D01*
X189291485Y-185385771D02*
X189648628Y-186385771D01*
X190005771Y-185385771D01*
X190505771Y-185028628D02*
X190577200Y-184957200D01*
X190720057Y-184885771D01*
X191077200Y-184885771D01*
X191220057Y-184957200D01*
X191291485Y-185028628D01*
X191362914Y-185171485D01*
X191362914Y-185314342D01*
X191291485Y-185528628D01*
X190434342Y-186385771D01*
X191362914Y-186385771D01*
X192005771Y-186242914D02*
X192077200Y-186314342D01*
X192005771Y-186385771D01*
X191934342Y-186314342D01*
X192005771Y-186242914D01*
X192005771Y-186385771D01*
X192720057Y-186385771D02*
X192720057Y-184885771D01*
X192862914Y-185814342D02*
X193291485Y-186385771D01*
X193291485Y-185385771D02*
X192720057Y-185957200D01*
X193934342Y-186385771D02*
X193934342Y-185385771D01*
X193934342Y-184885771D02*
X193862914Y-184957200D01*
X193934342Y-185028628D01*
X194005771Y-184957200D01*
X193934342Y-184885771D01*
X193934342Y-185028628D01*
X195291485Y-186314342D02*
X195148628Y-186385771D01*
X194862914Y-186385771D01*
X194720057Y-186314342D01*
X194648628Y-186242914D01*
X194577200Y-186100057D01*
X194577200Y-185671485D01*
X194648628Y-185528628D01*
X194720057Y-185457200D01*
X194862914Y-185385771D01*
X195148628Y-185385771D01*
X195291485Y-185457200D01*
X196577200Y-186385771D02*
X196577200Y-185600057D01*
X196505771Y-185457200D01*
X196362914Y-185385771D01*
X196077200Y-185385771D01*
X195934342Y-185457200D01*
X196577200Y-186314342D02*
X196434342Y-186385771D01*
X196077200Y-186385771D01*
X195934342Y-186314342D01*
X195862914Y-186171485D01*
X195862914Y-186028628D01*
X195934342Y-185885771D01*
X196077200Y-185814342D01*
X196434342Y-185814342D01*
X196577200Y-185742914D01*
X197934342Y-186385771D02*
X197934342Y-184885771D01*
X197934342Y-186314342D02*
X197791485Y-186385771D01*
X197505771Y-186385771D01*
X197362914Y-186314342D01*
X197291485Y-186242914D01*
X197220057Y-186100057D01*
X197220057Y-185671485D01*
X197291485Y-185528628D01*
X197362914Y-185457200D01*
X197505771Y-185385771D01*
X197791485Y-185385771D01*
X197934342Y-185457200D01*
X198291485Y-186528628D02*
X199434342Y-186528628D01*
X199791485Y-185385771D02*
X199791485Y-186885771D01*
X199791485Y-185457200D02*
X199934342Y-185385771D01*
X200220057Y-185385771D01*
X200362914Y-185457200D01*
X200434342Y-185528628D01*
X200505771Y-185671485D01*
X200505771Y-186100057D01*
X200434342Y-186242914D01*
X200362914Y-186314342D01*
X200220057Y-186385771D01*
X199934342Y-186385771D01*
X199791485Y-186314342D01*
X201791485Y-186314342D02*
X201648628Y-186385771D01*
X201362914Y-186385771D01*
X201220057Y-186314342D01*
X201148628Y-186242914D01*
X201077200Y-186100057D01*
X201077200Y-185671485D01*
X201148628Y-185528628D01*
X201220057Y-185457200D01*
X201362914Y-185385771D01*
X201648628Y-185385771D01*
X201791485Y-185457200D01*
X202434342Y-186385771D02*
X202434342Y-184885771D01*
X202434342Y-185457200D02*
X202577200Y-185385771D01*
X202862914Y-185385771D01*
X203005771Y-185457200D01*
X203077200Y-185528628D01*
X203148628Y-185671485D01*
X203148628Y-186100057D01*
X203077200Y-186242914D01*
X203005771Y-186314342D01*
X202862914Y-186385771D01*
X202577200Y-186385771D01*
X202434342Y-186314342D01*
D10*
D11*
X177002200Y-181507200D02*
X285002200Y-181507200D01*
D10*
D11*
X178362914Y-183614342D02*
X178577200Y-183685771D01*
X178934342Y-183685771D01*
X179077200Y-183614342D01*
X179148628Y-183542914D01*
X179220057Y-183400057D01*
X179220057Y-183257200D01*
X179148628Y-183114342D01*
X179077200Y-183042914D01*
X178934342Y-182971485D01*
X178648628Y-182900057D01*
X178505771Y-182828628D01*
X178434342Y-182757200D01*
X178362914Y-182614342D01*
X178362914Y-182471485D01*
X178434342Y-182328628D01*
X178505771Y-182257200D01*
X178648628Y-182185771D01*
X179005771Y-182185771D01*
X179220057Y-182257200D01*
X179862914Y-183685771D02*
X179862914Y-182185771D01*
X180505771Y-183685771D02*
X180505771Y-182900057D01*
X180434342Y-182757200D01*
X180291485Y-182685771D01*
X180077200Y-182685771D01*
X179934342Y-182757200D01*
X179862914Y-182828628D01*
X181791485Y-183614342D02*
X181648628Y-183685771D01*
X181362914Y-183685771D01*
X181220057Y-183614342D01*
X181148628Y-183471485D01*
X181148628Y-182900057D01*
X181220057Y-182757200D01*
X181362914Y-182685771D01*
X181648628Y-182685771D01*
X181791485Y-182757200D01*
X181862914Y-182900057D01*
X181862914Y-183042914D01*
X181148628Y-183185771D01*
X183077200Y-183614342D02*
X182934342Y-183685771D01*
X182648628Y-183685771D01*
X182505771Y-183614342D01*
X182434342Y-183471485D01*
X182434342Y-182900057D01*
X182505771Y-182757200D01*
X182648628Y-182685771D01*
X182934342Y-182685771D01*
X183077200Y-182757200D01*
X183148628Y-182900057D01*
X183148628Y-183042914D01*
X182434342Y-183185771D01*
X183577200Y-182685771D02*
X184148628Y-182685771D01*
X183791485Y-182185771D02*
X183791485Y-183471485D01*
X183862914Y-183614342D01*
X184005771Y-183685771D01*
X184148628Y-183685771D01*
X184648628Y-183542914D02*
X184720057Y-183614342D01*
X184648628Y-183685771D01*
X184577200Y-183614342D01*
X184648628Y-183542914D01*
X184648628Y-183685771D01*
X184648628Y-182757200D02*
X184720057Y-182828628D01*
X184648628Y-182900057D01*
X184577200Y-182828628D01*
X184648628Y-182757200D01*
X184648628Y-182900057D01*
D10*
D11*
X197002200Y-191507200D02*
X197002200Y-194507200D01*
D10*
D11*
X261002200Y-191507200D02*
X261002200Y-198007200D01*
D14*
G04 #@! TO.P,R8,P$2*
G04 #@! TO.N,Net-(R8-PadP$2)*
X181810000Y-116000000D03*
G04 #@! TO.P,R8,P$1*
G04 #@! TO.N,LED8*
X174190000Y-116000000D03*
G04 #@! TD*
G04 #@! TO.P,B1,1*
G04 #@! TO.N,TX*
X132380000Y-112700000D03*
G04 #@! TO.P,B1,2*
G04 #@! TO.N,RX*
X132380000Y-110160000D03*
G04 #@! TO.P,B1,3*
G04 #@! TO.N,GND*
X132380000Y-107620000D03*
G04 #@! TO.P,B1,4*
X132380000Y-105080000D03*
G04 #@! TO.P,B1,5*
G04 #@! TO.N,LED1*
X132380000Y-102540000D03*
G04 #@! TO.P,B1,6*
G04 #@! TO.N,LED2*
X132380000Y-100000000D03*
G04 #@! TO.P,B1,7*
G04 #@! TO.N,LED3*
X132380000Y-97460000D03*
G04 #@! TO.P,B1,8*
G04 #@! TO.N,LED4*
X132380000Y-94920000D03*
G04 #@! TO.P,B1,9*
G04 #@! TO.N,LED5*
X132380000Y-92380000D03*
G04 #@! TO.P,B1,10*
G04 #@! TO.N,LED6*
X132380000Y-89840000D03*
G04 #@! TO.P,B1,11*
G04 #@! TO.N,LED7*
X132380000Y-87300000D03*
G04 #@! TO.P,B1,12*
G04 #@! TO.N,LED8*
X132380000Y-84760000D03*
G04 #@! TO.P,B1,13*
G04 #@! TO.N,KEY8*
X147620000Y-84760000D03*
G04 #@! TO.P,B1,14*
G04 #@! TO.N,KEY7*
X147620000Y-87300000D03*
G04 #@! TO.P,B1,15*
G04 #@! TO.N,KEY6*
X147620000Y-89840000D03*
G04 #@! TO.P,B1,16*
G04 #@! TO.N,KEY5*
X147620000Y-92380000D03*
G04 #@! TO.P,B1,17*
G04 #@! TO.N,KEY4*
X147620000Y-94920000D03*
G04 #@! TO.P,B1,18*
G04 #@! TO.N,KEY3*
X147620000Y-97460000D03*
G04 #@! TO.P,B1,19*
G04 #@! TO.N,KEY2*
X147620000Y-100000000D03*
G04 #@! TO.P,B1,20*
G04 #@! TO.N,KEY1*
X147620000Y-102540000D03*
G04 #@! TO.P,B1,21*
G04 #@! TO.N,VCC*
X147620000Y-105080000D03*
G04 #@! TO.P,B1,22*
G04 #@! TO.N,RESET*
X147620000Y-107620000D03*
G04 #@! TO.P,B1,23*
G04 #@! TO.N,GND*
X147620000Y-110160000D03*
G04 #@! TO.P,B1,24*
G04 #@! TO.N,VIN*
X147620000Y-112700000D03*
G04 #@! TD*
G04 #@! TO.P,J1,1*
G04 #@! TO.N,VCC*
X129540000Y-116205000D03*
G04 #@! TO.P,J1,2*
G04 #@! TO.N,VIN*
X129540000Y-113665000D03*
G04 #@! TO.P,J1,3*
G04 #@! TO.N,TX*
X129540000Y-111125000D03*
G04 #@! TO.P,J1,4*
G04 #@! TO.N,RX*
X129540000Y-108585000D03*
G04 #@! TO.P,J1,5*
G04 #@! TO.N,RESET*
X129540000Y-106045000D03*
G04 #@! TO.P,J1,6*
G04 #@! TO.N,GND*
X129540000Y-103505000D03*
G04 #@! TD*
G04 #@! TO.P,R1,P$1*
G04 #@! TO.N,LED1*
X124810000Y-97000000D03*
G04 #@! TO.P,R1,P$2*
G04 #@! TO.N,Net-(R1-PadP$2)*
X117190000Y-97000000D03*
G04 #@! TD*
G04 #@! TO.P,R2,P$1*
G04 #@! TO.N,LED2*
X136190000Y-97000000D03*
G04 #@! TO.P,R2,P$2*
G04 #@! TO.N,Net-(R2-PadP$2)*
X143810000Y-97000000D03*
G04 #@! TD*
G04 #@! TO.P,R3,P$2*
G04 #@! TO.N,Net-(R3-PadP$2)*
X162810000Y-97000000D03*
G04 #@! TO.P,R3,P$1*
G04 #@! TO.N,LED3*
X155190000Y-97000000D03*
G04 #@! TD*
G04 #@! TO.P,R4,P$1*
G04 #@! TO.N,LED4*
X174190000Y-97000000D03*
G04 #@! TO.P,R4,P$2*
G04 #@! TO.N,Net-(R4-PadP$2)*
X181810000Y-97000000D03*
G04 #@! TD*
G04 #@! TO.P,R5,P$1*
G04 #@! TO.N,LED5*
X124810000Y-116000000D03*
G04 #@! TO.P,R5,P$2*
G04 #@! TO.N,Net-(R5-PadP$2)*
X117190000Y-116000000D03*
G04 #@! TD*
G04 #@! TO.P,R6,P$2*
G04 #@! TO.N,Net-(R6-PadP$2)*
X143810000Y-116000000D03*
G04 #@! TO.P,R6,P$1*
G04 #@! TO.N,LED6*
X136190000Y-116000000D03*
G04 #@! TD*
G04 #@! TO.P,R7,P$2*
G04 #@! TO.N,Net-(R7-PadP$2)*
X162810000Y-116000000D03*
G04 #@! TO.P,R7,P$1*
G04 #@! TO.N,LED7*
X155190000Y-116000000D03*
G04 #@! TD*
G04 #@! TO.P,S1,1*
G04 #@! TO.N,RESET*
X166239400Y-95248800D03*
G04 #@! TO.P,S1,2*
G04 #@! TO.N,N/C*
X166239400Y-101751200D03*
G04 #@! TO.P,S1,3*
G04 #@! TO.N,GND*
X170760600Y-95248800D03*
G04 #@! TO.P,S1,4*
G04 #@! TO.N,N/C*
X170760600Y-101751200D03*
G04 #@! TD*
D15*
G04 #@! TO.P,SW1,S1*
G04 #@! TO.N,KEY1*
X117190000Y-86460000D03*
G04 #@! TO.P,SW1,S2*
G04 #@! TO.N,GND*
X123540000Y-83920000D03*
D16*
G04 #@! TO.P,SW1,K*
X122270000Y-94080000D03*
D17*
G04 #@! TO.P,SW1,A*
G04 #@! TO.N,Net-(R1-PadP$2)*
X119730000Y-94080000D03*
G04 #@! TD*
D15*
G04 #@! TO.P,SW2,S1*
G04 #@! TO.N,KEY2*
X136190000Y-86460000D03*
G04 #@! TO.P,SW2,S2*
G04 #@! TO.N,GND*
X142540000Y-83920000D03*
D16*
G04 #@! TO.P,SW2,K*
X141270000Y-94080000D03*
D17*
G04 #@! TO.P,SW2,A*
G04 #@! TO.N,Net-(R2-PadP$2)*
X138730000Y-94080000D03*
G04 #@! TD*
G04 #@! TO.P,SW3,A*
G04 #@! TO.N,Net-(R3-PadP$2)*
X157730000Y-94080000D03*
D16*
G04 #@! TO.P,SW3,K*
G04 #@! TO.N,GND*
X160270000Y-94080000D03*
D15*
G04 #@! TO.P,SW3,S2*
X161540000Y-83920000D03*
G04 #@! TO.P,SW3,S1*
G04 #@! TO.N,KEY3*
X155190000Y-86460000D03*
G04 #@! TD*
D17*
G04 #@! TO.P,SW4,A*
G04 #@! TO.N,Net-(R4-PadP$2)*
X176730000Y-94080000D03*
D16*
G04 #@! TO.P,SW4,K*
G04 #@! TO.N,GND*
X179270000Y-94080000D03*
D15*
G04 #@! TO.P,SW4,S2*
X180540000Y-83920000D03*
G04 #@! TO.P,SW4,S1*
G04 #@! TO.N,KEY4*
X174190000Y-86460000D03*
G04 #@! TD*
G04 #@! TO.P,SW5,S1*
G04 #@! TO.N,KEY5*
X117190000Y-105460000D03*
G04 #@! TO.P,SW5,S2*
G04 #@! TO.N,GND*
X123540000Y-102920000D03*
D16*
G04 #@! TO.P,SW5,K*
X122270000Y-113080000D03*
D17*
G04 #@! TO.P,SW5,A*
G04 #@! TO.N,Net-(R5-PadP$2)*
X119730000Y-113080000D03*
G04 #@! TD*
G04 #@! TO.P,SW6,A*
G04 #@! TO.N,Net-(R6-PadP$2)*
X138730000Y-113080000D03*
D16*
G04 #@! TO.P,SW6,K*
G04 #@! TO.N,GND*
X141270000Y-113080000D03*
D15*
G04 #@! TO.P,SW6,S2*
X142540000Y-102920000D03*
G04 #@! TO.P,SW6,S1*
G04 #@! TO.N,KEY6*
X136190000Y-105460000D03*
G04 #@! TD*
D17*
G04 #@! TO.P,SW7,A*
G04 #@! TO.N,Net-(R7-PadP$2)*
X157730000Y-113080000D03*
D16*
G04 #@! TO.P,SW7,K*
G04 #@! TO.N,GND*
X160270000Y-113080000D03*
D15*
G04 #@! TO.P,SW7,S2*
X161540000Y-102920000D03*
G04 #@! TO.P,SW7,S1*
G04 #@! TO.N,KEY7*
X155190000Y-105460000D03*
G04 #@! TD*
G04 #@! TO.P,SW8,S1*
G04 #@! TO.N,KEY8*
X174190000Y-105460000D03*
G04 #@! TO.P,SW8,S2*
G04 #@! TO.N,GND*
X180540000Y-102920000D03*
D16*
G04 #@! TO.P,SW8,K*
X179270000Y-113080000D03*
D17*
G04 #@! TO.P,SW8,A*
G04 #@! TO.N,Net-(R8-PadP$2)*
X176730000Y-113080000D03*
G04 #@! TD*
D18*
G04 #@! TO.N,LED3*
X169695700Y-87727100D03*
X129578000Y-87693700D03*
G04 #@! TO.N,KEY1*
X144654000Y-95151200D03*
G04 #@! TD*
D19*
G04 #@! TO.N,LED1*
X124810000Y-97000000D02*
X126840000Y-97000000D01*
X126840000Y-97000000D02*
X132380000Y-102540000D01*
G04 #@! TO.N,LED3*
X155190000Y-97000000D02*
X160422800Y-97000000D01*
X160422800Y-97000000D02*
X169695700Y-87727100D01*
X132380000Y-97460000D02*
X129578000Y-94658000D01*
X129578000Y-94658000D02*
X129578000Y-87693700D01*
G04 #@! TO.N,LED6*
X132380000Y-89840000D02*
X134515100Y-91975100D01*
X134515100Y-91975100D02*
X134515100Y-99876200D01*
X134515100Y-99876200D02*
X138056200Y-103417300D01*
X138056200Y-103417300D02*
X138056200Y-106256900D01*
X138056200Y-106256900D02*
X136927700Y-107385400D01*
X136927700Y-107385400D02*
X136927700Y-115262300D01*
X136927700Y-115262300D02*
X136190000Y-116000000D01*
G04 #@! TO.N,KEY5*
X117190000Y-105460000D02*
X114444200Y-102714200D01*
X114444200Y-102714200D02*
X114444200Y-86508100D01*
X114444200Y-86508100D02*
X118897100Y-82055200D01*
X118897100Y-82055200D02*
X137644200Y-82055200D01*
X137644200Y-82055200D02*
X143531400Y-87942400D01*
X143531400Y-87942400D02*
X143531400Y-89552400D01*
X143531400Y-89552400D02*
X146359000Y-92380000D01*
X146359000Y-92380000D02*
X147620000Y-92380000D01*
G04 #@! TO.N,KEY4*
X174190000Y-86460000D02*
X160483200Y-86460000D01*
X160483200Y-86460000D02*
X158620100Y-84596900D01*
X158620100Y-84596900D02*
X154411800Y-84596900D01*
X154411800Y-84596900D02*
X149576800Y-89431900D01*
X149576800Y-89431900D02*
X149576800Y-92963200D01*
X149576800Y-92963200D02*
X147620000Y-94920000D01*
G04 #@! TO.N,KEY3*
X155190000Y-86460000D02*
X155371000Y-86641000D01*
X155371000Y-86641000D02*
X155371000Y-89709000D01*
X155371000Y-89709000D02*
X147620000Y-97460000D01*
G04 #@! TO.N,KEY2*
X136190000Y-86460000D02*
X136366000Y-86636000D01*
X136366000Y-86636000D02*
X136366000Y-94004800D01*
X136366000Y-94004800D02*
X142361200Y-100000000D01*
X142361200Y-100000000D02*
X147620000Y-100000000D01*
G04 #@! TO.N,KEY1*
X117190000Y-86460000D02*
X117365600Y-86284400D01*
X117365600Y-86284400D02*
X128694900Y-86284400D01*
X128694900Y-86284400D02*
X131786900Y-83192400D01*
X131786900Y-83192400D02*
X137846900Y-83192400D01*
X137846900Y-83192400D02*
X142870600Y-88216100D01*
X142870600Y-88216100D02*
X142870600Y-93367800D01*
X142870600Y-93367800D02*
X144654000Y-95151200D01*
G04 #@! TO.N,RESET*
X147620000Y-107620000D02*
X145851300Y-109388700D01*
X145851300Y-109388700D02*
X145851300Y-116165500D01*
X145851300Y-116165500D02*
X144233500Y-117783300D01*
X144233500Y-117783300D02*
X128926300Y-117783300D01*
X128926300Y-117783300D02*
X127964400Y-116821400D01*
X127964400Y-116821400D02*
X127964400Y-107620600D01*
X127964400Y-107620600D02*
X129540000Y-106045000D01*
X166239400Y-95248800D02*
X166239400Y-95728200D01*
X166239400Y-95728200D02*
X160971100Y-100996500D01*
X160971100Y-100996500D02*
X154243500Y-100996500D01*
X154243500Y-100996500D02*
X147620000Y-107620000D01*
G04 #@! TO.N,Net-(R2-PadP$2)*
X138730000Y-94080000D02*
X138730000Y-94404800D01*
X138730000Y-94404800D02*
X141325200Y-97000000D01*
X141325200Y-97000000D02*
X143810000Y-97000000D01*
G04 #@! TO.N,Net-(R6-PadP$2)*
X138730000Y-113080000D02*
X138730000Y-113415700D01*
X138730000Y-113415700D02*
X141314300Y-116000000D01*
X141314300Y-116000000D02*
X143810000Y-116000000D01*
G04 #@! TD*
D20*
G04 #@! TO.N,GND*
G36*
X186856609Y-79720877D02*
X187095901Y-79768475D01*
X187177201Y-79822798D01*
X187231525Y-79904101D01*
X187279123Y-80143391D01*
X187315001Y-80230008D01*
X187315000Y-117769994D01*
X187279123Y-117856609D01*
X187231525Y-118095899D01*
X187177201Y-118177202D01*
X187095901Y-118231525D01*
X186856609Y-118279123D01*
X186769994Y-118315000D01*
X144717880Y-118315000D01*
X144746246Y-118296046D01*
X144785924Y-118236664D01*
X146304667Y-116717922D01*
X146364046Y-116678246D01*
X146403722Y-116618867D01*
X146403724Y-116618865D01*
X146521235Y-116442997D01*
X146521236Y-116442996D01*
X146562500Y-116235546D01*
X146562500Y-116235542D01*
X146576432Y-116165500D01*
X146562500Y-116095458D01*
X146562500Y-115686753D01*
X153615200Y-115686753D01*
X153615200Y-116313247D01*
X153854949Y-116892052D01*
X154297948Y-117335051D01*
X154876753Y-117574800D01*
X155503247Y-117574800D01*
X156082052Y-117335051D01*
X156525051Y-116892052D01*
X156764800Y-116313247D01*
X156764800Y-115686753D01*
X161235200Y-115686753D01*
X161235200Y-116313247D01*
X161474949Y-116892052D01*
X161917948Y-117335051D01*
X162496753Y-117574800D01*
X163123247Y-117574800D01*
X163702052Y-117335051D01*
X164145051Y-116892052D01*
X164384800Y-116313247D01*
X164384800Y-115686753D01*
X172615200Y-115686753D01*
X172615200Y-116313247D01*
X172854949Y-116892052D01*
X173297948Y-117335051D01*
X173876753Y-117574800D01*
X174503247Y-117574800D01*
X175082052Y-117335051D01*
X175525051Y-116892052D01*
X175764800Y-116313247D01*
X175764800Y-115686753D01*
X180235200Y-115686753D01*
X180235200Y-116313247D01*
X180474949Y-116892052D01*
X180917948Y-117335051D01*
X181496753Y-117574800D01*
X182123247Y-117574800D01*
X182702052Y-117335051D01*
X183145051Y-116892052D01*
X183384800Y-116313247D01*
X183384800Y-115686753D01*
X183145051Y-115107948D01*
X182702052Y-114664949D01*
X182123247Y-114425200D01*
X181496753Y-114425200D01*
X180917948Y-114664949D01*
X180474949Y-115107948D01*
X180235200Y-115686753D01*
X175764800Y-115686753D01*
X175525051Y-115107948D01*
X175082052Y-114664949D01*
X174503247Y-114425200D01*
X173876753Y-114425200D01*
X173297948Y-114664949D01*
X172854949Y-115107948D01*
X172615200Y-115686753D01*
X164384800Y-115686753D01*
X164145051Y-115107948D01*
X163702052Y-114664949D01*
X163123247Y-114425200D01*
X162496753Y-114425200D01*
X161917948Y-114664949D01*
X161474949Y-115107948D01*
X161235200Y-115686753D01*
X156764800Y-115686753D01*
X156525051Y-115107948D01*
X156082052Y-114664949D01*
X155503247Y-114425200D01*
X154876753Y-114425200D01*
X154297948Y-114664949D01*
X153854949Y-115107948D01*
X153615200Y-115686753D01*
X146562500Y-115686753D01*
X146562500Y-113869603D01*
X146727948Y-114035051D01*
X147306753Y-114274800D01*
X147933247Y-114274800D01*
X148512052Y-114035051D01*
X148955051Y-113592052D01*
X149194800Y-113013247D01*
X149194800Y-112751596D01*
X156079000Y-112751596D01*
X156079000Y-113408404D01*
X156330350Y-114015216D01*
X156794784Y-114479650D01*
X157401596Y-114731000D01*
X158058404Y-114731000D01*
X158665216Y-114479650D01*
X158707910Y-114436956D01*
X158715673Y-114455699D01*
X158894302Y-114634327D01*
X159127691Y-114731000D01*
X159984250Y-114731000D01*
X160143000Y-114572250D01*
X160143000Y-113207000D01*
X160397000Y-113207000D01*
X160397000Y-114572250D01*
X160555750Y-114731000D01*
X161412309Y-114731000D01*
X161645698Y-114634327D01*
X161824327Y-114455699D01*
X161921000Y-114222310D01*
X161921000Y-113365750D01*
X161762250Y-113207000D01*
X160397000Y-113207000D01*
X160143000Y-113207000D01*
X160123000Y-113207000D01*
X160123000Y-112953000D01*
X160143000Y-112953000D01*
X160143000Y-111587750D01*
X160397000Y-111587750D01*
X160397000Y-112953000D01*
X161762250Y-112953000D01*
X161921000Y-112794250D01*
X161921000Y-112751596D01*
X175079000Y-112751596D01*
X175079000Y-113408404D01*
X175330350Y-114015216D01*
X175794784Y-114479650D01*
X176401596Y-114731000D01*
X177058404Y-114731000D01*
X177665216Y-114479650D01*
X177707910Y-114436956D01*
X177715673Y-114455699D01*
X177894302Y-114634327D01*
X178127691Y-114731000D01*
X178984250Y-114731000D01*
X179143000Y-114572250D01*
X179143000Y-113207000D01*
X179397000Y-113207000D01*
X179397000Y-114572250D01*
X179555750Y-114731000D01*
X180412309Y-114731000D01*
X180645698Y-114634327D01*
X180824327Y-114455699D01*
X180921000Y-114222310D01*
X180921000Y-113365750D01*
X180762250Y-113207000D01*
X179397000Y-113207000D01*
X179143000Y-113207000D01*
X179123000Y-113207000D01*
X179123000Y-112953000D01*
X179143000Y-112953000D01*
X179143000Y-111587750D01*
X179397000Y-111587750D01*
X179397000Y-112953000D01*
X180762250Y-112953000D01*
X180921000Y-112794250D01*
X180921000Y-111937690D01*
X180824327Y-111704301D01*
X180645698Y-111525673D01*
X180412309Y-111429000D01*
X179555750Y-111429000D01*
X179397000Y-111587750D01*
X179143000Y-111587750D01*
X178984250Y-111429000D01*
X178127691Y-111429000D01*
X177894302Y-111525673D01*
X177715673Y-111704301D01*
X177707910Y-111723044D01*
X177665216Y-111680350D01*
X177058404Y-111429000D01*
X176401596Y-111429000D01*
X175794784Y-111680350D01*
X175330350Y-112144784D01*
X175079000Y-112751596D01*
X161921000Y-112751596D01*
X161921000Y-111937690D01*
X161824327Y-111704301D01*
X161645698Y-111525673D01*
X161412309Y-111429000D01*
X160555750Y-111429000D01*
X160397000Y-111587750D01*
X160143000Y-111587750D01*
X159984250Y-111429000D01*
X159127691Y-111429000D01*
X158894302Y-111525673D01*
X158715673Y-111704301D01*
X158707910Y-111723044D01*
X158665216Y-111680350D01*
X158058404Y-111429000D01*
X157401596Y-111429000D01*
X156794784Y-111680350D01*
X156330350Y-112144784D01*
X156079000Y-112751596D01*
X149194800Y-112751596D01*
X149194800Y-112386753D01*
X148955051Y-111807948D01*
X148514786Y-111367683D01*
X148549363Y-111268968D01*
X147620000Y-110339605D01*
X147605858Y-110353748D01*
X147426253Y-110174143D01*
X147440395Y-110160000D01*
X147799605Y-110160000D01*
X148728968Y-111089363D01*
X148989580Y-110998077D01*
X149206045Y-110410167D01*
X149181049Y-109784172D01*
X148989580Y-109321923D01*
X148728968Y-109230637D01*
X147799605Y-110160000D01*
X147440395Y-110160000D01*
X147426253Y-110145858D01*
X147605858Y-109966253D01*
X147620000Y-109980395D01*
X148549363Y-109051032D01*
X148514786Y-108952317D01*
X148955051Y-108512052D01*
X149194800Y-107933247D01*
X149194800Y-107704436D01*
X152434100Y-107704436D01*
X152434100Y-108295564D01*
X152660314Y-108841695D01*
X153078305Y-109259686D01*
X153624436Y-109485900D01*
X154215564Y-109485900D01*
X154761695Y-109259686D01*
X155179686Y-108841695D01*
X155405900Y-108295564D01*
X155405900Y-107704436D01*
X155265302Y-107365000D01*
X155568928Y-107365000D01*
X156269096Y-107074981D01*
X156727554Y-106616523D01*
X156371100Y-107477079D01*
X156371100Y-108522921D01*
X156771326Y-109489152D01*
X157510848Y-110228674D01*
X158477079Y-110628900D01*
X159522921Y-110628900D01*
X160489152Y-110228674D01*
X161228674Y-109489152D01*
X161628900Y-108522921D01*
X161628900Y-107704436D01*
X162594100Y-107704436D01*
X162594100Y-108295564D01*
X162820314Y-108841695D01*
X163238305Y-109259686D01*
X163784436Y-109485900D01*
X164375564Y-109485900D01*
X164921695Y-109259686D01*
X165339686Y-108841695D01*
X165565900Y-108295564D01*
X165565900Y-107704436D01*
X171434100Y-107704436D01*
X171434100Y-108295564D01*
X171660314Y-108841695D01*
X172078305Y-109259686D01*
X172624436Y-109485900D01*
X173215564Y-109485900D01*
X173761695Y-109259686D01*
X174179686Y-108841695D01*
X174405900Y-108295564D01*
X174405900Y-107704436D01*
X174265302Y-107365000D01*
X174568928Y-107365000D01*
X175269096Y-107074981D01*
X175727554Y-106616523D01*
X175371100Y-107477079D01*
X175371100Y-108522921D01*
X175771326Y-109489152D01*
X176510848Y-110228674D01*
X177477079Y-110628900D01*
X178522921Y-110628900D01*
X179489152Y-110228674D01*
X180228674Y-109489152D01*
X180628900Y-108522921D01*
X180628900Y-107704436D01*
X181594100Y-107704436D01*
X181594100Y-108295564D01*
X181820314Y-108841695D01*
X182238305Y-109259686D01*
X182784436Y-109485900D01*
X183375564Y-109485900D01*
X183921695Y-109259686D01*
X184339686Y-108841695D01*
X184565900Y-108295564D01*
X184565900Y-107704436D01*
X184339686Y-107158305D01*
X183921695Y-106740314D01*
X183375564Y-106514100D01*
X182784436Y-106514100D01*
X182238305Y-106740314D01*
X181820314Y-107158305D01*
X181594100Y-107704436D01*
X180628900Y-107704436D01*
X180628900Y-107477079D01*
X180228674Y-106510848D01*
X179489152Y-105771326D01*
X178522921Y-105371100D01*
X177477079Y-105371100D01*
X176510848Y-105771326D01*
X175848753Y-106433421D01*
X176095000Y-105838928D01*
X176095000Y-105081072D01*
X175804981Y-104380904D01*
X175691854Y-104267777D01*
X179371828Y-104267777D01*
X179503520Y-104562657D01*
X180211036Y-104834261D01*
X180968632Y-104814436D01*
X181576480Y-104562657D01*
X181708172Y-104267777D01*
X180540000Y-103099605D01*
X179371828Y-104267777D01*
X175691854Y-104267777D01*
X175269096Y-103845019D01*
X174568928Y-103555000D01*
X173811072Y-103555000D01*
X173110904Y-103845019D01*
X172575019Y-104380904D01*
X172285000Y-105081072D01*
X172285000Y-105838928D01*
X172573419Y-106535232D01*
X172078305Y-106740314D01*
X171660314Y-107158305D01*
X171434100Y-107704436D01*
X165565900Y-107704436D01*
X165339686Y-107158305D01*
X164921695Y-106740314D01*
X164375564Y-106514100D01*
X163784436Y-106514100D01*
X163238305Y-106740314D01*
X162820314Y-107158305D01*
X162594100Y-107704436D01*
X161628900Y-107704436D01*
X161628900Y-107477079D01*
X161228674Y-106510848D01*
X160489152Y-105771326D01*
X159522921Y-105371100D01*
X158477079Y-105371100D01*
X157510848Y-105771326D01*
X156848753Y-106433421D01*
X157095000Y-105838928D01*
X157095000Y-105081072D01*
X156804981Y-104380904D01*
X156691854Y-104267777D01*
X160371828Y-104267777D01*
X160503520Y-104562657D01*
X161211036Y-104834261D01*
X161968632Y-104814436D01*
X162576480Y-104562657D01*
X162708172Y-104267777D01*
X161540000Y-103099605D01*
X160371828Y-104267777D01*
X156691854Y-104267777D01*
X156269096Y-103845019D01*
X155568928Y-103555000D01*
X154811072Y-103555000D01*
X154110904Y-103845019D01*
X153575019Y-104380904D01*
X153285000Y-105081072D01*
X153285000Y-105838928D01*
X153573419Y-106535232D01*
X153078305Y-106740314D01*
X152660314Y-107158305D01*
X152434100Y-107704436D01*
X149194800Y-107704436D01*
X149194800Y-107306753D01*
X149119888Y-107125900D01*
X154538089Y-101707700D01*
X160148092Y-101707700D01*
X160192221Y-101751829D01*
X159897343Y-101883520D01*
X159625739Y-102591036D01*
X159645564Y-103348632D01*
X159897343Y-103956480D01*
X160192223Y-104088172D01*
X161360395Y-102920000D01*
X161719605Y-102920000D01*
X162887777Y-104088172D01*
X163182657Y-103956480D01*
X163454261Y-103248964D01*
X163434436Y-102491368D01*
X163182657Y-101883520D01*
X162887777Y-101751828D01*
X161719605Y-102920000D01*
X161360395Y-102920000D01*
X161346253Y-102905858D01*
X161525858Y-102726253D01*
X161540000Y-102740395D01*
X162708172Y-101572223D01*
X162648208Y-101437953D01*
X164664600Y-101437953D01*
X164664600Y-102064447D01*
X164904349Y-102643252D01*
X165347348Y-103086251D01*
X165926153Y-103326000D01*
X166552647Y-103326000D01*
X167131452Y-103086251D01*
X167574451Y-102643252D01*
X167814200Y-102064447D01*
X167814200Y-101437953D01*
X169185800Y-101437953D01*
X169185800Y-102064447D01*
X169425549Y-102643252D01*
X169868548Y-103086251D01*
X170447353Y-103326000D01*
X171073847Y-103326000D01*
X171652652Y-103086251D01*
X172095651Y-102643252D01*
X172117279Y-102591036D01*
X178625739Y-102591036D01*
X178645564Y-103348632D01*
X178897343Y-103956480D01*
X179192223Y-104088172D01*
X180360395Y-102920000D01*
X180719605Y-102920000D01*
X181887777Y-104088172D01*
X182182657Y-103956480D01*
X182454261Y-103248964D01*
X182434436Y-102491368D01*
X182182657Y-101883520D01*
X181887777Y-101751828D01*
X180719605Y-102920000D01*
X180360395Y-102920000D01*
X179192223Y-101751828D01*
X178897343Y-101883520D01*
X178625739Y-102591036D01*
X172117279Y-102591036D01*
X172335400Y-102064447D01*
X172335400Y-101572223D01*
X179371828Y-101572223D01*
X180540000Y-102740395D01*
X181708172Y-101572223D01*
X181576480Y-101277343D01*
X180868964Y-101005739D01*
X180111368Y-101025564D01*
X179503520Y-101277343D01*
X179371828Y-101572223D01*
X172335400Y-101572223D01*
X172335400Y-101437953D01*
X172095651Y-100859148D01*
X171652652Y-100416149D01*
X171073847Y-100176400D01*
X170447353Y-100176400D01*
X169868548Y-100416149D01*
X169425549Y-100859148D01*
X169185800Y-101437953D01*
X167814200Y-101437953D01*
X167574451Y-100859148D01*
X167131452Y-100416149D01*
X166552647Y-100176400D01*
X165926153Y-100176400D01*
X165347348Y-100416149D01*
X164904349Y-100859148D01*
X164664600Y-101437953D01*
X162648208Y-101437953D01*
X162576480Y-101277343D01*
X161940274Y-101033114D01*
X166149789Y-96823600D01*
X166552647Y-96823600D01*
X167131452Y-96583851D01*
X167357535Y-96357768D01*
X169831237Y-96357768D01*
X169922523Y-96618380D01*
X170510433Y-96834845D01*
X171136428Y-96809849D01*
X171433609Y-96686753D01*
X172615200Y-96686753D01*
X172615200Y-97313247D01*
X172854949Y-97892052D01*
X173297948Y-98335051D01*
X173876753Y-98574800D01*
X174503247Y-98574800D01*
X175082052Y-98335051D01*
X175525051Y-97892052D01*
X175764800Y-97313247D01*
X175764800Y-96686753D01*
X180235200Y-96686753D01*
X180235200Y-97313247D01*
X180474949Y-97892052D01*
X180917948Y-98335051D01*
X181496753Y-98574800D01*
X182123247Y-98574800D01*
X182702052Y-98335051D01*
X183145051Y-97892052D01*
X183384800Y-97313247D01*
X183384800Y-96686753D01*
X183145051Y-96107948D01*
X182702052Y-95664949D01*
X182123247Y-95425200D01*
X181496753Y-95425200D01*
X180917948Y-95664949D01*
X180474949Y-96107948D01*
X180235200Y-96686753D01*
X175764800Y-96686753D01*
X175525051Y-96107948D01*
X175082052Y-95664949D01*
X174503247Y-95425200D01*
X173876753Y-95425200D01*
X173297948Y-95664949D01*
X172854949Y-96107948D01*
X172615200Y-96686753D01*
X171433609Y-96686753D01*
X171598677Y-96618380D01*
X171689963Y-96357768D01*
X170760600Y-95428405D01*
X169831237Y-96357768D01*
X167357535Y-96357768D01*
X167574451Y-96140852D01*
X167814200Y-95562047D01*
X167814200Y-94998633D01*
X169174555Y-94998633D01*
X169199551Y-95624628D01*
X169391020Y-96086877D01*
X169651632Y-96178163D01*
X170580995Y-95248800D01*
X170940205Y-95248800D01*
X171869568Y-96178163D01*
X172130180Y-96086877D01*
X172346645Y-95498967D01*
X172321649Y-94872972D01*
X172130180Y-94410723D01*
X171869568Y-94319437D01*
X170940205Y-95248800D01*
X170580995Y-95248800D01*
X169651632Y-94319437D01*
X169391020Y-94410723D01*
X169174555Y-94998633D01*
X167814200Y-94998633D01*
X167814200Y-94935553D01*
X167574451Y-94356748D01*
X167357535Y-94139832D01*
X169831237Y-94139832D01*
X170760600Y-95069195D01*
X171689963Y-94139832D01*
X171598677Y-93879220D01*
X171252056Y-93751596D01*
X175079000Y-93751596D01*
X175079000Y-94408404D01*
X175330350Y-95015216D01*
X175794784Y-95479650D01*
X176401596Y-95731000D01*
X177058404Y-95731000D01*
X177665216Y-95479650D01*
X177707910Y-95436956D01*
X177715673Y-95455699D01*
X177894302Y-95634327D01*
X178127691Y-95731000D01*
X178984250Y-95731000D01*
X179143000Y-95572250D01*
X179143000Y-94207000D01*
X179397000Y-94207000D01*
X179397000Y-95572250D01*
X179555750Y-95731000D01*
X180412309Y-95731000D01*
X180645698Y-95634327D01*
X180824327Y-95455699D01*
X180921000Y-95222310D01*
X180921000Y-94365750D01*
X180762250Y-94207000D01*
X179397000Y-94207000D01*
X179143000Y-94207000D01*
X179123000Y-94207000D01*
X179123000Y-93953000D01*
X179143000Y-93953000D01*
X179143000Y-92587750D01*
X179397000Y-92587750D01*
X179397000Y-93953000D01*
X180762250Y-93953000D01*
X180921000Y-93794250D01*
X180921000Y-92937690D01*
X180824327Y-92704301D01*
X180645698Y-92525673D01*
X180412309Y-92429000D01*
X179555750Y-92429000D01*
X179397000Y-92587750D01*
X179143000Y-92587750D01*
X178984250Y-92429000D01*
X178127691Y-92429000D01*
X177894302Y-92525673D01*
X177715673Y-92704301D01*
X177707910Y-92723044D01*
X177665216Y-92680350D01*
X177058404Y-92429000D01*
X176401596Y-92429000D01*
X175794784Y-92680350D01*
X175330350Y-93144784D01*
X175079000Y-93751596D01*
X171252056Y-93751596D01*
X171010767Y-93662755D01*
X170384772Y-93687751D01*
X169922523Y-93879220D01*
X169831237Y-94139832D01*
X167357535Y-94139832D01*
X167131452Y-93913749D01*
X166552647Y-93674000D01*
X165926153Y-93674000D01*
X165347348Y-93913749D01*
X164904349Y-94356748D01*
X164664600Y-94935553D01*
X164664600Y-95562047D01*
X164879925Y-96081886D01*
X164352657Y-96609154D01*
X164145051Y-96107948D01*
X163702052Y-95664949D01*
X163123247Y-95425200D01*
X163003388Y-95425200D01*
X169812489Y-88616100D01*
X169872533Y-88616100D01*
X170199278Y-88480758D01*
X170449358Y-88230678D01*
X170584700Y-87903933D01*
X170584700Y-87550267D01*
X170449358Y-87223522D01*
X170397036Y-87171200D01*
X172422632Y-87171200D01*
X172573419Y-87535232D01*
X172078305Y-87740314D01*
X171660314Y-88158305D01*
X171434100Y-88704436D01*
X171434100Y-89295564D01*
X171660314Y-89841695D01*
X172078305Y-90259686D01*
X172624436Y-90485900D01*
X173215564Y-90485900D01*
X173761695Y-90259686D01*
X174179686Y-89841695D01*
X174405900Y-89295564D01*
X174405900Y-88704436D01*
X174265302Y-88365000D01*
X174568928Y-88365000D01*
X175269096Y-88074981D01*
X175727554Y-87616523D01*
X175371100Y-88477079D01*
X175371100Y-89522921D01*
X175771326Y-90489152D01*
X176510848Y-91228674D01*
X177477079Y-91628900D01*
X178522921Y-91628900D01*
X179489152Y-91228674D01*
X180228674Y-90489152D01*
X180628900Y-89522921D01*
X180628900Y-88704436D01*
X181594100Y-88704436D01*
X181594100Y-89295564D01*
X181820314Y-89841695D01*
X182238305Y-90259686D01*
X182784436Y-90485900D01*
X183375564Y-90485900D01*
X183921695Y-90259686D01*
X184339686Y-89841695D01*
X184565900Y-89295564D01*
X184565900Y-88704436D01*
X184339686Y-88158305D01*
X183921695Y-87740314D01*
X183375564Y-87514100D01*
X182784436Y-87514100D01*
X182238305Y-87740314D01*
X181820314Y-88158305D01*
X181594100Y-88704436D01*
X180628900Y-88704436D01*
X180628900Y-88477079D01*
X180228674Y-87510848D01*
X179489152Y-86771326D01*
X178522921Y-86371100D01*
X177477079Y-86371100D01*
X176510848Y-86771326D01*
X175848753Y-87433421D01*
X176095000Y-86838928D01*
X176095000Y-86081072D01*
X175804981Y-85380904D01*
X175691854Y-85267777D01*
X179371828Y-85267777D01*
X179503520Y-85562657D01*
X180211036Y-85834261D01*
X180968632Y-85814436D01*
X181576480Y-85562657D01*
X181708172Y-85267777D01*
X180540000Y-84099605D01*
X179371828Y-85267777D01*
X175691854Y-85267777D01*
X175269096Y-84845019D01*
X174568928Y-84555000D01*
X173811072Y-84555000D01*
X173110904Y-84845019D01*
X172575019Y-85380904D01*
X172422632Y-85748800D01*
X162127091Y-85748800D01*
X162576480Y-85562657D01*
X162708172Y-85267777D01*
X161540000Y-84099605D01*
X161525858Y-84113748D01*
X161346253Y-83934143D01*
X161360395Y-83920000D01*
X161719605Y-83920000D01*
X162887777Y-85088172D01*
X163182657Y-84956480D01*
X163454261Y-84248964D01*
X163437045Y-83591036D01*
X178625739Y-83591036D01*
X178645564Y-84348632D01*
X178897343Y-84956480D01*
X179192223Y-85088172D01*
X180360395Y-83920000D01*
X180719605Y-83920000D01*
X181887777Y-85088172D01*
X182182657Y-84956480D01*
X182454261Y-84248964D01*
X182434436Y-83491368D01*
X182182657Y-82883520D01*
X181887777Y-82751828D01*
X180719605Y-83920000D01*
X180360395Y-83920000D01*
X179192223Y-82751828D01*
X178897343Y-82883520D01*
X178625739Y-83591036D01*
X163437045Y-83591036D01*
X163434436Y-83491368D01*
X163182657Y-82883520D01*
X162887777Y-82751828D01*
X161719605Y-83920000D01*
X161360395Y-83920000D01*
X160192223Y-82751828D01*
X159897343Y-82883520D01*
X159625739Y-83591036D01*
X159645564Y-84348632D01*
X159835029Y-84806041D01*
X159172524Y-84143536D01*
X159132846Y-84084154D01*
X158897596Y-83926964D01*
X158690146Y-83885700D01*
X158690141Y-83885700D01*
X158620100Y-83871768D01*
X158550059Y-83885700D01*
X154481842Y-83885700D01*
X154411800Y-83871768D01*
X154341758Y-83885700D01*
X154341754Y-83885700D01*
X154134304Y-83926964D01*
X154134302Y-83926965D01*
X154134303Y-83926965D01*
X153958435Y-84044476D01*
X153958433Y-84044478D01*
X153899054Y-84084154D01*
X153859378Y-84143533D01*
X149123434Y-88879478D01*
X149064054Y-88919155D01*
X149024378Y-88978534D01*
X149024376Y-88978536D01*
X148989402Y-89030878D01*
X148955051Y-88947948D01*
X148577103Y-88570000D01*
X148955051Y-88192052D01*
X149194800Y-87613247D01*
X149194800Y-86986753D01*
X148955051Y-86407948D01*
X148577103Y-86030000D01*
X148955051Y-85652052D01*
X149194800Y-85073247D01*
X149194800Y-84446753D01*
X148955051Y-83867948D01*
X148512052Y-83424949D01*
X147933247Y-83185200D01*
X147306753Y-83185200D01*
X146727948Y-83424949D01*
X146284949Y-83867948D01*
X146045200Y-84446753D01*
X146045200Y-85073247D01*
X146284949Y-85652052D01*
X146662897Y-86030000D01*
X146284949Y-86407948D01*
X146045200Y-86986753D01*
X146045200Y-87613247D01*
X146222381Y-88041000D01*
X145921695Y-87740314D01*
X145375564Y-87514100D01*
X144784436Y-87514100D01*
X144238305Y-87740314D01*
X144219981Y-87758638D01*
X144201336Y-87664904D01*
X144201335Y-87664902D01*
X144083824Y-87489035D01*
X144083820Y-87489031D01*
X144044145Y-87429654D01*
X143984769Y-87389980D01*
X142423490Y-85828701D01*
X142968632Y-85814436D01*
X143576480Y-85562657D01*
X143708172Y-85267777D01*
X142540000Y-84099605D01*
X142525858Y-84113748D01*
X142346253Y-83934143D01*
X142360395Y-83920000D01*
X142719605Y-83920000D01*
X143887777Y-85088172D01*
X144182657Y-84956480D01*
X144454261Y-84248964D01*
X144434436Y-83491368D01*
X144182657Y-82883520D01*
X143887777Y-82751828D01*
X142719605Y-83920000D01*
X142360395Y-83920000D01*
X141192223Y-82751828D01*
X140897343Y-82883520D01*
X140625739Y-83591036D01*
X140637560Y-84042772D01*
X139167011Y-82572223D01*
X141371828Y-82572223D01*
X142540000Y-83740395D01*
X143708172Y-82572223D01*
X160371828Y-82572223D01*
X161540000Y-83740395D01*
X162708172Y-82572223D01*
X179371828Y-82572223D01*
X180540000Y-83740395D01*
X181708172Y-82572223D01*
X181576480Y-82277343D01*
X180868964Y-82005739D01*
X180111368Y-82025564D01*
X179503520Y-82277343D01*
X179371828Y-82572223D01*
X162708172Y-82572223D01*
X162576480Y-82277343D01*
X161868964Y-82005739D01*
X161111368Y-82025564D01*
X160503520Y-82277343D01*
X160371828Y-82572223D01*
X143708172Y-82572223D01*
X143576480Y-82277343D01*
X142868964Y-82005739D01*
X142111368Y-82025564D01*
X141503520Y-82277343D01*
X141371828Y-82572223D01*
X139167011Y-82572223D01*
X138196624Y-81601836D01*
X138156946Y-81542454D01*
X137921696Y-81385264D01*
X137714246Y-81344000D01*
X137714241Y-81344000D01*
X137644200Y-81330068D01*
X137574159Y-81344000D01*
X118967142Y-81344000D01*
X118897100Y-81330068D01*
X118827058Y-81344000D01*
X118827054Y-81344000D01*
X118619604Y-81385264D01*
X118619602Y-81385265D01*
X118619603Y-81385265D01*
X118443735Y-81502776D01*
X118443733Y-81502778D01*
X118384354Y-81542454D01*
X118344678Y-81601833D01*
X113990834Y-85955678D01*
X113931455Y-85995354D01*
X113891779Y-86054733D01*
X113891776Y-86054736D01*
X113774265Y-86230604D01*
X113719068Y-86508100D01*
X113733001Y-86578146D01*
X113733000Y-102644159D01*
X113719068Y-102714200D01*
X113733000Y-102784241D01*
X113733000Y-102784245D01*
X113774264Y-102991695D01*
X113774265Y-102991696D01*
X113891776Y-103167564D01*
X113891778Y-103167566D01*
X113931454Y-103226945D01*
X113990834Y-103266622D01*
X115437387Y-104713176D01*
X115285000Y-105081072D01*
X115285000Y-105838928D01*
X115573419Y-106535232D01*
X115078305Y-106740314D01*
X114660314Y-107158305D01*
X114434100Y-107704436D01*
X114434100Y-108295564D01*
X114660314Y-108841695D01*
X115078305Y-109259686D01*
X115624436Y-109485900D01*
X116215564Y-109485900D01*
X116761695Y-109259686D01*
X117179686Y-108841695D01*
X117405900Y-108295564D01*
X117405900Y-107704436D01*
X117265302Y-107365000D01*
X117568928Y-107365000D01*
X118269096Y-107074981D01*
X118727554Y-106616523D01*
X118371100Y-107477079D01*
X118371100Y-108522921D01*
X118771326Y-109489152D01*
X119510848Y-110228674D01*
X120477079Y-110628900D01*
X121522921Y-110628900D01*
X122489152Y-110228674D01*
X123228674Y-109489152D01*
X123628900Y-108522921D01*
X123628900Y-107477079D01*
X123228674Y-106510848D01*
X122489152Y-105771326D01*
X121522921Y-105371100D01*
X120477079Y-105371100D01*
X119510848Y-105771326D01*
X118848753Y-106433421D01*
X119095000Y-105838928D01*
X119095000Y-105081072D01*
X118804981Y-104380904D01*
X118691854Y-104267777D01*
X122371828Y-104267777D01*
X122503520Y-104562657D01*
X123211036Y-104834261D01*
X123968632Y-104814436D01*
X124576480Y-104562657D01*
X124708172Y-104267777D01*
X123540000Y-103099605D01*
X122371828Y-104267777D01*
X118691854Y-104267777D01*
X118269096Y-103845019D01*
X117568928Y-103555000D01*
X116811072Y-103555000D01*
X116443176Y-103707387D01*
X115326825Y-102591036D01*
X121625739Y-102591036D01*
X121645564Y-103348632D01*
X121897343Y-103956480D01*
X122192223Y-104088172D01*
X123360395Y-102920000D01*
X123719605Y-102920000D01*
X124887777Y-104088172D01*
X125182657Y-103956480D01*
X125452007Y-103254833D01*
X127953955Y-103254833D01*
X127978951Y-103880828D01*
X128170420Y-104343077D01*
X128431032Y-104434363D01*
X129360395Y-103505000D01*
X128431032Y-102575637D01*
X128170420Y-102666923D01*
X127953955Y-103254833D01*
X125452007Y-103254833D01*
X125454261Y-103248964D01*
X125434436Y-102491368D01*
X125394947Y-102396032D01*
X128610637Y-102396032D01*
X129540000Y-103325395D01*
X130469363Y-102396032D01*
X130378077Y-102135420D01*
X129790167Y-101918955D01*
X129164172Y-101943951D01*
X128701923Y-102135420D01*
X128610637Y-102396032D01*
X125394947Y-102396032D01*
X125182657Y-101883520D01*
X124887777Y-101751828D01*
X123719605Y-102920000D01*
X123360395Y-102920000D01*
X122192223Y-101751828D01*
X121897343Y-101883520D01*
X121625739Y-102591036D01*
X115326825Y-102591036D01*
X115155400Y-102419612D01*
X115155400Y-101572223D01*
X122371828Y-101572223D01*
X123540000Y-102740395D01*
X124708172Y-101572223D01*
X124576480Y-101277343D01*
X123868964Y-101005739D01*
X123111368Y-101025564D01*
X122503520Y-101277343D01*
X122371828Y-101572223D01*
X115155400Y-101572223D01*
X115155400Y-96686753D01*
X115615200Y-96686753D01*
X115615200Y-97313247D01*
X115854949Y-97892052D01*
X116297948Y-98335051D01*
X116876753Y-98574800D01*
X117503247Y-98574800D01*
X118082052Y-98335051D01*
X118525051Y-97892052D01*
X118764800Y-97313247D01*
X118764800Y-96686753D01*
X118525051Y-96107948D01*
X118082052Y-95664949D01*
X117503247Y-95425200D01*
X116876753Y-95425200D01*
X116297948Y-95664949D01*
X115854949Y-96107948D01*
X115615200Y-96686753D01*
X115155400Y-96686753D01*
X115155400Y-93751596D01*
X118079000Y-93751596D01*
X118079000Y-94408404D01*
X118330350Y-95015216D01*
X118794784Y-95479650D01*
X119401596Y-95731000D01*
X120058404Y-95731000D01*
X120665216Y-95479650D01*
X120707910Y-95436956D01*
X120715673Y-95455699D01*
X120894302Y-95634327D01*
X121127691Y-95731000D01*
X121984250Y-95731000D01*
X122143000Y-95572250D01*
X122143000Y-94207000D01*
X122397000Y-94207000D01*
X122397000Y-95572250D01*
X122555750Y-95731000D01*
X123412309Y-95731000D01*
X123645698Y-95634327D01*
X123824327Y-95455699D01*
X123921000Y-95222310D01*
X123921000Y-94365750D01*
X123762250Y-94207000D01*
X122397000Y-94207000D01*
X122143000Y-94207000D01*
X122123000Y-94207000D01*
X122123000Y-93953000D01*
X122143000Y-93953000D01*
X122143000Y-92587750D01*
X122397000Y-92587750D01*
X122397000Y-93953000D01*
X123762250Y-93953000D01*
X123921000Y-93794250D01*
X123921000Y-92937690D01*
X123824327Y-92704301D01*
X123645698Y-92525673D01*
X123412309Y-92429000D01*
X122555750Y-92429000D01*
X122397000Y-92587750D01*
X122143000Y-92587750D01*
X121984250Y-92429000D01*
X121127691Y-92429000D01*
X120894302Y-92525673D01*
X120715673Y-92704301D01*
X120707910Y-92723044D01*
X120665216Y-92680350D01*
X120058404Y-92429000D01*
X119401596Y-92429000D01*
X118794784Y-92680350D01*
X118330350Y-93144784D01*
X118079000Y-93751596D01*
X115155400Y-93751596D01*
X115155400Y-90291620D01*
X115624436Y-90485900D01*
X116215564Y-90485900D01*
X116761695Y-90259686D01*
X117179686Y-89841695D01*
X117405900Y-89295564D01*
X117405900Y-88704436D01*
X117265302Y-88365000D01*
X117568928Y-88365000D01*
X118269096Y-88074981D01*
X118727554Y-87616523D01*
X118371100Y-88477079D01*
X118371100Y-89522921D01*
X118771326Y-90489152D01*
X119510848Y-91228674D01*
X120477079Y-91628900D01*
X121522921Y-91628900D01*
X122489152Y-91228674D01*
X123228674Y-90489152D01*
X123628900Y-89522921D01*
X123628900Y-88704436D01*
X124594100Y-88704436D01*
X124594100Y-89295564D01*
X124820314Y-89841695D01*
X125238305Y-90259686D01*
X125784436Y-90485900D01*
X126375564Y-90485900D01*
X126921695Y-90259686D01*
X127339686Y-89841695D01*
X127565900Y-89295564D01*
X127565900Y-88704436D01*
X127339686Y-88158305D01*
X126921695Y-87740314D01*
X126375564Y-87514100D01*
X125784436Y-87514100D01*
X125238305Y-87740314D01*
X124820314Y-88158305D01*
X124594100Y-88704436D01*
X123628900Y-88704436D01*
X123628900Y-88477079D01*
X123228674Y-87510848D01*
X122713426Y-86995600D01*
X128624859Y-86995600D01*
X128694900Y-87009532D01*
X128764941Y-86995600D01*
X128764946Y-86995600D01*
X128972396Y-86954336D01*
X129207646Y-86797146D01*
X129247324Y-86737764D01*
X130836435Y-85148654D01*
X131044949Y-85652052D01*
X131422897Y-86030000D01*
X131044949Y-86407948D01*
X130805200Y-86986753D01*
X130805200Y-87613247D01*
X131044949Y-88192052D01*
X131422897Y-88570000D01*
X131044949Y-88947948D01*
X130805200Y-89526753D01*
X130805200Y-90153247D01*
X131044949Y-90732052D01*
X131422897Y-91110000D01*
X131044949Y-91487948D01*
X130805200Y-92066753D01*
X130805200Y-92693247D01*
X131044949Y-93272052D01*
X131422897Y-93650000D01*
X131044949Y-94027948D01*
X130805200Y-94606753D01*
X130805200Y-94879412D01*
X130289200Y-94363412D01*
X130289200Y-88239736D01*
X130331658Y-88197278D01*
X130467000Y-87870533D01*
X130467000Y-87516867D01*
X130331658Y-87190122D01*
X130081578Y-86940042D01*
X129754833Y-86804700D01*
X129401167Y-86804700D01*
X129074422Y-86940042D01*
X128824342Y-87190122D01*
X128689000Y-87516867D01*
X128689000Y-87870533D01*
X128824342Y-88197278D01*
X128866801Y-88239737D01*
X128866800Y-94587959D01*
X128852868Y-94658000D01*
X128866800Y-94728041D01*
X128866800Y-94728045D01*
X128908064Y-94935495D01*
X128908065Y-94935496D01*
X129025576Y-95111364D01*
X129025578Y-95111366D01*
X129065254Y-95170745D01*
X129124634Y-95210422D01*
X130880112Y-96965900D01*
X130805200Y-97146753D01*
X130805200Y-97773247D01*
X131044949Y-98352052D01*
X131422897Y-98730000D01*
X131044949Y-99107948D01*
X130805200Y-99686753D01*
X130805200Y-99959411D01*
X127392423Y-96546635D01*
X127352746Y-96487254D01*
X127117496Y-96330064D01*
X126910046Y-96288800D01*
X126910041Y-96288800D01*
X126840000Y-96274868D01*
X126769959Y-96288800D01*
X126219962Y-96288800D01*
X126145051Y-96107948D01*
X125702052Y-95664949D01*
X125123247Y-95425200D01*
X124496753Y-95425200D01*
X123917948Y-95664949D01*
X123474949Y-96107948D01*
X123235200Y-96686753D01*
X123235200Y-97313247D01*
X123474949Y-97892052D01*
X123917948Y-98335051D01*
X124496753Y-98574800D01*
X125123247Y-98574800D01*
X125702052Y-98335051D01*
X126145051Y-97892052D01*
X126219962Y-97711200D01*
X126545412Y-97711200D01*
X130880112Y-102045900D01*
X130805200Y-102226753D01*
X130805200Y-102630361D01*
X130648968Y-102575637D01*
X129719605Y-103505000D01*
X130648968Y-104434363D01*
X130909580Y-104343077D01*
X131126045Y-103755167D01*
X131115979Y-103503082D01*
X131485214Y-103872317D01*
X131450637Y-103971032D01*
X132380000Y-104900395D01*
X133309363Y-103971032D01*
X133274786Y-103872317D01*
X133715051Y-103432052D01*
X133954800Y-102853247D01*
X133954800Y-102226753D01*
X133715051Y-101647948D01*
X133337103Y-101270000D01*
X133715051Y-100892052D01*
X133953642Y-100316043D01*
X133962676Y-100329564D01*
X133962679Y-100329567D01*
X134002355Y-100388946D01*
X134061734Y-100428622D01*
X137345000Y-103711889D01*
X137345000Y-103920923D01*
X137269096Y-103845019D01*
X136568928Y-103555000D01*
X135811072Y-103555000D01*
X135110904Y-103845019D01*
X134575019Y-104380904D01*
X134285000Y-105081072D01*
X134285000Y-105838928D01*
X134573419Y-106535232D01*
X134078305Y-106740314D01*
X133833674Y-106984945D01*
X133749580Y-106781923D01*
X133488968Y-106690637D01*
X132559605Y-107620000D01*
X133488968Y-108549363D01*
X133532859Y-108533989D01*
X133660314Y-108841695D01*
X134078305Y-109259686D01*
X134624436Y-109485900D01*
X135215564Y-109485900D01*
X135761695Y-109259686D01*
X136179686Y-108841695D01*
X136216500Y-108752817D01*
X136216501Y-114425200D01*
X135876753Y-114425200D01*
X135297948Y-114664949D01*
X134854949Y-115107948D01*
X134615200Y-115686753D01*
X134615200Y-116313247D01*
X134854949Y-116892052D01*
X135034997Y-117072100D01*
X130885386Y-117072100D01*
X131114800Y-116518247D01*
X131114800Y-115891753D01*
X130875051Y-115312948D01*
X130497103Y-114935000D01*
X130875051Y-114557052D01*
X131114800Y-113978247D01*
X131114800Y-113661903D01*
X131487948Y-114035051D01*
X132066753Y-114274800D01*
X132693247Y-114274800D01*
X133272052Y-114035051D01*
X133715051Y-113592052D01*
X133954800Y-113013247D01*
X133954800Y-112386753D01*
X133715051Y-111807948D01*
X133337103Y-111430000D01*
X133715051Y-111052052D01*
X133954800Y-110473247D01*
X133954800Y-109846753D01*
X133715051Y-109267948D01*
X133274786Y-108827683D01*
X133309363Y-108728968D01*
X132380000Y-107799605D01*
X131450637Y-108728968D01*
X131485214Y-108827683D01*
X131044949Y-109267948D01*
X130805200Y-109846753D01*
X130805200Y-110163097D01*
X130497103Y-109855000D01*
X130875051Y-109477052D01*
X131114800Y-108898247D01*
X131114800Y-108494639D01*
X131271032Y-108549363D01*
X132200395Y-107620000D01*
X131271032Y-106690637D01*
X131010420Y-106781923D01*
X130793955Y-107369833D01*
X130804021Y-107621918D01*
X130497103Y-107315000D01*
X130875051Y-106937052D01*
X131114800Y-106358247D01*
X131114800Y-106188968D01*
X131450637Y-106188968D01*
X131507043Y-106350000D01*
X131450637Y-106511032D01*
X132380000Y-107440395D01*
X133309363Y-106511032D01*
X133252957Y-106350000D01*
X133309363Y-106188968D01*
X132380000Y-105259605D01*
X131450637Y-106188968D01*
X131114800Y-106188968D01*
X131114800Y-105954639D01*
X131271032Y-106009363D01*
X132200395Y-105080000D01*
X132559605Y-105080000D01*
X133488968Y-106009363D01*
X133749580Y-105918077D01*
X133966045Y-105330167D01*
X133941049Y-104704172D01*
X133749580Y-104241923D01*
X133488968Y-104150637D01*
X132559605Y-105080000D01*
X132200395Y-105080000D01*
X131271032Y-104150637D01*
X131010420Y-104241923D01*
X130793955Y-104829833D01*
X130804021Y-105081918D01*
X130434786Y-104712683D01*
X130469363Y-104613968D01*
X129540000Y-103684605D01*
X128610637Y-104613968D01*
X128645214Y-104712683D01*
X128204949Y-105152948D01*
X127965200Y-105731753D01*
X127965200Y-106358247D01*
X128040112Y-106539100D01*
X127511034Y-107068178D01*
X127451655Y-107107854D01*
X127411979Y-107167233D01*
X127411976Y-107167236D01*
X127369634Y-107230606D01*
X127339686Y-107158305D01*
X126921695Y-106740314D01*
X126375564Y-106514100D01*
X125784436Y-106514100D01*
X125238305Y-106740314D01*
X124820314Y-107158305D01*
X124594100Y-107704436D01*
X124594100Y-108295564D01*
X124820314Y-108841695D01*
X125238305Y-109259686D01*
X125784436Y-109485900D01*
X126375564Y-109485900D01*
X126921695Y-109259686D01*
X127253201Y-108928180D01*
X127253200Y-116751359D01*
X127239268Y-116821400D01*
X127253200Y-116891441D01*
X127253200Y-116891445D01*
X127294464Y-117098895D01*
X127294465Y-117098896D01*
X127411976Y-117274764D01*
X127411978Y-117274766D01*
X127451654Y-117334145D01*
X127511034Y-117373822D01*
X128373878Y-118236667D01*
X128413554Y-118296046D01*
X128441920Y-118315000D01*
X112230006Y-118315000D01*
X112143391Y-118279123D01*
X111904101Y-118231525D01*
X111822798Y-118177201D01*
X111768475Y-118095901D01*
X111720877Y-117856609D01*
X111685000Y-117769994D01*
X111685000Y-115686753D01*
X115615200Y-115686753D01*
X115615200Y-116313247D01*
X115854949Y-116892052D01*
X116297948Y-117335051D01*
X116876753Y-117574800D01*
X117503247Y-117574800D01*
X118082052Y-117335051D01*
X118525051Y-116892052D01*
X118764800Y-116313247D01*
X118764800Y-115686753D01*
X123235200Y-115686753D01*
X123235200Y-116313247D01*
X123474949Y-116892052D01*
X123917948Y-117335051D01*
X124496753Y-117574800D01*
X125123247Y-117574800D01*
X125702052Y-117335051D01*
X126145051Y-116892052D01*
X126384800Y-116313247D01*
X126384800Y-115686753D01*
X126145051Y-115107948D01*
X125702052Y-114664949D01*
X125123247Y-114425200D01*
X124496753Y-114425200D01*
X123917948Y-114664949D01*
X123474949Y-115107948D01*
X123235200Y-115686753D01*
X118764800Y-115686753D01*
X118525051Y-115107948D01*
X118082052Y-114664949D01*
X117503247Y-114425200D01*
X116876753Y-114425200D01*
X116297948Y-114664949D01*
X115854949Y-115107948D01*
X115615200Y-115686753D01*
X111685000Y-115686753D01*
X111685000Y-112751596D01*
X118079000Y-112751596D01*
X118079000Y-113408404D01*
X118330350Y-114015216D01*
X118794784Y-114479650D01*
X119401596Y-114731000D01*
X120058404Y-114731000D01*
X120665216Y-114479650D01*
X120707910Y-114436956D01*
X120715673Y-114455699D01*
X120894302Y-114634327D01*
X121127691Y-114731000D01*
X121984250Y-114731000D01*
X122143000Y-114572250D01*
X122143000Y-113207000D01*
X122397000Y-113207000D01*
X122397000Y-114572250D01*
X122555750Y-114731000D01*
X123412309Y-114731000D01*
X123645698Y-114634327D01*
X123824327Y-114455699D01*
X123921000Y-114222310D01*
X123921000Y-113365750D01*
X123762250Y-113207000D01*
X122397000Y-113207000D01*
X122143000Y-113207000D01*
X122123000Y-113207000D01*
X122123000Y-112953000D01*
X122143000Y-112953000D01*
X122143000Y-111587750D01*
X122397000Y-111587750D01*
X122397000Y-112953000D01*
X123762250Y-112953000D01*
X123921000Y-112794250D01*
X123921000Y-111937690D01*
X123824327Y-111704301D01*
X123645698Y-111525673D01*
X123412309Y-111429000D01*
X122555750Y-111429000D01*
X122397000Y-111587750D01*
X122143000Y-111587750D01*
X121984250Y-111429000D01*
X121127691Y-111429000D01*
X120894302Y-111525673D01*
X120715673Y-111704301D01*
X120707910Y-111723044D01*
X120665216Y-111680350D01*
X120058404Y-111429000D01*
X119401596Y-111429000D01*
X118794784Y-111680350D01*
X118330350Y-112144784D01*
X118079000Y-112751596D01*
X111685000Y-112751596D01*
X111685000Y-80230006D01*
X111720877Y-80143391D01*
X111768475Y-79904099D01*
X111822798Y-79822799D01*
X111904101Y-79768475D01*
X112143391Y-79720877D01*
X112230006Y-79685000D01*
X186769994Y-79685000D01*
X186856609Y-79720877D01*
X186856609Y-79720877D01*
G37*
X186856609Y-79720877D02*
X187095901Y-79768475D01*
X187177201Y-79822798D01*
X187231525Y-79904101D01*
X187279123Y-80143391D01*
X187315001Y-80230008D01*
X187315000Y-117769994D01*
X187279123Y-117856609D01*
X187231525Y-118095899D01*
X187177201Y-118177202D01*
X187095901Y-118231525D01*
X186856609Y-118279123D01*
X186769994Y-118315000D01*
X144717880Y-118315000D01*
X144746246Y-118296046D01*
X144785924Y-118236664D01*
X146304667Y-116717922D01*
X146364046Y-116678246D01*
X146403722Y-116618867D01*
X146403724Y-116618865D01*
X146521235Y-116442997D01*
X146521236Y-116442996D01*
X146562500Y-116235546D01*
X146562500Y-116235542D01*
X146576432Y-116165500D01*
X146562500Y-116095458D01*
X146562500Y-115686753D01*
X153615200Y-115686753D01*
X153615200Y-116313247D01*
X153854949Y-116892052D01*
X154297948Y-117335051D01*
X154876753Y-117574800D01*
X155503247Y-117574800D01*
X156082052Y-117335051D01*
X156525051Y-116892052D01*
X156764800Y-116313247D01*
X156764800Y-115686753D01*
X161235200Y-115686753D01*
X161235200Y-116313247D01*
X161474949Y-116892052D01*
X161917948Y-117335051D01*
X162496753Y-117574800D01*
X163123247Y-117574800D01*
X163702052Y-117335051D01*
X164145051Y-116892052D01*
X164384800Y-116313247D01*
X164384800Y-115686753D01*
X172615200Y-115686753D01*
X172615200Y-116313247D01*
X172854949Y-116892052D01*
X173297948Y-117335051D01*
X173876753Y-117574800D01*
X174503247Y-117574800D01*
X175082052Y-117335051D01*
X175525051Y-116892052D01*
X175764800Y-116313247D01*
X175764800Y-115686753D01*
X180235200Y-115686753D01*
X180235200Y-116313247D01*
X180474949Y-116892052D01*
X180917948Y-117335051D01*
X181496753Y-117574800D01*
X182123247Y-117574800D01*
X182702052Y-117335051D01*
X183145051Y-116892052D01*
X183384800Y-116313247D01*
X183384800Y-115686753D01*
X183145051Y-115107948D01*
X182702052Y-114664949D01*
X182123247Y-114425200D01*
X181496753Y-114425200D01*
X180917948Y-114664949D01*
X180474949Y-115107948D01*
X180235200Y-115686753D01*
X175764800Y-115686753D01*
X175525051Y-115107948D01*
X175082052Y-114664949D01*
X174503247Y-114425200D01*
X173876753Y-114425200D01*
X173297948Y-114664949D01*
X172854949Y-115107948D01*
X172615200Y-115686753D01*
X164384800Y-115686753D01*
X164145051Y-115107948D01*
X163702052Y-114664949D01*
X163123247Y-114425200D01*
X162496753Y-114425200D01*
X161917948Y-114664949D01*
X161474949Y-115107948D01*
X161235200Y-115686753D01*
X156764800Y-115686753D01*
X156525051Y-115107948D01*
X156082052Y-114664949D01*
X155503247Y-114425200D01*
X154876753Y-114425200D01*
X154297948Y-114664949D01*
X153854949Y-115107948D01*
X153615200Y-115686753D01*
X146562500Y-115686753D01*
X146562500Y-113869603D01*
X146727948Y-114035051D01*
X147306753Y-114274800D01*
X147933247Y-114274800D01*
X148512052Y-114035051D01*
X148955051Y-113592052D01*
X149194800Y-113013247D01*
X149194800Y-112751596D01*
X156079000Y-112751596D01*
X156079000Y-113408404D01*
X156330350Y-114015216D01*
X156794784Y-114479650D01*
X157401596Y-114731000D01*
X158058404Y-114731000D01*
X158665216Y-114479650D01*
X158707910Y-114436956D01*
X158715673Y-114455699D01*
X158894302Y-114634327D01*
X159127691Y-114731000D01*
X159984250Y-114731000D01*
X160143000Y-114572250D01*
X160143000Y-113207000D01*
X160397000Y-113207000D01*
X160397000Y-114572250D01*
X160555750Y-114731000D01*
X161412309Y-114731000D01*
X161645698Y-114634327D01*
X161824327Y-114455699D01*
X161921000Y-114222310D01*
X161921000Y-113365750D01*
X161762250Y-113207000D01*
X160397000Y-113207000D01*
X160143000Y-113207000D01*
X160123000Y-113207000D01*
X160123000Y-112953000D01*
X160143000Y-112953000D01*
X160143000Y-111587750D01*
X160397000Y-111587750D01*
X160397000Y-112953000D01*
X161762250Y-112953000D01*
X161921000Y-112794250D01*
X161921000Y-112751596D01*
X175079000Y-112751596D01*
X175079000Y-113408404D01*
X175330350Y-114015216D01*
X175794784Y-114479650D01*
X176401596Y-114731000D01*
X177058404Y-114731000D01*
X177665216Y-114479650D01*
X177707910Y-114436956D01*
X177715673Y-114455699D01*
X177894302Y-114634327D01*
X178127691Y-114731000D01*
X178984250Y-114731000D01*
X179143000Y-114572250D01*
X179143000Y-113207000D01*
X179397000Y-113207000D01*
X179397000Y-114572250D01*
X179555750Y-114731000D01*
X180412309Y-114731000D01*
X180645698Y-114634327D01*
X180824327Y-114455699D01*
X180921000Y-114222310D01*
X180921000Y-113365750D01*
X180762250Y-113207000D01*
X179397000Y-113207000D01*
X179143000Y-113207000D01*
X179123000Y-113207000D01*
X179123000Y-112953000D01*
X179143000Y-112953000D01*
X179143000Y-111587750D01*
X179397000Y-111587750D01*
X179397000Y-112953000D01*
X180762250Y-112953000D01*
X180921000Y-112794250D01*
X180921000Y-111937690D01*
X180824327Y-111704301D01*
X180645698Y-111525673D01*
X180412309Y-111429000D01*
X179555750Y-111429000D01*
X179397000Y-111587750D01*
X179143000Y-111587750D01*
X178984250Y-111429000D01*
X178127691Y-111429000D01*
X177894302Y-111525673D01*
X177715673Y-111704301D01*
X177707910Y-111723044D01*
X177665216Y-111680350D01*
X177058404Y-111429000D01*
X176401596Y-111429000D01*
X175794784Y-111680350D01*
X175330350Y-112144784D01*
X175079000Y-112751596D01*
X161921000Y-112751596D01*
X161921000Y-111937690D01*
X161824327Y-111704301D01*
X161645698Y-111525673D01*
X161412309Y-111429000D01*
X160555750Y-111429000D01*
X160397000Y-111587750D01*
X160143000Y-111587750D01*
X159984250Y-111429000D01*
X159127691Y-111429000D01*
X158894302Y-111525673D01*
X158715673Y-111704301D01*
X158707910Y-111723044D01*
X158665216Y-111680350D01*
X158058404Y-111429000D01*
X157401596Y-111429000D01*
X156794784Y-111680350D01*
X156330350Y-112144784D01*
X156079000Y-112751596D01*
X149194800Y-112751596D01*
X149194800Y-112386753D01*
X148955051Y-111807948D01*
X148514786Y-111367683D01*
X148549363Y-111268968D01*
X147620000Y-110339605D01*
X147605858Y-110353748D01*
X147426253Y-110174143D01*
X147440395Y-110160000D01*
X147799605Y-110160000D01*
X148728968Y-111089363D01*
X148989580Y-110998077D01*
X149206045Y-110410167D01*
X149181049Y-109784172D01*
X148989580Y-109321923D01*
X148728968Y-109230637D01*
X147799605Y-110160000D01*
X147440395Y-110160000D01*
X147426253Y-110145858D01*
X147605858Y-109966253D01*
X147620000Y-109980395D01*
X148549363Y-109051032D01*
X148514786Y-108952317D01*
X148955051Y-108512052D01*
X149194800Y-107933247D01*
X149194800Y-107704436D01*
X152434100Y-107704436D01*
X152434100Y-108295564D01*
X152660314Y-108841695D01*
X153078305Y-109259686D01*
X153624436Y-109485900D01*
X154215564Y-109485900D01*
X154761695Y-109259686D01*
X155179686Y-108841695D01*
X155405900Y-108295564D01*
X155405900Y-107704436D01*
X155265302Y-107365000D01*
X155568928Y-107365000D01*
X156269096Y-107074981D01*
X156727554Y-106616523D01*
X156371100Y-107477079D01*
X156371100Y-108522921D01*
X156771326Y-109489152D01*
X157510848Y-110228674D01*
X158477079Y-110628900D01*
X159522921Y-110628900D01*
X160489152Y-110228674D01*
X161228674Y-109489152D01*
X161628900Y-108522921D01*
X161628900Y-107704436D01*
X162594100Y-107704436D01*
X162594100Y-108295564D01*
X162820314Y-108841695D01*
X163238305Y-109259686D01*
X163784436Y-109485900D01*
X164375564Y-109485900D01*
X164921695Y-109259686D01*
X165339686Y-108841695D01*
X165565900Y-108295564D01*
X165565900Y-107704436D01*
X171434100Y-107704436D01*
X171434100Y-108295564D01*
X171660314Y-108841695D01*
X172078305Y-109259686D01*
X172624436Y-109485900D01*
X173215564Y-109485900D01*
X173761695Y-109259686D01*
X174179686Y-108841695D01*
X174405900Y-108295564D01*
X174405900Y-107704436D01*
X174265302Y-107365000D01*
X174568928Y-107365000D01*
X175269096Y-107074981D01*
X175727554Y-106616523D01*
X175371100Y-107477079D01*
X175371100Y-108522921D01*
X175771326Y-109489152D01*
X176510848Y-110228674D01*
X177477079Y-110628900D01*
X178522921Y-110628900D01*
X179489152Y-110228674D01*
X180228674Y-109489152D01*
X180628900Y-108522921D01*
X180628900Y-107704436D01*
X181594100Y-107704436D01*
X181594100Y-108295564D01*
X181820314Y-108841695D01*
X182238305Y-109259686D01*
X182784436Y-109485900D01*
X183375564Y-109485900D01*
X183921695Y-109259686D01*
X184339686Y-108841695D01*
X184565900Y-108295564D01*
X184565900Y-107704436D01*
X184339686Y-107158305D01*
X183921695Y-106740314D01*
X183375564Y-106514100D01*
X182784436Y-106514100D01*
X182238305Y-106740314D01*
X181820314Y-107158305D01*
X181594100Y-107704436D01*
X180628900Y-107704436D01*
X180628900Y-107477079D01*
X180228674Y-106510848D01*
X179489152Y-105771326D01*
X178522921Y-105371100D01*
X177477079Y-105371100D01*
X176510848Y-105771326D01*
X175848753Y-106433421D01*
X176095000Y-105838928D01*
X176095000Y-105081072D01*
X175804981Y-104380904D01*
X175691854Y-104267777D01*
X179371828Y-104267777D01*
X179503520Y-104562657D01*
X180211036Y-104834261D01*
X180968632Y-104814436D01*
X181576480Y-104562657D01*
X181708172Y-104267777D01*
X180540000Y-103099605D01*
X179371828Y-104267777D01*
X175691854Y-104267777D01*
X175269096Y-103845019D01*
X174568928Y-103555000D01*
X173811072Y-103555000D01*
X173110904Y-103845019D01*
X172575019Y-104380904D01*
X172285000Y-105081072D01*
X172285000Y-105838928D01*
X172573419Y-106535232D01*
X172078305Y-106740314D01*
X171660314Y-107158305D01*
X171434100Y-107704436D01*
X165565900Y-107704436D01*
X165339686Y-107158305D01*
X164921695Y-106740314D01*
X164375564Y-106514100D01*
X163784436Y-106514100D01*
X163238305Y-106740314D01*
X162820314Y-107158305D01*
X162594100Y-107704436D01*
X161628900Y-107704436D01*
X161628900Y-107477079D01*
X161228674Y-106510848D01*
X160489152Y-105771326D01*
X159522921Y-105371100D01*
X158477079Y-105371100D01*
X157510848Y-105771326D01*
X156848753Y-106433421D01*
X157095000Y-105838928D01*
X157095000Y-105081072D01*
X156804981Y-104380904D01*
X156691854Y-104267777D01*
X160371828Y-104267777D01*
X160503520Y-104562657D01*
X161211036Y-104834261D01*
X161968632Y-104814436D01*
X162576480Y-104562657D01*
X162708172Y-104267777D01*
X161540000Y-103099605D01*
X160371828Y-104267777D01*
X156691854Y-104267777D01*
X156269096Y-103845019D01*
X155568928Y-103555000D01*
X154811072Y-103555000D01*
X154110904Y-103845019D01*
X153575019Y-104380904D01*
X153285000Y-105081072D01*
X153285000Y-105838928D01*
X153573419Y-106535232D01*
X153078305Y-106740314D01*
X152660314Y-107158305D01*
X152434100Y-107704436D01*
X149194800Y-107704436D01*
X149194800Y-107306753D01*
X149119888Y-107125900D01*
X154538089Y-101707700D01*
X160148092Y-101707700D01*
X160192221Y-101751829D01*
X159897343Y-101883520D01*
X159625739Y-102591036D01*
X159645564Y-103348632D01*
X159897343Y-103956480D01*
X160192223Y-104088172D01*
X161360395Y-102920000D01*
X161719605Y-102920000D01*
X162887777Y-104088172D01*
X163182657Y-103956480D01*
X163454261Y-103248964D01*
X163434436Y-102491368D01*
X163182657Y-101883520D01*
X162887777Y-101751828D01*
X161719605Y-102920000D01*
X161360395Y-102920000D01*
X161346253Y-102905858D01*
X161525858Y-102726253D01*
X161540000Y-102740395D01*
X162708172Y-101572223D01*
X162648208Y-101437953D01*
X164664600Y-101437953D01*
X164664600Y-102064447D01*
X164904349Y-102643252D01*
X165347348Y-103086251D01*
X165926153Y-103326000D01*
X166552647Y-103326000D01*
X167131452Y-103086251D01*
X167574451Y-102643252D01*
X167814200Y-102064447D01*
X167814200Y-101437953D01*
X169185800Y-101437953D01*
X169185800Y-102064447D01*
X169425549Y-102643252D01*
X169868548Y-103086251D01*
X170447353Y-103326000D01*
X171073847Y-103326000D01*
X171652652Y-103086251D01*
X172095651Y-102643252D01*
X172117279Y-102591036D01*
X178625739Y-102591036D01*
X178645564Y-103348632D01*
X178897343Y-103956480D01*
X179192223Y-104088172D01*
X180360395Y-102920000D01*
X180719605Y-102920000D01*
X181887777Y-104088172D01*
X182182657Y-103956480D01*
X182454261Y-103248964D01*
X182434436Y-102491368D01*
X182182657Y-101883520D01*
X181887777Y-101751828D01*
X180719605Y-102920000D01*
X180360395Y-102920000D01*
X179192223Y-101751828D01*
X178897343Y-101883520D01*
X178625739Y-102591036D01*
X172117279Y-102591036D01*
X172335400Y-102064447D01*
X172335400Y-101572223D01*
X179371828Y-101572223D01*
X180540000Y-102740395D01*
X181708172Y-101572223D01*
X181576480Y-101277343D01*
X180868964Y-101005739D01*
X180111368Y-101025564D01*
X179503520Y-101277343D01*
X179371828Y-101572223D01*
X172335400Y-101572223D01*
X172335400Y-101437953D01*
X172095651Y-100859148D01*
X171652652Y-100416149D01*
X171073847Y-100176400D01*
X170447353Y-100176400D01*
X169868548Y-100416149D01*
X169425549Y-100859148D01*
X169185800Y-101437953D01*
X167814200Y-101437953D01*
X167574451Y-100859148D01*
X167131452Y-100416149D01*
X166552647Y-100176400D01*
X165926153Y-100176400D01*
X165347348Y-100416149D01*
X164904349Y-100859148D01*
X164664600Y-101437953D01*
X162648208Y-101437953D01*
X162576480Y-101277343D01*
X161940274Y-101033114D01*
X166149789Y-96823600D01*
X166552647Y-96823600D01*
X167131452Y-96583851D01*
X167357535Y-96357768D01*
X169831237Y-96357768D01*
X169922523Y-96618380D01*
X170510433Y-96834845D01*
X171136428Y-96809849D01*
X171433609Y-96686753D01*
X172615200Y-96686753D01*
X172615200Y-97313247D01*
X172854949Y-97892052D01*
X173297948Y-98335051D01*
X173876753Y-98574800D01*
X174503247Y-98574800D01*
X175082052Y-98335051D01*
X175525051Y-97892052D01*
X175764800Y-97313247D01*
X175764800Y-96686753D01*
X180235200Y-96686753D01*
X180235200Y-97313247D01*
X180474949Y-97892052D01*
X180917948Y-98335051D01*
X181496753Y-98574800D01*
X182123247Y-98574800D01*
X182702052Y-98335051D01*
X183145051Y-97892052D01*
X183384800Y-97313247D01*
X183384800Y-96686753D01*
X183145051Y-96107948D01*
X182702052Y-95664949D01*
X182123247Y-95425200D01*
X181496753Y-95425200D01*
X180917948Y-95664949D01*
X180474949Y-96107948D01*
X180235200Y-96686753D01*
X175764800Y-96686753D01*
X175525051Y-96107948D01*
X175082052Y-95664949D01*
X174503247Y-95425200D01*
X173876753Y-95425200D01*
X173297948Y-95664949D01*
X172854949Y-96107948D01*
X172615200Y-96686753D01*
X171433609Y-96686753D01*
X171598677Y-96618380D01*
X171689963Y-96357768D01*
X170760600Y-95428405D01*
X169831237Y-96357768D01*
X167357535Y-96357768D01*
X167574451Y-96140852D01*
X167814200Y-95562047D01*
X167814200Y-94998633D01*
X169174555Y-94998633D01*
X169199551Y-95624628D01*
X169391020Y-96086877D01*
X169651632Y-96178163D01*
X170580995Y-95248800D01*
X170940205Y-95248800D01*
X171869568Y-96178163D01*
X172130180Y-96086877D01*
X172346645Y-95498967D01*
X172321649Y-94872972D01*
X172130180Y-94410723D01*
X171869568Y-94319437D01*
X170940205Y-95248800D01*
X170580995Y-95248800D01*
X169651632Y-94319437D01*
X169391020Y-94410723D01*
X169174555Y-94998633D01*
X167814200Y-94998633D01*
X167814200Y-94935553D01*
X167574451Y-94356748D01*
X167357535Y-94139832D01*
X169831237Y-94139832D01*
X170760600Y-95069195D01*
X171689963Y-94139832D01*
X171598677Y-93879220D01*
X171252056Y-93751596D01*
X175079000Y-93751596D01*
X175079000Y-94408404D01*
X175330350Y-95015216D01*
X175794784Y-95479650D01*
X176401596Y-95731000D01*
X177058404Y-95731000D01*
X177665216Y-95479650D01*
X177707910Y-95436956D01*
X177715673Y-95455699D01*
X177894302Y-95634327D01*
X178127691Y-95731000D01*
X178984250Y-95731000D01*
X179143000Y-95572250D01*
X179143000Y-94207000D01*
X179397000Y-94207000D01*
X179397000Y-95572250D01*
X179555750Y-95731000D01*
X180412309Y-95731000D01*
X180645698Y-95634327D01*
X180824327Y-95455699D01*
X180921000Y-95222310D01*
X180921000Y-94365750D01*
X180762250Y-94207000D01*
X179397000Y-94207000D01*
X179143000Y-94207000D01*
X179123000Y-94207000D01*
X179123000Y-93953000D01*
X179143000Y-93953000D01*
X179143000Y-92587750D01*
X179397000Y-92587750D01*
X179397000Y-93953000D01*
X180762250Y-93953000D01*
X180921000Y-93794250D01*
X180921000Y-92937690D01*
X180824327Y-92704301D01*
X180645698Y-92525673D01*
X180412309Y-92429000D01*
X179555750Y-92429000D01*
X179397000Y-92587750D01*
X179143000Y-92587750D01*
X178984250Y-92429000D01*
X178127691Y-92429000D01*
X177894302Y-92525673D01*
X177715673Y-92704301D01*
X177707910Y-92723044D01*
X177665216Y-92680350D01*
X177058404Y-92429000D01*
X176401596Y-92429000D01*
X175794784Y-92680350D01*
X175330350Y-93144784D01*
X175079000Y-93751596D01*
X171252056Y-93751596D01*
X171010767Y-93662755D01*
X170384772Y-93687751D01*
X169922523Y-93879220D01*
X169831237Y-94139832D01*
X167357535Y-94139832D01*
X167131452Y-93913749D01*
X166552647Y-93674000D01*
X165926153Y-93674000D01*
X165347348Y-93913749D01*
X164904349Y-94356748D01*
X164664600Y-94935553D01*
X164664600Y-95562047D01*
X164879925Y-96081886D01*
X164352657Y-96609154D01*
X164145051Y-96107948D01*
X163702052Y-95664949D01*
X163123247Y-95425200D01*
X163003388Y-95425200D01*
X169812489Y-88616100D01*
X169872533Y-88616100D01*
X170199278Y-88480758D01*
X170449358Y-88230678D01*
X170584700Y-87903933D01*
X170584700Y-87550267D01*
X170449358Y-87223522D01*
X170397036Y-87171200D01*
X172422632Y-87171200D01*
X172573419Y-87535232D01*
X172078305Y-87740314D01*
X171660314Y-88158305D01*
X171434100Y-88704436D01*
X171434100Y-89295564D01*
X171660314Y-89841695D01*
X172078305Y-90259686D01*
X172624436Y-90485900D01*
X173215564Y-90485900D01*
X173761695Y-90259686D01*
X174179686Y-89841695D01*
X174405900Y-89295564D01*
X174405900Y-88704436D01*
X174265302Y-88365000D01*
X174568928Y-88365000D01*
X175269096Y-88074981D01*
X175727554Y-87616523D01*
X175371100Y-88477079D01*
X175371100Y-89522921D01*
X175771326Y-90489152D01*
X176510848Y-91228674D01*
X177477079Y-91628900D01*
X178522921Y-91628900D01*
X179489152Y-91228674D01*
X180228674Y-90489152D01*
X180628900Y-89522921D01*
X180628900Y-88704436D01*
X181594100Y-88704436D01*
X181594100Y-89295564D01*
X181820314Y-89841695D01*
X182238305Y-90259686D01*
X182784436Y-90485900D01*
X183375564Y-90485900D01*
X183921695Y-90259686D01*
X184339686Y-89841695D01*
X184565900Y-89295564D01*
X184565900Y-88704436D01*
X184339686Y-88158305D01*
X183921695Y-87740314D01*
X183375564Y-87514100D01*
X182784436Y-87514100D01*
X182238305Y-87740314D01*
X181820314Y-88158305D01*
X181594100Y-88704436D01*
X180628900Y-88704436D01*
X180628900Y-88477079D01*
X180228674Y-87510848D01*
X179489152Y-86771326D01*
X178522921Y-86371100D01*
X177477079Y-86371100D01*
X176510848Y-86771326D01*
X175848753Y-87433421D01*
X176095000Y-86838928D01*
X176095000Y-86081072D01*
X175804981Y-85380904D01*
X175691854Y-85267777D01*
X179371828Y-85267777D01*
X179503520Y-85562657D01*
X180211036Y-85834261D01*
X180968632Y-85814436D01*
X181576480Y-85562657D01*
X181708172Y-85267777D01*
X180540000Y-84099605D01*
X179371828Y-85267777D01*
X175691854Y-85267777D01*
X175269096Y-84845019D01*
X174568928Y-84555000D01*
X173811072Y-84555000D01*
X173110904Y-84845019D01*
X172575019Y-85380904D01*
X172422632Y-85748800D01*
X162127091Y-85748800D01*
X162576480Y-85562657D01*
X162708172Y-85267777D01*
X161540000Y-84099605D01*
X161525858Y-84113748D01*
X161346253Y-83934143D01*
X161360395Y-83920000D01*
X161719605Y-83920000D01*
X162887777Y-85088172D01*
X163182657Y-84956480D01*
X163454261Y-84248964D01*
X163437045Y-83591036D01*
X178625739Y-83591036D01*
X178645564Y-84348632D01*
X178897343Y-84956480D01*
X179192223Y-85088172D01*
X180360395Y-83920000D01*
X180719605Y-83920000D01*
X181887777Y-85088172D01*
X182182657Y-84956480D01*
X182454261Y-84248964D01*
X182434436Y-83491368D01*
X182182657Y-82883520D01*
X181887777Y-82751828D01*
X180719605Y-83920000D01*
X180360395Y-83920000D01*
X179192223Y-82751828D01*
X178897343Y-82883520D01*
X178625739Y-83591036D01*
X163437045Y-83591036D01*
X163434436Y-83491368D01*
X163182657Y-82883520D01*
X162887777Y-82751828D01*
X161719605Y-83920000D01*
X161360395Y-83920000D01*
X160192223Y-82751828D01*
X159897343Y-82883520D01*
X159625739Y-83591036D01*
X159645564Y-84348632D01*
X159835029Y-84806041D01*
X159172524Y-84143536D01*
X159132846Y-84084154D01*
X158897596Y-83926964D01*
X158690146Y-83885700D01*
X158690141Y-83885700D01*
X158620100Y-83871768D01*
X158550059Y-83885700D01*
X154481842Y-83885700D01*
X154411800Y-83871768D01*
X154341758Y-83885700D01*
X154341754Y-83885700D01*
X154134304Y-83926964D01*
X154134302Y-83926965D01*
X154134303Y-83926965D01*
X153958435Y-84044476D01*
X153958433Y-84044478D01*
X153899054Y-84084154D01*
X153859378Y-84143533D01*
X149123434Y-88879478D01*
X149064054Y-88919155D01*
X149024378Y-88978534D01*
X149024376Y-88978536D01*
X148989402Y-89030878D01*
X148955051Y-88947948D01*
X148577103Y-88570000D01*
X148955051Y-88192052D01*
X149194800Y-87613247D01*
X149194800Y-86986753D01*
X148955051Y-86407948D01*
X148577103Y-86030000D01*
X148955051Y-85652052D01*
X149194800Y-85073247D01*
X149194800Y-84446753D01*
X148955051Y-83867948D01*
X148512052Y-83424949D01*
X147933247Y-83185200D01*
X147306753Y-83185200D01*
X146727948Y-83424949D01*
X146284949Y-83867948D01*
X146045200Y-84446753D01*
X146045200Y-85073247D01*
X146284949Y-85652052D01*
X146662897Y-86030000D01*
X146284949Y-86407948D01*
X146045200Y-86986753D01*
X146045200Y-87613247D01*
X146222381Y-88041000D01*
X145921695Y-87740314D01*
X145375564Y-87514100D01*
X144784436Y-87514100D01*
X144238305Y-87740314D01*
X144219981Y-87758638D01*
X144201336Y-87664904D01*
X144201335Y-87664902D01*
X144083824Y-87489035D01*
X144083820Y-87489031D01*
X144044145Y-87429654D01*
X143984769Y-87389980D01*
X142423490Y-85828701D01*
X142968632Y-85814436D01*
X143576480Y-85562657D01*
X143708172Y-85267777D01*
X142540000Y-84099605D01*
X142525858Y-84113748D01*
X142346253Y-83934143D01*
X142360395Y-83920000D01*
X142719605Y-83920000D01*
X143887777Y-85088172D01*
X144182657Y-84956480D01*
X144454261Y-84248964D01*
X144434436Y-83491368D01*
X144182657Y-82883520D01*
X143887777Y-82751828D01*
X142719605Y-83920000D01*
X142360395Y-83920000D01*
X141192223Y-82751828D01*
X140897343Y-82883520D01*
X140625739Y-83591036D01*
X140637560Y-84042772D01*
X139167011Y-82572223D01*
X141371828Y-82572223D01*
X142540000Y-83740395D01*
X143708172Y-82572223D01*
X160371828Y-82572223D01*
X161540000Y-83740395D01*
X162708172Y-82572223D01*
X179371828Y-82572223D01*
X180540000Y-83740395D01*
X181708172Y-82572223D01*
X181576480Y-82277343D01*
X180868964Y-82005739D01*
X180111368Y-82025564D01*
X179503520Y-82277343D01*
X179371828Y-82572223D01*
X162708172Y-82572223D01*
X162576480Y-82277343D01*
X161868964Y-82005739D01*
X161111368Y-82025564D01*
X160503520Y-82277343D01*
X160371828Y-82572223D01*
X143708172Y-82572223D01*
X143576480Y-82277343D01*
X142868964Y-82005739D01*
X142111368Y-82025564D01*
X141503520Y-82277343D01*
X141371828Y-82572223D01*
X139167011Y-82572223D01*
X138196624Y-81601836D01*
X138156946Y-81542454D01*
X137921696Y-81385264D01*
X137714246Y-81344000D01*
X137714241Y-81344000D01*
X137644200Y-81330068D01*
X137574159Y-81344000D01*
X118967142Y-81344000D01*
X118897100Y-81330068D01*
X118827058Y-81344000D01*
X118827054Y-81344000D01*
X118619604Y-81385264D01*
X118619602Y-81385265D01*
X118619603Y-81385265D01*
X118443735Y-81502776D01*
X118443733Y-81502778D01*
X118384354Y-81542454D01*
X118344678Y-81601833D01*
X113990834Y-85955678D01*
X113931455Y-85995354D01*
X113891779Y-86054733D01*
X113891776Y-86054736D01*
X113774265Y-86230604D01*
X113719068Y-86508100D01*
X113733001Y-86578146D01*
X113733000Y-102644159D01*
X113719068Y-102714200D01*
X113733000Y-102784241D01*
X113733000Y-102784245D01*
X113774264Y-102991695D01*
X113774265Y-102991696D01*
X113891776Y-103167564D01*
X113891778Y-103167566D01*
X113931454Y-103226945D01*
X113990834Y-103266622D01*
X115437387Y-104713176D01*
X115285000Y-105081072D01*
X115285000Y-105838928D01*
X115573419Y-106535232D01*
X115078305Y-106740314D01*
X114660314Y-107158305D01*
X114434100Y-107704436D01*
X114434100Y-108295564D01*
X114660314Y-108841695D01*
X115078305Y-109259686D01*
X115624436Y-109485900D01*
X116215564Y-109485900D01*
X116761695Y-109259686D01*
X117179686Y-108841695D01*
X117405900Y-108295564D01*
X117405900Y-107704436D01*
X117265302Y-107365000D01*
X117568928Y-107365000D01*
X118269096Y-107074981D01*
X118727554Y-106616523D01*
X118371100Y-107477079D01*
X118371100Y-108522921D01*
X118771326Y-109489152D01*
X119510848Y-110228674D01*
X120477079Y-110628900D01*
X121522921Y-110628900D01*
X122489152Y-110228674D01*
X123228674Y-109489152D01*
X123628900Y-108522921D01*
X123628900Y-107477079D01*
X123228674Y-106510848D01*
X122489152Y-105771326D01*
X121522921Y-105371100D01*
X120477079Y-105371100D01*
X119510848Y-105771326D01*
X118848753Y-106433421D01*
X119095000Y-105838928D01*
X119095000Y-105081072D01*
X118804981Y-104380904D01*
X118691854Y-104267777D01*
X122371828Y-104267777D01*
X122503520Y-104562657D01*
X123211036Y-104834261D01*
X123968632Y-104814436D01*
X124576480Y-104562657D01*
X124708172Y-104267777D01*
X123540000Y-103099605D01*
X122371828Y-104267777D01*
X118691854Y-104267777D01*
X118269096Y-103845019D01*
X117568928Y-103555000D01*
X116811072Y-103555000D01*
X116443176Y-103707387D01*
X115326825Y-102591036D01*
X121625739Y-102591036D01*
X121645564Y-103348632D01*
X121897343Y-103956480D01*
X122192223Y-104088172D01*
X123360395Y-102920000D01*
X123719605Y-102920000D01*
X124887777Y-104088172D01*
X125182657Y-103956480D01*
X125452007Y-103254833D01*
X127953955Y-103254833D01*
X127978951Y-103880828D01*
X128170420Y-104343077D01*
X128431032Y-104434363D01*
X129360395Y-103505000D01*
X128431032Y-102575637D01*
X128170420Y-102666923D01*
X127953955Y-103254833D01*
X125452007Y-103254833D01*
X125454261Y-103248964D01*
X125434436Y-102491368D01*
X125394947Y-102396032D01*
X128610637Y-102396032D01*
X129540000Y-103325395D01*
X130469363Y-102396032D01*
X130378077Y-102135420D01*
X129790167Y-101918955D01*
X129164172Y-101943951D01*
X128701923Y-102135420D01*
X128610637Y-102396032D01*
X125394947Y-102396032D01*
X125182657Y-101883520D01*
X124887777Y-101751828D01*
X123719605Y-102920000D01*
X123360395Y-102920000D01*
X122192223Y-101751828D01*
X121897343Y-101883520D01*
X121625739Y-102591036D01*
X115326825Y-102591036D01*
X115155400Y-102419612D01*
X115155400Y-101572223D01*
X122371828Y-101572223D01*
X123540000Y-102740395D01*
X124708172Y-101572223D01*
X124576480Y-101277343D01*
X123868964Y-101005739D01*
X123111368Y-101025564D01*
X122503520Y-101277343D01*
X122371828Y-101572223D01*
X115155400Y-101572223D01*
X115155400Y-96686753D01*
X115615200Y-96686753D01*
X115615200Y-97313247D01*
X115854949Y-97892052D01*
X116297948Y-98335051D01*
X116876753Y-98574800D01*
X117503247Y-98574800D01*
X118082052Y-98335051D01*
X118525051Y-97892052D01*
X118764800Y-97313247D01*
X118764800Y-96686753D01*
X118525051Y-96107948D01*
X118082052Y-95664949D01*
X117503247Y-95425200D01*
X116876753Y-95425200D01*
X116297948Y-95664949D01*
X115854949Y-96107948D01*
X115615200Y-96686753D01*
X115155400Y-96686753D01*
X115155400Y-93751596D01*
X118079000Y-93751596D01*
X118079000Y-94408404D01*
X118330350Y-95015216D01*
X118794784Y-95479650D01*
X119401596Y-95731000D01*
X120058404Y-95731000D01*
X120665216Y-95479650D01*
X120707910Y-95436956D01*
X120715673Y-95455699D01*
X120894302Y-95634327D01*
X121127691Y-95731000D01*
X121984250Y-95731000D01*
X122143000Y-95572250D01*
X122143000Y-94207000D01*
X122397000Y-94207000D01*
X122397000Y-95572250D01*
X122555750Y-95731000D01*
X123412309Y-95731000D01*
X123645698Y-95634327D01*
X123824327Y-95455699D01*
X123921000Y-95222310D01*
X123921000Y-94365750D01*
X123762250Y-94207000D01*
X122397000Y-94207000D01*
X122143000Y-94207000D01*
X122123000Y-94207000D01*
X122123000Y-93953000D01*
X122143000Y-93953000D01*
X122143000Y-92587750D01*
X122397000Y-92587750D01*
X122397000Y-93953000D01*
X123762250Y-93953000D01*
X123921000Y-93794250D01*
X123921000Y-92937690D01*
X123824327Y-92704301D01*
X123645698Y-92525673D01*
X123412309Y-92429000D01*
X122555750Y-92429000D01*
X122397000Y-92587750D01*
X122143000Y-92587750D01*
X121984250Y-92429000D01*
X121127691Y-92429000D01*
X120894302Y-92525673D01*
X120715673Y-92704301D01*
X120707910Y-92723044D01*
X120665216Y-92680350D01*
X120058404Y-92429000D01*
X119401596Y-92429000D01*
X118794784Y-92680350D01*
X118330350Y-93144784D01*
X118079000Y-93751596D01*
X115155400Y-93751596D01*
X115155400Y-90291620D01*
X115624436Y-90485900D01*
X116215564Y-90485900D01*
X116761695Y-90259686D01*
X117179686Y-89841695D01*
X117405900Y-89295564D01*
X117405900Y-88704436D01*
X117265302Y-88365000D01*
X117568928Y-88365000D01*
X118269096Y-88074981D01*
X118727554Y-87616523D01*
X118371100Y-88477079D01*
X118371100Y-89522921D01*
X118771326Y-90489152D01*
X119510848Y-91228674D01*
X120477079Y-91628900D01*
X121522921Y-91628900D01*
X122489152Y-91228674D01*
X123228674Y-90489152D01*
X123628900Y-89522921D01*
X123628900Y-88704436D01*
X124594100Y-88704436D01*
X124594100Y-89295564D01*
X124820314Y-89841695D01*
X125238305Y-90259686D01*
X125784436Y-90485900D01*
X126375564Y-90485900D01*
X126921695Y-90259686D01*
X127339686Y-89841695D01*
X127565900Y-89295564D01*
X127565900Y-88704436D01*
X127339686Y-88158305D01*
X126921695Y-87740314D01*
X126375564Y-87514100D01*
X125784436Y-87514100D01*
X125238305Y-87740314D01*
X124820314Y-88158305D01*
X124594100Y-88704436D01*
X123628900Y-88704436D01*
X123628900Y-88477079D01*
X123228674Y-87510848D01*
X122713426Y-86995600D01*
X128624859Y-86995600D01*
X128694900Y-87009532D01*
X128764941Y-86995600D01*
X128764946Y-86995600D01*
X128972396Y-86954336D01*
X129207646Y-86797146D01*
X129247324Y-86737764D01*
X130836435Y-85148654D01*
X131044949Y-85652052D01*
X131422897Y-86030000D01*
X131044949Y-86407948D01*
X130805200Y-86986753D01*
X130805200Y-87613247D01*
X131044949Y-88192052D01*
X131422897Y-88570000D01*
X131044949Y-88947948D01*
X130805200Y-89526753D01*
X130805200Y-90153247D01*
X131044949Y-90732052D01*
X131422897Y-91110000D01*
X131044949Y-91487948D01*
X130805200Y-92066753D01*
X130805200Y-92693247D01*
X131044949Y-93272052D01*
X131422897Y-93650000D01*
X131044949Y-94027948D01*
X130805200Y-94606753D01*
X130805200Y-94879412D01*
X130289200Y-94363412D01*
X130289200Y-88239736D01*
X130331658Y-88197278D01*
X130467000Y-87870533D01*
X130467000Y-87516867D01*
X130331658Y-87190122D01*
X130081578Y-86940042D01*
X129754833Y-86804700D01*
X129401167Y-86804700D01*
X129074422Y-86940042D01*
X128824342Y-87190122D01*
X128689000Y-87516867D01*
X128689000Y-87870533D01*
X128824342Y-88197278D01*
X128866801Y-88239737D01*
X128866800Y-94587959D01*
X128852868Y-94658000D01*
X128866800Y-94728041D01*
X128866800Y-94728045D01*
X128908064Y-94935495D01*
X128908065Y-94935496D01*
X129025576Y-95111364D01*
X129025578Y-95111366D01*
X129065254Y-95170745D01*
X129124634Y-95210422D01*
X130880112Y-96965900D01*
X130805200Y-97146753D01*
X130805200Y-97773247D01*
X131044949Y-98352052D01*
X131422897Y-98730000D01*
X131044949Y-99107948D01*
X130805200Y-99686753D01*
X130805200Y-99959411D01*
X127392423Y-96546635D01*
X127352746Y-96487254D01*
X127117496Y-96330064D01*
X126910046Y-96288800D01*
X126910041Y-96288800D01*
X126840000Y-96274868D01*
X126769959Y-96288800D01*
X126219962Y-96288800D01*
X126145051Y-96107948D01*
X125702052Y-95664949D01*
X125123247Y-95425200D01*
X124496753Y-95425200D01*
X123917948Y-95664949D01*
X123474949Y-96107948D01*
X123235200Y-96686753D01*
X123235200Y-97313247D01*
X123474949Y-97892052D01*
X123917948Y-98335051D01*
X124496753Y-98574800D01*
X125123247Y-98574800D01*
X125702052Y-98335051D01*
X126145051Y-97892052D01*
X126219962Y-97711200D01*
X126545412Y-97711200D01*
X130880112Y-102045900D01*
X130805200Y-102226753D01*
X130805200Y-102630361D01*
X130648968Y-102575637D01*
X129719605Y-103505000D01*
X130648968Y-104434363D01*
X130909580Y-104343077D01*
X131126045Y-103755167D01*
X131115979Y-103503082D01*
X131485214Y-103872317D01*
X131450637Y-103971032D01*
X132380000Y-104900395D01*
X133309363Y-103971032D01*
X133274786Y-103872317D01*
X133715051Y-103432052D01*
X133954800Y-102853247D01*
X133954800Y-102226753D01*
X133715051Y-101647948D01*
X133337103Y-101270000D01*
X133715051Y-100892052D01*
X133953642Y-100316043D01*
X133962676Y-100329564D01*
X133962679Y-100329567D01*
X134002355Y-100388946D01*
X134061734Y-100428622D01*
X137345000Y-103711889D01*
X137345000Y-103920923D01*
X137269096Y-103845019D01*
X136568928Y-103555000D01*
X135811072Y-103555000D01*
X135110904Y-103845019D01*
X134575019Y-104380904D01*
X134285000Y-105081072D01*
X134285000Y-105838928D01*
X134573419Y-106535232D01*
X134078305Y-106740314D01*
X133833674Y-106984945D01*
X133749580Y-106781923D01*
X133488968Y-106690637D01*
X132559605Y-107620000D01*
X133488968Y-108549363D01*
X133532859Y-108533989D01*
X133660314Y-108841695D01*
X134078305Y-109259686D01*
X134624436Y-109485900D01*
X135215564Y-109485900D01*
X135761695Y-109259686D01*
X136179686Y-108841695D01*
X136216500Y-108752817D01*
X136216501Y-114425200D01*
X135876753Y-114425200D01*
X135297948Y-114664949D01*
X134854949Y-115107948D01*
X134615200Y-115686753D01*
X134615200Y-116313247D01*
X134854949Y-116892052D01*
X135034997Y-117072100D01*
X130885386Y-117072100D01*
X131114800Y-116518247D01*
X131114800Y-115891753D01*
X130875051Y-115312948D01*
X130497103Y-114935000D01*
X130875051Y-114557052D01*
X131114800Y-113978247D01*
X131114800Y-113661903D01*
X131487948Y-114035051D01*
X132066753Y-114274800D01*
X132693247Y-114274800D01*
X133272052Y-114035051D01*
X133715051Y-113592052D01*
X133954800Y-113013247D01*
X133954800Y-112386753D01*
X133715051Y-111807948D01*
X133337103Y-111430000D01*
X133715051Y-111052052D01*
X133954800Y-110473247D01*
X133954800Y-109846753D01*
X133715051Y-109267948D01*
X133274786Y-108827683D01*
X133309363Y-108728968D01*
X132380000Y-107799605D01*
X131450637Y-108728968D01*
X131485214Y-108827683D01*
X131044949Y-109267948D01*
X130805200Y-109846753D01*
X130805200Y-110163097D01*
X130497103Y-109855000D01*
X130875051Y-109477052D01*
X131114800Y-108898247D01*
X131114800Y-108494639D01*
X131271032Y-108549363D01*
X132200395Y-107620000D01*
X131271032Y-106690637D01*
X131010420Y-106781923D01*
X130793955Y-107369833D01*
X130804021Y-107621918D01*
X130497103Y-107315000D01*
X130875051Y-106937052D01*
X131114800Y-106358247D01*
X131114800Y-106188968D01*
X131450637Y-106188968D01*
X131507043Y-106350000D01*
X131450637Y-106511032D01*
X132380000Y-107440395D01*
X133309363Y-106511032D01*
X133252957Y-106350000D01*
X133309363Y-106188968D01*
X132380000Y-105259605D01*
X131450637Y-106188968D01*
X131114800Y-106188968D01*
X131114800Y-105954639D01*
X131271032Y-106009363D01*
X132200395Y-105080000D01*
X132559605Y-105080000D01*
X133488968Y-106009363D01*
X133749580Y-105918077D01*
X133966045Y-105330167D01*
X133941049Y-104704172D01*
X133749580Y-104241923D01*
X133488968Y-104150637D01*
X132559605Y-105080000D01*
X132200395Y-105080000D01*
X131271032Y-104150637D01*
X131010420Y-104241923D01*
X130793955Y-104829833D01*
X130804021Y-105081918D01*
X130434786Y-104712683D01*
X130469363Y-104613968D01*
X129540000Y-103684605D01*
X128610637Y-104613968D01*
X128645214Y-104712683D01*
X128204949Y-105152948D01*
X127965200Y-105731753D01*
X127965200Y-106358247D01*
X128040112Y-106539100D01*
X127511034Y-107068178D01*
X127451655Y-107107854D01*
X127411979Y-107167233D01*
X127411976Y-107167236D01*
X127369634Y-107230606D01*
X127339686Y-107158305D01*
X126921695Y-106740314D01*
X126375564Y-106514100D01*
X125784436Y-106514100D01*
X125238305Y-106740314D01*
X124820314Y-107158305D01*
X124594100Y-107704436D01*
X124594100Y-108295564D01*
X124820314Y-108841695D01*
X125238305Y-109259686D01*
X125784436Y-109485900D01*
X126375564Y-109485900D01*
X126921695Y-109259686D01*
X127253201Y-108928180D01*
X127253200Y-116751359D01*
X127239268Y-116821400D01*
X127253200Y-116891441D01*
X127253200Y-116891445D01*
X127294464Y-117098895D01*
X127294465Y-117098896D01*
X127411976Y-117274764D01*
X127411978Y-117274766D01*
X127451654Y-117334145D01*
X127511034Y-117373822D01*
X128373878Y-118236667D01*
X128413554Y-118296046D01*
X128441920Y-118315000D01*
X112230006Y-118315000D01*
X112143391Y-118279123D01*
X111904101Y-118231525D01*
X111822798Y-118177201D01*
X111768475Y-118095901D01*
X111720877Y-117856609D01*
X111685000Y-117769994D01*
X111685000Y-115686753D01*
X115615200Y-115686753D01*
X115615200Y-116313247D01*
X115854949Y-116892052D01*
X116297948Y-117335051D01*
X116876753Y-117574800D01*
X117503247Y-117574800D01*
X118082052Y-117335051D01*
X118525051Y-116892052D01*
X118764800Y-116313247D01*
X118764800Y-115686753D01*
X123235200Y-115686753D01*
X123235200Y-116313247D01*
X123474949Y-116892052D01*
X123917948Y-117335051D01*
X124496753Y-117574800D01*
X125123247Y-117574800D01*
X125702052Y-117335051D01*
X126145051Y-116892052D01*
X126384800Y-116313247D01*
X126384800Y-115686753D01*
X126145051Y-115107948D01*
X125702052Y-114664949D01*
X125123247Y-114425200D01*
X124496753Y-114425200D01*
X123917948Y-114664949D01*
X123474949Y-115107948D01*
X123235200Y-115686753D01*
X118764800Y-115686753D01*
X118525051Y-115107948D01*
X118082052Y-114664949D01*
X117503247Y-114425200D01*
X116876753Y-114425200D01*
X116297948Y-114664949D01*
X115854949Y-115107948D01*
X115615200Y-115686753D01*
X111685000Y-115686753D01*
X111685000Y-112751596D01*
X118079000Y-112751596D01*
X118079000Y-113408404D01*
X118330350Y-114015216D01*
X118794784Y-114479650D01*
X119401596Y-114731000D01*
X120058404Y-114731000D01*
X120665216Y-114479650D01*
X120707910Y-114436956D01*
X120715673Y-114455699D01*
X120894302Y-114634327D01*
X121127691Y-114731000D01*
X121984250Y-114731000D01*
X122143000Y-114572250D01*
X122143000Y-113207000D01*
X122397000Y-113207000D01*
X122397000Y-114572250D01*
X122555750Y-114731000D01*
X123412309Y-114731000D01*
X123645698Y-114634327D01*
X123824327Y-114455699D01*
X123921000Y-114222310D01*
X123921000Y-113365750D01*
X123762250Y-113207000D01*
X122397000Y-113207000D01*
X122143000Y-113207000D01*
X122123000Y-113207000D01*
X122123000Y-112953000D01*
X122143000Y-112953000D01*
X122143000Y-111587750D01*
X122397000Y-111587750D01*
X122397000Y-112953000D01*
X123762250Y-112953000D01*
X123921000Y-112794250D01*
X123921000Y-111937690D01*
X123824327Y-111704301D01*
X123645698Y-111525673D01*
X123412309Y-111429000D01*
X122555750Y-111429000D01*
X122397000Y-111587750D01*
X122143000Y-111587750D01*
X121984250Y-111429000D01*
X121127691Y-111429000D01*
X120894302Y-111525673D01*
X120715673Y-111704301D01*
X120707910Y-111723044D01*
X120665216Y-111680350D01*
X120058404Y-111429000D01*
X119401596Y-111429000D01*
X118794784Y-111680350D01*
X118330350Y-112144784D01*
X118079000Y-112751596D01*
X111685000Y-112751596D01*
X111685000Y-80230006D01*
X111720877Y-80143391D01*
X111768475Y-79904099D01*
X111822798Y-79822799D01*
X111904101Y-79768475D01*
X112143391Y-79720877D01*
X112230006Y-79685000D01*
X186769994Y-79685000D01*
X186856609Y-79720877D01*
G36*
X141808778Y-100453367D02*
X141848454Y-100512746D01*
X141907833Y-100552422D01*
X141907835Y-100552424D01*
X142083702Y-100669935D01*
X142083703Y-100669935D01*
X142083704Y-100669936D01*
X142291154Y-100711200D01*
X142291157Y-100711200D01*
X142361199Y-100725132D01*
X142431241Y-100711200D01*
X146210038Y-100711200D01*
X146284949Y-100892052D01*
X146662897Y-101270000D01*
X146284949Y-101647948D01*
X146045200Y-102226753D01*
X146045200Y-102853247D01*
X146284949Y-103432052D01*
X146662897Y-103810000D01*
X146284949Y-104187948D01*
X146045200Y-104766753D01*
X146045200Y-105393247D01*
X146284949Y-105972052D01*
X146662897Y-106350000D01*
X146284949Y-106727948D01*
X146174932Y-106993551D01*
X145921695Y-106740314D01*
X145375564Y-106514100D01*
X144784436Y-106514100D01*
X144238305Y-106740314D01*
X143820314Y-107158305D01*
X143594100Y-107704436D01*
X143594100Y-108295564D01*
X143820314Y-108841695D01*
X144238305Y-109259686D01*
X144784436Y-109485900D01*
X145140100Y-109485900D01*
X145140101Y-115102998D01*
X144702052Y-114664949D01*
X144123247Y-114425200D01*
X143496753Y-114425200D01*
X142917948Y-114664949D01*
X142474949Y-115107948D01*
X142400038Y-115288800D01*
X141608889Y-115288800D01*
X141017669Y-114697581D01*
X141143000Y-114572250D01*
X141143000Y-113207000D01*
X141397000Y-113207000D01*
X141397000Y-114572250D01*
X141555750Y-114731000D01*
X142412309Y-114731000D01*
X142645698Y-114634327D01*
X142824327Y-114455699D01*
X142921000Y-114222310D01*
X142921000Y-113365750D01*
X142762250Y-113207000D01*
X141397000Y-113207000D01*
X141143000Y-113207000D01*
X141123000Y-113207000D01*
X141123000Y-112953000D01*
X141143000Y-112953000D01*
X141143000Y-111587750D01*
X141397000Y-111587750D01*
X141397000Y-112953000D01*
X142762250Y-112953000D01*
X142921000Y-112794250D01*
X142921000Y-111937690D01*
X142824327Y-111704301D01*
X142645698Y-111525673D01*
X142412309Y-111429000D01*
X141555750Y-111429000D01*
X141397000Y-111587750D01*
X141143000Y-111587750D01*
X140984250Y-111429000D01*
X140127691Y-111429000D01*
X139894302Y-111525673D01*
X139715673Y-111704301D01*
X139707910Y-111723044D01*
X139665216Y-111680350D01*
X139058404Y-111429000D01*
X138401596Y-111429000D01*
X137794784Y-111680350D01*
X137638900Y-111836234D01*
X137638900Y-109169447D01*
X137771326Y-109489152D01*
X138510848Y-110228674D01*
X139477079Y-110628900D01*
X140522921Y-110628900D01*
X141489152Y-110228674D01*
X142228674Y-109489152D01*
X142628900Y-108522921D01*
X142628900Y-107477079D01*
X142228674Y-106510848D01*
X141489152Y-105771326D01*
X140522921Y-105371100D01*
X139477079Y-105371100D01*
X138767400Y-105665059D01*
X138767400Y-104267777D01*
X141371828Y-104267777D01*
X141503520Y-104562657D01*
X142211036Y-104834261D01*
X142968632Y-104814436D01*
X143576480Y-104562657D01*
X143708172Y-104267777D01*
X142540000Y-103099605D01*
X141371828Y-104267777D01*
X138767400Y-104267777D01*
X138767400Y-103487342D01*
X138781332Y-103417300D01*
X138767400Y-103347258D01*
X138767400Y-103347254D01*
X138726136Y-103139804D01*
X138667965Y-103052746D01*
X138608624Y-102963935D01*
X138608620Y-102963931D01*
X138568945Y-102904554D01*
X138509569Y-102864880D01*
X138235725Y-102591036D01*
X140625739Y-102591036D01*
X140645564Y-103348632D01*
X140897343Y-103956480D01*
X141192223Y-104088172D01*
X142360395Y-102920000D01*
X142719605Y-102920000D01*
X143887777Y-104088172D01*
X144182657Y-103956480D01*
X144454261Y-103248964D01*
X144434436Y-102491368D01*
X144182657Y-101883520D01*
X143887777Y-101751828D01*
X142719605Y-102920000D01*
X142360395Y-102920000D01*
X141192223Y-101751828D01*
X140897343Y-101883520D01*
X140625739Y-102591036D01*
X138235725Y-102591036D01*
X137216912Y-101572223D01*
X141371828Y-101572223D01*
X142540000Y-102740395D01*
X143708172Y-101572223D01*
X143576480Y-101277343D01*
X142868964Y-101005739D01*
X142111368Y-101025564D01*
X141503520Y-101277343D01*
X141371828Y-101572223D01*
X137216912Y-101572223D01*
X135226300Y-99581612D01*
X135226300Y-98263403D01*
X135297948Y-98335051D01*
X135876753Y-98574800D01*
X136503247Y-98574800D01*
X137082052Y-98335051D01*
X137525051Y-97892052D01*
X137764800Y-97313247D01*
X137764800Y-96686753D01*
X137568673Y-96213262D01*
X141808778Y-100453367D01*
X141808778Y-100453367D01*
G37*
X141808778Y-100453367D02*
X141848454Y-100512746D01*
X141907833Y-100552422D01*
X141907835Y-100552424D01*
X142083702Y-100669935D01*
X142083703Y-100669935D01*
X142083704Y-100669936D01*
X142291154Y-100711200D01*
X142291157Y-100711200D01*
X142361199Y-100725132D01*
X142431241Y-100711200D01*
X146210038Y-100711200D01*
X146284949Y-100892052D01*
X146662897Y-101270000D01*
X146284949Y-101647948D01*
X146045200Y-102226753D01*
X146045200Y-102853247D01*
X146284949Y-103432052D01*
X146662897Y-103810000D01*
X146284949Y-104187948D01*
X146045200Y-104766753D01*
X146045200Y-105393247D01*
X146284949Y-105972052D01*
X146662897Y-106350000D01*
X146284949Y-106727948D01*
X146174932Y-106993551D01*
X145921695Y-106740314D01*
X145375564Y-106514100D01*
X144784436Y-106514100D01*
X144238305Y-106740314D01*
X143820314Y-107158305D01*
X143594100Y-107704436D01*
X143594100Y-108295564D01*
X143820314Y-108841695D01*
X144238305Y-109259686D01*
X144784436Y-109485900D01*
X145140100Y-109485900D01*
X145140101Y-115102998D01*
X144702052Y-114664949D01*
X144123247Y-114425200D01*
X143496753Y-114425200D01*
X142917948Y-114664949D01*
X142474949Y-115107948D01*
X142400038Y-115288800D01*
X141608889Y-115288800D01*
X141017669Y-114697581D01*
X141143000Y-114572250D01*
X141143000Y-113207000D01*
X141397000Y-113207000D01*
X141397000Y-114572250D01*
X141555750Y-114731000D01*
X142412309Y-114731000D01*
X142645698Y-114634327D01*
X142824327Y-114455699D01*
X142921000Y-114222310D01*
X142921000Y-113365750D01*
X142762250Y-113207000D01*
X141397000Y-113207000D01*
X141143000Y-113207000D01*
X141123000Y-113207000D01*
X141123000Y-112953000D01*
X141143000Y-112953000D01*
X141143000Y-111587750D01*
X141397000Y-111587750D01*
X141397000Y-112953000D01*
X142762250Y-112953000D01*
X142921000Y-112794250D01*
X142921000Y-111937690D01*
X142824327Y-111704301D01*
X142645698Y-111525673D01*
X142412309Y-111429000D01*
X141555750Y-111429000D01*
X141397000Y-111587750D01*
X141143000Y-111587750D01*
X140984250Y-111429000D01*
X140127691Y-111429000D01*
X139894302Y-111525673D01*
X139715673Y-111704301D01*
X139707910Y-111723044D01*
X139665216Y-111680350D01*
X139058404Y-111429000D01*
X138401596Y-111429000D01*
X137794784Y-111680350D01*
X137638900Y-111836234D01*
X137638900Y-109169447D01*
X137771326Y-109489152D01*
X138510848Y-110228674D01*
X139477079Y-110628900D01*
X140522921Y-110628900D01*
X141489152Y-110228674D01*
X142228674Y-109489152D01*
X142628900Y-108522921D01*
X142628900Y-107477079D01*
X142228674Y-106510848D01*
X141489152Y-105771326D01*
X140522921Y-105371100D01*
X139477079Y-105371100D01*
X138767400Y-105665059D01*
X138767400Y-104267777D01*
X141371828Y-104267777D01*
X141503520Y-104562657D01*
X142211036Y-104834261D01*
X142968632Y-104814436D01*
X143576480Y-104562657D01*
X143708172Y-104267777D01*
X142540000Y-103099605D01*
X141371828Y-104267777D01*
X138767400Y-104267777D01*
X138767400Y-103487342D01*
X138781332Y-103417300D01*
X138767400Y-103347258D01*
X138767400Y-103347254D01*
X138726136Y-103139804D01*
X138667965Y-103052746D01*
X138608624Y-102963935D01*
X138608620Y-102963931D01*
X138568945Y-102904554D01*
X138509569Y-102864880D01*
X138235725Y-102591036D01*
X140625739Y-102591036D01*
X140645564Y-103348632D01*
X140897343Y-103956480D01*
X141192223Y-104088172D01*
X142360395Y-102920000D01*
X142719605Y-102920000D01*
X143887777Y-104088172D01*
X144182657Y-103956480D01*
X144454261Y-103248964D01*
X144434436Y-102491368D01*
X144182657Y-101883520D01*
X143887777Y-101751828D01*
X142719605Y-102920000D01*
X142360395Y-102920000D01*
X141192223Y-101751828D01*
X140897343Y-101883520D01*
X140625739Y-102591036D01*
X138235725Y-102591036D01*
X137216912Y-101572223D01*
X141371828Y-101572223D01*
X142540000Y-102740395D01*
X143708172Y-101572223D01*
X143576480Y-101277343D01*
X142868964Y-101005739D01*
X142111368Y-101025564D01*
X141503520Y-101277343D01*
X141371828Y-101572223D01*
X137216912Y-101572223D01*
X135226300Y-99581612D01*
X135226300Y-98263403D01*
X135297948Y-98335051D01*
X135876753Y-98574800D01*
X136503247Y-98574800D01*
X137082052Y-98335051D01*
X137525051Y-97892052D01*
X137764800Y-97313247D01*
X137764800Y-96686753D01*
X137568673Y-96213262D01*
X141808778Y-100453367D01*
G36*
X168942042Y-87223522D02*
X168806700Y-87550267D01*
X168806700Y-87610311D01*
X161921000Y-94496012D01*
X161921000Y-94365750D01*
X161762250Y-94207000D01*
X160397000Y-94207000D01*
X160397000Y-95572250D01*
X160555750Y-95731000D01*
X160686012Y-95731000D01*
X160128212Y-96288800D01*
X156599962Y-96288800D01*
X156525051Y-96107948D01*
X156082052Y-95664949D01*
X155503247Y-95425200D01*
X154876753Y-95425200D01*
X154297948Y-95664949D01*
X153854949Y-96107948D01*
X153615200Y-96686753D01*
X153615200Y-97313247D01*
X153854949Y-97892052D01*
X154297948Y-98335051D01*
X154876753Y-98574800D01*
X155503247Y-98574800D01*
X156082052Y-98335051D01*
X156525051Y-97892052D01*
X156599962Y-97711200D01*
X160352759Y-97711200D01*
X160422800Y-97725132D01*
X160492841Y-97711200D01*
X160492846Y-97711200D01*
X160700296Y-97669936D01*
X160935546Y-97512746D01*
X160975224Y-97453364D01*
X161235200Y-97193388D01*
X161235200Y-97313247D01*
X161474949Y-97892052D01*
X161917948Y-98335051D01*
X162419154Y-98542657D01*
X160676512Y-100285300D01*
X154313542Y-100285300D01*
X154243500Y-100271368D01*
X154173458Y-100285300D01*
X154173454Y-100285300D01*
X153966004Y-100326564D01*
X153905836Y-100366767D01*
X153790135Y-100444076D01*
X153790133Y-100444078D01*
X153730754Y-100483754D01*
X153691078Y-100543133D01*
X149194800Y-105039412D01*
X149194800Y-104766753D01*
X148955051Y-104187948D01*
X148577103Y-103810000D01*
X148955051Y-103432052D01*
X149194800Y-102853247D01*
X149194800Y-102226753D01*
X148955051Y-101647948D01*
X148577103Y-101270000D01*
X148955051Y-100892052D01*
X149194800Y-100313247D01*
X149194800Y-99686753D01*
X148955051Y-99107948D01*
X148577103Y-98730000D01*
X148955051Y-98352052D01*
X149194800Y-97773247D01*
X149194800Y-97146753D01*
X149119888Y-96965900D01*
X152334192Y-93751596D01*
X156079000Y-93751596D01*
X156079000Y-94408404D01*
X156330350Y-95015216D01*
X156794784Y-95479650D01*
X157401596Y-95731000D01*
X158058404Y-95731000D01*
X158665216Y-95479650D01*
X158707910Y-95436956D01*
X158715673Y-95455699D01*
X158894302Y-95634327D01*
X159127691Y-95731000D01*
X159984250Y-95731000D01*
X160143000Y-95572250D01*
X160143000Y-94207000D01*
X160123000Y-94207000D01*
X160123000Y-93953000D01*
X160143000Y-93953000D01*
X160143000Y-92587750D01*
X160397000Y-92587750D01*
X160397000Y-93953000D01*
X161762250Y-93953000D01*
X161921000Y-93794250D01*
X161921000Y-92937690D01*
X161824327Y-92704301D01*
X161645698Y-92525673D01*
X161412309Y-92429000D01*
X160555750Y-92429000D01*
X160397000Y-92587750D01*
X160143000Y-92587750D01*
X159984250Y-92429000D01*
X159127691Y-92429000D01*
X158894302Y-92525673D01*
X158715673Y-92704301D01*
X158707910Y-92723044D01*
X158665216Y-92680350D01*
X158058404Y-92429000D01*
X157401596Y-92429000D01*
X156794784Y-92680350D01*
X156330350Y-93144784D01*
X156079000Y-93751596D01*
X152334192Y-93751596D01*
X155824367Y-90261422D01*
X155883746Y-90221746D01*
X155923422Y-90162367D01*
X155923424Y-90162365D01*
X156040935Y-89986498D01*
X156040935Y-89986497D01*
X156040936Y-89986496D01*
X156082200Y-89779046D01*
X156082200Y-89779043D01*
X156096132Y-89709001D01*
X156082200Y-89638959D01*
X156082200Y-88152396D01*
X156269096Y-88074981D01*
X156727554Y-87616523D01*
X156371100Y-88477079D01*
X156371100Y-89522921D01*
X156771326Y-90489152D01*
X157510848Y-91228674D01*
X158477079Y-91628900D01*
X159522921Y-91628900D01*
X160489152Y-91228674D01*
X161228674Y-90489152D01*
X161628900Y-89522921D01*
X161628900Y-88704436D01*
X162594100Y-88704436D01*
X162594100Y-89295564D01*
X162820314Y-89841695D01*
X163238305Y-90259686D01*
X163784436Y-90485900D01*
X164375564Y-90485900D01*
X164921695Y-90259686D01*
X165339686Y-89841695D01*
X165565900Y-89295564D01*
X165565900Y-88704436D01*
X165339686Y-88158305D01*
X164921695Y-87740314D01*
X164375564Y-87514100D01*
X163784436Y-87514100D01*
X163238305Y-87740314D01*
X162820314Y-88158305D01*
X162594100Y-88704436D01*
X161628900Y-88704436D01*
X161628900Y-88477079D01*
X161228674Y-87510848D01*
X160889026Y-87171200D01*
X168994364Y-87171200D01*
X168942042Y-87223522D01*
X168942042Y-87223522D01*
G37*
X168942042Y-87223522D02*
X168806700Y-87550267D01*
X168806700Y-87610311D01*
X161921000Y-94496012D01*
X161921000Y-94365750D01*
X161762250Y-94207000D01*
X160397000Y-94207000D01*
X160397000Y-95572250D01*
X160555750Y-95731000D01*
X160686012Y-95731000D01*
X160128212Y-96288800D01*
X156599962Y-96288800D01*
X156525051Y-96107948D01*
X156082052Y-95664949D01*
X155503247Y-95425200D01*
X154876753Y-95425200D01*
X154297948Y-95664949D01*
X153854949Y-96107948D01*
X153615200Y-96686753D01*
X153615200Y-97313247D01*
X153854949Y-97892052D01*
X154297948Y-98335051D01*
X154876753Y-98574800D01*
X155503247Y-98574800D01*
X156082052Y-98335051D01*
X156525051Y-97892052D01*
X156599962Y-97711200D01*
X160352759Y-97711200D01*
X160422800Y-97725132D01*
X160492841Y-97711200D01*
X160492846Y-97711200D01*
X160700296Y-97669936D01*
X160935546Y-97512746D01*
X160975224Y-97453364D01*
X161235200Y-97193388D01*
X161235200Y-97313247D01*
X161474949Y-97892052D01*
X161917948Y-98335051D01*
X162419154Y-98542657D01*
X160676512Y-100285300D01*
X154313542Y-100285300D01*
X154243500Y-100271368D01*
X154173458Y-100285300D01*
X154173454Y-100285300D01*
X153966004Y-100326564D01*
X153905836Y-100366767D01*
X153790135Y-100444076D01*
X153790133Y-100444078D01*
X153730754Y-100483754D01*
X153691078Y-100543133D01*
X149194800Y-105039412D01*
X149194800Y-104766753D01*
X148955051Y-104187948D01*
X148577103Y-103810000D01*
X148955051Y-103432052D01*
X149194800Y-102853247D01*
X149194800Y-102226753D01*
X148955051Y-101647948D01*
X148577103Y-101270000D01*
X148955051Y-100892052D01*
X149194800Y-100313247D01*
X149194800Y-99686753D01*
X148955051Y-99107948D01*
X148577103Y-98730000D01*
X148955051Y-98352052D01*
X149194800Y-97773247D01*
X149194800Y-97146753D01*
X149119888Y-96965900D01*
X152334192Y-93751596D01*
X156079000Y-93751596D01*
X156079000Y-94408404D01*
X156330350Y-95015216D01*
X156794784Y-95479650D01*
X157401596Y-95731000D01*
X158058404Y-95731000D01*
X158665216Y-95479650D01*
X158707910Y-95436956D01*
X158715673Y-95455699D01*
X158894302Y-95634327D01*
X159127691Y-95731000D01*
X159984250Y-95731000D01*
X160143000Y-95572250D01*
X160143000Y-94207000D01*
X160123000Y-94207000D01*
X160123000Y-93953000D01*
X160143000Y-93953000D01*
X160143000Y-92587750D01*
X160397000Y-92587750D01*
X160397000Y-93953000D01*
X161762250Y-93953000D01*
X161921000Y-93794250D01*
X161921000Y-92937690D01*
X161824327Y-92704301D01*
X161645698Y-92525673D01*
X161412309Y-92429000D01*
X160555750Y-92429000D01*
X160397000Y-92587750D01*
X160143000Y-92587750D01*
X159984250Y-92429000D01*
X159127691Y-92429000D01*
X158894302Y-92525673D01*
X158715673Y-92704301D01*
X158707910Y-92723044D01*
X158665216Y-92680350D01*
X158058404Y-92429000D01*
X157401596Y-92429000D01*
X156794784Y-92680350D01*
X156330350Y-93144784D01*
X156079000Y-93751596D01*
X152334192Y-93751596D01*
X155824367Y-90261422D01*
X155883746Y-90221746D01*
X155923422Y-90162367D01*
X155923424Y-90162365D01*
X156040935Y-89986498D01*
X156040935Y-89986497D01*
X156040936Y-89986496D01*
X156082200Y-89779046D01*
X156082200Y-89779043D01*
X156096132Y-89709001D01*
X156082200Y-89638959D01*
X156082200Y-88152396D01*
X156269096Y-88074981D01*
X156727554Y-87616523D01*
X156371100Y-88477079D01*
X156371100Y-89522921D01*
X156771326Y-90489152D01*
X157510848Y-91228674D01*
X158477079Y-91628900D01*
X159522921Y-91628900D01*
X160489152Y-91228674D01*
X161228674Y-90489152D01*
X161628900Y-89522921D01*
X161628900Y-88704436D01*
X162594100Y-88704436D01*
X162594100Y-89295564D01*
X162820314Y-89841695D01*
X163238305Y-90259686D01*
X163784436Y-90485900D01*
X164375564Y-90485900D01*
X164921695Y-90259686D01*
X165339686Y-89841695D01*
X165565900Y-89295564D01*
X165565900Y-88704436D01*
X165339686Y-88158305D01*
X164921695Y-87740314D01*
X164375564Y-87514100D01*
X163784436Y-87514100D01*
X163238305Y-87740314D01*
X162820314Y-88158305D01*
X162594100Y-88704436D01*
X161628900Y-88704436D01*
X161628900Y-88477079D01*
X161228674Y-87510848D01*
X160889026Y-87171200D01*
X168994364Y-87171200D01*
X168942042Y-87223522D01*
G36*
X137371100Y-88477079D02*
X137371100Y-89522921D01*
X137771326Y-90489152D01*
X138510848Y-91228674D01*
X139477079Y-91628900D01*
X140522921Y-91628900D01*
X141489152Y-91228674D01*
X142159400Y-90558426D01*
X142159401Y-92429000D01*
X141555750Y-92429000D01*
X141397000Y-92587750D01*
X141397000Y-93953000D01*
X141417000Y-93953000D01*
X141417000Y-94207000D01*
X141397000Y-94207000D01*
X141397000Y-95572250D01*
X141555750Y-95731000D01*
X142412309Y-95731000D01*
X142645698Y-95634327D01*
X142824327Y-95455699D01*
X142921000Y-95222310D01*
X142921000Y-94423988D01*
X143765000Y-95267989D01*
X143765000Y-95328033D01*
X143805248Y-95425200D01*
X143496753Y-95425200D01*
X142917948Y-95664949D01*
X142474949Y-96107948D01*
X142400038Y-96288800D01*
X141619789Y-96288800D01*
X141023119Y-95692131D01*
X141143000Y-95572250D01*
X141143000Y-94207000D01*
X141123000Y-94207000D01*
X141123000Y-93953000D01*
X141143000Y-93953000D01*
X141143000Y-92587750D01*
X140984250Y-92429000D01*
X140127691Y-92429000D01*
X139894302Y-92525673D01*
X139715673Y-92704301D01*
X139707910Y-92723044D01*
X139665216Y-92680350D01*
X139058404Y-92429000D01*
X138401596Y-92429000D01*
X137794784Y-92680350D01*
X137330350Y-93144784D01*
X137090594Y-93723606D01*
X137077200Y-93710212D01*
X137077200Y-88154467D01*
X137269096Y-88074981D01*
X137727554Y-87616523D01*
X137371100Y-88477079D01*
X137371100Y-88477079D01*
G37*
X137371100Y-88477079D02*
X137371100Y-89522921D01*
X137771326Y-90489152D01*
X138510848Y-91228674D01*
X139477079Y-91628900D01*
X140522921Y-91628900D01*
X141489152Y-91228674D01*
X142159400Y-90558426D01*
X142159401Y-92429000D01*
X141555750Y-92429000D01*
X141397000Y-92587750D01*
X141397000Y-93953000D01*
X141417000Y-93953000D01*
X141417000Y-94207000D01*
X141397000Y-94207000D01*
X141397000Y-95572250D01*
X141555750Y-95731000D01*
X142412309Y-95731000D01*
X142645698Y-95634327D01*
X142824327Y-95455699D01*
X142921000Y-95222310D01*
X142921000Y-94423988D01*
X143765000Y-95267989D01*
X143765000Y-95328033D01*
X143805248Y-95425200D01*
X143496753Y-95425200D01*
X142917948Y-95664949D01*
X142474949Y-96107948D01*
X142400038Y-96288800D01*
X141619789Y-96288800D01*
X141023119Y-95692131D01*
X141143000Y-95572250D01*
X141143000Y-94207000D01*
X141123000Y-94207000D01*
X141123000Y-93953000D01*
X141143000Y-93953000D01*
X141143000Y-92587750D01*
X140984250Y-92429000D01*
X140127691Y-92429000D01*
X139894302Y-92525673D01*
X139715673Y-92704301D01*
X139707910Y-92723044D01*
X139665216Y-92680350D01*
X139058404Y-92429000D01*
X138401596Y-92429000D01*
X137794784Y-92680350D01*
X137330350Y-93144784D01*
X137090594Y-93723606D01*
X137077200Y-93710212D01*
X137077200Y-88154467D01*
X137269096Y-88074981D01*
X137727554Y-87616523D01*
X137371100Y-88477079D01*
G36*
X121897343Y-82883520D02*
X121625739Y-83591036D01*
X121645564Y-84348632D01*
X121897343Y-84956480D01*
X122192223Y-85088172D01*
X123360395Y-83920000D01*
X123346253Y-83905858D01*
X123525858Y-83726253D01*
X123540000Y-83740395D01*
X123554143Y-83726253D01*
X123733748Y-83905858D01*
X123719605Y-83920000D01*
X124887777Y-85088172D01*
X125182657Y-84956480D01*
X125454261Y-84248964D01*
X125434436Y-83491368D01*
X125182657Y-82883520D01*
X124920406Y-82766400D01*
X131207111Y-82766400D01*
X128400312Y-85573200D01*
X124551027Y-85573200D01*
X124576480Y-85562657D01*
X124708172Y-85267777D01*
X123540000Y-84099605D01*
X122371828Y-85267777D01*
X122503520Y-85562657D01*
X122530984Y-85573200D01*
X118884633Y-85573200D01*
X118804981Y-85380904D01*
X118269096Y-84845019D01*
X117568928Y-84555000D01*
X117403089Y-84555000D01*
X119191689Y-82766400D01*
X122159594Y-82766400D01*
X121897343Y-82883520D01*
X121897343Y-82883520D01*
G37*
X121897343Y-82883520D02*
X121625739Y-83591036D01*
X121645564Y-84348632D01*
X121897343Y-84956480D01*
X122192223Y-85088172D01*
X123360395Y-83920000D01*
X123346253Y-83905858D01*
X123525858Y-83726253D01*
X123540000Y-83740395D01*
X123554143Y-83726253D01*
X123733748Y-83905858D01*
X123719605Y-83920000D01*
X124887777Y-85088172D01*
X125182657Y-84956480D01*
X125454261Y-84248964D01*
X125434436Y-83491368D01*
X125182657Y-82883520D01*
X124920406Y-82766400D01*
X131207111Y-82766400D01*
X128400312Y-85573200D01*
X124551027Y-85573200D01*
X124576480Y-85562657D01*
X124708172Y-85267777D01*
X123540000Y-84099605D01*
X122371828Y-85267777D01*
X122503520Y-85562657D01*
X122530984Y-85573200D01*
X118884633Y-85573200D01*
X118804981Y-85380904D01*
X118269096Y-84845019D01*
X117568928Y-84555000D01*
X117403089Y-84555000D01*
X119191689Y-82766400D01*
X122159594Y-82766400D01*
X121897343Y-82883520D01*
G04 #@! TD*
M02*
