M48
;DRILL file {KiCad 5.0.2-bee76a0~70~ubuntu18.04.1} date Sat 02 Feb 2019 03:30:20 PM EST
;FORMAT={-:-/ absolute / inch / decimal}
FMAT,2
INCH,TZ
T1C0.0670
T2C0.1570
%
G90
G05
T1
X6.8079Y-3.5039
X7.2079Y-3.5039
X4.5638Y-3.5039
X4.9638Y-3.5039
X6.0598Y-3.5039
X6.4598Y-3.5039
X5.3118Y-4.252
X5.7118Y-4.252
X6.8079Y-4.252
X7.2079Y-4.252
X4.5638Y-4.252
X4.9638Y-4.252
X6.0598Y-4.252
X6.4598Y-4.252
X5.3118Y-3.5039
X5.7118Y-3.5039
T2
X7.0079Y-3.5039
X6.2598Y-3.5039
X5.5118Y-4.252
X4.7638Y-4.252
X6.2598Y-4.252
X5.5118Y-3.5039
X4.7638Y-3.5039
X7.0079Y-4.252
T0
M30
