M48
; DRILL file {KiCad 5.1.2-f72e74a~84~ubuntu18.04.1} date Sat 08 Jun 2019 04:05:00 PM EDT
; FORMAT={-:-/ absolute / inch / decimal}
; #@! TF.CreationDate,2019-06-08T16:05:00-04:00
; #@! TF.GenerationSoftware,Kicad,Pcbnew,5.1.2-f72e74a~84~ubuntu18.04.1
; #@! TF.FileFunction,NonPlated,1,2,NPTH
FMAT,2
INCH
T1C0.0670
T2C0.1570
%
G90
G05
T1
X5.4693Y-4.2913
X5.8693Y-4.2913
X4.7213Y-3.5433
X5.1213Y-3.5433
X6.9654Y-3.5433
X7.3654Y-3.5433
X6.2173Y-4.2913
X6.6173Y-4.2913
X6.2173Y-3.5433
X6.6173Y-3.5433
X5.4693Y-3.5433
X5.8693Y-3.5433
X6.9654Y-4.2913
X7.3654Y-4.2913
X4.7213Y-4.2913
X5.1213Y-4.2913
T2
X7.1654Y-3.5433
X6.4173Y-4.2913
X5.6693Y-3.5433
X5.6693Y-4.2913
X7.1654Y-4.2913
X4.9213Y-4.2913
X4.9213Y-3.5433
X6.4173Y-3.5433
T0
M30
