M48
; DRILL file {KiCad 5.1.2-f72e74a~84~ubuntu18.04.1} date Sat 08 Jun 2019 04:05:00 PM EDT
; FORMAT={-:-/ absolute / inch / decimal}
; #@! TF.CreationDate,2019-06-08T16:05:00-04:00
; #@! TF.GenerationSoftware,Kicad,Pcbnew,5.1.2-f72e74a~84~ubuntu18.04.1
; #@! TF.FileFunction,Plated,1,2,PTH
FMAT,2
INCH
T1C0.0314
T2C0.0354
T3C0.0390
T4C0.0400
T5C0.0472
T6C0.0590
%
G90
G05
T1
X4.8229Y-3.1299
X5.0197Y-3.1299
T2
X4.7713Y-3.8583
X5.0713Y-3.8583
X5.5193Y-4.6063
X5.8193Y-4.6063
X4.7713Y-4.6063
X5.0713Y-4.6063
X6.2673Y-4.6063
X6.5673Y-4.6063
X7.0154Y-3.8583
X7.3154Y-3.8583
X5.5193Y-3.8583
X5.8193Y-3.8583
X7.0154Y-4.6063
X7.3154Y-4.6063
X6.2673Y-3.8583
X6.5673Y-3.8583
T3
X4.8713Y-3.3433
X4.9713Y-3.3433
X7.1154Y-3.3433
X7.2154Y-3.3433
X6.3673Y-4.0913
X6.4673Y-4.0913
X6.3673Y-3.3433
X6.4673Y-3.3433
X5.6193Y-3.3433
X5.7193Y-3.3433
X5.6193Y-4.0913
X5.7193Y-4.0913
X7.1154Y-4.0913
X7.2154Y-4.0913
X4.8713Y-4.0913
X4.9713Y-4.0913
T4
X5.2559Y-3.2579
X5.2559Y-3.3579
X5.2559Y-3.4579
X5.2559Y-3.5579
X5.2559Y-3.6579
X5.2559Y-3.7579
X5.3693Y-3.2106
X5.3693Y-3.3106
X5.3693Y-3.4106
X5.3693Y-3.5106
X5.3693Y-3.6106
X5.3693Y-3.7106
X5.3693Y-3.8106
X5.3693Y-3.9106
X5.3693Y-4.0106
X5.3693Y-4.1106
X5.3693Y-4.2106
X5.3693Y-4.3106
X5.9693Y-3.2106
X5.9693Y-3.3106
X5.9693Y-3.4106
X5.9693Y-3.5106
X5.9693Y-3.6106
X5.9693Y-3.7106
X5.9693Y-3.8106
X5.9693Y-3.9106
X5.9693Y-4.0106
X5.9693Y-4.1106
X5.9693Y-4.2106
X5.9693Y-4.3106
T5
X4.7836Y-3.2283
X5.059Y-3.2283
T6
X7.0654Y-3.7433
X7.0669Y-3.7205
X7.2638Y-3.7008
X7.3154Y-3.6433
X6.3173Y-4.4913
X6.3189Y-4.4685
X6.5157Y-4.4488
X6.5673Y-4.3913
X6.3173Y-3.7433
X6.3189Y-3.7205
X6.5157Y-3.7008
X6.5673Y-3.6433
X5.5693Y-3.7433
X5.5709Y-3.7205
X5.7677Y-3.7008
X5.8193Y-3.6433
X5.5693Y-4.4913
X5.5709Y-4.4685
X5.7677Y-4.4488
X5.8193Y-4.3913
X7.0654Y-4.4913
X7.0669Y-4.4685
X7.2638Y-4.4488
X7.3154Y-4.3913
X4.8213Y-4.4913
X4.8228Y-4.4685
X5.0197Y-4.4488
X5.0713Y-4.3913
X4.8213Y-3.7433
X4.8228Y-3.7205
X5.0197Y-3.7008
X5.0713Y-3.6433
T0
M30
