G04 #@! TF.GenerationSoftware,KiCad,Pcbnew,5.1.2-f72e74a~84~ubuntu18.04.1*
G04 #@! TF.CreationDate,2019-06-08T16:05:02-04:00*
G04 #@! TF.ProjectId,8_key_simple,385f6b65-795f-4736-996d-706c652e6b69,rev?*
G04 #@! TF.SameCoordinates,Original*
G04 #@! TF.FileFunction,Legend,Top*
G04 #@! TF.FilePolarity,Positive*
%FSLAX46Y46*%
G04 Gerber Fmt 4.6, Leading zero omitted, Abs format (unit mm)*
G04 Created by KiCad (PCBNEW 5.1.2-f72e74a~84~ubuntu18.04.1) date 2019-06-08 16:05:02*
%MOMM*%
%LPD*%
G04 APERTURE LIST*
%ADD10C,0.203200*%
%ADD11C,0.120000*%
%ADD12C,0.127000*%
%ADD13C,0.150000*%
G04 APERTURE END LIST*
D10*
X160460000Y-98000000D02*
X160206000Y-98000000D01*
X165540000Y-98000000D02*
X165794000Y-98000000D01*
X160460000Y-98000000D02*
X160460000Y-97238000D01*
X160460000Y-98762000D02*
X160460000Y-98000000D01*
X165540000Y-98762000D02*
X160460000Y-98762000D01*
X165540000Y-98000000D02*
X165540000Y-98762000D01*
X165540000Y-97238000D02*
X165540000Y-98000000D01*
X160460000Y-97238000D02*
X165540000Y-97238000D01*
D11*
X166000000Y-85500000D02*
X166000000Y-84500000D01*
X166500000Y-85000000D02*
X165500000Y-85000000D01*
X160500000Y-85000000D02*
X159500000Y-85000000D01*
X156000000Y-83000000D02*
X170000000Y-83000000D01*
X156000000Y-97000000D02*
X156000000Y-83000000D01*
X170000000Y-83000000D02*
X170000000Y-97000000D01*
X170000000Y-97000000D02*
X156000000Y-97000000D01*
X185000000Y-104500000D02*
X185000000Y-103500000D01*
X185500000Y-104000000D02*
X184500000Y-104000000D01*
X179500000Y-104000000D02*
X178500000Y-104000000D01*
X175000000Y-102000000D02*
X189000000Y-102000000D01*
X175000000Y-116000000D02*
X175000000Y-102000000D01*
X189000000Y-102000000D02*
X189000000Y-116000000D01*
X189000000Y-116000000D02*
X175000000Y-116000000D01*
D10*
X141460000Y-117000000D02*
X141206000Y-117000000D01*
X146540000Y-117000000D02*
X146794000Y-117000000D01*
X141460000Y-117000000D02*
X141460000Y-116238000D01*
X141460000Y-117762000D02*
X141460000Y-117000000D01*
X146540000Y-117762000D02*
X141460000Y-117762000D01*
X146540000Y-117000000D02*
X146540000Y-117762000D01*
X146540000Y-116238000D02*
X146540000Y-117000000D01*
X141460000Y-116238000D02*
X146540000Y-116238000D01*
D11*
X185000000Y-85500000D02*
X185000000Y-84500000D01*
X185500000Y-85000000D02*
X184500000Y-85000000D01*
X179500000Y-85000000D02*
X178500000Y-85000000D01*
X175000000Y-83000000D02*
X189000000Y-83000000D01*
X175000000Y-97000000D02*
X175000000Y-83000000D01*
X189000000Y-83000000D02*
X189000000Y-97000000D01*
X189000000Y-97000000D02*
X175000000Y-97000000D01*
D10*
X141460000Y-98000000D02*
X141206000Y-98000000D01*
X146540000Y-98000000D02*
X146794000Y-98000000D01*
X141460000Y-98000000D02*
X141460000Y-97238000D01*
X141460000Y-98762000D02*
X141460000Y-98000000D01*
X146540000Y-98762000D02*
X141460000Y-98762000D01*
X146540000Y-98000000D02*
X146540000Y-98762000D01*
X146540000Y-97238000D02*
X146540000Y-98000000D01*
X141460000Y-97238000D02*
X146540000Y-97238000D01*
X179460000Y-98000000D02*
X179206000Y-98000000D01*
X184540000Y-98000000D02*
X184794000Y-98000000D01*
X179460000Y-98000000D02*
X179460000Y-97238000D01*
X179460000Y-98762000D02*
X179460000Y-98000000D01*
X184540000Y-98762000D02*
X179460000Y-98762000D01*
X184540000Y-98000000D02*
X184540000Y-98762000D01*
X184540000Y-97238000D02*
X184540000Y-98000000D01*
X179460000Y-97238000D02*
X184540000Y-97238000D01*
D11*
X147000000Y-104500000D02*
X147000000Y-103500000D01*
X147500000Y-104000000D02*
X146500000Y-104000000D01*
X141500000Y-104000000D02*
X140500000Y-104000000D01*
X137000000Y-102000000D02*
X151000000Y-102000000D01*
X137000000Y-116000000D02*
X137000000Y-102000000D01*
X151000000Y-102000000D02*
X151000000Y-116000000D01*
X151000000Y-116000000D02*
X137000000Y-116000000D01*
D10*
X122460000Y-98000000D02*
X122206000Y-98000000D01*
X127540000Y-98000000D02*
X127794000Y-98000000D01*
X122460000Y-98000000D02*
X122460000Y-97238000D01*
X122460000Y-98762000D02*
X122460000Y-98000000D01*
X127540000Y-98762000D02*
X122460000Y-98762000D01*
X127540000Y-98000000D02*
X127540000Y-98762000D01*
X127540000Y-97238000D02*
X127540000Y-98000000D01*
X122460000Y-97238000D02*
X127540000Y-97238000D01*
X122460000Y-117000000D02*
X122206000Y-117000000D01*
X127540000Y-117000000D02*
X127794000Y-117000000D01*
X122460000Y-117000000D02*
X122460000Y-116238000D01*
X122460000Y-117762000D02*
X122460000Y-117000000D01*
X127540000Y-117762000D02*
X122460000Y-117762000D01*
X127540000Y-117000000D02*
X127540000Y-117762000D01*
X127540000Y-116238000D02*
X127540000Y-117000000D01*
X122460000Y-116238000D02*
X127540000Y-116238000D01*
D11*
X128000000Y-104500000D02*
X128000000Y-103500000D01*
X128500000Y-104000000D02*
X127500000Y-104000000D01*
X122500000Y-104000000D02*
X121500000Y-104000000D01*
X118000000Y-102000000D02*
X132000000Y-102000000D01*
X118000000Y-116000000D02*
X118000000Y-102000000D01*
X132000000Y-102000000D02*
X132000000Y-116000000D01*
X132000000Y-116000000D02*
X118000000Y-116000000D01*
X147000000Y-85500000D02*
X147000000Y-84500000D01*
X147500000Y-85000000D02*
X146500000Y-85000000D01*
X141500000Y-85000000D02*
X140500000Y-85000000D01*
X137000000Y-83000000D02*
X151000000Y-83000000D01*
X137000000Y-97000000D02*
X137000000Y-83000000D01*
X151000000Y-83000000D02*
X151000000Y-97000000D01*
X151000000Y-97000000D02*
X137000000Y-97000000D01*
X166000000Y-104500000D02*
X166000000Y-103500000D01*
X166500000Y-104000000D02*
X165500000Y-104000000D01*
X160500000Y-104000000D02*
X159500000Y-104000000D01*
X156000000Y-102000000D02*
X170000000Y-102000000D01*
X156000000Y-116000000D02*
X156000000Y-102000000D01*
X170000000Y-102000000D02*
X170000000Y-116000000D01*
X170000000Y-116000000D02*
X156000000Y-116000000D01*
D10*
X179460000Y-117000000D02*
X179206000Y-117000000D01*
X184540000Y-117000000D02*
X184794000Y-117000000D01*
X179460000Y-117000000D02*
X179460000Y-116238000D01*
X179460000Y-117762000D02*
X179460000Y-117000000D01*
X184540000Y-117762000D02*
X179460000Y-117762000D01*
X184540000Y-117000000D02*
X184540000Y-117762000D01*
X184540000Y-116238000D02*
X184540000Y-117000000D01*
X179460000Y-116238000D02*
X184540000Y-116238000D01*
D11*
X128000000Y-85500000D02*
X128000000Y-84500000D01*
X128500000Y-85000000D02*
X127500000Y-85000000D01*
X122500000Y-85000000D02*
X121500000Y-85000000D01*
X118000000Y-83000000D02*
X132000000Y-83000000D01*
X118000000Y-97000000D02*
X118000000Y-83000000D01*
X132000000Y-83000000D02*
X132000000Y-97000000D01*
X132000000Y-97000000D02*
X118000000Y-97000000D01*
D10*
X160460000Y-117000000D02*
X160206000Y-117000000D01*
X165540000Y-117000000D02*
X165794000Y-117000000D01*
X160460000Y-117000000D02*
X160460000Y-116238000D01*
X160460000Y-117762000D02*
X160460000Y-117000000D01*
X165540000Y-117762000D02*
X160460000Y-117762000D01*
X165540000Y-117000000D02*
X165540000Y-117762000D01*
X165540000Y-116238000D02*
X165540000Y-117000000D01*
X160460000Y-116238000D02*
X165540000Y-116238000D01*
D12*
X143753257Y-78966457D02*
X143840342Y-78995485D01*
X143869371Y-79024514D01*
X143898400Y-79082571D01*
X143898400Y-79169657D01*
X143869371Y-79227714D01*
X143840342Y-79256742D01*
X143782285Y-79285771D01*
X143550057Y-79285771D01*
X143550057Y-78676171D01*
X143753257Y-78676171D01*
X143811314Y-78705200D01*
X143840342Y-78734228D01*
X143869371Y-78792285D01*
X143869371Y-78850342D01*
X143840342Y-78908400D01*
X143811314Y-78937428D01*
X143753257Y-78966457D01*
X143550057Y-78966457D01*
X144478971Y-79285771D02*
X144130628Y-79285771D01*
X144304800Y-79285771D02*
X144304800Y-78676171D01*
X144246742Y-78763257D01*
X144188685Y-78821314D01*
X144130628Y-78850342D01*
X162898400Y-98275771D02*
X162695200Y-97985485D01*
X162550057Y-98275771D02*
X162550057Y-97666171D01*
X162782285Y-97666171D01*
X162840342Y-97695200D01*
X162869371Y-97724228D01*
X162898400Y-97782285D01*
X162898400Y-97869371D01*
X162869371Y-97927428D01*
X162840342Y-97956457D01*
X162782285Y-97985485D01*
X162550057Y-97985485D01*
X163101600Y-97666171D02*
X163478971Y-97666171D01*
X163275771Y-97898400D01*
X163362857Y-97898400D01*
X163420914Y-97927428D01*
X163449942Y-97956457D01*
X163478971Y-98014514D01*
X163478971Y-98159657D01*
X163449942Y-98217714D01*
X163420914Y-98246742D01*
X163362857Y-98275771D01*
X163188685Y-98275771D01*
X163130628Y-98246742D01*
X163101600Y-98217714D01*
D13*
X166166666Y-96404761D02*
X166309523Y-96452380D01*
X166547619Y-96452380D01*
X166642857Y-96404761D01*
X166690476Y-96357142D01*
X166738095Y-96261904D01*
X166738095Y-96166666D01*
X166690476Y-96071428D01*
X166642857Y-96023809D01*
X166547619Y-95976190D01*
X166357142Y-95928571D01*
X166261904Y-95880952D01*
X166214285Y-95833333D01*
X166166666Y-95738095D01*
X166166666Y-95642857D01*
X166214285Y-95547619D01*
X166261904Y-95500000D01*
X166357142Y-95452380D01*
X166595238Y-95452380D01*
X166738095Y-95500000D01*
X167071428Y-95452380D02*
X167309523Y-96452380D01*
X167500000Y-95738095D01*
X167690476Y-96452380D01*
X167928571Y-95452380D01*
X168214285Y-95452380D02*
X168833333Y-95452380D01*
X168500000Y-95833333D01*
X168642857Y-95833333D01*
X168738095Y-95880952D01*
X168785714Y-95928571D01*
X168833333Y-96023809D01*
X168833333Y-96261904D01*
X168785714Y-96357142D01*
X168738095Y-96404761D01*
X168642857Y-96452380D01*
X168357142Y-96452380D01*
X168261904Y-96404761D01*
X168214285Y-96357142D01*
X185166666Y-115404761D02*
X185309523Y-115452380D01*
X185547619Y-115452380D01*
X185642857Y-115404761D01*
X185690476Y-115357142D01*
X185738095Y-115261904D01*
X185738095Y-115166666D01*
X185690476Y-115071428D01*
X185642857Y-115023809D01*
X185547619Y-114976190D01*
X185357142Y-114928571D01*
X185261904Y-114880952D01*
X185214285Y-114833333D01*
X185166666Y-114738095D01*
X185166666Y-114642857D01*
X185214285Y-114547619D01*
X185261904Y-114500000D01*
X185357142Y-114452380D01*
X185595238Y-114452380D01*
X185738095Y-114500000D01*
X186071428Y-114452380D02*
X186309523Y-115452380D01*
X186500000Y-114738095D01*
X186690476Y-115452380D01*
X186928571Y-114452380D01*
X187452380Y-114880952D02*
X187357142Y-114833333D01*
X187309523Y-114785714D01*
X187261904Y-114690476D01*
X187261904Y-114642857D01*
X187309523Y-114547619D01*
X187357142Y-114500000D01*
X187452380Y-114452380D01*
X187642857Y-114452380D01*
X187738095Y-114500000D01*
X187785714Y-114547619D01*
X187833333Y-114642857D01*
X187833333Y-114690476D01*
X187785714Y-114785714D01*
X187738095Y-114833333D01*
X187642857Y-114880952D01*
X187452380Y-114880952D01*
X187357142Y-114928571D01*
X187309523Y-114976190D01*
X187261904Y-115071428D01*
X187261904Y-115261904D01*
X187309523Y-115357142D01*
X187357142Y-115404761D01*
X187452380Y-115452380D01*
X187642857Y-115452380D01*
X187738095Y-115404761D01*
X187785714Y-115357142D01*
X187833333Y-115261904D01*
X187833333Y-115071428D01*
X187785714Y-114976190D01*
X187738095Y-114928571D01*
X187642857Y-114880952D01*
D12*
X143898400Y-117275771D02*
X143695200Y-116985485D01*
X143550057Y-117275771D02*
X143550057Y-116666171D01*
X143782285Y-116666171D01*
X143840342Y-116695200D01*
X143869371Y-116724228D01*
X143898400Y-116782285D01*
X143898400Y-116869371D01*
X143869371Y-116927428D01*
X143840342Y-116956457D01*
X143782285Y-116985485D01*
X143550057Y-116985485D01*
X144420914Y-116666171D02*
X144304800Y-116666171D01*
X144246742Y-116695200D01*
X144217714Y-116724228D01*
X144159657Y-116811314D01*
X144130628Y-116927428D01*
X144130628Y-117159657D01*
X144159657Y-117217714D01*
X144188685Y-117246742D01*
X144246742Y-117275771D01*
X144362857Y-117275771D01*
X144420914Y-117246742D01*
X144449942Y-117217714D01*
X144478971Y-117159657D01*
X144478971Y-117014514D01*
X144449942Y-116956457D01*
X144420914Y-116927428D01*
X144362857Y-116898400D01*
X144246742Y-116898400D01*
X144188685Y-116927428D01*
X144159657Y-116956457D01*
X144130628Y-117014514D01*
D13*
X185166666Y-96404761D02*
X185309523Y-96452380D01*
X185547619Y-96452380D01*
X185642857Y-96404761D01*
X185690476Y-96357142D01*
X185738095Y-96261904D01*
X185738095Y-96166666D01*
X185690476Y-96071428D01*
X185642857Y-96023809D01*
X185547619Y-95976190D01*
X185357142Y-95928571D01*
X185261904Y-95880952D01*
X185214285Y-95833333D01*
X185166666Y-95738095D01*
X185166666Y-95642857D01*
X185214285Y-95547619D01*
X185261904Y-95500000D01*
X185357142Y-95452380D01*
X185595238Y-95452380D01*
X185738095Y-95500000D01*
X186071428Y-95452380D02*
X186309523Y-96452380D01*
X186500000Y-95738095D01*
X186690476Y-96452380D01*
X186928571Y-95452380D01*
X187738095Y-95785714D02*
X187738095Y-96452380D01*
X187500000Y-95404761D02*
X187261904Y-96119047D01*
X187880952Y-96119047D01*
D12*
X143898400Y-98275771D02*
X143695200Y-97985485D01*
X143550057Y-98275771D02*
X143550057Y-97666171D01*
X143782285Y-97666171D01*
X143840342Y-97695200D01*
X143869371Y-97724228D01*
X143898400Y-97782285D01*
X143898400Y-97869371D01*
X143869371Y-97927428D01*
X143840342Y-97956457D01*
X143782285Y-97985485D01*
X143550057Y-97985485D01*
X144130628Y-97724228D02*
X144159657Y-97695200D01*
X144217714Y-97666171D01*
X144362857Y-97666171D01*
X144420914Y-97695200D01*
X144449942Y-97724228D01*
X144478971Y-97782285D01*
X144478971Y-97840342D01*
X144449942Y-97927428D01*
X144101600Y-98275771D01*
X144478971Y-98275771D01*
X181898400Y-98275771D02*
X181695200Y-97985485D01*
X181550057Y-98275771D02*
X181550057Y-97666171D01*
X181782285Y-97666171D01*
X181840342Y-97695200D01*
X181869371Y-97724228D01*
X181898400Y-97782285D01*
X181898400Y-97869371D01*
X181869371Y-97927428D01*
X181840342Y-97956457D01*
X181782285Y-97985485D01*
X181550057Y-97985485D01*
X182420914Y-97869371D02*
X182420914Y-98275771D01*
X182275771Y-97637142D02*
X182130628Y-98072571D01*
X182508000Y-98072571D01*
D13*
X147166666Y-115404761D02*
X147309523Y-115452380D01*
X147547619Y-115452380D01*
X147642857Y-115404761D01*
X147690476Y-115357142D01*
X147738095Y-115261904D01*
X147738095Y-115166666D01*
X147690476Y-115071428D01*
X147642857Y-115023809D01*
X147547619Y-114976190D01*
X147357142Y-114928571D01*
X147261904Y-114880952D01*
X147214285Y-114833333D01*
X147166666Y-114738095D01*
X147166666Y-114642857D01*
X147214285Y-114547619D01*
X147261904Y-114500000D01*
X147357142Y-114452380D01*
X147595238Y-114452380D01*
X147738095Y-114500000D01*
X148071428Y-114452380D02*
X148309523Y-115452380D01*
X148500000Y-114738095D01*
X148690476Y-115452380D01*
X148928571Y-114452380D01*
X149738095Y-114452380D02*
X149547619Y-114452380D01*
X149452380Y-114500000D01*
X149404761Y-114547619D01*
X149309523Y-114690476D01*
X149261904Y-114880952D01*
X149261904Y-115261904D01*
X149309523Y-115357142D01*
X149357142Y-115404761D01*
X149452380Y-115452380D01*
X149642857Y-115452380D01*
X149738095Y-115404761D01*
X149785714Y-115357142D01*
X149833333Y-115261904D01*
X149833333Y-115023809D01*
X149785714Y-114928571D01*
X149738095Y-114880952D01*
X149642857Y-114833333D01*
X149452380Y-114833333D01*
X149357142Y-114880952D01*
X149309523Y-114928571D01*
X149261904Y-115023809D01*
D12*
X124898400Y-98275771D02*
X124695200Y-97985485D01*
X124550057Y-98275771D02*
X124550057Y-97666171D01*
X124782285Y-97666171D01*
X124840342Y-97695200D01*
X124869371Y-97724228D01*
X124898400Y-97782285D01*
X124898400Y-97869371D01*
X124869371Y-97927428D01*
X124840342Y-97956457D01*
X124782285Y-97985485D01*
X124550057Y-97985485D01*
X125478971Y-98275771D02*
X125130628Y-98275771D01*
X125304800Y-98275771D02*
X125304800Y-97666171D01*
X125246742Y-97753257D01*
X125188685Y-97811314D01*
X125130628Y-97840342D01*
X124898400Y-117275771D02*
X124695200Y-116985485D01*
X124550057Y-117275771D02*
X124550057Y-116666171D01*
X124782285Y-116666171D01*
X124840342Y-116695200D01*
X124869371Y-116724228D01*
X124898400Y-116782285D01*
X124898400Y-116869371D01*
X124869371Y-116927428D01*
X124840342Y-116956457D01*
X124782285Y-116985485D01*
X124550057Y-116985485D01*
X125449942Y-116666171D02*
X125159657Y-116666171D01*
X125130628Y-116956457D01*
X125159657Y-116927428D01*
X125217714Y-116898400D01*
X125362857Y-116898400D01*
X125420914Y-116927428D01*
X125449942Y-116956457D01*
X125478971Y-117014514D01*
X125478971Y-117159657D01*
X125449942Y-117217714D01*
X125420914Y-117246742D01*
X125362857Y-117275771D01*
X125217714Y-117275771D01*
X125159657Y-117246742D01*
X125130628Y-117217714D01*
D13*
X128166666Y-115404761D02*
X128309523Y-115452380D01*
X128547619Y-115452380D01*
X128642857Y-115404761D01*
X128690476Y-115357142D01*
X128738095Y-115261904D01*
X128738095Y-115166666D01*
X128690476Y-115071428D01*
X128642857Y-115023809D01*
X128547619Y-114976190D01*
X128357142Y-114928571D01*
X128261904Y-114880952D01*
X128214285Y-114833333D01*
X128166666Y-114738095D01*
X128166666Y-114642857D01*
X128214285Y-114547619D01*
X128261904Y-114500000D01*
X128357142Y-114452380D01*
X128595238Y-114452380D01*
X128738095Y-114500000D01*
X129071428Y-114452380D02*
X129309523Y-115452380D01*
X129500000Y-114738095D01*
X129690476Y-115452380D01*
X129928571Y-114452380D01*
X130785714Y-114452380D02*
X130309523Y-114452380D01*
X130261904Y-114928571D01*
X130309523Y-114880952D01*
X130404761Y-114833333D01*
X130642857Y-114833333D01*
X130738095Y-114880952D01*
X130785714Y-114928571D01*
X130833333Y-115023809D01*
X130833333Y-115261904D01*
X130785714Y-115357142D01*
X130738095Y-115404761D01*
X130642857Y-115452380D01*
X130404761Y-115452380D01*
X130309523Y-115404761D01*
X130261904Y-115357142D01*
X147166666Y-96404761D02*
X147309523Y-96452380D01*
X147547619Y-96452380D01*
X147642857Y-96404761D01*
X147690476Y-96357142D01*
X147738095Y-96261904D01*
X147738095Y-96166666D01*
X147690476Y-96071428D01*
X147642857Y-96023809D01*
X147547619Y-95976190D01*
X147357142Y-95928571D01*
X147261904Y-95880952D01*
X147214285Y-95833333D01*
X147166666Y-95738095D01*
X147166666Y-95642857D01*
X147214285Y-95547619D01*
X147261904Y-95500000D01*
X147357142Y-95452380D01*
X147595238Y-95452380D01*
X147738095Y-95500000D01*
X148071428Y-95452380D02*
X148309523Y-96452380D01*
X148500000Y-95738095D01*
X148690476Y-96452380D01*
X148928571Y-95452380D01*
X149261904Y-95547619D02*
X149309523Y-95500000D01*
X149404761Y-95452380D01*
X149642857Y-95452380D01*
X149738095Y-95500000D01*
X149785714Y-95547619D01*
X149833333Y-95642857D01*
X149833333Y-95738095D01*
X149785714Y-95880952D01*
X149214285Y-96452380D01*
X149833333Y-96452380D01*
X166166666Y-115404761D02*
X166309523Y-115452380D01*
X166547619Y-115452380D01*
X166642857Y-115404761D01*
X166690476Y-115357142D01*
X166738095Y-115261904D01*
X166738095Y-115166666D01*
X166690476Y-115071428D01*
X166642857Y-115023809D01*
X166547619Y-114976190D01*
X166357142Y-114928571D01*
X166261904Y-114880952D01*
X166214285Y-114833333D01*
X166166666Y-114738095D01*
X166166666Y-114642857D01*
X166214285Y-114547619D01*
X166261904Y-114500000D01*
X166357142Y-114452380D01*
X166595238Y-114452380D01*
X166738095Y-114500000D01*
X167071428Y-114452380D02*
X167309523Y-115452380D01*
X167500000Y-114738095D01*
X167690476Y-115452380D01*
X167928571Y-114452380D01*
X168214285Y-114452380D02*
X168880952Y-114452380D01*
X168452380Y-115452380D01*
D12*
X181898400Y-117275771D02*
X181695200Y-116985485D01*
X181550057Y-117275771D02*
X181550057Y-116666171D01*
X181782285Y-116666171D01*
X181840342Y-116695200D01*
X181869371Y-116724228D01*
X181898400Y-116782285D01*
X181898400Y-116869371D01*
X181869371Y-116927428D01*
X181840342Y-116956457D01*
X181782285Y-116985485D01*
X181550057Y-116985485D01*
X182246742Y-116927428D02*
X182188685Y-116898400D01*
X182159657Y-116869371D01*
X182130628Y-116811314D01*
X182130628Y-116782285D01*
X182159657Y-116724228D01*
X182188685Y-116695200D01*
X182246742Y-116666171D01*
X182362857Y-116666171D01*
X182420914Y-116695200D01*
X182449942Y-116724228D01*
X182478971Y-116782285D01*
X182478971Y-116811314D01*
X182449942Y-116869371D01*
X182420914Y-116898400D01*
X182362857Y-116927428D01*
X182246742Y-116927428D01*
X182188685Y-116956457D01*
X182159657Y-116985485D01*
X182130628Y-117043542D01*
X182130628Y-117159657D01*
X182159657Y-117217714D01*
X182188685Y-117246742D01*
X182246742Y-117275771D01*
X182362857Y-117275771D01*
X182420914Y-117246742D01*
X182449942Y-117217714D01*
X182478971Y-117159657D01*
X182478971Y-117043542D01*
X182449942Y-116985485D01*
X182420914Y-116956457D01*
X182362857Y-116927428D01*
D13*
X128166666Y-96404761D02*
X128309523Y-96452380D01*
X128547619Y-96452380D01*
X128642857Y-96404761D01*
X128690476Y-96357142D01*
X128738095Y-96261904D01*
X128738095Y-96166666D01*
X128690476Y-96071428D01*
X128642857Y-96023809D01*
X128547619Y-95976190D01*
X128357142Y-95928571D01*
X128261904Y-95880952D01*
X128214285Y-95833333D01*
X128166666Y-95738095D01*
X128166666Y-95642857D01*
X128214285Y-95547619D01*
X128261904Y-95500000D01*
X128357142Y-95452380D01*
X128595238Y-95452380D01*
X128738095Y-95500000D01*
X129071428Y-95452380D02*
X129309523Y-96452380D01*
X129500000Y-95738095D01*
X129690476Y-96452380D01*
X129928571Y-95452380D01*
X130833333Y-96452380D02*
X130261904Y-96452380D01*
X130547619Y-96452380D02*
X130547619Y-95452380D01*
X130452380Y-95595238D01*
X130357142Y-95690476D01*
X130261904Y-95738095D01*
D12*
X162898400Y-117275771D02*
X162695200Y-116985485D01*
X162550057Y-117275771D02*
X162550057Y-116666171D01*
X162782285Y-116666171D01*
X162840342Y-116695200D01*
X162869371Y-116724228D01*
X162898400Y-116782285D01*
X162898400Y-116869371D01*
X162869371Y-116927428D01*
X162840342Y-116956457D01*
X162782285Y-116985485D01*
X162550057Y-116985485D01*
X163101600Y-116666171D02*
X163508000Y-116666171D01*
X163246742Y-117275771D01*
M02*
