  0
SECTION
  2
HEADER
  9
$ACADVER
  1
AC1009
  9
$EXTMIN
 10
0.0
 20
0.0
 30
0.0
  9
$EXTMAX
 10
1000.0
 20
1000.0
 30
0.0
  9
$FILLMODE
 70
 0
  9
$SPLFRAME
 70
 1
  0
ENDSEC
  0
SECTION
  2
TABLES
  0
TABLE
  2
LAYER
 70
1
  0
LAYER
  2
0
 70
     0
 62
     7
  6
CONTINUOUS
  0
ENDTAB
  0
ENDSEC
  0
SECTION
  2
ENTITIES
  0
LINE
  8
0
 62
     0
 10
91.2964
 20
58.1865
 30
0.0
 11
91.6877
 21
58.1713
 31
0.0
  0
LINE
  8
0
 62
     0
 10
91.6877
 20
58.1713
 30
0.0
 11
92.0778
 21
58.1258
 31
0.0
  0
LINE
  8
0
 62
     0
 10
92.0778
 20
58.1258
 30
0.0
 11
92.4623
 21
58.0485
 31
0.0
  0
LINE
  8
0
 62
     0
 10
92.4623
 20
58.0485
 30
0.0
 11
92.8412
 21
57.9423
 31
0.0
  0
LINE
  8
0
 62
     0
 10
92.8412
 20
57.9423
 30
0.0
 11
93.2092
 21
57.8058
 31
0.0
  0
LINE
  8
0
 62
     0
 10
93.2092
 20
57.8058
 30
0.0
 11
93.5648
 21
57.6421
 31
0.0
  0
LINE
  8
0
 62
     0
 10
93.5648
 20
57.6421
 30
0.0
 11
93.9077
 21
57.4506
 31
0.0
  0
LINE
  8
0
 62
     0
 10
93.9077
 20
57.4506
 30
0.0
 11
94.2344
 21
57.2325
 31
0.0
  0
LINE
  8
0
 62
     0
 10
94.2344
 20
57.2325
 30
0.0
 11
94.543
 21
56.9902
 31
0.0
  0
LINE
  8
0
 62
     0
 10
94.543
 20
56.9902
 30
0.0
 11
94.8312
 21
56.7228
 31
0.0
  0
LINE
  8
0
 62
     0
 10
94.8312
 20
56.7228
 30
0.0
 11
95.0983
 21
56.4349
 31
0.0
  0
LINE
  8
0
 62
     0
 10
95.0983
 20
56.4349
 30
0.0
 11
95.341
 21
56.1262
 31
0.0
  0
LINE
  8
0
 62
     0
 10
95.341
 20
56.1262
 30
0.0
 11
95.5587
 21
55.7996
 31
0.0
  0
LINE
  8
0
 62
     0
 10
95.5587
 20
55.7996
 30
0.0
 11
95.7502
 21
55.4563
 31
0.0
  0
LINE
  8
0
 62
     0
 10
95.7502
 20
55.4563
 30
0.0
 11
95.9143
 21
55.1007
 31
0.0
  0
LINE
  8
0
 62
     0
 10
95.9143
 20
55.1007
 30
0.0
 11
96.0508
 21
54.7328
 31
0.0
  0
LINE
  8
0
 62
     0
 10
96.0508
 20
54.7328
 30
0.0
 11
96.1566
 21
54.3539
 31
0.0
  0
LINE
  8
0
 62
     0
 10
96.1566
 20
54.3539
 30
0.0
 11
96.2339
 21
53.9694
 31
0.0
  0
LINE
  8
0
 62
     0
 10
96.2339
 20
53.9694
 30
0.0
 11
96.2794
 21
53.5795
 31
0.0
  0
LINE
  8
0
 62
     0
 10
96.2794
 20
53.5795
 30
0.0
 11
96.296
 21
53.1869
 31
0.0
  0
LINE
  8
0
 62
     0
 10
96.296
 20
53.1869
 30
0.0
 11
96.296
 21
5.08497
 31
0.0
  0
LINE
  8
0
 62
     0
 10
96.296
 20
5.08497
 30
0.0
 11
96.2794
 21
4.6936
 31
0.0
  0
LINE
  8
0
 62
     0
 10
96.2794
 20
4.6936
 30
0.0
 11
96.2339
 21
4.30361
 31
0.0
  0
LINE
  8
0
 62
     0
 10
96.2339
 20
4.30361
 30
0.0
 11
96.1566
 21
3.91915
 31
0.0
  0
LINE
  8
0
 62
     0
 10
96.1566
 20
3.91915
 30
0.0
 11
96.0508
 21
3.5402
 31
0.0
  0
LINE
  8
0
 62
     0
 10
96.0508
 20
3.5402
 30
0.0
 11
95.9143
 21
3.17224
 31
0.0
  0
LINE
  8
0
 62
     0
 10
95.9143
 20
3.17224
 30
0.0
 11
95.7502
 21
2.81671
 31
0.0
  0
LINE
  8
0
 62
     0
 10
95.7502
 20
2.81671
 30
0.0
 11
95.5587
 21
2.47358
 31
0.0
  0
LINE
  8
0
 62
     0
 10
95.5587
 20
2.47358
 30
0.0
 11
95.341
 21
2.14698
 31
0.0
  0
LINE
  8
0
 62
     0
 10
95.341
 20
2.14698
 30
0.0
 11
95.0983
 21
1.8383
 31
0.0
  0
LINE
  8
0
 62
     0
 10
95.0983
 20
1.8383
 30
0.0
 11
94.8312
 21
1.55029
 31
0.0
  0
LINE
  8
0
 62
     0
 10
94.8312
 20
1.55029
 30
0.0
 11
94.543
 21
1.28295
 31
0.0
  0
LINE
  8
0
 62
     0
 10
94.543
 20
1.28295
 30
0.0
 11
94.2344
 21
1.04042
 31
0.0
  0
LINE
  8
0
 62
     0
 10
94.2344
 20
1.04042
 30
0.0
 11
93.9077
 21
0.822688
 31
0.0
  0
LINE
  8
0
 62
     0
 10
93.9077
 20
0.822688
 30
0.0
 11
93.5648
 21
0.631141
 31
0.0
  0
LINE
  8
0
 62
     0
 10
93.5648
 20
0.631141
 30
0.0
 11
93.2092
 21
0.467155
 31
0.0
  0
LINE
  8
0
 62
     0
 10
93.2092
 20
0.467155
 30
0.0
 11
92.8412
 21
0.330729
 31
0.0
  0
LINE
  8
0
 62
     0
 10
92.8412
 20
0.330729
 30
0.0
 11
92.4623
 21
0.22462
 31
0.0
  0
LINE
  8
0
 62
     0
 10
92.4623
 20
0.22462
 30
0.0
 11
92.0778
 21
0.14745
 31
0.0
  0
LINE
  8
0
 62
     0
 10
92.0778
 20
0.14745
 30
0.0
 11
91.6877
 21
0.101975
 31
0.0
  0
LINE
  8
0
 62
     0
 10
91.6877
 20
0.101975
 30
0.0
 11
91.295
 21
0.0854385
 31
0.0
  0
LINE
  8
0
 62
     0
 10
91.295
 20
0.0854385
 30
0.0
 11
5.0946
 21
0.0854385
 31
0.0
  0
LINE
  8
0
 62
     0
 10
5.0946
 20
0.0854385
 30
0.0
 11
4.70186
 21
0.101975
 31
0.0
  0
LINE
  8
0
 62
     0
 10
4.70186
 20
0.101975
 30
0.0
 11
4.3119
 21
0.14745
 31
0.0
  0
LINE
  8
0
 62
     0
 10
4.3119
 20
0.14745
 30
0.0
 11
3.9274
 21
0.22462
 31
0.0
  0
LINE
  8
0
 62
     0
 10
3.9274
 20
0.22462
 30
0.0
 11
3.54845
 21
0.330729
 31
0.0
  0
LINE
  8
0
 62
     0
 10
3.54845
 20
0.330729
 30
0.0
 11
3.18051
 21
0.467155
 31
0.0
  0
LINE
  8
0
 62
     0
 10
3.18051
 20
0.467155
 30
0.0
 11
2.82498
 21
0.631141
 31
0.0
  0
LINE
  8
0
 62
     0
 10
2.82498
 20
0.631141
 30
0.0
 11
2.48185
 21
0.822688
 31
0.0
  0
LINE
  8
0
 62
     0
 10
2.48185
 20
0.822688
 30
0.0
 11
2.15525
 21
1.04042
 31
0.0
  0
LINE
  8
0
 62
     0
 10
2.15525
 20
1.04042
 30
0.0
 11
1.84657
 21
1.28295
 31
0.0
  0
LINE
  8
0
 62
     0
 10
1.84657
 20
1.28295
 30
0.0
 11
1.55856
 21
1.55029
 31
0.0
  0
LINE
  8
0
 62
     0
 10
1.55856
 20
1.55029
 30
0.0
 11
1.29122
 21
1.8383
 31
0.0
  0
LINE
  8
0
 62
     0
 10
1.29122
 20
1.8383
 30
0.0
 11
1.04869
 21
2.14698
 31
0.0
  0
LINE
  8
0
 62
     0
 10
1.04869
 20
2.14698
 30
0.0
 11
0.830957
 21
2.47358
 31
0.0
  0
LINE
  8
0
 62
     0
 10
0.830957
 20
2.47358
 30
0.0
 11
0.63941
 21
2.81671
 31
0.0
  0
LINE
  8
0
 62
     0
 10
0.63941
 20
2.81671
 30
0.0
 11
0.475424
 21
3.17224
 31
0.0
  0
LINE
  8
0
 62
     0
 10
0.475424
 20
3.17224
 30
0.0
 11
0.338998
 21
3.5402
 31
0.0
  0
LINE
  8
0
 62
     0
 10
0.338998
 20
3.5402
 30
0.0
 11
0.232888
 21
3.91915
 31
0.0
  0
LINE
  8
0
 62
     0
 10
0.232888
 20
3.91915
 30
0.0
 11
0.155718
 21
4.30361
 31
0.0
  0
LINE
  8
0
 62
     0
 10
0.155718
 20
4.30361
 30
0.0
 11
0.110243
 21
4.6936
 31
0.0
  0
LINE
  8
0
 62
     0
 10
0.110243
 20
4.6936
 30
0.0
 11
0.0937066
 21
5.08635
 31
0.0
  0
LINE
  8
0
 62
     0
 10
0.0937066
 20
5.08635
 30
0.0
 11
0.0950846
 21
53.1869
 31
0.0
  0
LINE
  8
0
 62
     0
 10
0.0950846
 20
53.1869
 30
0.0
 11
0.110243
 21
53.5795
 31
0.0
  0
LINE
  8
0
 62
     0
 10
0.110243
 20
53.5795
 30
0.0
 11
0.155718
 21
53.9694
 31
0.0
  0
LINE
  8
0
 62
     0
 10
0.155718
 20
53.9694
 30
0.0
 11
0.232888
 21
54.3539
 31
0.0
  0
LINE
  8
0
 62
     0
 10
0.232888
 20
54.3539
 30
0.0
 11
0.338998
 21
54.7328
 31
0.0
  0
LINE
  8
0
 62
     0
 10
0.338998
 20
54.7328
 30
0.0
 11
0.475424
 21
55.1007
 31
0.0
  0
LINE
  8
0
 62
     0
 10
0.475424
 20
55.1007
 30
0.0
 11
0.63941
 21
55.4563
 31
0.0
  0
LINE
  8
0
 62
     0
 10
0.63941
 20
55.4563
 30
0.0
 11
0.830957
 21
55.7996
 31
0.0
  0
LINE
  8
0
 62
     0
 10
0.830957
 20
55.7996
 30
0.0
 11
1.04869
 21
56.1262
 31
0.0
  0
LINE
  8
0
 62
     0
 10
1.04869
 20
56.1262
 30
0.0
 11
1.29122
 21
56.4349
 31
0.0
  0
LINE
  8
0
 62
     0
 10
1.29122
 20
56.4349
 30
0.0
 11
1.55856
 21
56.7228
 31
0.0
  0
LINE
  8
0
 62
     0
 10
1.55856
 20
56.7228
 30
0.0
 11
1.84657
 21
56.9902
 31
0.0
  0
LINE
  8
0
 62
     0
 10
1.84657
 20
56.9902
 30
0.0
 11
2.15525
 21
57.2325
 31
0.0
  0
LINE
  8
0
 62
     0
 10
2.15525
 20
57.2325
 30
0.0
 11
2.48185
 21
57.4506
 31
0.0
  0
LINE
  8
0
 62
     0
 10
2.48185
 20
57.4506
 30
0.0
 11
2.82498
 21
57.6421
 31
0.0
  0
LINE
  8
0
 62
     0
 10
2.82498
 20
57.6421
 30
0.0
 11
3.18051
 21
57.8058
 31
0.0
  0
LINE
  8
0
 62
     0
 10
3.18051
 20
57.8058
 30
0.0
 11
3.54845
 21
57.9423
 31
0.0
  0
LINE
  8
0
 62
     0
 10
3.54845
 20
57.9423
 30
0.0
 11
3.9274
 21
58.0485
 31
0.0
  0
LINE
  8
0
 62
     0
 10
3.9274
 20
58.0485
 30
0.0
 11
4.3119
 21
58.1258
 31
0.0
  0
LINE
  8
0
 62
     0
 10
4.3119
 20
58.1258
 30
0.0
 11
4.70186
 21
58.1713
 31
0.0
  0
LINE
  8
0
 62
     0
 10
4.70186
 20
58.1713
 30
0.0
 11
5.0946
 21
58.1875
 31
0.0
  0
LINE
  8
0
 62
     0
 10
5.0946
 20
58.1875
 30
0.0
 11
91.2964
 21
58.1865
 31
0.0
  0
LINE
  8
0
 62
     0
 10
90.8004
 20
6.6077
 30
0.0
 11
90.3552
 21
6.3803
 31
0.0
  0
LINE
  8
0
 62
     0
 10
90.3552
 20
6.3803
 30
0.0
 11
90.001
 21
6.02615
 31
0.0
  0
LINE
  8
0
 62
     0
 10
90.001
 20
6.02615
 30
0.0
 11
89.7738
 21
5.58105
 31
0.0
  0
LINE
  8
0
 62
     0
 10
89.7738
 20
5.58105
 30
0.0
 11
89.6952
 21
5.08497
 31
0.0
  0
LINE
  8
0
 62
     0
 10
89.6952
 20
5.08497
 30
0.0
 11
89.7738
 21
4.59161
 31
0.0
  0
LINE
  8
0
 62
     0
 10
89.7738
 20
4.59161
 30
0.0
 11
90.001
 21
4.14514
 31
0.0
  0
LINE
  8
0
 62
     0
 10
90.001
 20
4.14514
 30
0.0
 11
90.3552
 21
3.79099
 31
0.0
  0
LINE
  8
0
 62
     0
 10
90.3552
 20
3.79099
 30
0.0
 11
90.8004
 21
3.565
 31
0.0
  0
LINE
  8
0
 62
     0
 10
90.8004
 20
3.565
 30
0.0
 11
91.2964
 21
3.48506
 31
0.0
  0
LINE
  8
0
 62
     0
 10
91.2964
 20
3.48506
 30
0.0
 11
91.7896
 21
3.565
 31
0.0
  0
LINE
  8
0
 62
     0
 10
91.7896
 20
3.565
 30
0.0
 11
92.2362
 21
3.79099
 31
0.0
  0
LINE
  8
0
 62
     0
 10
92.2362
 20
3.79099
 30
0.0
 11
92.5904
 21
4.14514
 31
0.0
  0
LINE
  8
0
 62
     0
 10
92.5904
 20
4.14514
 30
0.0
 11
92.8165
 21
4.59161
 31
0.0
  0
LINE
  8
0
 62
     0
 10
92.8165
 20
4.59161
 30
0.0
 11
92.8949
 21
5.08497
 31
0.0
  0
LINE
  8
0
 62
     0
 10
92.8949
 20
5.08497
 30
0.0
 11
92.8165
 21
5.58105
 31
0.0
  0
LINE
  8
0
 62
     0
 10
92.8165
 20
5.58105
 30
0.0
 11
92.5904
 21
6.02615
 31
0.0
  0
LINE
  8
0
 62
     0
 10
92.5904
 20
6.02615
 30
0.0
 11
92.2362
 21
6.3803
 31
0.0
  0
LINE
  8
0
 62
     0
 10
92.2362
 20
6.3803
 30
0.0
 11
91.7896
 21
6.6077
 31
0.0
  0
LINE
  8
0
 62
     0
 10
91.7896
 20
6.6077
 30
0.0
 11
91.2964
 21
6.68623
 31
0.0
  0
LINE
  8
0
 62
     0
 10
91.2964
 20
6.68623
 30
0.0
 11
90.8004
 21
6.6077
 31
0.0
  0
LINE
  8
0
 62
     0
 10
4.5999
 20
6.6077
 30
0.0
 11
4.15339
 21
6.3803
 31
0.0
  0
LINE
  8
0
 62
     0
 10
4.15339
 20
6.3803
 30
0.0
 11
3.79924
 21
6.02615
 31
0.0
  0
LINE
  8
0
 62
     0
 10
3.79924
 20
6.02615
 30
0.0
 11
3.57325
 21
5.58105
 31
0.0
  0
LINE
  8
0
 62
     0
 10
3.57325
 20
5.58105
 30
0.0
 11
3.4947
 21
5.08497
 31
0.0
  0
LINE
  8
0
 62
     0
 10
3.4947
 20
5.08497
 30
0.0
 11
3.57325
 21
4.59161
 31
0.0
  0
LINE
  8
0
 62
     0
 10
3.57325
 20
4.59161
 30
0.0
 11
3.79924
 21
4.14514
 31
0.0
  0
LINE
  8
0
 62
     0
 10
3.79924
 20
4.14514
 30
0.0
 11
4.15339
 21
3.79099
 31
0.0
  0
LINE
  8
0
 62
     0
 10
4.15339
 20
3.79099
 30
0.0
 11
4.5999
 21
3.565
 31
0.0
  0
LINE
  8
0
 62
     0
 10
4.5999
 20
3.565
 30
0.0
 11
5.0946
 21
3.48506
 31
0.0
  0
LINE
  8
0
 62
     0
 10
5.0946
 20
3.48506
 30
0.0
 11
5.58934
 21
3.565
 31
0.0
  0
LINE
  8
0
 62
     0
 10
5.58934
 20
3.565
 30
0.0
 11
6.03444
 21
3.79099
 31
0.0
  0
LINE
  8
0
 62
     0
 10
6.03444
 20
3.79099
 30
0.0
 11
6.38859
 21
4.14514
 31
0.0
  0
LINE
  8
0
 62
     0
 10
6.38859
 20
4.14514
 30
0.0
 11
6.61596
 21
4.59161
 31
0.0
  0
LINE
  8
0
 62
     0
 10
6.61596
 20
4.59161
 30
0.0
 11
6.69452
 21
5.08497
 31
0.0
  0
LINE
  8
0
 62
     0
 10
6.69452
 20
5.08497
 30
0.0
 11
6.61596
 21
5.58105
 31
0.0
  0
LINE
  8
0
 62
     0
 10
6.61596
 20
5.58105
 30
0.0
 11
6.38859
 21
6.02615
 31
0.0
  0
LINE
  8
0
 62
     0
 10
6.38859
 20
6.02615
 30
0.0
 11
6.03444
 21
6.3803
 31
0.0
  0
LINE
  8
0
 62
     0
 10
6.03444
 20
6.3803
 30
0.0
 11
5.58934
 21
6.6077
 31
0.0
  0
LINE
  8
0
 62
     0
 10
5.58934
 20
6.6077
 30
0.0
 11
5.0946
 21
6.68623
 31
0.0
  0
LINE
  8
0
 62
     0
 10
5.0946
 20
6.68623
 30
0.0
 11
4.5999
 21
6.6077
 31
0.0
  0
LINE
  8
0
 62
     0
 10
10.0928
 20
48.1887
 30
0.0
 11
86.2954
 21
48.1887
 31
0.0
  0
LINE
  8
0
 62
     0
 10
86.2954
 20
48.1887
 30
0.0
 11
86.2954
 21
10.0858
 31
0.0
  0
LINE
  8
0
 62
     0
 10
86.2954
 20
10.0858
 30
0.0
 11
10.0928
 21
10.0858
 31
0.0
  0
LINE
  8
0
 62
     0
 10
10.0928
 20
10.0858
 30
0.0
 11
10.0928
 21
48.1887
 31
0.0
  0
LINE
  8
0
 62
     0
 10
90.8004
 20
54.7081
 30
0.0
 11
90.3552
 21
54.4823
 31
0.0
  0
LINE
  8
0
 62
     0
 10
90.3552
 20
54.4823
 30
0.0
 11
90.001
 21
54.1281
 31
0.0
  0
LINE
  8
0
 62
     0
 10
90.001
 20
54.1281
 30
0.0
 11
89.7738
 21
53.6815
 31
0.0
  0
LINE
  8
0
 62
     0
 10
89.7738
 20
53.6815
 30
0.0
 11
89.6952
 21
53.1869
 31
0.0
  0
LINE
  8
0
 62
     0
 10
89.6952
 20
53.1869
 30
0.0
 11
89.7738
 21
52.6919
 31
0.0
  0
LINE
  8
0
 62
     0
 10
89.7738
 20
52.6919
 30
0.0
 11
90.001
 21
52.2471
 31
0.0
  0
LINE
  8
0
 62
     0
 10
90.001
 20
52.2471
 30
0.0
 11
90.3552
 21
51.8929
 31
0.0
  0
LINE
  8
0
 62
     0
 10
90.3552
 20
51.8929
 30
0.0
 11
90.8004
 21
51.6654
 31
0.0
  0
LINE
  8
0
 62
     0
 10
90.8004
 20
51.6654
 30
0.0
 11
91.2964
 21
51.5867
 31
0.0
  0
LINE
  8
0
 62
     0
 10
91.2964
 20
51.5867
 30
0.0
 11
91.7896
 21
51.6654
 31
0.0
  0
LINE
  8
0
 62
     0
 10
91.7896
 20
51.6654
 30
0.0
 11
92.2362
 21
51.8929
 31
0.0
  0
LINE
  8
0
 62
     0
 10
92.2362
 20
51.8929
 30
0.0
 11
92.5904
 21
52.2471
 31
0.0
  0
LINE
  8
0
 62
     0
 10
92.5904
 20
52.2471
 30
0.0
 11
92.8165
 21
52.6919
 31
0.0
  0
LINE
  8
0
 62
     0
 10
92.8165
 20
52.6919
 30
0.0
 11
92.8949
 21
53.1869
 31
0.0
  0
LINE
  8
0
 62
     0
 10
92.8949
 20
53.1869
 30
0.0
 11
92.8165
 21
53.6815
 31
0.0
  0
LINE
  8
0
 62
     0
 10
92.8165
 20
53.6815
 30
0.0
 11
92.5904
 21
54.1281
 31
0.0
  0
LINE
  8
0
 62
     0
 10
92.5904
 20
54.1281
 30
0.0
 11
92.2362
 21
54.4823
 31
0.0
  0
LINE
  8
0
 62
     0
 10
92.2362
 20
54.4823
 30
0.0
 11
91.7896
 21
54.7081
 31
0.0
  0
LINE
  8
0
 62
     0
 10
91.7896
 20
54.7081
 30
0.0
 11
91.2964
 21
54.7867
 31
0.0
  0
LINE
  8
0
 62
     0
 10
91.2964
 20
54.7867
 30
0.0
 11
90.8004
 21
54.7081
 31
0.0
  0
LINE
  8
0
 62
     0
 10
4.5999
 20
54.7081
 30
0.0
 11
4.15339
 21
54.4823
 31
0.0
  0
LINE
  8
0
 62
     0
 10
4.15339
 20
54.4823
 30
0.0
 11
3.79924
 21
54.1281
 31
0.0
  0
LINE
  8
0
 62
     0
 10
3.79924
 20
54.1281
 30
0.0
 11
3.57325
 21
53.6815
 31
0.0
  0
LINE
  8
0
 62
     0
 10
3.57325
 20
53.6815
 30
0.0
 11
3.4947
 21
53.1869
 31
0.0
  0
LINE
  8
0
 62
     0
 10
3.4947
 20
53.1869
 30
0.0
 11
3.57325
 21
52.6919
 31
0.0
  0
LINE
  8
0
 62
     0
 10
3.57325
 20
52.6919
 30
0.0
 11
3.79924
 21
52.2471
 31
0.0
  0
LINE
  8
0
 62
     0
 10
3.79924
 20
52.2471
 30
0.0
 11
4.15339
 21
51.8929
 31
0.0
  0
LINE
  8
0
 62
     0
 10
4.15339
 20
51.8929
 30
0.0
 11
4.5999
 21
51.6654
 31
0.0
  0
LINE
  8
0
 62
     0
 10
4.5999
 20
51.6654
 30
0.0
 11
5.0946
 21
51.5867
 31
0.0
  0
LINE
  8
0
 62
     0
 10
5.0946
 20
51.5867
 30
0.0
 11
5.58934
 21
51.6654
 31
0.0
  0
LINE
  8
0
 62
     0
 10
5.58934
 20
51.6654
 30
0.0
 11
6.03444
 21
51.8929
 31
0.0
  0
LINE
  8
0
 62
     0
 10
6.03444
 20
51.8929
 30
0.0
 11
6.38859
 21
52.2471
 31
0.0
  0
LINE
  8
0
 62
     0
 10
6.38859
 20
52.2471
 30
0.0
 11
6.61596
 21
52.6919
 31
0.0
  0
LINE
  8
0
 62
     0
 10
6.61596
 20
52.6919
 30
0.0
 11
6.69452
 21
53.1869
 31
0.0
  0
LINE
  8
0
 62
     0
 10
6.69452
 20
53.1869
 30
0.0
 11
6.61596
 21
53.6815
 31
0.0
  0
LINE
  8
0
 62
     0
 10
6.61596
 20
53.6815
 30
0.0
 11
6.38859
 21
54.1281
 31
0.0
  0
LINE
  8
0
 62
     0
 10
6.38859
 20
54.1281
 30
0.0
 11
6.03444
 21
54.4823
 31
0.0
  0
LINE
  8
0
 62
     0
 10
6.03444
 20
54.4823
 30
0.0
 11
5.58934
 21
54.7081
 31
0.0
  0
LINE
  8
0
 62
     0
 10
5.58934
 20
54.7081
 30
0.0
 11
5.0946
 21
54.7867
 31
0.0
  0
LINE
  8
0
 62
     0
 10
5.0946
 20
54.7867
 30
0.0
 11
4.5999
 21
54.7081
 31
0.0
  0
ENDSEC
  0
EOF
